<?xml version="1.0" encoding="utf-8" standalone="no"?>
<!DOCTYPE svg PUBLIC "-//W3C//DTD SVG 1.1//EN"
  "http://www.w3.org/Graphics/SVG/1.1/DTD/svg11.dtd">
<!-- Created with matplotlib (https://matplotlib.org/) -->
<svg height="384.085313pt" version="1.1" viewBox="0 0 542.202422 384.085313" width="542.202422pt" xmlns="http://www.w3.org/2000/svg" xmlns:xlink="http://www.w3.org/1999/xlink">
 <metadata>
  <rdf:RDF xmlns:cc="http://creativecommons.org/ns#" xmlns:dc="http://purl.org/dc/elements/1.1/" xmlns:rdf="http://www.w3.org/1999/02/22-rdf-syntax-ns#">
   <cc:Work>
    <dc:type rdf:resource="http://purl.org/dc/dcmitype/StillImage"/>
    <dc:date>2021-01-14T09:59:47.318403</dc:date>
    <dc:format>image/svg+xml</dc:format>
    <dc:creator>
     <cc:Agent>
      <dc:title>Matplotlib v3.3.2, https://matplotlib.org/</dc:title>
     </cc:Agent>
    </dc:creator>
   </cc:Work>
  </rdf:RDF>
 </metadata>
 <defs>
  <style type="text/css">*{stroke-linecap:butt;stroke-linejoin:round;}</style>
 </defs>
 <g id="figure_1">
  <g id="patch_1">
   <path d="M 0 384.085313 
L 542.202422 384.085313 
L 542.202422 0 
L 0 0 
z
" style="fill:#ffffff;"/>
  </g>
  <g id="axes_1">
   <g id="patch_2">
    <path d="M 64.360781 224.64 
L 399.160781 224.64 
L 399.160781 7.2 
L 64.360781 7.2 
z
" style="fill:#ffffff;"/>
   </g>
   <g id="matplotlib.axis_1">
    <g id="xtick_1">
     <g id="line2d_1">
      <path clip-path="url(#p560c110eac)" d="M 79.578963 224.64 
L 79.578963 7.2 
" style="fill:none;stroke:#cccccc;stroke-linecap:round;"/>
     </g>
     <g id="text_1">
      <!-- 0.0 -->
      <g style="fill:#262626;" transform="translate(66.458885 246.677422)scale(0.165 -0.165)">
       <defs>
        <path d="M 31.78125 66.40625 
Q 24.171875 66.40625 20.328125 58.90625 
Q 16.5 51.421875 16.5 36.375 
Q 16.5 21.390625 20.328125 13.890625 
Q 24.171875 6.390625 31.78125 6.390625 
Q 39.453125 6.390625 43.28125 13.890625 
Q 47.125 21.390625 47.125 36.375 
Q 47.125 51.421875 43.28125 58.90625 
Q 39.453125 66.40625 31.78125 66.40625 
z
M 31.78125 74.21875 
Q 44.046875 74.21875 50.515625 64.515625 
Q 56.984375 54.828125 56.984375 36.375 
Q 56.984375 17.96875 50.515625 8.265625 
Q 44.046875 -1.421875 31.78125 -1.421875 
Q 19.53125 -1.421875 13.0625 8.265625 
Q 6.59375 17.96875 6.59375 36.375 
Q 6.59375 54.828125 13.0625 64.515625 
Q 19.53125 74.21875 31.78125 74.21875 
z
" id="DejaVuSans-48"/>
        <path d="M 10.6875 12.40625 
L 21 12.40625 
L 21 0 
L 10.6875 0 
z
" id="DejaVuSans-46"/>
       </defs>
       <use xlink:href="#DejaVuSans-48"/>
       <use x="63.623047" xlink:href="#DejaVuSans-46"/>
       <use x="95.410156" xlink:href="#DejaVuSans-48"/>
      </g>
     </g>
    </g>
    <g id="xtick_2">
     <g id="line2d_2">
      <path clip-path="url(#p560c110eac)" d="M 140.45169 224.64 
L 140.45169 7.2 
" style="fill:none;stroke:#cccccc;stroke-linecap:round;"/>
     </g>
     <g id="text_2">
      <!-- 0.2 -->
      <g style="fill:#262626;" transform="translate(127.331612 246.677422)scale(0.165 -0.165)">
       <defs>
        <path d="M 19.1875 8.296875 
L 53.609375 8.296875 
L 53.609375 0 
L 7.328125 0 
L 7.328125 8.296875 
Q 12.9375 14.109375 22.625 23.890625 
Q 32.328125 33.6875 34.8125 36.53125 
Q 39.546875 41.84375 41.421875 45.53125 
Q 43.3125 49.21875 43.3125 52.78125 
Q 43.3125 58.59375 39.234375 62.25 
Q 35.15625 65.921875 28.609375 65.921875 
Q 23.96875 65.921875 18.8125 64.3125 
Q 13.671875 62.703125 7.8125 59.421875 
L 7.8125 69.390625 
Q 13.765625 71.78125 18.9375 73 
Q 24.125 74.21875 28.421875 74.21875 
Q 39.75 74.21875 46.484375 68.546875 
Q 53.21875 62.890625 53.21875 53.421875 
Q 53.21875 48.921875 51.53125 44.890625 
Q 49.859375 40.875 45.40625 35.40625 
Q 44.1875 33.984375 37.640625 27.21875 
Q 31.109375 20.453125 19.1875 8.296875 
z
" id="DejaVuSans-50"/>
       </defs>
       <use xlink:href="#DejaVuSans-48"/>
       <use x="63.623047" xlink:href="#DejaVuSans-46"/>
       <use x="95.410156" xlink:href="#DejaVuSans-50"/>
      </g>
     </g>
    </g>
    <g id="xtick_3">
     <g id="line2d_3">
      <path clip-path="url(#p560c110eac)" d="M 201.324418 224.64 
L 201.324418 7.2 
" style="fill:none;stroke:#cccccc;stroke-linecap:round;"/>
     </g>
     <g id="text_3">
      <!-- 0.4 -->
      <g style="fill:#262626;" transform="translate(188.204339 246.677422)scale(0.165 -0.165)">
       <defs>
        <path d="M 37.796875 64.3125 
L 12.890625 25.390625 
L 37.796875 25.390625 
z
M 35.203125 72.90625 
L 47.609375 72.90625 
L 47.609375 25.390625 
L 58.015625 25.390625 
L 58.015625 17.1875 
L 47.609375 17.1875 
L 47.609375 0 
L 37.796875 0 
L 37.796875 17.1875 
L 4.890625 17.1875 
L 4.890625 26.703125 
z
" id="DejaVuSans-52"/>
       </defs>
       <use xlink:href="#DejaVuSans-48"/>
       <use x="63.623047" xlink:href="#DejaVuSans-46"/>
       <use x="95.410156" xlink:href="#DejaVuSans-52"/>
      </g>
     </g>
    </g>
    <g id="xtick_4">
     <g id="line2d_4">
      <path clip-path="url(#p560c110eac)" d="M 262.197145 224.64 
L 262.197145 7.2 
" style="fill:none;stroke:#cccccc;stroke-linecap:round;"/>
     </g>
     <g id="text_4">
      <!-- 0.6 -->
      <g style="fill:#262626;" transform="translate(249.077067 246.677422)scale(0.165 -0.165)">
       <defs>
        <path d="M 33.015625 40.375 
Q 26.375 40.375 22.484375 35.828125 
Q 18.609375 31.296875 18.609375 23.390625 
Q 18.609375 15.53125 22.484375 10.953125 
Q 26.375 6.390625 33.015625 6.390625 
Q 39.65625 6.390625 43.53125 10.953125 
Q 47.40625 15.53125 47.40625 23.390625 
Q 47.40625 31.296875 43.53125 35.828125 
Q 39.65625 40.375 33.015625 40.375 
z
M 52.59375 71.296875 
L 52.59375 62.3125 
Q 48.875 64.0625 45.09375 64.984375 
Q 41.3125 65.921875 37.59375 65.921875 
Q 27.828125 65.921875 22.671875 59.328125 
Q 17.53125 52.734375 16.796875 39.40625 
Q 19.671875 43.65625 24.015625 45.921875 
Q 28.375 48.1875 33.59375 48.1875 
Q 44.578125 48.1875 50.953125 41.515625 
Q 57.328125 34.859375 57.328125 23.390625 
Q 57.328125 12.15625 50.6875 5.359375 
Q 44.046875 -1.421875 33.015625 -1.421875 
Q 20.359375 -1.421875 13.671875 8.265625 
Q 6.984375 17.96875 6.984375 36.375 
Q 6.984375 53.65625 15.1875 63.9375 
Q 23.390625 74.21875 37.203125 74.21875 
Q 40.921875 74.21875 44.703125 73.484375 
Q 48.484375 72.75 52.59375 71.296875 
z
" id="DejaVuSans-54"/>
       </defs>
       <use xlink:href="#DejaVuSans-48"/>
       <use x="63.623047" xlink:href="#DejaVuSans-46"/>
       <use x="95.410156" xlink:href="#DejaVuSans-54"/>
      </g>
     </g>
    </g>
    <g id="xtick_5">
     <g id="line2d_5">
      <path clip-path="url(#p560c110eac)" d="M 323.069872 224.64 
L 323.069872 7.2 
" style="fill:none;stroke:#cccccc;stroke-linecap:round;"/>
     </g>
     <g id="text_5">
      <!-- 0.8 -->
      <g style="fill:#262626;" transform="translate(309.949794 246.677422)scale(0.165 -0.165)">
       <defs>
        <path d="M 31.78125 34.625 
Q 24.75 34.625 20.71875 30.859375 
Q 16.703125 27.09375 16.703125 20.515625 
Q 16.703125 13.921875 20.71875 10.15625 
Q 24.75 6.390625 31.78125 6.390625 
Q 38.8125 6.390625 42.859375 10.171875 
Q 46.921875 13.96875 46.921875 20.515625 
Q 46.921875 27.09375 42.890625 30.859375 
Q 38.875 34.625 31.78125 34.625 
z
M 21.921875 38.8125 
Q 15.578125 40.375 12.03125 44.71875 
Q 8.5 49.078125 8.5 55.328125 
Q 8.5 64.0625 14.71875 69.140625 
Q 20.953125 74.21875 31.78125 74.21875 
Q 42.671875 74.21875 48.875 69.140625 
Q 55.078125 64.0625 55.078125 55.328125 
Q 55.078125 49.078125 51.53125 44.71875 
Q 48 40.375 41.703125 38.8125 
Q 48.828125 37.15625 52.796875 32.3125 
Q 56.78125 27.484375 56.78125 20.515625 
Q 56.78125 9.90625 50.3125 4.234375 
Q 43.84375 -1.421875 31.78125 -1.421875 
Q 19.734375 -1.421875 13.25 4.234375 
Q 6.78125 9.90625 6.78125 20.515625 
Q 6.78125 27.484375 10.78125 32.3125 
Q 14.796875 37.15625 21.921875 38.8125 
z
M 18.3125 54.390625 
Q 18.3125 48.734375 21.84375 45.5625 
Q 25.390625 42.390625 31.78125 42.390625 
Q 38.140625 42.390625 41.71875 45.5625 
Q 45.3125 48.734375 45.3125 54.390625 
Q 45.3125 60.0625 41.71875 63.234375 
Q 38.140625 66.40625 31.78125 66.40625 
Q 25.390625 66.40625 21.84375 63.234375 
Q 18.3125 60.0625 18.3125 54.390625 
z
" id="DejaVuSans-56"/>
       </defs>
       <use xlink:href="#DejaVuSans-48"/>
       <use x="63.623047" xlink:href="#DejaVuSans-46"/>
       <use x="95.410156" xlink:href="#DejaVuSans-56"/>
      </g>
     </g>
    </g>
    <g id="xtick_6">
     <g id="line2d_6">
      <path clip-path="url(#p560c110eac)" d="M 383.942599 224.64 
L 383.942599 7.2 
" style="fill:none;stroke:#cccccc;stroke-linecap:round;"/>
     </g>
     <g id="text_6">
      <!-- 1.0 -->
      <g style="fill:#262626;" transform="translate(370.822521 246.677422)scale(0.165 -0.165)">
       <defs>
        <path d="M 12.40625 8.296875 
L 28.515625 8.296875 
L 28.515625 63.921875 
L 10.984375 60.40625 
L 10.984375 69.390625 
L 28.421875 72.90625 
L 38.28125 72.90625 
L 38.28125 8.296875 
L 54.390625 8.296875 
L 54.390625 0 
L 12.40625 0 
z
" id="DejaVuSans-49"/>
       </defs>
       <use xlink:href="#DejaVuSans-49"/>
       <use x="63.623047" xlink:href="#DejaVuSans-46"/>
       <use x="95.410156" xlink:href="#DejaVuSans-48"/>
      </g>
     </g>
    </g>
    <g id="text_7">
     <!-- Recall -->
     <g style="fill:#262626;" transform="translate(204.909844 267.786094)scale(0.18 -0.18)">
      <defs>
       <path d="M 44.390625 34.1875 
Q 47.5625 33.109375 50.5625 29.59375 
Q 53.5625 26.078125 56.59375 19.921875 
L 66.609375 0 
L 56 0 
L 46.6875 18.703125 
Q 43.0625 26.03125 39.671875 28.421875 
Q 36.28125 30.8125 30.421875 30.8125 
L 19.671875 30.8125 
L 19.671875 0 
L 9.8125 0 
L 9.8125 72.90625 
L 32.078125 72.90625 
Q 44.578125 72.90625 50.734375 67.671875 
Q 56.890625 62.453125 56.890625 51.90625 
Q 56.890625 45.015625 53.6875 40.46875 
Q 50.484375 35.9375 44.390625 34.1875 
z
M 19.671875 64.796875 
L 19.671875 38.921875 
L 32.078125 38.921875 
Q 39.203125 38.921875 42.84375 42.21875 
Q 46.484375 45.515625 46.484375 51.90625 
Q 46.484375 58.296875 42.84375 61.546875 
Q 39.203125 64.796875 32.078125 64.796875 
z
" id="DejaVuSans-82"/>
       <path d="M 56.203125 29.59375 
L 56.203125 25.203125 
L 14.890625 25.203125 
Q 15.484375 15.921875 20.484375 11.0625 
Q 25.484375 6.203125 34.421875 6.203125 
Q 39.59375 6.203125 44.453125 7.46875 
Q 49.3125 8.734375 54.109375 11.28125 
L 54.109375 2.78125 
Q 49.265625 0.734375 44.1875 -0.34375 
Q 39.109375 -1.421875 33.890625 -1.421875 
Q 20.796875 -1.421875 13.15625 6.1875 
Q 5.515625 13.8125 5.515625 26.8125 
Q 5.515625 40.234375 12.765625 48.109375 
Q 20.015625 56 32.328125 56 
Q 43.359375 56 49.78125 48.890625 
Q 56.203125 41.796875 56.203125 29.59375 
z
M 47.21875 32.234375 
Q 47.125 39.59375 43.09375 43.984375 
Q 39.0625 48.390625 32.421875 48.390625 
Q 24.90625 48.390625 20.390625 44.140625 
Q 15.875 39.890625 15.1875 32.171875 
z
" id="DejaVuSans-101"/>
       <path d="M 48.78125 52.59375 
L 48.78125 44.1875 
Q 44.96875 46.296875 41.140625 47.34375 
Q 37.3125 48.390625 33.40625 48.390625 
Q 24.65625 48.390625 19.8125 42.84375 
Q 14.984375 37.3125 14.984375 27.296875 
Q 14.984375 17.28125 19.8125 11.734375 
Q 24.65625 6.203125 33.40625 6.203125 
Q 37.3125 6.203125 41.140625 7.25 
Q 44.96875 8.296875 48.78125 10.40625 
L 48.78125 2.09375 
Q 45.015625 0.34375 40.984375 -0.53125 
Q 36.96875 -1.421875 32.421875 -1.421875 
Q 20.0625 -1.421875 12.78125 6.34375 
Q 5.515625 14.109375 5.515625 27.296875 
Q 5.515625 40.671875 12.859375 48.328125 
Q 20.21875 56 33.015625 56 
Q 37.15625 56 41.109375 55.140625 
Q 45.0625 54.296875 48.78125 52.59375 
z
" id="DejaVuSans-99"/>
       <path d="M 34.28125 27.484375 
Q 23.390625 27.484375 19.1875 25 
Q 14.984375 22.515625 14.984375 16.5 
Q 14.984375 11.71875 18.140625 8.90625 
Q 21.296875 6.109375 26.703125 6.109375 
Q 34.1875 6.109375 38.703125 11.40625 
Q 43.21875 16.703125 43.21875 25.484375 
L 43.21875 27.484375 
z
M 52.203125 31.203125 
L 52.203125 0 
L 43.21875 0 
L 43.21875 8.296875 
Q 40.140625 3.328125 35.546875 0.953125 
Q 30.953125 -1.421875 24.3125 -1.421875 
Q 15.921875 -1.421875 10.953125 3.296875 
Q 6 8.015625 6 15.921875 
Q 6 25.140625 12.171875 29.828125 
Q 18.359375 34.515625 30.609375 34.515625 
L 43.21875 34.515625 
L 43.21875 35.40625 
Q 43.21875 41.609375 39.140625 45 
Q 35.0625 48.390625 27.6875 48.390625 
Q 23 48.390625 18.546875 47.265625 
Q 14.109375 46.140625 10.015625 43.890625 
L 10.015625 52.203125 
Q 14.9375 54.109375 19.578125 55.046875 
Q 24.21875 56 28.609375 56 
Q 40.484375 56 46.34375 49.84375 
Q 52.203125 43.703125 52.203125 31.203125 
z
" id="DejaVuSans-97"/>
       <path d="M 9.421875 75.984375 
L 18.40625 75.984375 
L 18.40625 0 
L 9.421875 0 
z
" id="DejaVuSans-108"/>
      </defs>
      <use xlink:href="#DejaVuSans-82"/>
      <use x="64.982422" xlink:href="#DejaVuSans-101"/>
      <use x="126.505859" xlink:href="#DejaVuSans-99"/>
      <use x="181.486328" xlink:href="#DejaVuSans-97"/>
      <use x="242.765625" xlink:href="#DejaVuSans-108"/>
      <use x="270.548828" xlink:href="#DejaVuSans-108"/>
     </g>
    </g>
   </g>
   <g id="matplotlib.axis_2">
    <g id="ytick_1">
     <g id="line2d_7">
      <path clip-path="url(#p560c110eac)" d="M 64.360781 224.64 
L 399.160781 224.64 
" style="fill:none;stroke:#cccccc;stroke-linecap:round;"/>
     </g>
     <g id="text_8">
      <!-- 0.0 -->
      <g style="fill:#262626;" transform="translate(28.620625 230.908711)scale(0.165 -0.165)">
       <use xlink:href="#DejaVuSans-48"/>
       <use x="63.623047" xlink:href="#DejaVuSans-46"/>
       <use x="95.410156" xlink:href="#DejaVuSans-48"/>
      </g>
     </g>
    </g>
    <g id="ytick_2">
     <g id="line2d_8">
      <path clip-path="url(#p560c110eac)" d="M 64.360781 183.222857 
L 399.160781 183.222857 
" style="fill:none;stroke:#cccccc;stroke-linecap:round;"/>
     </g>
     <g id="text_9">
      <!-- 0.2 -->
      <g style="fill:#262626;" transform="translate(28.620625 189.491568)scale(0.165 -0.165)">
       <use xlink:href="#DejaVuSans-48"/>
       <use x="63.623047" xlink:href="#DejaVuSans-46"/>
       <use x="95.410156" xlink:href="#DejaVuSans-50"/>
      </g>
     </g>
    </g>
    <g id="ytick_3">
     <g id="line2d_9">
      <path clip-path="url(#p560c110eac)" d="M 64.360781 141.805714 
L 399.160781 141.805714 
" style="fill:none;stroke:#cccccc;stroke-linecap:round;"/>
     </g>
     <g id="text_10">
      <!-- 0.4 -->
      <g style="fill:#262626;" transform="translate(28.620625 148.074425)scale(0.165 -0.165)">
       <use xlink:href="#DejaVuSans-48"/>
       <use x="63.623047" xlink:href="#DejaVuSans-46"/>
       <use x="95.410156" xlink:href="#DejaVuSans-52"/>
      </g>
     </g>
    </g>
    <g id="ytick_4">
     <g id="line2d_10">
      <path clip-path="url(#p560c110eac)" d="M 64.360781 100.388571 
L 399.160781 100.388571 
" style="fill:none;stroke:#cccccc;stroke-linecap:round;"/>
     </g>
     <g id="text_11">
      <!-- 0.6 -->
      <g style="fill:#262626;" transform="translate(28.620625 106.657282)scale(0.165 -0.165)">
       <use xlink:href="#DejaVuSans-48"/>
       <use x="63.623047" xlink:href="#DejaVuSans-46"/>
       <use x="95.410156" xlink:href="#DejaVuSans-54"/>
      </g>
     </g>
    </g>
    <g id="ytick_5">
     <g id="line2d_11">
      <path clip-path="url(#p560c110eac)" d="M 64.360781 58.971429 
L 399.160781 58.971429 
" style="fill:none;stroke:#cccccc;stroke-linecap:round;"/>
     </g>
     <g id="text_12">
      <!-- 0.8 -->
      <g style="fill:#262626;" transform="translate(28.620625 65.24014)scale(0.165 -0.165)">
       <use xlink:href="#DejaVuSans-48"/>
       <use x="63.623047" xlink:href="#DejaVuSans-46"/>
       <use x="95.410156" xlink:href="#DejaVuSans-56"/>
      </g>
     </g>
    </g>
    <g id="ytick_6">
     <g id="line2d_12">
      <path clip-path="url(#p560c110eac)" d="M 64.360781 17.554286 
L 399.160781 17.554286 
" style="fill:none;stroke:#cccccc;stroke-linecap:round;"/>
     </g>
     <g id="text_13">
      <!-- 1.0 -->
      <g style="fill:#262626;" transform="translate(28.620625 23.822997)scale(0.165 -0.165)">
       <use xlink:href="#DejaVuSans-49"/>
       <use x="63.623047" xlink:href="#DejaVuSans-46"/>
       <use x="95.410156" xlink:href="#DejaVuSans-48"/>
      </g>
     </g>
    </g>
    <g id="text_14">
     <!-- Precision -->
     <g style="fill:#262626;" transform="translate(20.877187 156.072656)rotate(-90)scale(0.18 -0.18)">
      <defs>
       <path d="M 19.671875 64.796875 
L 19.671875 37.40625 
L 32.078125 37.40625 
Q 38.96875 37.40625 42.71875 40.96875 
Q 46.484375 44.53125 46.484375 51.125 
Q 46.484375 57.671875 42.71875 61.234375 
Q 38.96875 64.796875 32.078125 64.796875 
z
M 9.8125 72.90625 
L 32.078125 72.90625 
Q 44.34375 72.90625 50.609375 67.359375 
Q 56.890625 61.8125 56.890625 51.125 
Q 56.890625 40.328125 50.609375 34.8125 
Q 44.34375 29.296875 32.078125 29.296875 
L 19.671875 29.296875 
L 19.671875 0 
L 9.8125 0 
z
" id="DejaVuSans-80"/>
       <path d="M 41.109375 46.296875 
Q 39.59375 47.171875 37.8125 47.578125 
Q 36.03125 48 33.890625 48 
Q 26.265625 48 22.1875 43.046875 
Q 18.109375 38.09375 18.109375 28.8125 
L 18.109375 0 
L 9.078125 0 
L 9.078125 54.6875 
L 18.109375 54.6875 
L 18.109375 46.1875 
Q 20.953125 51.171875 25.484375 53.578125 
Q 30.03125 56 36.53125 56 
Q 37.453125 56 38.578125 55.875 
Q 39.703125 55.765625 41.0625 55.515625 
z
" id="DejaVuSans-114"/>
       <path d="M 9.421875 54.6875 
L 18.40625 54.6875 
L 18.40625 0 
L 9.421875 0 
z
M 9.421875 75.984375 
L 18.40625 75.984375 
L 18.40625 64.59375 
L 9.421875 64.59375 
z
" id="DejaVuSans-105"/>
       <path d="M 44.28125 53.078125 
L 44.28125 44.578125 
Q 40.484375 46.53125 36.375 47.5 
Q 32.28125 48.484375 27.875 48.484375 
Q 21.1875 48.484375 17.84375 46.4375 
Q 14.5 44.390625 14.5 40.28125 
Q 14.5 37.15625 16.890625 35.375 
Q 19.28125 33.59375 26.515625 31.984375 
L 29.59375 31.296875 
Q 39.15625 29.25 43.1875 25.515625 
Q 47.21875 21.78125 47.21875 15.09375 
Q 47.21875 7.46875 41.1875 3.015625 
Q 35.15625 -1.421875 24.609375 -1.421875 
Q 20.21875 -1.421875 15.453125 -0.5625 
Q 10.6875 0.296875 5.421875 2 
L 5.421875 11.28125 
Q 10.40625 8.6875 15.234375 7.390625 
Q 20.0625 6.109375 24.8125 6.109375 
Q 31.15625 6.109375 34.5625 8.28125 
Q 37.984375 10.453125 37.984375 14.40625 
Q 37.984375 18.0625 35.515625 20.015625 
Q 33.0625 21.96875 24.703125 23.78125 
L 21.578125 24.515625 
Q 13.234375 26.265625 9.515625 29.90625 
Q 5.8125 33.546875 5.8125 39.890625 
Q 5.8125 47.609375 11.28125 51.796875 
Q 16.75 56 26.8125 56 
Q 31.78125 56 36.171875 55.265625 
Q 40.578125 54.546875 44.28125 53.078125 
z
" id="DejaVuSans-115"/>
       <path d="M 30.609375 48.390625 
Q 23.390625 48.390625 19.1875 42.75 
Q 14.984375 37.109375 14.984375 27.296875 
Q 14.984375 17.484375 19.15625 11.84375 
Q 23.34375 6.203125 30.609375 6.203125 
Q 37.796875 6.203125 41.984375 11.859375 
Q 46.1875 17.53125 46.1875 27.296875 
Q 46.1875 37.015625 41.984375 42.703125 
Q 37.796875 48.390625 30.609375 48.390625 
z
M 30.609375 56 
Q 42.328125 56 49.015625 48.375 
Q 55.71875 40.765625 55.71875 27.296875 
Q 55.71875 13.875 49.015625 6.21875 
Q 42.328125 -1.421875 30.609375 -1.421875 
Q 18.84375 -1.421875 12.171875 6.21875 
Q 5.515625 13.875 5.515625 27.296875 
Q 5.515625 40.765625 12.171875 48.375 
Q 18.84375 56 30.609375 56 
z
" id="DejaVuSans-111"/>
       <path d="M 54.890625 33.015625 
L 54.890625 0 
L 45.90625 0 
L 45.90625 32.71875 
Q 45.90625 40.484375 42.875 44.328125 
Q 39.84375 48.1875 33.796875 48.1875 
Q 26.515625 48.1875 22.3125 43.546875 
Q 18.109375 38.921875 18.109375 30.90625 
L 18.109375 0 
L 9.078125 0 
L 9.078125 54.6875 
L 18.109375 54.6875 
L 18.109375 46.1875 
Q 21.34375 51.125 25.703125 53.5625 
Q 30.078125 56 35.796875 56 
Q 45.21875 56 50.046875 50.171875 
Q 54.890625 44.34375 54.890625 33.015625 
z
" id="DejaVuSans-110"/>
      </defs>
      <use xlink:href="#DejaVuSans-80"/>
      <use x="58.552734" xlink:href="#DejaVuSans-114"/>
      <use x="97.416016" xlink:href="#DejaVuSans-101"/>
      <use x="158.939453" xlink:href="#DejaVuSans-99"/>
      <use x="213.919922" xlink:href="#DejaVuSans-105"/>
      <use x="241.703125" xlink:href="#DejaVuSans-115"/>
      <use x="293.802734" xlink:href="#DejaVuSans-105"/>
      <use x="321.585938" xlink:href="#DejaVuSans-111"/>
      <use x="382.767578" xlink:href="#DejaVuSans-110"/>
     </g>
    </g>
   </g>
   <g id="line2d_13">
    <path clip-path="url(#p560c110eac)" d="M 79.578963 17.554286 
L 137.223591 17.554286 
L 138.376484 21.536703 
L 138.376484 17.554286 
L 139.529376 21.461563 
L 151.058302 20.841361 
L 157.975657 20.555528 
L 159.12855 23.387686 
L 159.12855 20.512653 
L 160.281442 23.306667 
L 172.963261 22.544303 
L 187.950864 21.868571 
L 190.256649 21.780525 
L 191.409542 23.766857 
L 191.409542 21.737835 
L 192.562434 23.705347 
L 202.938467 23.202078 
L 204.09136 24.950204 
L 204.09136 23.151197 
L 205.244252 24.884753 
L 222.537641 24.025714 
L 243.289707 23.227867 
L 261.735988 22.667513 
L 262.88888 23.867875 
L 262.88888 22.636144 
L 264.041773 23.82961 
L 291.711194 23.032744 
L 309.004583 22.629916 
L 310.157475 24.557184 
L 310.157475 22.605157 
L 311.310368 24.523516 
L 317.074831 24.35992 
L 318.227723 25.259801 
L 318.227723 24.328117 
L 319.380616 25.224127 
L 335.521112 24.757267 
L 336.674004 26.442085 
L 336.674004 24.726085 
L 338.97979 28.039638 
L 338.97979 26.366444 
L 340.132682 28.818362 
L 340.132682 27.995582 
L 342.438467 29.534451 
L 342.438467 28.724884 
L 343.59136 29.48515 
L 344.744252 29.436253 
L 345.897145 30.181463 
L 345.897145 29.387755 
L 347.050037 30.130341 
L 348.20293 30.079631 
L 349.355823 30.807771 
L 349.355823 30.029329 
L 350.508715 30.754969 
L 353.967393 30.599055 
L 355.120285 31.306071 
L 355.120285 30.547899 
L 356.273178 32.745902 
L 356.273178 31.252563 
L 357.426071 33.422923 
L 357.426071 32.687473 
L 358.578963 33.362356 
L 359.731856 36.871983 
L 359.731856 33.302249 
L 360.884748 38.186442 
L 360.884748 36.80017 
L 362.037641 40.145455 
L 362.037641 38.110588 
L 363.190533 40.729943 
L 363.190533 40.063602 
L 364.343426 44.533763 
L 364.343426 40.646578 
L 365.496318 57.895659 
L 365.496318 56.25555 
L 365.496318 44.439098 
L 366.649211 58.838254 
L 366.649211 57.765104 
L 367.802104 60.286259 
L 367.802104 58.705934 
L 368.954996 62.713164 
L 368.954996 60.151031 
L 370.107889 63.074675 
L 370.107889 62.572919 
L 371.260781 104.47329 
L 371.260781 100.486716 
L 371.260781 62.93418 
L 372.413674 105.366142 
L 372.413674 104.27439 
L 373.566566 130.17335 
L 373.566566 127.746684 
L 373.566566 105.167473 
L 374.719459 133.078786 
L 374.719459 130.476691 
L 374.719459 129.972245 
L 375.872351 151.834215 
L 375.872351 149.786233 
L 375.872351 132.879606 
L 377.025244 151.750349 
L 377.025244 151.650773 
L 378.178137 152.355364 
L 378.178137 152.257814 
L 378.178137 151.56752 
L 379.331029 154.165804 
L 379.331029 153.980832 
L 379.331029 152.173936 
L 380.483922 155.787298 
L 380.483922 155.434659 
L 380.483922 153.987227 
L 381.636814 157.240674 
L 381.636814 156.988557 
L 381.636814 155.611429 
L 382.789707 158.139948 
L 382.789707 157.895462 
L 382.789707 157.067366 
L 383.942599 157.968502 
L 383.942599 157.968502 
" style="fill:none;stroke:#000000;stroke-linecap:round;"/>
   </g>
   <g id="line2d_14">
    <path clip-path="url(#p560c110eac)" d="M 79.578963 17.554286 
" style="fill:none;stroke:#6e6e6e;stroke-linecap:round;"/>
   </g>
   <g id="line2d_15">
    <path clip-path="url(#p560c110eac)" d="M 79.578963 17.554286 
L 87.188054 17.554286 
L 94.797145 17.554286 
L 102.406236 17.554286 
L 110.015327 17.554286 
L 117.624418 17.554286 
L 125.233509 17.554286 
L 132.842599 17.554286 
L 140.45169 17.554286 
L 148.060781 17.554286 
L 155.669872 17.554286 
L 163.278963 17.554286 
L 170.888054 17.554286 
L 178.497145 17.554286 
L 186.106236 17.554286 
L 193.715327 17.554286 
L 201.324418 17.554286 
L 208.933509 17.554286 
L 216.542599 17.554286 
L 224.15169 17.554286 
L 231.760781 17.554286 
L 239.369872 17.554286 
L 246.978963 17.554286 
L 254.588054 17.554286 
L 262.197145 17.554286 
L 269.806236 17.554286 
L 277.415327 17.554286 
L 285.024418 17.554286 
L 292.633509 17.554286 
L 300.242599 17.554286 
L 307.85169 17.554286 
L 315.460781 17.554286 
L 323.069872 17.554286 
L 330.678963 17.554286 
L 338.288054 17.554286 
L 345.897145 17.554286 
L 353.506236 17.554286 
L 361.115327 17.554286 
L 368.724418 17.554286 
L 376.333509 22.731429 
L 376.333509 17.554286 
L 383.942599 22.605157 
" style="fill:none;stroke:#b15928;stroke-linecap:round;"/>
   </g>
   <g id="line2d_16">
    <path clip-path="url(#p560c110eac)" d="M 79.578963 224.64 
L 79.578963 224.64 
L 79.578963 224.64 
L 79.578963 17.554286 
L 113.397145 183.222857 
L 113.397145 172.868571 
L 147.215327 155.611429 
L 181.033509 146.982857 
L 181.033509 135.88898 
L 214.85169 155.611429 
L 214.85169 149.336104 
L 214.85169 141.805714 
L 214.85169 132.601905 
L 248.669872 144.991648 
L 282.488054 135.88898 
L 316.306236 148.345263 
L 316.306236 144.106667 
L 316.306236 139.369412 
L 316.306236 134.04 
L 316.306236 128 
L 350.124418 149.336104 
L 350.124418 145.750204 
L 350.124418 141.805714 
L 383.942599 143.60646 
" style="fill:none;stroke:#ffff99;stroke-linecap:round;"/>
   </g>
   <g id="line2d_17">
    <path clip-path="url(#p560c110eac)" d="M 79.578963 17.554286 
L 240.89169 17.554286 
L 242.413509 19.471746 
L 242.413509 17.554286 
L 243.935327 19.454155 
L 289.589872 19.044111 
L 351.984418 18.704762 
L 353.506236 20.949133 
L 353.506236 18.698406 
L 355.028054 20.930683 
L 359.593509 20.876516 
L 361.115327 21.937052 
L 361.115327 20.858845 
L 362.637145 21.913985 
L 367.202599 21.846218 
L 368.724418 23.893644 
L 368.724418 21.824094 
L 370.246236 24.875498 
L 370.246236 23.861465 
L 371.768054 26.82678 
L 371.768054 24.838708 
L 373.289872 27.755552 
L 373.289872 26.780877 
L 374.81169 29.617531 
L 374.81169 27.705546 
L 376.333509 50.580887 
L 376.333509 49.067329 
L 376.333509 29.559255 
L 377.855327 62.2848 
L 377.855327 60.312874 
L 377.855327 50.439142 
L 379.377145 64.656134 
L 379.377145 64.026277 
L 379.377145 62.106591 
L 380.898963 82.761206 
L 380.898963 81.272967 
L 380.898963 64.472143 
L 382.420781 93.814422 
L 382.420781 91.704332 
L 382.420781 82.536355 
L 383.942599 93.573092 
L 383.942599 93.573092 
" style="fill:none;stroke:#6a3d9a;stroke-linecap:round;"/>
   </g>
   <g id="line2d_18">
    <path clip-path="url(#p560c110eac)" d="M 79.578963 17.554286 
L 123.059483 17.554286 
L 130.306236 43.44 
L 130.306236 17.554286 
L 137.552989 40.56381 
L 144.799742 38.262857 
L 152.046496 36.38026 
L 159.293249 34.811429 
L 166.540002 33.483956 
L 173.786755 32.346122 
L 181.033509 31.36 
L 188.280262 41.917311 
L 188.280262 30.497143 
L 195.527015 40.56381 
L 202.773768 48.617143 
L 202.773768 39.352782 
L 210.020522 47.137959 
L 217.267275 45.793247 
L 224.514028 52.068571 
L 224.514028 44.565466 
L 231.760781 50.688 
L 239.007534 49.413626 
L 246.254288 60.399606 
L 246.254288 48.233651 
L 253.501041 58.971429 
L 260.747794 57.635392 
L 267.994547 75.078095 
L 267.994547 56.382857 
L 275.241301 94.609435 
L 275.241301 73.523398 
L 282.488054 115.236226 
L 282.488054 92.858182 
L 289.734807 113.427302 
L 296.98156 121.097143 
L 296.98156 111.684156 
L 304.228314 125.876044 
L 304.228314 119.399719 
L 311.475067 180.754286 
L 311.475067 179.86471 
L 311.475067 124.234805 
L 318.72182 180.26449 
L 318.72182 179.680602 
L 325.968573 180.35752 
L 325.968573 179.214747 
L 333.215327 192.282857 
L 333.215327 192.137758 
L 333.215327 179.34 
L 340.46208 202.319384 
L 340.46208 201.980165 
L 340.46208 191.506286 
L 347.708833 201.903586 
L 347.708833 201.767846 
L 354.955586 207.716866 
L 354.955586 207.606976 
L 354.955586 201.358174 
L 362.20234 209.430315 
L 362.20234 209.285736 
L 362.20234 207.308792 
L 369.449093 211.595231 
L 369.449093 211.470797 
L 369.449093 209.069646 
L 376.695846 213.166332 
L 376.695846 213.040937 
L 376.695846 211.290135 
L 383.942599 212.902348 
L 383.942599 212.902348 
" style="fill:none;stroke:#cab2d6;stroke-linecap:round;"/>
   </g>
   <g id="line2d_19">
    <path clip-path="url(#p560c110eac)" d="M 79.578963 17.554286 
L 271.460386 17.554286 
L 278.076987 24.23447 
L 278.076987 17.554286 
L 284.693588 24.025714 
L 291.310188 23.82961 
L 297.926789 29.387755 
L 297.926789 23.645042 
L 304.54339 29.059048 
L 324.393192 28.174066 
L 331.009793 37.276735 
L 331.009793 27.908571 
L 337.626394 45.165714 
L 337.626394 36.818073 
L 344.242995 158.372571 
L 344.242995 156.743044 
L 344.242995 44.565466 
L 350.859595 161.747302 
L 350.859595 159.826914 
L 350.859595 157.254966 
L 357.476196 167.792941 
L 357.476196 160.687059 
L 364.092797 172.565815 
L 364.092797 166.817365 
L 370.709398 176.429569 
L 370.709398 171.664585 
L 377.325999 201.107532 
L 377.325999 200.622327 
L 377.325999 175.593383 
L 383.942599 200.645182 
L 383.942599 200.645182 
" style="fill:none;stroke:#ff7f00;stroke-linecap:round;"/>
   </g>
   <g id="line2d_20">
    <path clip-path="url(#p560c110eac)" d="M 79.578963 17.554286 
" style="fill:none;stroke:#fdbf6f;stroke-linecap:round;"/>
   </g>
   <g id="line2d_21">
    <path clip-path="url(#p560c110eac)" d="M 79.578963 17.554286 
L 291.711194 17.554286 
L 319.380616 17.554286 
L 337.826897 17.554286 
L 347.050037 17.554286 
L 351.661608 17.554286 
L 356.273178 17.554286 
L 360.884748 17.554286 
L 365.496318 17.554286 
L 370.107889 17.554286 
L 374.719459 17.554286 
L 379.331029 17.554286 
L 383.942599 17.554286 
" style="fill:none;stroke:#e31a1c;stroke-linecap:round;"/>
   </g>
   <g id="line2d_22">
    <path clip-path="url(#p560c110eac)" d="M 79.578963 17.554286 
" style="fill:none;stroke:#fb9a99;stroke-linecap:round;"/>
   </g>
   <g id="line2d_23">
    <path clip-path="url(#p560c110eac)" d="M 79.578963 17.554286 
" style="fill:none;stroke:#33a02c;stroke-linecap:round;"/>
   </g>
   <g id="line2d_24">
    <path clip-path="url(#p560c110eac)" d="M 79.578963 17.554286 
L 383.942599 17.554286 
L 383.942599 17.554286 
" style="fill:none;stroke:#b2df8a;stroke-linecap:round;"/>
   </g>
   <g id="line2d_25">
    <path clip-path="url(#p560c110eac)" d="M 79.578963 17.554286 
L 285.230069 17.554286 
L 289.343091 25.368841 
L 289.343091 17.554286 
L 293.456113 25.224127 
L 322.247268 24.343981 
L 326.36029 27.41551 
L 326.36029 24.23447 
L 330.473312 27.261429 
L 334.586334 30.104935 
L 334.586334 27.112088 
L 338.699356 40.887887 
L 338.699356 29.917612 
L 342.812378 43.085401 
L 342.812378 40.56381 
L 346.9254 45.165714 
L 346.9254 42.740386 
L 351.038423 47.137959 
L 351.038423 44.802406 
L 355.151445 51.205714 
L 355.151445 46.758681 
L 359.264467 52.910383 
L 359.264467 50.790265 
L 363.377489 54.533878 
L 363.377489 52.484406 
L 367.490511 58.01931 
L 367.490511 54.098824 
L 371.603533 89.749305 
L 371.603533 57.559481 
L 375.716555 93.849023 
L 375.716555 89.092987 
L 379.829577 153.332183 
L 379.829577 151.609772 
L 379.829577 93.18559 
L 383.942599 152.694728 
L 383.942599 152.694728 
" style="fill:none;stroke:#a6cee3;stroke-linecap:round;"/>
   </g>
   <g id="line2d_26">
    <path clip-path="url(#p560c110eac)" d="M 79.578963 17.554286 
" style="fill:none;stroke:#1f78b4;stroke-linecap:round;"/>
   </g>
   <g id="line2d_27"/>
   <g id="line2d_28"/>
   <g id="line2d_29"/>
   <g id="line2d_30"/>
   <g id="line2d_31"/>
   <g id="line2d_32"/>
   <g id="line2d_33"/>
   <g id="line2d_34"/>
   <g id="line2d_35"/>
   <g id="line2d_36"/>
   <g id="line2d_37"/>
   <g id="line2d_38"/>
   <g id="line2d_39"/>
   <g id="line2d_40"/>
   <g id="patch_3">
    <path d="M 64.360781 224.64 
L 64.360781 7.2 
" style="fill:none;stroke:#ffffff;stroke-linecap:square;stroke-linejoin:miter;stroke-width:1.25;"/>
   </g>
   <g id="patch_4">
    <path d="M 399.160781 224.64 
L 399.160781 7.2 
" style="fill:none;stroke:#ffffff;stroke-linecap:square;stroke-linejoin:miter;stroke-width:1.25;"/>
   </g>
   <g id="patch_5">
    <path d="M 64.360781 224.64 
L 399.160781 224.64 
" style="fill:none;stroke:#ffffff;stroke-linecap:square;stroke-linejoin:miter;stroke-width:1.25;"/>
   </g>
   <g id="patch_6">
    <path d="M 64.360781 7.2 
L 399.160781 7.2 
" style="fill:none;stroke:#ffffff;stroke-linecap:square;stroke-linejoin:miter;stroke-width:1.25;"/>
   </g>
   <g id="legend_1">
    <g id="patch_7">
     <path d="M 419.200781 376.885313 
L 531.702422 376.885313 
Q 535.002422 376.885313 535.002422 373.585313 
L 535.002422 10.5 
Q 535.002422 7.2 531.702422 7.2 
L 419.200781 7.2 
Q 415.900781 7.2 415.900781 10.5 
L 415.900781 373.585313 
Q 415.900781 376.885313 419.200781 376.885313 
z
" style="fill:#ffffff;opacity:0.8;stroke:#cccccc;stroke-linejoin:miter;"/>
    </g>
    <g id="text_15">
     <!-- Class -->
     <g style="fill:#262626;" transform="translate(451.77457 27.477187)scale(0.18 -0.18)">
      <defs>
       <path d="M 64.40625 67.28125 
L 64.40625 56.890625 
Q 59.421875 61.53125 53.78125 63.8125 
Q 48.140625 66.109375 41.796875 66.109375 
Q 29.296875 66.109375 22.65625 58.46875 
Q 16.015625 50.828125 16.015625 36.375 
Q 16.015625 21.96875 22.65625 14.328125 
Q 29.296875 6.6875 41.796875 6.6875 
Q 48.140625 6.6875 53.78125 8.984375 
Q 59.421875 11.28125 64.40625 15.921875 
L 64.40625 5.609375 
Q 59.234375 2.09375 53.4375 0.328125 
Q 47.65625 -1.421875 41.21875 -1.421875 
Q 24.65625 -1.421875 15.125 8.703125 
Q 5.609375 18.84375 5.609375 36.375 
Q 5.609375 53.953125 15.125 64.078125 
Q 24.65625 74.21875 41.21875 74.21875 
Q 47.75 74.21875 53.53125 72.484375 
Q 59.328125 70.75 64.40625 67.28125 
z
" id="DejaVuSans-67"/>
      </defs>
      <use xlink:href="#DejaVuSans-67"/>
      <use x="69.824219" xlink:href="#DejaVuSans-108"/>
      <use x="97.607422" xlink:href="#DejaVuSans-97"/>
      <use x="158.886719" xlink:href="#DejaVuSans-115"/>
      <use x="210.986328" xlink:href="#DejaVuSans-115"/>
     </g>
    </g>
    <g id="line2d_41">
     <path d="M 422.500781 46.233047 
L 455.500781 46.233047 
" style="fill:none;stroke:#000000;stroke-linecap:round;stroke-width:1.5;"/>
    </g>
    <g id="line2d_42"/>
    <g id="text_16">
     <!-- Normal -->
     <g style="fill:#262626;" transform="translate(468.700781 52.008047)scale(0.165 -0.165)">
      <defs>
       <path d="M 9.8125 72.90625 
L 23.09375 72.90625 
L 55.421875 11.921875 
L 55.421875 72.90625 
L 64.984375 72.90625 
L 64.984375 0 
L 51.703125 0 
L 19.390625 60.984375 
L 19.390625 0 
L 9.8125 0 
z
" id="DejaVuSans-78"/>
       <path d="M 52 44.1875 
Q 55.375 50.25 60.0625 53.125 
Q 64.75 56 71.09375 56 
Q 79.640625 56 84.28125 50.015625 
Q 88.921875 44.046875 88.921875 33.015625 
L 88.921875 0 
L 79.890625 0 
L 79.890625 32.71875 
Q 79.890625 40.578125 77.09375 44.375 
Q 74.3125 48.1875 68.609375 48.1875 
Q 61.625 48.1875 57.5625 43.546875 
Q 53.515625 38.921875 53.515625 30.90625 
L 53.515625 0 
L 44.484375 0 
L 44.484375 32.71875 
Q 44.484375 40.625 41.703125 44.40625 
Q 38.921875 48.1875 33.109375 48.1875 
Q 26.21875 48.1875 22.15625 43.53125 
Q 18.109375 38.875 18.109375 30.90625 
L 18.109375 0 
L 9.078125 0 
L 9.078125 54.6875 
L 18.109375 54.6875 
L 18.109375 46.1875 
Q 21.1875 51.21875 25.484375 53.609375 
Q 29.78125 56 35.6875 56 
Q 41.65625 56 45.828125 52.96875 
Q 50 49.953125 52 44.1875 
z
" id="DejaVuSans-109"/>
      </defs>
      <use xlink:href="#DejaVuSans-78"/>
      <use x="74.804688" xlink:href="#DejaVuSans-111"/>
      <use x="135.986328" xlink:href="#DejaVuSans-114"/>
      <use x="175.349609" xlink:href="#DejaVuSans-109"/>
      <use x="272.761719" xlink:href="#DejaVuSans-97"/>
      <use x="334.041016" xlink:href="#DejaVuSans-108"/>
     </g>
    </g>
    <g id="line2d_43">
     <path d="M 422.500781 70.451953 
L 455.500781 70.451953 
" style="fill:none;stroke:#6e6e6e;stroke-linecap:round;stroke-width:1.5;"/>
    </g>
    <g id="line2d_44"/>
    <g id="text_17">
     <!-- BLCA -->
     <g style="fill:#262626;" transform="translate(468.700781 76.226953)scale(0.165 -0.165)">
      <defs>
       <path d="M 19.671875 34.8125 
L 19.671875 8.109375 
L 35.5 8.109375 
Q 43.453125 8.109375 47.28125 11.40625 
Q 51.125 14.703125 51.125 21.484375 
Q 51.125 28.328125 47.28125 31.5625 
Q 43.453125 34.8125 35.5 34.8125 
z
M 19.671875 64.796875 
L 19.671875 42.828125 
L 34.28125 42.828125 
Q 41.5 42.828125 45.03125 45.53125 
Q 48.578125 48.25 48.578125 53.8125 
Q 48.578125 59.328125 45.03125 62.0625 
Q 41.5 64.796875 34.28125 64.796875 
z
M 9.8125 72.90625 
L 35.015625 72.90625 
Q 46.296875 72.90625 52.390625 68.21875 
Q 58.5 63.53125 58.5 54.890625 
Q 58.5 48.1875 55.375 44.234375 
Q 52.25 40.28125 46.1875 39.3125 
Q 53.46875 37.75 57.5 32.78125 
Q 61.53125 27.828125 61.53125 20.40625 
Q 61.53125 10.640625 54.890625 5.3125 
Q 48.25 0 35.984375 0 
L 9.8125 0 
z
" id="DejaVuSans-66"/>
       <path d="M 9.8125 72.90625 
L 19.671875 72.90625 
L 19.671875 8.296875 
L 55.171875 8.296875 
L 55.171875 0 
L 9.8125 0 
z
" id="DejaVuSans-76"/>
       <path d="M 34.1875 63.1875 
L 20.796875 26.90625 
L 47.609375 26.90625 
z
M 28.609375 72.90625 
L 39.796875 72.90625 
L 67.578125 0 
L 57.328125 0 
L 50.6875 18.703125 
L 17.828125 18.703125 
L 11.1875 0 
L 0.78125 0 
z
" id="DejaVuSans-65"/>
      </defs>
      <use xlink:href="#DejaVuSans-66"/>
      <use x="68.603516" xlink:href="#DejaVuSans-76"/>
      <use x="124.316406" xlink:href="#DejaVuSans-67"/>
      <use x="194.140625" xlink:href="#DejaVuSans-65"/>
     </g>
    </g>
    <g id="line2d_45">
     <path d="M 422.500781 94.670859 
L 455.500781 94.670859 
" style="fill:none;stroke:#b15928;stroke-linecap:round;stroke-width:1.5;"/>
    </g>
    <g id="line2d_46"/>
    <g id="text_18">
     <!-- BRCA -->
     <g style="fill:#262626;" transform="translate(468.700781 100.445859)scale(0.165 -0.165)">
      <use xlink:href="#DejaVuSans-66"/>
      <use x="68.603516" xlink:href="#DejaVuSans-82"/>
      <use x="133.085938" xlink:href="#DejaVuSans-67"/>
      <use x="202.910156" xlink:href="#DejaVuSans-65"/>
     </g>
    </g>
    <g id="line2d_47">
     <path d="M 422.500781 118.889766 
L 455.500781 118.889766 
" style="fill:none;stroke:#ffff99;stroke-linecap:round;stroke-width:1.5;"/>
    </g>
    <g id="line2d_48"/>
    <g id="text_19">
     <!-- COAD -->
     <g style="fill:#262626;" transform="translate(468.700781 124.664766)scale(0.165 -0.165)">
      <defs>
       <path d="M 39.40625 66.21875 
Q 28.65625 66.21875 22.328125 58.203125 
Q 16.015625 50.203125 16.015625 36.375 
Q 16.015625 22.609375 22.328125 14.59375 
Q 28.65625 6.59375 39.40625 6.59375 
Q 50.140625 6.59375 56.421875 14.59375 
Q 62.703125 22.609375 62.703125 36.375 
Q 62.703125 50.203125 56.421875 58.203125 
Q 50.140625 66.21875 39.40625 66.21875 
z
M 39.40625 74.21875 
Q 54.734375 74.21875 63.90625 63.9375 
Q 73.09375 53.65625 73.09375 36.375 
Q 73.09375 19.140625 63.90625 8.859375 
Q 54.734375 -1.421875 39.40625 -1.421875 
Q 24.03125 -1.421875 14.8125 8.828125 
Q 5.609375 19.09375 5.609375 36.375 
Q 5.609375 53.65625 14.8125 63.9375 
Q 24.03125 74.21875 39.40625 74.21875 
z
" id="DejaVuSans-79"/>
       <path d="M 19.671875 64.796875 
L 19.671875 8.109375 
L 31.59375 8.109375 
Q 46.6875 8.109375 53.6875 14.9375 
Q 60.6875 21.78125 60.6875 36.53125 
Q 60.6875 51.171875 53.6875 57.984375 
Q 46.6875 64.796875 31.59375 64.796875 
z
M 9.8125 72.90625 
L 30.078125 72.90625 
Q 51.265625 72.90625 61.171875 64.09375 
Q 71.09375 55.28125 71.09375 36.53125 
Q 71.09375 17.671875 61.125 8.828125 
Q 51.171875 0 30.078125 0 
L 9.8125 0 
z
" id="DejaVuSans-68"/>
      </defs>
      <use xlink:href="#DejaVuSans-67"/>
      <use x="69.824219" xlink:href="#DejaVuSans-79"/>
      <use x="146.785156" xlink:href="#DejaVuSans-65"/>
      <use x="215.193359" xlink:href="#DejaVuSans-68"/>
     </g>
    </g>
    <g id="line2d_49">
     <path d="M 422.500781 143.108672 
L 455.500781 143.108672 
" style="fill:none;stroke:#6a3d9a;stroke-linecap:round;stroke-width:1.5;"/>
    </g>
    <g id="line2d_50"/>
    <g id="text_20">
     <!-- ESCA -->
     <g style="fill:#262626;" transform="translate(468.700781 148.883672)scale(0.165 -0.165)">
      <defs>
       <path d="M 9.8125 72.90625 
L 55.90625 72.90625 
L 55.90625 64.59375 
L 19.671875 64.59375 
L 19.671875 43.015625 
L 54.390625 43.015625 
L 54.390625 34.71875 
L 19.671875 34.71875 
L 19.671875 8.296875 
L 56.78125 8.296875 
L 56.78125 0 
L 9.8125 0 
z
" id="DejaVuSans-69"/>
       <path d="M 53.515625 70.515625 
L 53.515625 60.890625 
Q 47.90625 63.578125 42.921875 64.890625 
Q 37.9375 66.21875 33.296875 66.21875 
Q 25.25 66.21875 20.875 63.09375 
Q 16.5 59.96875 16.5 54.203125 
Q 16.5 49.359375 19.40625 46.890625 
Q 22.3125 44.4375 30.421875 42.921875 
L 36.375 41.703125 
Q 47.40625 39.59375 52.65625 34.296875 
Q 57.90625 29 57.90625 20.125 
Q 57.90625 9.515625 50.796875 4.046875 
Q 43.703125 -1.421875 29.984375 -1.421875 
Q 24.8125 -1.421875 18.96875 -0.25 
Q 13.140625 0.921875 6.890625 3.21875 
L 6.890625 13.375 
Q 12.890625 10.015625 18.65625 8.296875 
Q 24.421875 6.59375 29.984375 6.59375 
Q 38.421875 6.59375 43.015625 9.90625 
Q 47.609375 13.234375 47.609375 19.390625 
Q 47.609375 24.75 44.3125 27.78125 
Q 41.015625 30.8125 33.5 32.328125 
L 27.484375 33.5 
Q 16.453125 35.6875 11.515625 40.375 
Q 6.59375 45.0625 6.59375 53.421875 
Q 6.59375 63.09375 13.40625 68.65625 
Q 20.21875 74.21875 32.171875 74.21875 
Q 37.3125 74.21875 42.625 73.28125 
Q 47.953125 72.359375 53.515625 70.515625 
z
" id="DejaVuSans-83"/>
      </defs>
      <use xlink:href="#DejaVuSans-69"/>
      <use x="63.183594" xlink:href="#DejaVuSans-83"/>
      <use x="126.660156" xlink:href="#DejaVuSans-67"/>
      <use x="196.484375" xlink:href="#DejaVuSans-65"/>
     </g>
    </g>
    <g id="line2d_51">
     <path d="M 422.500781 167.327578 
L 455.500781 167.327578 
" style="fill:none;stroke:#cab2d6;stroke-linecap:round;stroke-width:1.5;"/>
    </g>
    <g id="line2d_52"/>
    <g id="text_21">
     <!-- HNSC -->
     <g style="fill:#262626;" transform="translate(468.700781 173.102578)scale(0.165 -0.165)">
      <defs>
       <path d="M 9.8125 72.90625 
L 19.671875 72.90625 
L 19.671875 43.015625 
L 55.515625 43.015625 
L 55.515625 72.90625 
L 65.375 72.90625 
L 65.375 0 
L 55.515625 0 
L 55.515625 34.71875 
L 19.671875 34.71875 
L 19.671875 0 
L 9.8125 0 
z
" id="DejaVuSans-72"/>
      </defs>
      <use xlink:href="#DejaVuSans-72"/>
      <use x="75.195312" xlink:href="#DejaVuSans-78"/>
      <use x="150" xlink:href="#DejaVuSans-83"/>
      <use x="213.476562" xlink:href="#DejaVuSans-67"/>
     </g>
    </g>
    <g id="line2d_53">
     <path d="M 422.500781 191.546484 
L 455.500781 191.546484 
" style="fill:none;stroke:#ff7f00;stroke-linecap:round;stroke-width:1.5;"/>
    </g>
    <g id="line2d_54"/>
    <g id="text_22">
     <!-- KIRC -->
     <g style="fill:#262626;" transform="translate(468.700781 197.321484)scale(0.165 -0.165)">
      <defs>
       <path d="M 9.8125 72.90625 
L 19.671875 72.90625 
L 19.671875 42.09375 
L 52.390625 72.90625 
L 65.09375 72.90625 
L 28.90625 38.921875 
L 67.671875 0 
L 54.6875 0 
L 19.671875 35.109375 
L 19.671875 0 
L 9.8125 0 
z
" id="DejaVuSans-75"/>
       <path d="M 9.8125 72.90625 
L 19.671875 72.90625 
L 19.671875 0 
L 9.8125 0 
z
" id="DejaVuSans-73"/>
      </defs>
      <use xlink:href="#DejaVuSans-75"/>
      <use x="65.576172" xlink:href="#DejaVuSans-73"/>
      <use x="95.068359" xlink:href="#DejaVuSans-82"/>
      <use x="159.550781" xlink:href="#DejaVuSans-67"/>
     </g>
    </g>
    <g id="line2d_55">
     <path d="M 422.500781 215.765391 
L 455.500781 215.765391 
" style="fill:none;stroke:#fdbf6f;stroke-linecap:round;stroke-width:1.5;"/>
    </g>
    <g id="line2d_56"/>
    <g id="text_23">
     <!-- KIRP -->
     <g style="fill:#262626;" transform="translate(468.700781 221.540391)scale(0.165 -0.165)">
      <use xlink:href="#DejaVuSans-75"/>
      <use x="65.576172" xlink:href="#DejaVuSans-73"/>
      <use x="95.068359" xlink:href="#DejaVuSans-82"/>
      <use x="164.550781" xlink:href="#DejaVuSans-80"/>
     </g>
    </g>
    <g id="line2d_57">
     <path d="M 422.500781 239.984297 
L 455.500781 239.984297 
" style="fill:none;stroke:#e31a1c;stroke-linecap:round;stroke-width:1.5;"/>
    </g>
    <g id="line2d_58"/>
    <g id="text_24">
     <!-- LIHC -->
     <g style="fill:#262626;" transform="translate(468.700781 245.759297)scale(0.165 -0.165)">
      <use xlink:href="#DejaVuSans-76"/>
      <use x="55.712891" xlink:href="#DejaVuSans-73"/>
      <use x="85.205078" xlink:href="#DejaVuSans-72"/>
      <use x="160.400391" xlink:href="#DejaVuSans-67"/>
     </g>
    </g>
    <g id="line2d_59">
     <path d="M 422.500781 264.203203 
L 455.500781 264.203203 
" style="fill:none;stroke:#fb9a99;stroke-linecap:round;stroke-width:1.5;"/>
    </g>
    <g id="line2d_60"/>
    <g id="text_25">
     <!-- LUAD -->
     <g style="fill:#262626;" transform="translate(468.700781 269.978203)scale(0.165 -0.165)">
      <defs>
       <path d="M 8.6875 72.90625 
L 18.609375 72.90625 
L 18.609375 28.609375 
Q 18.609375 16.890625 22.84375 11.734375 
Q 27.09375 6.59375 36.625 6.59375 
Q 46.09375 6.59375 50.34375 11.734375 
Q 54.59375 16.890625 54.59375 28.609375 
L 54.59375 72.90625 
L 64.5 72.90625 
L 64.5 27.390625 
Q 64.5 13.140625 57.4375 5.859375 
Q 50.390625 -1.421875 36.625 -1.421875 
Q 22.796875 -1.421875 15.734375 5.859375 
Q 8.6875 13.140625 8.6875 27.390625 
z
" id="DejaVuSans-85"/>
      </defs>
      <use xlink:href="#DejaVuSans-76"/>
      <use x="50.712891" xlink:href="#DejaVuSans-85"/>
      <use x="123.90625" xlink:href="#DejaVuSans-65"/>
      <use x="192.314453" xlink:href="#DejaVuSans-68"/>
     </g>
    </g>
    <g id="line2d_61">
     <path d="M 422.500781 288.422109 
L 455.500781 288.422109 
" style="fill:none;stroke:#33a02c;stroke-linecap:round;stroke-width:1.5;"/>
    </g>
    <g id="line2d_62"/>
    <g id="text_26">
     <!-- LUSC -->
     <g style="fill:#262626;" transform="translate(468.700781 294.197109)scale(0.165 -0.165)">
      <use xlink:href="#DejaVuSans-76"/>
      <use x="50.712891" xlink:href="#DejaVuSans-85"/>
      <use x="123.90625" xlink:href="#DejaVuSans-83"/>
      <use x="187.382812" xlink:href="#DejaVuSans-67"/>
     </g>
    </g>
    <g id="line2d_63">
     <path d="M 422.500781 312.641016 
L 455.500781 312.641016 
" style="fill:none;stroke:#b2df8a;stroke-linecap:round;stroke-width:1.5;"/>
    </g>
    <g id="line2d_64"/>
    <g id="text_27">
     <!-- PRAD -->
     <g style="fill:#262626;" transform="translate(468.700781 318.416016)scale(0.165 -0.165)">
      <use xlink:href="#DejaVuSans-80"/>
      <use x="60.302734" xlink:href="#DejaVuSans-82"/>
      <use x="125.785156" xlink:href="#DejaVuSans-65"/>
      <use x="194.193359" xlink:href="#DejaVuSans-68"/>
     </g>
    </g>
    <g id="line2d_65">
     <path d="M 422.500781 336.859922 
L 455.500781 336.859922 
" style="fill:none;stroke:#a6cee3;stroke-linecap:round;stroke-width:1.5;"/>
    </g>
    <g id="line2d_66"/>
    <g id="text_28">
     <!-- THCA -->
     <g style="fill:#262626;" transform="translate(468.700781 342.634922)scale(0.165 -0.165)">
      <defs>
       <path d="M -0.296875 72.90625 
L 61.375 72.90625 
L 61.375 64.59375 
L 35.5 64.59375 
L 35.5 0 
L 25.59375 0 
L 25.59375 64.59375 
L -0.296875 64.59375 
z
" id="DejaVuSans-84"/>
      </defs>
      <use xlink:href="#DejaVuSans-84"/>
      <use x="61.083984" xlink:href="#DejaVuSans-72"/>
      <use x="136.279297" xlink:href="#DejaVuSans-67"/>
      <use x="206.103516" xlink:href="#DejaVuSans-65"/>
     </g>
    </g>
    <g id="line2d_67">
     <path d="M 422.500781 361.078828 
L 455.500781 361.078828 
" style="fill:none;stroke:#1f78b4;stroke-linecap:round;stroke-width:1.5;"/>
    </g>
    <g id="line2d_68"/>
    <g id="text_29">
     <!-- UCEC -->
     <g style="fill:#262626;" transform="translate(468.700781 366.853828)scale(0.165 -0.165)">
      <use xlink:href="#DejaVuSans-85"/>
      <use x="73.193359" xlink:href="#DejaVuSans-67"/>
      <use x="143.017578" xlink:href="#DejaVuSans-69"/>
      <use x="206.201172" xlink:href="#DejaVuSans-67"/>
     </g>
    </g>
   </g>
  </g>
 </g>
 <defs>
  <clipPath id="p560c110eac">
   <rect height="217.44" width="334.8" x="64.360781" y="7.2"/>
  </clipPath>
 </defs>
</svg>
