<?xml version="1.0" encoding="utf-8" standalone="no"?>
<!DOCTYPE svg PUBLIC "-//W3C//DTD SVG 1.1//EN"
  "http://www.w3.org/Graphics/SVG/1.1/DTD/svg11.dtd">
<!-- Created with matplotlib (https://matplotlib.org/) -->
<svg height="396.679388pt" version="1.1" viewBox="0 0 626.30125 396.679388" width="626.30125pt" xmlns="http://www.w3.org/2000/svg" xmlns:xlink="http://www.w3.org/1999/xlink">
 <defs>
  <style type="text/css">
*{stroke-linecap:butt;stroke-linejoin:round;white-space:pre;}
  </style>
 </defs>
 <g id="figure_1">
  <g id="patch_1">
   <path d="M 0 396.679388 
L 626.30125 396.679388 
L 626.30125 0 
L 0 0 
z
" style="fill:#ffffff;"/>
  </g>
  <g id="axes_1">
   <g id="patch_2">
    <path d="M 43.78125 333.36 
L 490.18125 333.36 
L 490.18125 7.2 
L 43.78125 7.2 
z
" style="fill:#ffffff;"/>
   </g>
   <g id="PathCollection_1"/>
   <g id="PathCollection_2"/>
   <g id="PathCollection_3"/>
   <g id="PathCollection_4"/>
   <g id="PathCollection_5"/>
   <g id="PathCollection_6"/>
   <g id="PathCollection_7"/>
   <g id="PathCollection_8"/>
   <g id="PathCollection_9"/>
   <g id="PathCollection_10"/>
   <g id="PathCollection_11"/>
   <g id="PathCollection_12"/>
   <g id="PathCollection_13"/>
   <g id="PathCollection_14"/>
   <g id="matplotlib.axis_1">
    <g id="xtick_1">
     <g id="line2d_1">
      <defs>
       <path d="M 0 0 
L 0 3.5 
" id="m0d2223aea7" style="stroke:#000000;stroke-width:0.8;"/>
      </defs>
      <g>
       <use style="stroke:#000000;stroke-width:0.8;" x="66.10125" xlink:href="#m0d2223aea7" y="333.36"/>
      </g>
     </g>
     <g id="text_1">
      <!-- before_gene -->
      <defs>
       <path d="M 48.6875 27.296875 
Q 48.6875 37.203125 44.609375 42.84375 
Q 40.53125 48.484375 33.40625 48.484375 
Q 26.265625 48.484375 22.1875 42.84375 
Q 18.109375 37.203125 18.109375 27.296875 
Q 18.109375 17.390625 22.1875 11.75 
Q 26.265625 6.109375 33.40625 6.109375 
Q 40.53125 6.109375 44.609375 11.75 
Q 48.6875 17.390625 48.6875 27.296875 
z
M 18.109375 46.390625 
Q 20.953125 51.265625 25.265625 53.625 
Q 29.59375 56 35.59375 56 
Q 45.5625 56 51.78125 48.09375 
Q 58.015625 40.1875 58.015625 27.296875 
Q 58.015625 14.40625 51.78125 6.484375 
Q 45.5625 -1.421875 35.59375 -1.421875 
Q 29.59375 -1.421875 25.265625 0.953125 
Q 20.953125 3.328125 18.109375 8.203125 
L 18.109375 0 
L 9.078125 0 
L 9.078125 75.984375 
L 18.109375 75.984375 
z
" id="DejaVuSans-98"/>
       <path d="M 56.203125 29.59375 
L 56.203125 25.203125 
L 14.890625 25.203125 
Q 15.484375 15.921875 20.484375 11.0625 
Q 25.484375 6.203125 34.421875 6.203125 
Q 39.59375 6.203125 44.453125 7.46875 
Q 49.3125 8.734375 54.109375 11.28125 
L 54.109375 2.78125 
Q 49.265625 0.734375 44.1875 -0.34375 
Q 39.109375 -1.421875 33.890625 -1.421875 
Q 20.796875 -1.421875 13.15625 6.1875 
Q 5.515625 13.8125 5.515625 26.8125 
Q 5.515625 40.234375 12.765625 48.109375 
Q 20.015625 56 32.328125 56 
Q 43.359375 56 49.78125 48.890625 
Q 56.203125 41.796875 56.203125 29.59375 
z
M 47.21875 32.234375 
Q 47.125 39.59375 43.09375 43.984375 
Q 39.0625 48.390625 32.421875 48.390625 
Q 24.90625 48.390625 20.390625 44.140625 
Q 15.875 39.890625 15.1875 32.171875 
z
" id="DejaVuSans-101"/>
       <path d="M 37.109375 75.984375 
L 37.109375 68.5 
L 28.515625 68.5 
Q 23.6875 68.5 21.796875 66.546875 
Q 19.921875 64.59375 19.921875 59.515625 
L 19.921875 54.6875 
L 34.71875 54.6875 
L 34.71875 47.703125 
L 19.921875 47.703125 
L 19.921875 0 
L 10.890625 0 
L 10.890625 47.703125 
L 2.296875 47.703125 
L 2.296875 54.6875 
L 10.890625 54.6875 
L 10.890625 58.5 
Q 10.890625 67.625 15.140625 71.796875 
Q 19.390625 75.984375 28.609375 75.984375 
z
" id="DejaVuSans-102"/>
       <path d="M 30.609375 48.390625 
Q 23.390625 48.390625 19.1875 42.75 
Q 14.984375 37.109375 14.984375 27.296875 
Q 14.984375 17.484375 19.15625 11.84375 
Q 23.34375 6.203125 30.609375 6.203125 
Q 37.796875 6.203125 41.984375 11.859375 
Q 46.1875 17.53125 46.1875 27.296875 
Q 46.1875 37.015625 41.984375 42.703125 
Q 37.796875 48.390625 30.609375 48.390625 
z
M 30.609375 56 
Q 42.328125 56 49.015625 48.375 
Q 55.71875 40.765625 55.71875 27.296875 
Q 55.71875 13.875 49.015625 6.21875 
Q 42.328125 -1.421875 30.609375 -1.421875 
Q 18.84375 -1.421875 12.171875 6.21875 
Q 5.515625 13.875 5.515625 27.296875 
Q 5.515625 40.765625 12.171875 48.375 
Q 18.84375 56 30.609375 56 
z
" id="DejaVuSans-111"/>
       <path d="M 41.109375 46.296875 
Q 39.59375 47.171875 37.8125 47.578125 
Q 36.03125 48 33.890625 48 
Q 26.265625 48 22.1875 43.046875 
Q 18.109375 38.09375 18.109375 28.8125 
L 18.109375 0 
L 9.078125 0 
L 9.078125 54.6875 
L 18.109375 54.6875 
L 18.109375 46.1875 
Q 20.953125 51.171875 25.484375 53.578125 
Q 30.03125 56 36.53125 56 
Q 37.453125 56 38.578125 55.875 
Q 39.703125 55.765625 41.0625 55.515625 
z
" id="DejaVuSans-114"/>
       <path d="M 50.984375 -16.609375 
L 50.984375 -23.578125 
L -0.984375 -23.578125 
L -0.984375 -16.609375 
z
" id="DejaVuSans-95"/>
       <path d="M 45.40625 27.984375 
Q 45.40625 37.75 41.375 43.109375 
Q 37.359375 48.484375 30.078125 48.484375 
Q 22.859375 48.484375 18.828125 43.109375 
Q 14.796875 37.75 14.796875 27.984375 
Q 14.796875 18.265625 18.828125 12.890625 
Q 22.859375 7.515625 30.078125 7.515625 
Q 37.359375 7.515625 41.375 12.890625 
Q 45.40625 18.265625 45.40625 27.984375 
z
M 54.390625 6.78125 
Q 54.390625 -7.171875 48.1875 -13.984375 
Q 42 -20.796875 29.203125 -20.796875 
Q 24.46875 -20.796875 20.265625 -20.09375 
Q 16.0625 -19.390625 12.109375 -17.921875 
L 12.109375 -9.1875 
Q 16.0625 -11.328125 19.921875 -12.34375 
Q 23.78125 -13.375 27.78125 -13.375 
Q 36.625 -13.375 41.015625 -8.765625 
Q 45.40625 -4.15625 45.40625 5.171875 
L 45.40625 9.625 
Q 42.625 4.78125 38.28125 2.390625 
Q 33.9375 0 27.875 0 
Q 17.828125 0 11.671875 7.65625 
Q 5.515625 15.328125 5.515625 27.984375 
Q 5.515625 40.671875 11.671875 48.328125 
Q 17.828125 56 27.875 56 
Q 33.9375 56 38.28125 53.609375 
Q 42.625 51.21875 45.40625 46.390625 
L 45.40625 54.6875 
L 54.390625 54.6875 
z
" id="DejaVuSans-103"/>
       <path d="M 54.890625 33.015625 
L 54.890625 0 
L 45.90625 0 
L 45.90625 32.71875 
Q 45.90625 40.484375 42.875 44.328125 
Q 39.84375 48.1875 33.796875 48.1875 
Q 26.515625 48.1875 22.3125 43.546875 
Q 18.109375 38.921875 18.109375 30.90625 
L 18.109375 0 
L 9.078125 0 
L 9.078125 54.6875 
L 18.109375 54.6875 
L 18.109375 46.1875 
Q 21.34375 51.125 25.703125 53.5625 
Q 30.078125 56 35.796875 56 
Q 45.21875 56 50.046875 50.171875 
Q 54.890625 44.34375 54.890625 33.015625 
z
" id="DejaVuSans-110"/>
      </defs>
      <g transform="translate(37.681976 368.840115)rotate(-20)scale(0.1 -0.1)">
       <use xlink:href="#DejaVuSans-98"/>
       <use x="63.476562" xlink:href="#DejaVuSans-101"/>
       <use x="125" xlink:href="#DejaVuSans-102"/>
       <use x="160.205078" xlink:href="#DejaVuSans-111"/>
       <use x="221.386719" xlink:href="#DejaVuSans-114"/>
       <use x="262.46875" xlink:href="#DejaVuSans-101"/>
       <use x="323.992188" xlink:href="#DejaVuSans-95"/>
       <use x="373.992188" xlink:href="#DejaVuSans-103"/>
       <use x="437.46875" xlink:href="#DejaVuSans-101"/>
       <use x="498.992188" xlink:href="#DejaVuSans-110"/>
       <use x="562.371094" xlink:href="#DejaVuSans-101"/>
      </g>
     </g>
    </g>
    <g id="xtick_2">
     <g id="line2d_2">
      <g>
       <use style="stroke:#000000;stroke-width:0.8;" x="110.74125" xlink:href="#m0d2223aea7" y="333.36"/>
      </g>
     </g>
     <g id="text_2">
      <!-- within_gene -->
      <defs>
       <path d="M 4.203125 54.6875 
L 13.1875 54.6875 
L 24.421875 12.015625 
L 35.59375 54.6875 
L 46.1875 54.6875 
L 57.421875 12.015625 
L 68.609375 54.6875 
L 77.59375 54.6875 
L 63.28125 0 
L 52.6875 0 
L 40.921875 44.828125 
L 29.109375 0 
L 18.5 0 
z
" id="DejaVuSans-119"/>
       <path d="M 9.421875 54.6875 
L 18.40625 54.6875 
L 18.40625 0 
L 9.421875 0 
z
M 9.421875 75.984375 
L 18.40625 75.984375 
L 18.40625 64.59375 
L 9.421875 64.59375 
z
" id="DejaVuSans-105"/>
       <path d="M 18.3125 70.21875 
L 18.3125 54.6875 
L 36.8125 54.6875 
L 36.8125 47.703125 
L 18.3125 47.703125 
L 18.3125 18.015625 
Q 18.3125 11.328125 20.140625 9.421875 
Q 21.96875 7.515625 27.59375 7.515625 
L 36.8125 7.515625 
L 36.8125 0 
L 27.59375 0 
Q 17.1875 0 13.234375 3.875 
Q 9.28125 7.765625 9.28125 18.015625 
L 9.28125 47.703125 
L 2.6875 47.703125 
L 2.6875 54.6875 
L 9.28125 54.6875 
L 9.28125 70.21875 
z
" id="DejaVuSans-116"/>
       <path d="M 54.890625 33.015625 
L 54.890625 0 
L 45.90625 0 
L 45.90625 32.71875 
Q 45.90625 40.484375 42.875 44.328125 
Q 39.84375 48.1875 33.796875 48.1875 
Q 26.515625 48.1875 22.3125 43.546875 
Q 18.109375 38.921875 18.109375 30.90625 
L 18.109375 0 
L 9.078125 0 
L 9.078125 75.984375 
L 18.109375 75.984375 
L 18.109375 46.1875 
Q 21.34375 51.125 25.703125 53.5625 
Q 30.078125 56 35.796875 56 
Q 45.21875 56 50.046875 50.171875 
Q 54.890625 44.34375 54.890625 33.015625 
z
" id="DejaVuSans-104"/>
      </defs>
      <g transform="translate(83.295439 368.131492)rotate(-20)scale(0.1 -0.1)">
       <use xlink:href="#DejaVuSans-119"/>
       <use x="81.787109" xlink:href="#DejaVuSans-105"/>
       <use x="109.570312" xlink:href="#DejaVuSans-116"/>
       <use x="148.779297" xlink:href="#DejaVuSans-104"/>
       <use x="212.158203" xlink:href="#DejaVuSans-105"/>
       <use x="239.941406" xlink:href="#DejaVuSans-110"/>
       <use x="303.320312" xlink:href="#DejaVuSans-95"/>
       <use x="353.320312" xlink:href="#DejaVuSans-103"/>
       <use x="416.796875" xlink:href="#DejaVuSans-101"/>
       <use x="478.320312" xlink:href="#DejaVuSans-110"/>
       <use x="541.699219" xlink:href="#DejaVuSans-101"/>
      </g>
     </g>
    </g>
    <g id="xtick_3">
     <g id="line2d_3">
      <g>
       <use style="stroke:#000000;stroke-width:0.8;" x="155.38125" xlink:href="#m0d2223aea7" y="333.36"/>
      </g>
     </g>
     <g id="text_3">
      <!-- after_gene -->
      <defs>
       <path d="M 34.28125 27.484375 
Q 23.390625 27.484375 19.1875 25 
Q 14.984375 22.515625 14.984375 16.5 
Q 14.984375 11.71875 18.140625 8.90625 
Q 21.296875 6.109375 26.703125 6.109375 
Q 34.1875 6.109375 38.703125 11.40625 
Q 43.21875 16.703125 43.21875 25.484375 
L 43.21875 27.484375 
z
M 52.203125 31.203125 
L 52.203125 0 
L 43.21875 0 
L 43.21875 8.296875 
Q 40.140625 3.328125 35.546875 0.953125 
Q 30.953125 -1.421875 24.3125 -1.421875 
Q 15.921875 -1.421875 10.953125 3.296875 
Q 6 8.015625 6 15.921875 
Q 6 25.140625 12.171875 29.828125 
Q 18.359375 34.515625 30.609375 34.515625 
L 43.21875 34.515625 
L 43.21875 35.40625 
Q 43.21875 41.609375 39.140625 45 
Q 35.0625 48.390625 27.6875 48.390625 
Q 23 48.390625 18.546875 47.265625 
Q 14.109375 46.140625 10.015625 43.890625 
L 10.015625 52.203125 
Q 14.9375 54.109375 19.578125 55.046875 
Q 24.21875 56 28.609375 56 
Q 40.484375 56 46.34375 49.84375 
Q 52.203125 43.703125 52.203125 31.203125 
z
" id="DejaVuSans-97"/>
      </defs>
      <g transform="translate(130.988706 365.908895)rotate(-20)scale(0.1 -0.1)">
       <use xlink:href="#DejaVuSans-97"/>
       <use x="61.279297" xlink:href="#DejaVuSans-102"/>
       <use x="96.46875" xlink:href="#DejaVuSans-116"/>
       <use x="135.677734" xlink:href="#DejaVuSans-101"/>
       <use x="197.201172" xlink:href="#DejaVuSans-114"/>
       <use x="238.314453" xlink:href="#DejaVuSans-95"/>
       <use x="288.314453" xlink:href="#DejaVuSans-103"/>
       <use x="351.791016" xlink:href="#DejaVuSans-101"/>
       <use x="413.314453" xlink:href="#DejaVuSans-110"/>
       <use x="476.693359" xlink:href="#DejaVuSans-101"/>
      </g>
     </g>
    </g>
    <g id="xtick_4">
     <g id="line2d_4">
      <g>
       <use style="stroke:#000000;stroke-width:0.8;" x="200.02125" xlink:href="#m0d2223aea7" y="333.36"/>
      </g>
     </g>
     <g id="text_4">
      <!-- N_Shelf -->
      <defs>
       <path d="M 9.8125 72.90625 
L 23.09375 72.90625 
L 55.421875 11.921875 
L 55.421875 72.90625 
L 64.984375 72.90625 
L 64.984375 0 
L 51.703125 0 
L 19.390625 60.984375 
L 19.390625 0 
L 9.8125 0 
z
" id="DejaVuSans-78"/>
       <path d="M 53.515625 70.515625 
L 53.515625 60.890625 
Q 47.90625 63.578125 42.921875 64.890625 
Q 37.9375 66.21875 33.296875 66.21875 
Q 25.25 66.21875 20.875 63.09375 
Q 16.5 59.96875 16.5 54.203125 
Q 16.5 49.359375 19.40625 46.890625 
Q 22.3125 44.4375 30.421875 42.921875 
L 36.375 41.703125 
Q 47.40625 39.59375 52.65625 34.296875 
Q 57.90625 29 57.90625 20.125 
Q 57.90625 9.515625 50.796875 4.046875 
Q 43.703125 -1.421875 29.984375 -1.421875 
Q 24.8125 -1.421875 18.96875 -0.25 
Q 13.140625 0.921875 6.890625 3.21875 
L 6.890625 13.375 
Q 12.890625 10.015625 18.65625 8.296875 
Q 24.421875 6.59375 29.984375 6.59375 
Q 38.421875 6.59375 43.015625 9.90625 
Q 47.609375 13.234375 47.609375 19.390625 
Q 47.609375 24.75 44.3125 27.78125 
Q 41.015625 30.8125 33.5 32.328125 
L 27.484375 33.5 
Q 16.453125 35.6875 11.515625 40.375 
Q 6.59375 45.0625 6.59375 53.421875 
Q 6.59375 63.09375 13.40625 68.65625 
Q 20.21875 74.21875 32.171875 74.21875 
Q 37.3125 74.21875 42.625 73.28125 
Q 47.953125 72.359375 53.515625 70.515625 
z
" id="DejaVuSans-83"/>
       <path d="M 9.421875 75.984375 
L 18.40625 75.984375 
L 18.40625 0 
L 9.421875 0 
z
" id="DejaVuSans-108"/>
      </defs>
      <g transform="translate(183.242419 360.366566)rotate(-20)scale(0.1 -0.1)">
       <use xlink:href="#DejaVuSans-78"/>
       <use x="74.804688" xlink:href="#DejaVuSans-95"/>
       <use x="124.804688" xlink:href="#DejaVuSans-83"/>
       <use x="188.28125" xlink:href="#DejaVuSans-104"/>
       <use x="251.660156" xlink:href="#DejaVuSans-101"/>
       <use x="313.183594" xlink:href="#DejaVuSans-108"/>
       <use x="340.966797" xlink:href="#DejaVuSans-102"/>
      </g>
     </g>
    </g>
    <g id="xtick_5">
     <g id="line2d_5">
      <g>
       <use style="stroke:#000000;stroke-width:0.8;" x="244.66125" xlink:href="#m0d2223aea7" y="333.36"/>
      </g>
     </g>
     <g id="text_5">
      <!-- N_Shore -->
      <g transform="translate(226.036804 361.710064)rotate(-20)scale(0.1 -0.1)">
       <use xlink:href="#DejaVuSans-78"/>
       <use x="74.804688" xlink:href="#DejaVuSans-95"/>
       <use x="124.804688" xlink:href="#DejaVuSans-83"/>
       <use x="188.28125" xlink:href="#DejaVuSans-104"/>
       <use x="251.660156" xlink:href="#DejaVuSans-111"/>
       <use x="312.841797" xlink:href="#DejaVuSans-114"/>
       <use x="353.923828" xlink:href="#DejaVuSans-101"/>
      </g>
     </g>
    </g>
    <g id="xtick_6">
     <g id="line2d_6">
      <g>
       <use style="stroke:#000000;stroke-width:0.8;" x="289.30125" xlink:href="#m0d2223aea7" y="333.36"/>
      </g>
     </g>
     <g id="text_6">
      <!-- Island -->
      <defs>
       <path d="M 9.8125 72.90625 
L 19.671875 72.90625 
L 19.671875 0 
L 9.8125 0 
z
" id="DejaVuSans-73"/>
       <path d="M 44.28125 53.078125 
L 44.28125 44.578125 
Q 40.484375 46.53125 36.375 47.5 
Q 32.28125 48.484375 27.875 48.484375 
Q 21.1875 48.484375 17.84375 46.4375 
Q 14.5 44.390625 14.5 40.28125 
Q 14.5 37.15625 16.890625 35.375 
Q 19.28125 33.59375 26.515625 31.984375 
L 29.59375 31.296875 
Q 39.15625 29.25 43.1875 25.515625 
Q 47.21875 21.78125 47.21875 15.09375 
Q 47.21875 7.46875 41.1875 3.015625 
Q 35.15625 -1.421875 24.609375 -1.421875 
Q 20.21875 -1.421875 15.453125 -0.5625 
Q 10.6875 0.296875 5.421875 2 
L 5.421875 11.28125 
Q 10.40625 8.6875 15.234375 7.390625 
Q 20.0625 6.109375 24.8125 6.109375 
Q 31.15625 6.109375 34.5625 8.28125 
Q 37.984375 10.453125 37.984375 14.40625 
Q 37.984375 18.0625 35.515625 20.015625 
Q 33.0625 21.96875 24.703125 23.78125 
L 21.578125 24.515625 
Q 13.234375 26.265625 9.515625 29.90625 
Q 5.8125 33.546875 5.8125 39.890625 
Q 5.8125 47.609375 11.28125 51.796875 
Q 16.75 56 26.8125 56 
Q 31.78125 56 36.171875 55.265625 
Q 40.578125 54.546875 44.28125 53.078125 
z
" id="DejaVuSans-115"/>
       <path d="M 45.40625 46.390625 
L 45.40625 75.984375 
L 54.390625 75.984375 
L 54.390625 0 
L 45.40625 0 
L 45.40625 8.203125 
Q 42.578125 3.328125 38.25 0.953125 
Q 33.9375 -1.421875 27.875 -1.421875 
Q 17.96875 -1.421875 11.734375 6.484375 
Q 5.515625 14.40625 5.515625 27.296875 
Q 5.515625 40.1875 11.734375 48.09375 
Q 17.96875 56 27.875 56 
Q 33.9375 56 38.25 53.625 
Q 42.578125 51.265625 45.40625 46.390625 
z
M 14.796875 27.296875 
Q 14.796875 17.390625 18.875 11.75 
Q 22.953125 6.109375 30.078125 6.109375 
Q 37.203125 6.109375 41.296875 11.75 
Q 45.40625 17.390625 45.40625 27.296875 
Q 45.40625 37.203125 41.296875 42.84375 
Q 37.203125 48.484375 30.078125 48.484375 
Q 22.953125 48.484375 18.875 42.84375 
Q 14.796875 37.203125 14.796875 27.296875 
z
" id="DejaVuSans-100"/>
      </defs>
      <g transform="translate(276.26635 357.675829)rotate(-20)scale(0.1 -0.1)">
       <use xlink:href="#DejaVuSans-73"/>
       <use x="29.492188" xlink:href="#DejaVuSans-115"/>
       <use x="81.591797" xlink:href="#DejaVuSans-108"/>
       <use x="109.375" xlink:href="#DejaVuSans-97"/>
       <use x="170.654297" xlink:href="#DejaVuSans-110"/>
       <use x="234.033203" xlink:href="#DejaVuSans-100"/>
      </g>
     </g>
    </g>
    <g id="xtick_7">
     <g id="line2d_7">
      <g>
       <use style="stroke:#000000;stroke-width:0.8;" x="333.94125" xlink:href="#m0d2223aea7" y="333.36"/>
      </g>
     </g>
     <g id="text_7">
      <!-- S_Shore -->
      <g transform="translate(315.849052 361.322619)rotate(-20)scale(0.1 -0.1)">
       <use xlink:href="#DejaVuSans-83"/>
       <use x="63.476562" xlink:href="#DejaVuSans-95"/>
       <use x="113.476562" xlink:href="#DejaVuSans-83"/>
       <use x="176.953125" xlink:href="#DejaVuSans-104"/>
       <use x="240.332031" xlink:href="#DejaVuSans-111"/>
       <use x="301.513672" xlink:href="#DejaVuSans-114"/>
       <use x="342.595703" xlink:href="#DejaVuSans-101"/>
      </g>
     </g>
    </g>
    <g id="xtick_8">
     <g id="line2d_8">
      <g>
       <use style="stroke:#000000;stroke-width:0.8;" x="378.58125" xlink:href="#m0d2223aea7" y="333.36"/>
      </g>
     </g>
     <g id="text_8">
      <!-- S_Shelf -->
      <g transform="translate(362.334667 359.979121)rotate(-20)scale(0.1 -0.1)">
       <use xlink:href="#DejaVuSans-83"/>
       <use x="63.476562" xlink:href="#DejaVuSans-95"/>
       <use x="113.476562" xlink:href="#DejaVuSans-83"/>
       <use x="176.953125" xlink:href="#DejaVuSans-104"/>
       <use x="240.332031" xlink:href="#DejaVuSans-101"/>
       <use x="301.855469" xlink:href="#DejaVuSans-108"/>
       <use x="329.638672" xlink:href="#DejaVuSans-102"/>
      </g>
     </g>
    </g>
    <g id="xtick_9">
     <g id="line2d_9">
      <g>
       <use style="stroke:#000000;stroke-width:0.8;" x="423.22125" xlink:href="#m0d2223aea7" y="333.36"/>
      </g>
     </g>
     <g id="text_9">
      <!-- Open_sea -->
      <defs>
       <path d="M 39.40625 66.21875 
Q 28.65625 66.21875 22.328125 58.203125 
Q 16.015625 50.203125 16.015625 36.375 
Q 16.015625 22.609375 22.328125 14.59375 
Q 28.65625 6.59375 39.40625 6.59375 
Q 50.140625 6.59375 56.421875 14.59375 
Q 62.703125 22.609375 62.703125 36.375 
Q 62.703125 50.203125 56.421875 58.203125 
Q 50.140625 66.21875 39.40625 66.21875 
z
M 39.40625 74.21875 
Q 54.734375 74.21875 63.90625 63.9375 
Q 73.09375 53.65625 73.09375 36.375 
Q 73.09375 19.140625 63.90625 8.859375 
Q 54.734375 -1.421875 39.40625 -1.421875 
Q 24.03125 -1.421875 14.8125 8.828125 
Q 5.609375 19.09375 5.609375 36.375 
Q 5.609375 53.65625 14.8125 63.9375 
Q 24.03125 74.21875 39.40625 74.21875 
z
" id="DejaVuSans-79"/>
       <path d="M 18.109375 8.203125 
L 18.109375 -20.796875 
L 9.078125 -20.796875 
L 9.078125 54.6875 
L 18.109375 54.6875 
L 18.109375 46.390625 
Q 20.953125 51.265625 25.265625 53.625 
Q 29.59375 56 35.59375 56 
Q 45.5625 56 51.78125 48.09375 
Q 58.015625 40.1875 58.015625 27.296875 
Q 58.015625 14.40625 51.78125 6.484375 
Q 45.5625 -1.421875 35.59375 -1.421875 
Q 29.59375 -1.421875 25.265625 0.953125 
Q 20.953125 3.328125 18.109375 8.203125 
z
M 48.6875 27.296875 
Q 48.6875 37.203125 44.609375 42.84375 
Q 40.53125 48.484375 33.40625 48.484375 
Q 26.265625 48.484375 22.1875 42.84375 
Q 18.109375 37.203125 18.109375 27.296875 
Q 18.109375 17.390625 22.1875 11.75 
Q 26.265625 6.109375 33.40625 6.109375 
Q 40.53125 6.109375 44.609375 11.75 
Q 48.6875 17.390625 48.6875 27.296875 
z
" id="DejaVuSans-112"/>
      </defs>
      <g transform="translate(400.970083 364.162207)rotate(-20)scale(0.1 -0.1)">
       <use xlink:href="#DejaVuSans-79"/>
       <use x="78.710938" xlink:href="#DejaVuSans-112"/>
       <use x="142.1875" xlink:href="#DejaVuSans-101"/>
       <use x="203.710938" xlink:href="#DejaVuSans-110"/>
       <use x="267.089844" xlink:href="#DejaVuSans-95"/>
       <use x="317.089844" xlink:href="#DejaVuSans-115"/>
       <use x="369.189453" xlink:href="#DejaVuSans-101"/>
       <use x="430.712891" xlink:href="#DejaVuSans-97"/>
      </g>
     </g>
    </g>
    <g id="xtick_10">
     <g id="line2d_10">
      <g>
       <use style="stroke:#000000;stroke-width:0.8;" x="467.86125" xlink:href="#m0d2223aea7" y="333.36"/>
      </g>
     </g>
     <g id="text_10">
      <!-- genes_mapped -->
      <defs>
       <path d="M 52 44.1875 
Q 55.375 50.25 60.0625 53.125 
Q 64.75 56 71.09375 56 
Q 79.640625 56 84.28125 50.015625 
Q 88.921875 44.046875 88.921875 33.015625 
L 88.921875 0 
L 79.890625 0 
L 79.890625 32.71875 
Q 79.890625 40.578125 77.09375 44.375 
Q 74.3125 48.1875 68.609375 48.1875 
Q 61.625 48.1875 57.5625 43.546875 
Q 53.515625 38.921875 53.515625 30.90625 
L 53.515625 0 
L 44.484375 0 
L 44.484375 32.71875 
Q 44.484375 40.625 41.703125 44.40625 
Q 38.921875 48.1875 33.109375 48.1875 
Q 26.21875 48.1875 22.15625 43.53125 
Q 18.109375 38.875 18.109375 30.90625 
L 18.109375 0 
L 9.078125 0 
L 9.078125 54.6875 
L 18.109375 54.6875 
L 18.109375 46.1875 
Q 21.1875 51.21875 25.484375 53.609375 
Q 29.78125 56 35.6875 56 
Q 41.65625 56 45.828125 52.96875 
Q 50 49.953125 52 44.1875 
z
" id="DejaVuSans-109"/>
      </defs>
      <g transform="translate(432.922859 373.585644)rotate(-20)scale(0.1 -0.1)">
       <use xlink:href="#DejaVuSans-103"/>
       <use x="63.476562" xlink:href="#DejaVuSans-101"/>
       <use x="125" xlink:href="#DejaVuSans-110"/>
       <use x="188.378906" xlink:href="#DejaVuSans-101"/>
       <use x="249.902344" xlink:href="#DejaVuSans-115"/>
       <use x="302.001953" xlink:href="#DejaVuSans-95"/>
       <use x="352.001953" xlink:href="#DejaVuSans-109"/>
       <use x="449.414062" xlink:href="#DejaVuSans-97"/>
       <use x="510.693359" xlink:href="#DejaVuSans-112"/>
       <use x="574.169922" xlink:href="#DejaVuSans-112"/>
       <use x="637.646484" xlink:href="#DejaVuSans-101"/>
       <use x="699.169922" xlink:href="#DejaVuSans-100"/>
      </g>
     </g>
    </g>
    <g id="text_11">
     <!-- x -->
     <defs>
      <path d="M 54.890625 54.6875 
L 35.109375 28.078125 
L 55.90625 0 
L 45.3125 0 
L 29.390625 21.484375 
L 13.484375 0 
L 2.875 0 
L 24.125 28.609375 
L 4.6875 54.6875 
L 15.28125 54.6875 
L 29.78125 35.203125 
L 44.28125 54.6875 
z
" id="DejaVuSans-120"/>
     </defs>
     <g transform="translate(264.021875 387.399701)scale(0.1 -0.1)">
      <use xlink:href="#DejaVuSans-120"/>
     </g>
    </g>
   </g>
   <g id="matplotlib.axis_2">
    <g id="ytick_1">
     <g id="line2d_11">
      <defs>
       <path d="M 0 0 
L -3.5 0 
" id="me3eb02f74e" style="stroke:#000000;stroke-width:0.8;"/>
      </defs>
      <g>
       <use style="stroke:#000000;stroke-width:0.8;" x="43.78125" xlink:href="#me3eb02f74e" y="315.490532"/>
      </g>
     </g>
     <g id="text_12">
      <!-- 0.0 -->
      <defs>
       <path d="M 31.78125 66.40625 
Q 24.171875 66.40625 20.328125 58.90625 
Q 16.5 51.421875 16.5 36.375 
Q 16.5 21.390625 20.328125 13.890625 
Q 24.171875 6.390625 31.78125 6.390625 
Q 39.453125 6.390625 43.28125 13.890625 
Q 47.125 21.390625 47.125 36.375 
Q 47.125 51.421875 43.28125 58.90625 
Q 39.453125 66.40625 31.78125 66.40625 
z
M 31.78125 74.21875 
Q 44.046875 74.21875 50.515625 64.515625 
Q 56.984375 54.828125 56.984375 36.375 
Q 56.984375 17.96875 50.515625 8.265625 
Q 44.046875 -1.421875 31.78125 -1.421875 
Q 19.53125 -1.421875 13.0625 8.265625 
Q 6.59375 17.96875 6.59375 36.375 
Q 6.59375 54.828125 13.0625 64.515625 
Q 19.53125 74.21875 31.78125 74.21875 
z
" id="DejaVuSans-48"/>
       <path d="M 10.6875 12.40625 
L 21 12.40625 
L 21 0 
L 10.6875 0 
z
" id="DejaVuSans-46"/>
      </defs>
      <g transform="translate(20.878125 319.28975)scale(0.1 -0.1)">
       <use xlink:href="#DejaVuSans-48"/>
       <use x="63.623047" xlink:href="#DejaVuSans-46"/>
       <use x="95.410156" xlink:href="#DejaVuSans-48"/>
      </g>
     </g>
    </g>
    <g id="ytick_2">
     <g id="line2d_12">
      <g>
       <use style="stroke:#000000;stroke-width:0.8;" x="43.78125" xlink:href="#me3eb02f74e" y="257.406331"/>
      </g>
     </g>
     <g id="text_13">
      <!-- 0.2 -->
      <defs>
       <path d="M 19.1875 8.296875 
L 53.609375 8.296875 
L 53.609375 0 
L 7.328125 0 
L 7.328125 8.296875 
Q 12.9375 14.109375 22.625 23.890625 
Q 32.328125 33.6875 34.8125 36.53125 
Q 39.546875 41.84375 41.421875 45.53125 
Q 43.3125 49.21875 43.3125 52.78125 
Q 43.3125 58.59375 39.234375 62.25 
Q 35.15625 65.921875 28.609375 65.921875 
Q 23.96875 65.921875 18.8125 64.3125 
Q 13.671875 62.703125 7.8125 59.421875 
L 7.8125 69.390625 
Q 13.765625 71.78125 18.9375 73 
Q 24.125 74.21875 28.421875 74.21875 
Q 39.75 74.21875 46.484375 68.546875 
Q 53.21875 62.890625 53.21875 53.421875 
Q 53.21875 48.921875 51.53125 44.890625 
Q 49.859375 40.875 45.40625 35.40625 
Q 44.1875 33.984375 37.640625 27.21875 
Q 31.109375 20.453125 19.1875 8.296875 
z
" id="DejaVuSans-50"/>
      </defs>
      <g transform="translate(20.878125 261.20555)scale(0.1 -0.1)">
       <use xlink:href="#DejaVuSans-48"/>
       <use x="63.623047" xlink:href="#DejaVuSans-46"/>
       <use x="95.410156" xlink:href="#DejaVuSans-50"/>
      </g>
     </g>
    </g>
    <g id="ytick_3">
     <g id="line2d_13">
      <g>
       <use style="stroke:#000000;stroke-width:0.8;" x="43.78125" xlink:href="#me3eb02f74e" y="199.32213"/>
      </g>
     </g>
     <g id="text_14">
      <!-- 0.4 -->
      <defs>
       <path d="M 37.796875 64.3125 
L 12.890625 25.390625 
L 37.796875 25.390625 
z
M 35.203125 72.90625 
L 47.609375 72.90625 
L 47.609375 25.390625 
L 58.015625 25.390625 
L 58.015625 17.1875 
L 47.609375 17.1875 
L 47.609375 0 
L 37.796875 0 
L 37.796875 17.1875 
L 4.890625 17.1875 
L 4.890625 26.703125 
z
" id="DejaVuSans-52"/>
      </defs>
      <g transform="translate(20.878125 203.121349)scale(0.1 -0.1)">
       <use xlink:href="#DejaVuSans-48"/>
       <use x="63.623047" xlink:href="#DejaVuSans-46"/>
       <use x="95.410156" xlink:href="#DejaVuSans-52"/>
      </g>
     </g>
    </g>
    <g id="ytick_4">
     <g id="line2d_14">
      <g>
       <use style="stroke:#000000;stroke-width:0.8;" x="43.78125" xlink:href="#me3eb02f74e" y="141.237929"/>
      </g>
     </g>
     <g id="text_15">
      <!-- 0.6 -->
      <defs>
       <path d="M 33.015625 40.375 
Q 26.375 40.375 22.484375 35.828125 
Q 18.609375 31.296875 18.609375 23.390625 
Q 18.609375 15.53125 22.484375 10.953125 
Q 26.375 6.390625 33.015625 6.390625 
Q 39.65625 6.390625 43.53125 10.953125 
Q 47.40625 15.53125 47.40625 23.390625 
Q 47.40625 31.296875 43.53125 35.828125 
Q 39.65625 40.375 33.015625 40.375 
z
M 52.59375 71.296875 
L 52.59375 62.3125 
Q 48.875 64.0625 45.09375 64.984375 
Q 41.3125 65.921875 37.59375 65.921875 
Q 27.828125 65.921875 22.671875 59.328125 
Q 17.53125 52.734375 16.796875 39.40625 
Q 19.671875 43.65625 24.015625 45.921875 
Q 28.375 48.1875 33.59375 48.1875 
Q 44.578125 48.1875 50.953125 41.515625 
Q 57.328125 34.859375 57.328125 23.390625 
Q 57.328125 12.15625 50.6875 5.359375 
Q 44.046875 -1.421875 33.015625 -1.421875 
Q 20.359375 -1.421875 13.671875 8.265625 
Q 6.984375 17.96875 6.984375 36.375 
Q 6.984375 53.65625 15.1875 63.9375 
Q 23.390625 74.21875 37.203125 74.21875 
Q 40.921875 74.21875 44.703125 73.484375 
Q 48.484375 72.75 52.59375 71.296875 
z
" id="DejaVuSans-54"/>
      </defs>
      <g transform="translate(20.878125 145.037148)scale(0.1 -0.1)">
       <use xlink:href="#DejaVuSans-48"/>
       <use x="63.623047" xlink:href="#DejaVuSans-46"/>
       <use x="95.410156" xlink:href="#DejaVuSans-54"/>
      </g>
     </g>
    </g>
    <g id="ytick_5">
     <g id="line2d_15">
      <g>
       <use style="stroke:#000000;stroke-width:0.8;" x="43.78125" xlink:href="#me3eb02f74e" y="83.153728"/>
      </g>
     </g>
     <g id="text_16">
      <!-- 0.8 -->
      <defs>
       <path d="M 31.78125 34.625 
Q 24.75 34.625 20.71875 30.859375 
Q 16.703125 27.09375 16.703125 20.515625 
Q 16.703125 13.921875 20.71875 10.15625 
Q 24.75 6.390625 31.78125 6.390625 
Q 38.8125 6.390625 42.859375 10.171875 
Q 46.921875 13.96875 46.921875 20.515625 
Q 46.921875 27.09375 42.890625 30.859375 
Q 38.875 34.625 31.78125 34.625 
z
M 21.921875 38.8125 
Q 15.578125 40.375 12.03125 44.71875 
Q 8.5 49.078125 8.5 55.328125 
Q 8.5 64.0625 14.71875 69.140625 
Q 20.953125 74.21875 31.78125 74.21875 
Q 42.671875 74.21875 48.875 69.140625 
Q 55.078125 64.0625 55.078125 55.328125 
Q 55.078125 49.078125 51.53125 44.71875 
Q 48 40.375 41.703125 38.8125 
Q 48.828125 37.15625 52.796875 32.3125 
Q 56.78125 27.484375 56.78125 20.515625 
Q 56.78125 9.90625 50.3125 4.234375 
Q 43.84375 -1.421875 31.78125 -1.421875 
Q 19.734375 -1.421875 13.25 4.234375 
Q 6.78125 9.90625 6.78125 20.515625 
Q 6.78125 27.484375 10.78125 32.3125 
Q 14.796875 37.15625 21.921875 38.8125 
z
M 18.3125 54.390625 
Q 18.3125 48.734375 21.84375 45.5625 
Q 25.390625 42.390625 31.78125 42.390625 
Q 38.140625 42.390625 41.71875 45.5625 
Q 45.3125 48.734375 45.3125 54.390625 
Q 45.3125 60.0625 41.71875 63.234375 
Q 38.140625 66.40625 31.78125 66.40625 
Q 25.390625 66.40625 21.84375 63.234375 
Q 18.3125 60.0625 18.3125 54.390625 
z
" id="DejaVuSans-56"/>
      </defs>
      <g transform="translate(20.878125 86.952947)scale(0.1 -0.1)">
       <use xlink:href="#DejaVuSans-48"/>
       <use x="63.623047" xlink:href="#DejaVuSans-46"/>
       <use x="95.410156" xlink:href="#DejaVuSans-56"/>
      </g>
     </g>
    </g>
    <g id="ytick_6">
     <g id="line2d_16">
      <g>
       <use style="stroke:#000000;stroke-width:0.8;" x="43.78125" xlink:href="#me3eb02f74e" y="25.069527"/>
      </g>
     </g>
     <g id="text_17">
      <!-- 1.0 -->
      <defs>
       <path d="M 12.40625 8.296875 
L 28.515625 8.296875 
L 28.515625 63.921875 
L 10.984375 60.40625 
L 10.984375 69.390625 
L 28.421875 72.90625 
L 38.28125 72.90625 
L 38.28125 8.296875 
L 54.390625 8.296875 
L 54.390625 0 
L 12.40625 0 
z
" id="DejaVuSans-49"/>
      </defs>
      <g transform="translate(20.878125 28.868746)scale(0.1 -0.1)">
       <use xlink:href="#DejaVuSans-49"/>
       <use x="63.623047" xlink:href="#DejaVuSans-46"/>
       <use x="95.410156" xlink:href="#DejaVuSans-48"/>
      </g>
     </g>
    </g>
    <g id="text_18">
     <!-- Probe frequency -->
     <defs>
      <path d="M 19.671875 64.796875 
L 19.671875 37.40625 
L 32.078125 37.40625 
Q 38.96875 37.40625 42.71875 40.96875 
Q 46.484375 44.53125 46.484375 51.125 
Q 46.484375 57.671875 42.71875 61.234375 
Q 38.96875 64.796875 32.078125 64.796875 
z
M 9.8125 72.90625 
L 32.078125 72.90625 
Q 44.34375 72.90625 50.609375 67.359375 
Q 56.890625 61.8125 56.890625 51.125 
Q 56.890625 40.328125 50.609375 34.8125 
Q 44.34375 29.296875 32.078125 29.296875 
L 19.671875 29.296875 
L 19.671875 0 
L 9.8125 0 
z
" id="DejaVuSans-80"/>
      <path id="DejaVuSans-32"/>
      <path d="M 14.796875 27.296875 
Q 14.796875 17.390625 18.875 11.75 
Q 22.953125 6.109375 30.078125 6.109375 
Q 37.203125 6.109375 41.296875 11.75 
Q 45.40625 17.390625 45.40625 27.296875 
Q 45.40625 37.203125 41.296875 42.84375 
Q 37.203125 48.484375 30.078125 48.484375 
Q 22.953125 48.484375 18.875 42.84375 
Q 14.796875 37.203125 14.796875 27.296875 
z
M 45.40625 8.203125 
Q 42.578125 3.328125 38.25 0.953125 
Q 33.9375 -1.421875 27.875 -1.421875 
Q 17.96875 -1.421875 11.734375 6.484375 
Q 5.515625 14.40625 5.515625 27.296875 
Q 5.515625 40.1875 11.734375 48.09375 
Q 17.96875 56 27.875 56 
Q 33.9375 56 38.25 53.625 
Q 42.578125 51.265625 45.40625 46.390625 
L 45.40625 54.6875 
L 54.390625 54.6875 
L 54.390625 -20.796875 
L 45.40625 -20.796875 
z
" id="DejaVuSans-113"/>
      <path d="M 8.5 21.578125 
L 8.5 54.6875 
L 17.484375 54.6875 
L 17.484375 21.921875 
Q 17.484375 14.15625 20.5 10.265625 
Q 23.53125 6.390625 29.59375 6.390625 
Q 36.859375 6.390625 41.078125 11.03125 
Q 45.3125 15.671875 45.3125 23.6875 
L 45.3125 54.6875 
L 54.296875 54.6875 
L 54.296875 0 
L 45.3125 0 
L 45.3125 8.40625 
Q 42.046875 3.421875 37.71875 1 
Q 33.40625 -1.421875 27.6875 -1.421875 
Q 18.265625 -1.421875 13.375 4.4375 
Q 8.5 10.296875 8.5 21.578125 
z
M 31.109375 56 
z
" id="DejaVuSans-117"/>
      <path d="M 48.78125 52.59375 
L 48.78125 44.1875 
Q 44.96875 46.296875 41.140625 47.34375 
Q 37.3125 48.390625 33.40625 48.390625 
Q 24.65625 48.390625 19.8125 42.84375 
Q 14.984375 37.3125 14.984375 27.296875 
Q 14.984375 17.28125 19.8125 11.734375 
Q 24.65625 6.203125 33.40625 6.203125 
Q 37.3125 6.203125 41.140625 7.25 
Q 44.96875 8.296875 48.78125 10.40625 
L 48.78125 2.09375 
Q 45.015625 0.34375 40.984375 -0.53125 
Q 36.96875 -1.421875 32.421875 -1.421875 
Q 20.0625 -1.421875 12.78125 6.34375 
Q 5.515625 14.109375 5.515625 27.296875 
Q 5.515625 40.671875 12.859375 48.328125 
Q 20.21875 56 33.015625 56 
Q 37.15625 56 41.109375 55.140625 
Q 45.0625 54.296875 48.78125 52.59375 
z
" id="DejaVuSans-99"/>
      <path d="M 32.171875 -5.078125 
Q 28.375 -14.84375 24.75 -17.8125 
Q 21.140625 -20.796875 15.09375 -20.796875 
L 7.90625 -20.796875 
L 7.90625 -13.28125 
L 13.1875 -13.28125 
Q 16.890625 -13.28125 18.9375 -11.515625 
Q 21 -9.765625 23.484375 -3.21875 
L 25.09375 0.875 
L 2.984375 54.6875 
L 12.5 54.6875 
L 29.59375 11.921875 
L 46.6875 54.6875 
L 56.203125 54.6875 
z
" id="DejaVuSans-121"/>
     </defs>
     <g transform="translate(14.798438 211.434687)rotate(-90)scale(0.1 -0.1)">
      <use xlink:href="#DejaVuSans-80"/>
      <use x="60.287109" xlink:href="#DejaVuSans-114"/>
      <use x="101.369141" xlink:href="#DejaVuSans-111"/>
      <use x="162.550781" xlink:href="#DejaVuSans-98"/>
      <use x="226.027344" xlink:href="#DejaVuSans-101"/>
      <use x="287.550781" xlink:href="#DejaVuSans-32"/>
      <use x="319.337891" xlink:href="#DejaVuSans-102"/>
      <use x="354.542969" xlink:href="#DejaVuSans-114"/>
      <use x="395.625" xlink:href="#DejaVuSans-101"/>
      <use x="457.148438" xlink:href="#DejaVuSans-113"/>
      <use x="520.625" xlink:href="#DejaVuSans-117"/>
      <use x="584.003906" xlink:href="#DejaVuSans-101"/>
      <use x="645.527344" xlink:href="#DejaVuSans-110"/>
      <use x="708.90625" xlink:href="#DejaVuSans-99"/>
      <use x="763.886719" xlink:href="#DejaVuSans-121"/>
     </g>
    </g>
   </g>
   <g id="patch_3">
    <path d="M 43.78125 333.36 
L 43.78125 7.2 
" style="fill:none;stroke:#000000;stroke-linecap:square;stroke-linejoin:miter;stroke-width:0.8;"/>
   </g>
   <g id="patch_4">
    <path d="M 490.18125 333.36 
L 490.18125 7.2 
" style="fill:none;stroke:#000000;stroke-linecap:square;stroke-linejoin:miter;stroke-width:0.8;"/>
   </g>
   <g id="patch_5">
    <path d="M 43.78125 333.36 
L 490.18125 333.36 
" style="fill:none;stroke:#000000;stroke-linecap:square;stroke-linejoin:miter;stroke-width:0.8;"/>
   </g>
   <g id="patch_6">
    <path d="M 43.78125 7.2 
L 490.18125 7.2 
" style="fill:none;stroke:#000000;stroke-linecap:square;stroke-linejoin:miter;stroke-width:0.8;"/>
   </g>
   <g id="PathCollection_15">
    <defs>
     <path d="M 0 3.5 
C 0.928211 3.5 1.81853 3.131218 2.474874 2.474874 
C 3.131218 1.81853 3.5 0.928211 3.5 0 
C 3.5 -0.928211 3.131218 -1.81853 2.474874 -2.474874 
C 1.81853 -3.131218 0.928211 -3.5 0 -3.5 
C -0.928211 -3.5 -1.81853 -3.131218 -2.474874 -2.474874 
C -3.131218 -1.81853 -3.5 -0.928211 -3.5 0 
C -3.5 0.928211 -3.131218 1.81853 -2.474874 2.474874 
C -1.81853 3.131218 -0.928211 3.5 0 3.5 
z
" id="C0_0_4c52e7d918"/>
    </defs>
    <g clip-path="url(#pb917b076a7)">
     <use style="fill:#b2df8a;" x="66.10125" xlink:href="#C0_0_4c52e7d918" y="279.187906"/>
    </g>
    <g clip-path="url(#pb917b076a7)">
     <use style="fill:#e31a1c;" x="60.004401" xlink:href="#C0_0_4c52e7d918" y="275.278393"/>
    </g>
    <g clip-path="url(#pb917b076a7)">
     <use style="fill:#fdbf6f;" x="71.767778" xlink:href="#C0_0_4c52e7d918" y="274.729689"/>
    </g>
    <g clip-path="url(#pb917b076a7)">
     <use style="fill:#6a3d9a;" x="66.10125" xlink:href="#C0_0_4c52e7d918" y="264.982531"/>
    </g>
    <g clip-path="url(#pb917b076a7)">
     <use style="fill:#1f78b4;" x="58.761451" xlink:href="#C0_0_4c52e7d918" y="264.613859"/>
    </g>
    <g clip-path="url(#pb917b076a7)">
     <use style="fill:#b15928;" x="72.781951" xlink:href="#C0_0_4c52e7d918" y="262.064026"/>
    </g>
    <g clip-path="url(#pb917b076a7)">
     <use style="fill:#33a02c;" x="66.10125" xlink:href="#C0_0_4c52e7d918" y="255.697972"/>
    </g>
    <g clip-path="url(#pb917b076a7)">
     <use style="fill:#fb9a99;" x="58.919444" xlink:href="#C0_0_4c52e7d918" y="254.209035"/>
    </g>
    <g clip-path="url(#pb917b076a7)">
     <use x="72.48205" xlink:href="#C0_0_4c52e7d918" y="252.223687"/>
    </g>
    <g clip-path="url(#pb917b076a7)">
     <use style="fill:#ffff99;" x="66.10125" xlink:href="#C0_0_4c52e7d918" y="247.616859"/>
    </g>
    <g clip-path="url(#pb917b076a7)">
     <use style="fill:#ff7f00;" x="58.874042" xlink:href="#C0_0_4c52e7d918" y="246.342673"/>
    </g>
    <g clip-path="url(#pb917b076a7)">
     <use style="fill:#6e6e6e;" x="75.65709" xlink:href="#C0_0_4c52e7d918" y="245.910499"/>
    </g>
    <g clip-path="url(#pb917b076a7)">
     <use style="fill:#cab2d6;" x="66.10125" xlink:href="#C0_0_4c52e7d918" y="233.721511"/>
    </g>
    <g clip-path="url(#pb917b076a7)">
     <use style="fill:#a6cee3;" x="66.10125" xlink:href="#C0_0_4c52e7d918" y="224.258803"/>
    </g>
   </g>
   <g id="PathCollection_16">
    <defs>
     <path d="M 0 3.5 
C 0.928211 3.5 1.81853 3.131218 2.474874 2.474874 
C 3.131218 1.81853 3.5 0.928211 3.5 0 
C 3.5 -0.928211 3.131218 -1.81853 2.474874 -2.474874 
C 1.81853 -3.131218 0.928211 -3.5 0 -3.5 
C -0.928211 -3.5 -1.81853 -3.131218 -2.474874 -2.474874 
C -3.131218 -1.81853 -3.5 -0.928211 -3.5 0 
C -3.5 0.928211 -3.131218 1.81853 -2.474874 2.474874 
C -1.81853 3.131218 -0.928211 3.5 0 3.5 
z
" id="C1_0_4ac00dc212"/>
    </defs>
    <g clip-path="url(#pb917b076a7)">
     <use style="fill:#a6cee3;" x="110.74125" xlink:href="#C1_0_4ac00dc212" y="116.301256"/>
    </g>
    <g clip-path="url(#pb917b076a7)">
     <use style="fill:#cab2d6;" x="110.74125" xlink:href="#C1_0_4ac00dc212" y="106.838548"/>
    </g>
    <g clip-path="url(#pb917b076a7)">
     <use style="fill:#6e6e6e;" x="110.74125" xlink:href="#C1_0_4ac00dc212" y="94.64956"/>
    </g>
    <g clip-path="url(#pb917b076a7)">
     <use style="fill:#ff7f00;" x="103.405271" xlink:href="#C1_0_4ac00dc212" y="94.217385"/>
    </g>
    <g clip-path="url(#pb917b076a7)">
     <use style="fill:#ffff99;" x="117.869531" xlink:href="#C1_0_4ac00dc212" y="92.9432"/>
    </g>
    <g clip-path="url(#pb917b076a7)">
     <use x="107.566209" xlink:href="#C1_0_4ac00dc212" y="88.336372"/>
    </g>
    <g clip-path="url(#pb917b076a7)">
     <use style="fill:#fb9a99;" x="114.614392" xlink:href="#C1_0_4ac00dc212" y="86.351024"/>
    </g>
    <g clip-path="url(#pb917b076a7)">
     <use style="fill:#33a02c;" x="101.18541" xlink:href="#C1_0_4ac00dc212" y="84.862087"/>
    </g>
    <g clip-path="url(#pb917b076a7)">
     <use style="fill:#b15928;" x="110.74125" xlink:href="#C1_0_4ac00dc212" y="78.496033"/>
    </g>
    <g clip-path="url(#pb917b076a7)">
     <use style="fill:#1f78b4;" x="103.89622" xlink:href="#C1_0_4ac00dc212" y="75.9462"/>
    </g>
    <g clip-path="url(#pb917b076a7)">
     <use style="fill:#6a3d9a;" x="117.421951" xlink:href="#C1_0_4ac00dc212" y="75.577528"/>
    </g>
    <g clip-path="url(#pb917b076a7)">
     <use style="fill:#fdbf6f;" x="110.74125" xlink:href="#C1_0_4ac00dc212" y="65.83037"/>
    </g>
    <g clip-path="url(#pb917b076a7)">
     <use style="fill:#e31a1c;" x="103.413865" xlink:href="#C1_0_4ac00dc212" y="65.281666"/>
    </g>
    <g clip-path="url(#pb917b076a7)">
     <use style="fill:#b2df8a;" x="116.407778" xlink:href="#C1_0_4ac00dc212" y="61.372153"/>
    </g>
   </g>
   <g id="PathCollection_17">
    <defs>
     <path d="M 0 3.5 
C 0.928211 3.5 1.81853 3.131218 2.474874 2.474874 
C 3.131218 1.81853 3.5 0.928211 3.5 0 
C 3.5 -0.928211 3.131218 -1.81853 2.474874 -2.474874 
C 1.81853 -3.131218 0.928211 -3.5 0 -3.5 
C -0.928211 -3.5 -1.81853 -3.131218 -2.474874 -2.474874 
C -3.131218 -1.81853 -3.5 -0.928211 -3.5 0 
C -3.5 0.928211 -3.131218 1.81853 -2.474874 2.474874 
C -1.81853 3.131218 -0.928211 3.5 0 3.5 
z
" id="C2_0_b1f00d324e"/>
    </defs>
    <g clip-path="url(#pb917b076a7)">
     <use style="fill:#a6cee3;" x="155.38125" xlink:href="#C2_0_b1f00d324e" y="315.490532"/>
    </g>
    <g clip-path="url(#pb917b076a7)">
     <use style="fill:#1f78b4;" x="148.03125" xlink:href="#C2_0_b1f00d324e" y="315.490532"/>
    </g>
    <g clip-path="url(#pb917b076a7)">
     <use style="fill:#b2df8a;" x="162.73125" xlink:href="#C2_0_b1f00d324e" y="315.490532"/>
    </g>
    <g clip-path="url(#pb917b076a7)">
     <use style="fill:#33a02c;" x="140.68125" xlink:href="#C2_0_b1f00d324e" y="315.490532"/>
    </g>
    <g clip-path="url(#pb917b076a7)">
     <use style="fill:#fb9a99;" x="170.08125" xlink:href="#C2_0_b1f00d324e" y="315.490532"/>
    </g>
    <g clip-path="url(#pb917b076a7)">
     <use style="fill:#e31a1c;" x="137.52525" xlink:href="#C2_0_b1f00d324e" y="315.490532"/>
    </g>
    <g clip-path="url(#pb917b076a7)">
     <use style="fill:#fdbf6f;" x="173.23725" xlink:href="#C2_0_b1f00d324e" y="315.490532"/>
    </g>
    <g clip-path="url(#pb917b076a7)">
     <use style="fill:#ff7f00;" x="137.52525" xlink:href="#C2_0_b1f00d324e" y="315.490532"/>
    </g>
    <g clip-path="url(#pb917b076a7)">
     <use style="fill:#cab2d6;" x="173.23725" xlink:href="#C2_0_b1f00d324e" y="315.490532"/>
    </g>
    <g clip-path="url(#pb917b076a7)">
     <use style="fill:#6a3d9a;" x="137.52525" xlink:href="#C2_0_b1f00d324e" y="315.490532"/>
    </g>
    <g clip-path="url(#pb917b076a7)">
     <use style="fill:#ffff99;" x="173.23725" xlink:href="#C2_0_b1f00d324e" y="315.490532"/>
    </g>
    <g clip-path="url(#pb917b076a7)">
     <use style="fill:#b15928;" x="137.52525" xlink:href="#C2_0_b1f00d324e" y="315.490532"/>
    </g>
    <g clip-path="url(#pb917b076a7)">
     <use style="fill:#6e6e6e;" x="173.23725" xlink:href="#C2_0_b1f00d324e" y="315.490532"/>
    </g>
    <g clip-path="url(#pb917b076a7)">
     <use x="137.52525" xlink:href="#C2_0_b1f00d324e" y="315.490532"/>
    </g>
   </g>
   <g id="PathCollection_18">
    <defs>
     <path d="M 0 3.5 
C 0.928211 3.5 1.81853 3.131218 2.474874 2.474874 
C 3.131218 1.81853 3.5 0.928211 3.5 0 
C 3.5 -0.928211 3.131218 -1.81853 2.474874 -2.474874 
C 1.81853 -3.131218 0.928211 -3.5 0 -3.5 
C -0.928211 -3.5 -1.81853 -3.131218 -2.474874 -2.474874 
C -3.131218 -1.81853 -3.5 -0.928211 -3.5 0 
C -3.5 0.928211 -3.131218 1.81853 -2.474874 2.474874 
C -1.81853 3.131218 -0.928211 3.5 0 3.5 
z
" id="C3_0_a200288e67"/>
    </defs>
    <g clip-path="url(#pb917b076a7)">
     <use style="fill:#6e6e6e;" x="200.02125" xlink:href="#C3_0_a200288e67" y="315.490532"/>
    </g>
    <g clip-path="url(#pb917b076a7)">
     <use style="fill:#6a3d9a;" x="193.166241" xlink:href="#C3_0_a200288e67" y="312.965132"/>
    </g>
    <g clip-path="url(#pb917b076a7)">
     <use style="fill:#b15928;" x="204.594904" xlink:href="#C3_0_a200288e67" y="310.01089"/>
    </g>
    <g clip-path="url(#pb917b076a7)">
     <use style="fill:#fb9a99;" x="211.839472" xlink:href="#C3_0_a200288e67" y="308.829499"/>
    </g>
    <g clip-path="url(#pb917b076a7)">
     <use style="fill:#ffff99;" x="197.960095" xlink:href="#C3_0_a200288e67" y="307.658954"/>
    </g>
    <g clip-path="url(#pb917b076a7)">
     <use style="fill:#1f78b4;" x="189.301251" xlink:href="#C3_0_a200288e67" y="307.011086"/>
    </g>
    <g clip-path="url(#pb917b076a7)">
     <use style="fill:#33a02c;" x="182.16525" xlink:href="#C3_0_a200288e67" y="306.948737"/>
    </g>
    <g clip-path="url(#pb917b076a7)">
     <use x="217.87725" xlink:href="#C3_0_a200288e67" y="306.944683"/>
    </g>
    <g clip-path="url(#pb917b076a7)">
     <use style="fill:#ff7f00;" x="182.16525" xlink:href="#C3_0_a200288e67" y="306.847049"/>
    </g>
    <g clip-path="url(#pb917b076a7)">
     <use style="fill:#b2df8a;" x="206.979876" xlink:href="#C3_0_a200288e67" y="303.389656"/>
    </g>
    <g clip-path="url(#pb917b076a7)">
     <use style="fill:#a6cee3;" x="217.87725" xlink:href="#C3_0_a200288e67" y="303.326301"/>
    </g>
    <g clip-path="url(#pb917b076a7)">
     <use style="fill:#fdbf6f;" x="200.02125" xlink:href="#C3_0_a200288e67" y="300.205216"/>
    </g>
    <g clip-path="url(#pb917b076a7)">
     <use style="fill:#e31a1c;" x="200.02125" xlink:href="#C3_0_a200288e67" y="293.150454"/>
    </g>
    <g clip-path="url(#pb917b076a7)">
     <use style="fill:#cab2d6;" x="192.674779" xlink:href="#C3_0_a200288e67" y="292.93356"/>
    </g>
   </g>
   <g id="PathCollection_19">
    <defs>
     <path d="M 0 3.5 
C 0.928211 3.5 1.81853 3.131218 2.474874 2.474874 
C 3.131218 1.81853 3.5 0.928211 3.5 0 
C 3.5 -0.928211 3.131218 -1.81853 2.474874 -2.474874 
C 1.81853 -3.131218 0.928211 -3.5 0 -3.5 
C -0.928211 -3.5 -1.81853 -3.131218 -2.474874 -2.474874 
C -3.131218 -1.81853 -3.5 -0.928211 -3.5 0 
C -3.5 0.928211 -3.131218 1.81853 -2.474874 2.474874 
C -1.81853 3.131218 -0.928211 3.5 0 3.5 
z
" id="C4_0_bc2461b0f9"/>
    </defs>
    <g clip-path="url(#pb917b076a7)">
     <use style="fill:#6a3d9a;" x="244.66125" xlink:href="#C4_0_bc2461b0f9" y="287.711131"/>
    </g>
    <g clip-path="url(#pb917b076a7)">
     <use style="fill:#1f78b4;" x="237.586782" xlink:href="#C4_0_bc2461b0f9" y="285.812473"/>
    </g>
    <g clip-path="url(#pb917b076a7)">
     <use style="fill:#b2df8a;" x="251.537373" xlink:href="#C4_0_bc2461b0f9" y="285.238344"/>
    </g>
    <g clip-path="url(#pb917b076a7)">
     <use style="fill:#a6cee3;" x="244.66125" xlink:href="#C4_0_bc2461b0f9" y="277.477311"/>
    </g>
    <g clip-path="url(#pb917b076a7)">
     <use x="237.64885" xlink:href="#C4_0_bc2461b0f9" y="275.380179"/>
    </g>
    <g clip-path="url(#pb917b076a7)">
     <use style="fill:#b15928;" x="244.66125" xlink:href="#C4_0_bc2461b0f9" y="270.283489"/>
    </g>
    <g clip-path="url(#pb917b076a7)">
     <use style="fill:#fb9a99;" x="252.010669" xlink:href="#C4_0_bc2461b0f9" y="270.195513"/>
    </g>
    <g clip-path="url(#pb917b076a7)">
     <use style="fill:#6e6e6e;" x="232.808713" xlink:href="#C4_0_bc2461b0f9" y="270.11225"/>
    </g>
    <g clip-path="url(#pb917b076a7)">
     <use style="fill:#ffff99;" x="259.349301" xlink:href="#C4_0_bc2461b0f9" y="269.806329"/>
    </g>
    <g clip-path="url(#pb917b076a7)">
     <use style="fill:#ff7f00;" x="239.43832" xlink:href="#C4_0_bc2461b0f9" y="265.358334"/>
    </g>
    <g clip-path="url(#pb917b076a7)">
     <use style="fill:#e31a1c;" x="245.813284" xlink:href="#C4_0_bc2461b0f9" y="261.874346"/>
    </g>
    <g clip-path="url(#pb917b076a7)">
     <use style="fill:#33a02c;" x="244.66125" xlink:href="#C4_0_bc2461b0f9" y="245.020729"/>
    </g>
    <g clip-path="url(#pb917b076a7)">
     <use style="fill:#cab2d6;" x="237.311282" xlink:href="#C4_0_bc2461b0f9" y="244.999997"/>
    </g>
    <g clip-path="url(#pb917b076a7)">
     <use style="fill:#fdbf6f;" x="244.66125" xlink:href="#C4_0_bc2461b0f9" y="223.778636"/>
    </g>
   </g>
   <g id="PathCollection_20">
    <defs>
     <path d="M 0 3.5 
C 0.928211 3.5 1.81853 3.131218 2.474874 2.474874 
C 3.131218 1.81853 3.5 0.928211 3.5 0 
C 3.5 -0.928211 3.131218 -1.81853 2.474874 -2.474874 
C 1.81853 -3.131218 0.928211 -3.5 0 -3.5 
C -0.928211 -3.5 -1.81853 -3.131218 -2.474874 -2.474874 
C -3.131218 -1.81853 -3.5 -0.928211 -3.5 0 
C -3.5 0.928211 -3.131218 1.81853 -2.474874 2.474874 
C -1.81853 3.131218 -0.928211 3.5 0 3.5 
z
" id="C5_0_c5d508cc44"/>
    </defs>
    <g clip-path="url(#pb917b076a7)">
     <use style="fill:#fdbf6f;" x="289.30125" xlink:href="#C5_0_c5d508cc44" y="295.11011"/>
    </g>
    <g clip-path="url(#pb917b076a7)">
     <use style="fill:#e31a1c;" x="289.30125" xlink:href="#C5_0_c5d508cc44" y="257.406331"/>
    </g>
    <g clip-path="url(#pb917b076a7)">
     <use style="fill:#33a02c;" x="289.30125" xlink:href="#C5_0_c5d508cc44" y="238.614383"/>
    </g>
    <g clip-path="url(#pb917b076a7)">
     <use style="fill:#cab2d6;" x="282.281026" xlink:href="#C5_0_c5d508cc44" y="236.541132"/>
    </g>
    <g clip-path="url(#pb917b076a7)">
     <use style="fill:#a6cee3;" x="289.30125" xlink:href="#C5_0_c5d508cc44" y="219.697216"/>
    </g>
    <g clip-path="url(#pb917b076a7)">
     <use style="fill:#ff7f00;" x="282.028725" xlink:href="#C5_0_c5d508cc44" y="218.68353"/>
    </g>
    <g clip-path="url(#pb917b076a7)">
     <use style="fill:#ffff99;" x="294.736733" xlink:href="#C5_0_c5d508cc44" y="214.985285"/>
    </g>
    <g clip-path="url(#pb917b076a7)">
     <use style="fill:#b15928;" x="289.30125" xlink:href="#C5_0_c5d508cc44" y="208.637521"/>
    </g>
    <g clip-path="url(#pb917b076a7)">
     <use x="289.30125" xlink:href="#C5_0_c5d508cc44" y="197.640527"/>
    </g>
    <g clip-path="url(#pb917b076a7)">
     <use style="fill:#1f78b4;" x="282.233783" xlink:href="#C5_0_c5d508cc44" y="195.718366"/>
    </g>
    <g clip-path="url(#pb917b076a7)">
     <use style="fill:#6e6e6e;" x="289.30125" xlink:href="#C5_0_c5d508cc44" y="179.355686"/>
    </g>
    <g clip-path="url(#pb917b076a7)">
     <use style="fill:#b2df8a;" x="282.673092" xlink:href="#C5_0_c5d508cc44" y="176.330467"/>
    </g>
    <g clip-path="url(#pb917b076a7)">
     <use style="fill:#fb9a99;" x="289.30125" xlink:href="#C5_0_c5d508cc44" y="167.615617"/>
    </g>
    <g clip-path="url(#pb917b076a7)">
     <use style="fill:#6a3d9a;" x="285.838525" xlink:href="#C5_0_c5d508cc44" y="161.441129"/>
    </g>
   </g>
   <g id="PathCollection_21">
    <defs>
     <path d="M 0 3.5 
C 0.928211 3.5 1.81853 3.131218 2.474874 2.474874 
C 3.131218 1.81853 3.5 0.928211 3.5 0 
C 3.5 -0.928211 3.131218 -1.81853 2.474874 -2.474874 
C 1.81853 -3.131218 0.928211 -3.5 0 -3.5 
C -0.928211 -3.5 -1.81853 -3.131218 -2.474874 -2.474874 
C -3.131218 -1.81853 -3.5 -0.928211 -3.5 0 
C -3.5 0.928211 -3.131218 1.81853 -2.474874 2.474874 
C -1.81853 3.131218 -0.928211 3.5 0 3.5 
z
" id="C6_0_70b47b36ec"/>
    </defs>
    <g clip-path="url(#pb917b076a7)">
     <use style="fill:#fb9a99;" x="333.94125" xlink:href="#C6_0_70b47b36ec" y="298.171848"/>
    </g>
    <g clip-path="url(#pb917b076a7)">
     <use style="fill:#e31a1c;" x="326.614253" xlink:href="#C6_0_70b47b36ec" y="297.61847"/>
    </g>
    <g clip-path="url(#pb917b076a7)">
     <use style="fill:#b2df8a;" x="332.603419" xlink:href="#C6_0_70b47b36ec" y="291.288781"/>
    </g>
    <g clip-path="url(#pb917b076a7)">
     <use style="fill:#ff7f00;" x="333.94125" xlink:href="#C6_0_70b47b36ec" y="282.645299"/>
    </g>
    <g clip-path="url(#pb917b076a7)">
     <use style="fill:#1f78b4;" x="326.678039" xlink:href="#C6_0_70b47b36ec" y="281.57275"/>
    </g>
    <g clip-path="url(#pb917b076a7)">
     <use x="341.057404" xlink:href="#C6_0_70b47b36ec" y="280.89363"/>
    </g>
    <g clip-path="url(#pb917b076a7)">
     <use style="fill:#6a3d9a;" x="348.364105" xlink:href="#C6_0_70b47b36ec" y="280.134931"/>
    </g>
    <g clip-path="url(#pb917b076a7)">
     <use style="fill:#ffff99;" x="321.804718" xlink:href="#C6_0_70b47b36ec" y="276.332643"/>
    </g>
    <g clip-path="url(#pb917b076a7)">
     <use style="fill:#cab2d6;" x="331.581629" xlink:href="#C6_0_70b47b36ec" y="276.015832"/>
    </g>
    <g clip-path="url(#pb917b076a7)">
     <use style="fill:#fdbf6f;" x="351.79725" xlink:href="#C6_0_70b47b36ec" y="274.729689"/>
    </g>
    <g clip-path="url(#pb917b076a7)">
     <use style="fill:#b15928;" x="343.784307" xlink:href="#C6_0_70b47b36ec" y="274.39322"/>
    </g>
    <g clip-path="url(#pb917b076a7)">
     <use style="fill:#6e6e6e;" x="316.08525" xlink:href="#C6_0_70b47b36ec" y="273.137468"/>
    </g>
    <g clip-path="url(#pb917b076a7)">
     <use style="fill:#33a02c;" x="333.94125" xlink:href="#C6_0_70b47b36ec" y="264.239766"/>
    </g>
    <g clip-path="url(#pb917b076a7)">
     <use style="fill:#a6cee3;" x="326.887626" xlink:href="#C6_0_70b47b36ec" y="262.272023"/>
    </g>
   </g>
   <g id="PathCollection_22">
    <defs>
     <path d="M 0 3.5 
C 0.928211 3.5 1.81853 3.131218 2.474874 2.474874 
C 3.131218 1.81853 3.5 0.928211 3.5 0 
C 3.5 -0.928211 3.131218 -1.81853 2.474874 -2.474874 
C 1.81853 -3.131218 0.928211 -3.5 0 -3.5 
C -0.928211 -3.5 -1.81853 -3.131218 -2.474874 -2.474874 
C -3.131218 -1.81853 -3.5 -0.928211 -3.5 0 
C -3.5 0.928211 -3.131218 1.81853 -2.474874 2.474874 
C -1.81853 3.131218 -0.928211 3.5 0 3.5 
z
" id="C7_0_0482371f10"/>
    </defs>
    <g clip-path="url(#pb917b076a7)">
     <use style="fill:#a6cee3;" x="378.58125" xlink:href="#C7_0_0482371f10" y="315.490532"/>
    </g>
    <g clip-path="url(#pb917b076a7)">
     <use style="fill:#fdbf6f;" x="371.23125" xlink:href="#C7_0_0482371f10" y="315.490532"/>
    </g>
    <g clip-path="url(#pb917b076a7)">
     <use style="fill:#6a3d9a;" x="385.93125" xlink:href="#C7_0_0482371f10" y="315.490532"/>
    </g>
    <g clip-path="url(#pb917b076a7)">
     <use style="fill:#cab2d6;" x="364.503893" xlink:href="#C7_0_0482371f10" y="312.67091"/>
    </g>
    <g clip-path="url(#pb917b076a7)">
     <use style="fill:#ffff99;" x="390.827068" xlink:href="#C7_0_0482371f10" y="310.26948"/>
    </g>
    <g clip-path="url(#pb917b076a7)">
     <use style="fill:#1f78b4;" x="396.43725" xlink:href="#C7_0_0482371f10" y="310.190878"/>
    </g>
    <g clip-path="url(#pb917b076a7)">
     <use style="fill:#b15928;" x="378.58125" xlink:href="#C7_0_0482371f10" y="307.271069"/>
    </g>
    <g clip-path="url(#pb917b076a7)">
     <use x="371.242979" xlink:href="#C7_0_0482371f10" y="306.875765"/>
    </g>
    <g clip-path="url(#pb917b076a7)">
     <use style="fill:#fb9a99;" x="383.612871" xlink:href="#C7_0_0482371f10" y="302.168467"/>
    </g>
    <g clip-path="url(#pb917b076a7)">
     <use style="fill:#33a02c;" x="376.55475" xlink:href="#C7_0_0482371f10" y="300.542392"/>
    </g>
    <g clip-path="url(#pb917b076a7)">
     <use style="fill:#ff7f00;" x="369.627145" xlink:href="#C7_0_0482371f10" y="298.203567"/>
    </g>
    <g clip-path="url(#pb917b076a7)">
     <use style="fill:#e31a1c;" x="389.198389" xlink:href="#C7_0_0482371f10" y="297.61847"/>
    </g>
    <g clip-path="url(#pb917b076a7)">
     <use style="fill:#6e6e6e;" x="362.333393" xlink:href="#C7_0_0482371f10" y="297.339219"/>
    </g>
    <g clip-path="url(#pb917b076a7)">
     <use style="fill:#b2df8a;" x="378.58125" xlink:href="#C7_0_0482371f10" y="285.238344"/>
    </g>
   </g>
   <g id="PathCollection_23">
    <defs>
     <path d="M 0 3.5 
C 0.928211 3.5 1.81853 3.131218 2.474874 2.474874 
C 3.131218 1.81853 3.5 0.928211 3.5 0 
C 3.5 -0.928211 3.131218 -1.81853 2.474874 -2.474874 
C 1.81853 -3.131218 0.928211 -3.5 0 -3.5 
C -0.928211 -3.5 -1.81853 -3.131218 -2.474874 -2.474874 
C -3.131218 -1.81853 -3.5 -0.928211 -3.5 0 
C -3.5 0.928211 -3.131218 1.81853 -2.474874 2.474874 
C -1.81853 3.131218 -0.928211 3.5 0 3.5 
z
" id="C8_0_234683bbac"/>
    </defs>
    <g clip-path="url(#pb917b076a7)">
     <use style="fill:#6e6e6e;" x="423.22125" xlink:href="#C8_0_234683bbac" y="267.087031"/>
    </g>
    <g clip-path="url(#pb917b076a7)">
     <use style="fill:#b2df8a;" x="419.524981" xlink:href="#C8_0_234683bbac" y="261.036593"/>
    </g>
    <g clip-path="url(#pb917b076a7)">
     <use style="fill:#fb9a99;" x="424.077807" xlink:href="#C8_0_234683bbac" y="255.541242"/>
    </g>
    <g clip-path="url(#pb917b076a7)">
     <use style="fill:#33a02c;" x="423.22125" xlink:href="#C8_0_234683bbac" y="247.156178"/>
    </g>
    <g clip-path="url(#pb917b076a7)">
     <use style="fill:#6a3d9a;" x="416.307927" xlink:href="#C8_0_234683bbac" y="244.779331"/>
    </g>
    <g clip-path="url(#pb917b076a7)">
     <use style="fill:#cab2d6;" x="423.22125" xlink:href="#C8_0_234683bbac" y="239.360754"/>
    </g>
    <g clip-path="url(#pb917b076a7)">
     <use x="417.656801" xlink:href="#C8_0_234683bbac" y="234.7874"/>
    </g>
    <g clip-path="url(#pb917b076a7)">
     <use style="fill:#b15928;" x="424.36468" xlink:href="#C8_0_234683bbac" y="231.925997"/>
    </g>
    <g clip-path="url(#pb917b076a7)">
     <use style="fill:#ff7f00;" x="431.616279" xlink:href="#C8_0_234683bbac" y="230.784405"/>
    </g>
    <g clip-path="url(#pb917b076a7)">
     <use style="fill:#a6cee3;" x="423.22125" xlink:href="#C8_0_234683bbac" y="224.258803"/>
    </g>
    <g clip-path="url(#pb917b076a7)">
     <use style="fill:#ffff99;" x="415.918125" xlink:href="#C8_0_234683bbac" y="223.469494"/>
    </g>
    <g clip-path="url(#pb917b076a7)">
     <use style="fill:#1f78b4;" x="430.251511" xlink:href="#C8_0_234683bbac" y="222.216632"/>
    </g>
    <g clip-path="url(#pb917b076a7)">
     <use style="fill:#e31a1c;" x="423.22125" xlink:href="#C8_0_234683bbac" y="194.854114"/>
    </g>
    <g clip-path="url(#pb917b076a7)">
     <use style="fill:#fdbf6f;" x="416.077366" xlink:href="#C8_0_234683bbac" y="193.208003"/>
    </g>
   </g>
   <g id="PathCollection_24">
    <defs>
     <path d="M 0 3.5 
C 0.928211 3.5 1.81853 3.131218 2.474874 2.474874 
C 3.131218 1.81853 3.5 0.928211 3.5 0 
C 3.5 -0.928211 3.131218 -1.81853 2.474874 -2.474874 
C 1.81853 -3.131218 0.928211 -3.5 0 -3.5 
C -0.928211 -3.5 -1.81853 -3.131218 -2.474874 -2.474874 
C -3.131218 -1.81853 -3.5 -0.928211 -3.5 0 
C -3.5 0.928211 -3.131218 1.81853 -2.474874 2.474874 
C -1.81853 3.131218 -0.928211 3.5 0 3.5 
z
" id="C9_0_37411aef2b"/>
    </defs>
    <g clip-path="url(#pb917b076a7)">
     <use style="fill:#a6cee3;" x="467.86125" xlink:href="#C9_0_37411aef2b" y="25.069527"/>
    </g>
    <g clip-path="url(#pb917b076a7)">
     <use style="fill:#1f78b4;" x="460.51125" xlink:href="#C9_0_37411aef2b" y="25.069527"/>
    </g>
    <g clip-path="url(#pb917b076a7)">
     <use style="fill:#b2df8a;" x="475.21125" xlink:href="#C9_0_37411aef2b" y="25.069527"/>
    </g>
    <g clip-path="url(#pb917b076a7)">
     <use style="fill:#33a02c;" x="453.16125" xlink:href="#C9_0_37411aef2b" y="25.069527"/>
    </g>
    <g clip-path="url(#pb917b076a7)">
     <use style="fill:#fb9a99;" x="482.56125" xlink:href="#C9_0_37411aef2b" y="25.069527"/>
    </g>
    <g clip-path="url(#pb917b076a7)">
     <use style="fill:#e31a1c;" x="485.71725" xlink:href="#C9_0_37411aef2b" y="25.069527"/>
    </g>
    <g clip-path="url(#pb917b076a7)">
     <use style="fill:#fdbf6f;" x="450.00525" xlink:href="#C9_0_37411aef2b" y="25.069527"/>
    </g>
    <g clip-path="url(#pb917b076a7)">
     <use style="fill:#ff7f00;" x="485.71725" xlink:href="#C9_0_37411aef2b" y="25.069527"/>
    </g>
    <g clip-path="url(#pb917b076a7)">
     <use style="fill:#cab2d6;" x="450.00525" xlink:href="#C9_0_37411aef2b" y="25.069527"/>
    </g>
    <g clip-path="url(#pb917b076a7)">
     <use style="fill:#6a3d9a;" x="485.71725" xlink:href="#C9_0_37411aef2b" y="25.069527"/>
    </g>
    <g clip-path="url(#pb917b076a7)">
     <use style="fill:#ffff99;" x="450.00525" xlink:href="#C9_0_37411aef2b" y="25.069527"/>
    </g>
    <g clip-path="url(#pb917b076a7)">
     <use style="fill:#b15928;" x="485.71725" xlink:href="#C9_0_37411aef2b" y="25.069527"/>
    </g>
    <g clip-path="url(#pb917b076a7)">
     <use style="fill:#6e6e6e;" x="450.00525" xlink:href="#C9_0_37411aef2b" y="25.069527"/>
    </g>
    <g clip-path="url(#pb917b076a7)">
     <use x="485.71725" xlink:href="#C9_0_37411aef2b" y="25.069527"/>
    </g>
   </g>
   <g id="legend_1">
    <g id="patch_7">
     <path d="M 535.835625 274.526875 
L 617.10125 274.526875 
Q 619.10125 274.526875 619.10125 272.526875 
L 619.10125 68.033125 
Q 619.10125 66.033125 617.10125 66.033125 
L 535.835625 66.033125 
Q 533.835625 66.033125 533.835625 68.033125 
L 533.835625 272.526875 
Q 533.835625 274.526875 535.835625 274.526875 
z
" style="fill:#ffffff;opacity:0.8;stroke:#cccccc;stroke-linejoin:miter;"/>
    </g>
    <g id="PathCollection_25">
     <defs>
      <path d="M 0 3.872983 
C 1.027127 3.872983 2.012324 3.464901 2.738613 2.738613 
C 3.464901 2.012324 3.872983 1.027127 3.872983 0 
C 3.872983 -1.027127 3.464901 -2.012324 2.738613 -2.738613 
C 2.012324 -3.464901 1.027127 -3.872983 0 -3.872983 
C -1.027127 -3.872983 -2.012324 -3.464901 -2.738613 -2.738613 
C -3.464901 -2.012324 -3.872983 -1.027127 -3.872983 0 
C -3.872983 1.027127 -3.464901 2.012324 -2.738613 2.738613 
C -2.012324 3.464901 -1.027127 3.872983 0 3.872983 
z
" id="me56699f523" style="stroke:#a6cee3;"/>
     </defs>
     <g>
      <use style="fill:#a6cee3;stroke:#a6cee3;" x="547.835625" xlink:href="#me56699f523" y="75.006562"/>
     </g>
    </g>
    <g id="text_19">
     <!-- BLCA -->
     <defs>
      <path d="M 19.671875 34.8125 
L 19.671875 8.109375 
L 35.5 8.109375 
Q 43.453125 8.109375 47.28125 11.40625 
Q 51.125 14.703125 51.125 21.484375 
Q 51.125 28.328125 47.28125 31.5625 
Q 43.453125 34.8125 35.5 34.8125 
z
M 19.671875 64.796875 
L 19.671875 42.828125 
L 34.28125 42.828125 
Q 41.5 42.828125 45.03125 45.53125 
Q 48.578125 48.25 48.578125 53.8125 
Q 48.578125 59.328125 45.03125 62.0625 
Q 41.5 64.796875 34.28125 64.796875 
z
M 9.8125 72.90625 
L 35.015625 72.90625 
Q 46.296875 72.90625 52.390625 68.21875 
Q 58.5 63.53125 58.5 54.890625 
Q 58.5 48.1875 55.375 44.234375 
Q 52.25 40.28125 46.1875 39.3125 
Q 53.46875 37.75 57.5 32.78125 
Q 61.53125 27.828125 61.53125 20.40625 
Q 61.53125 10.640625 54.890625 5.3125 
Q 48.25 0 35.984375 0 
L 9.8125 0 
z
" id="DejaVuSans-66"/>
      <path d="M 9.8125 72.90625 
L 19.671875 72.90625 
L 19.671875 8.296875 
L 55.171875 8.296875 
L 55.171875 0 
L 9.8125 0 
z
" id="DejaVuSans-76"/>
      <path d="M 64.40625 67.28125 
L 64.40625 56.890625 
Q 59.421875 61.53125 53.78125 63.8125 
Q 48.140625 66.109375 41.796875 66.109375 
Q 29.296875 66.109375 22.65625 58.46875 
Q 16.015625 50.828125 16.015625 36.375 
Q 16.015625 21.96875 22.65625 14.328125 
Q 29.296875 6.6875 41.796875 6.6875 
Q 48.140625 6.6875 53.78125 8.984375 
Q 59.421875 11.28125 64.40625 15.921875 
L 64.40625 5.609375 
Q 59.234375 2.09375 53.4375 0.328125 
Q 47.65625 -1.421875 41.21875 -1.421875 
Q 24.65625 -1.421875 15.125 8.703125 
Q 5.609375 18.84375 5.609375 36.375 
Q 5.609375 53.953125 15.125 64.078125 
Q 24.65625 74.21875 41.21875 74.21875 
Q 47.75 74.21875 53.53125 72.484375 
Q 59.328125 70.75 64.40625 67.28125 
z
" id="DejaVuSans-67"/>
      <path d="M 34.1875 63.1875 
L 20.796875 26.90625 
L 47.609375 26.90625 
z
M 28.609375 72.90625 
L 39.796875 72.90625 
L 67.578125 0 
L 57.328125 0 
L 50.6875 18.703125 
L 17.828125 18.703125 
L 11.1875 0 
L 0.78125 0 
z
" id="DejaVuSans-65"/>
     </defs>
     <g transform="translate(565.835625 77.631562)scale(0.1 -0.1)">
      <use xlink:href="#DejaVuSans-66"/>
      <use x="68.603516" xlink:href="#DejaVuSans-76"/>
      <use x="124.316406" xlink:href="#DejaVuSans-67"/>
      <use x="194.140625" xlink:href="#DejaVuSans-65"/>
     </g>
    </g>
    <g id="PathCollection_26">
     <defs>
      <path d="M 0 3.872983 
C 1.027127 3.872983 2.012324 3.464901 2.738613 2.738613 
C 3.464901 2.012324 3.872983 1.027127 3.872983 0 
C 3.872983 -1.027127 3.464901 -2.012324 2.738613 -2.738613 
C 2.012324 -3.464901 1.027127 -3.872983 0 -3.872983 
C -1.027127 -3.872983 -2.012324 -3.464901 -2.738613 -2.738613 
C -3.464901 -2.012324 -3.872983 -1.027127 -3.872983 0 
C -3.872983 1.027127 -3.464901 2.012324 -2.738613 2.738613 
C -2.012324 3.464901 -1.027127 3.872983 0 3.872983 
z
" id="m3a045a95e9" style="stroke:#1f78b4;"/>
     </defs>
     <g>
      <use style="fill:#1f78b4;stroke:#1f78b4;" x="547.835625" xlink:href="#m3a045a95e9" y="89.684687"/>
     </g>
    </g>
    <g id="text_20">
     <!-- BRCA -->
     <defs>
      <path d="M 44.390625 34.1875 
Q 47.5625 33.109375 50.5625 29.59375 
Q 53.5625 26.078125 56.59375 19.921875 
L 66.609375 0 
L 56 0 
L 46.6875 18.703125 
Q 43.0625 26.03125 39.671875 28.421875 
Q 36.28125 30.8125 30.421875 30.8125 
L 19.671875 30.8125 
L 19.671875 0 
L 9.8125 0 
L 9.8125 72.90625 
L 32.078125 72.90625 
Q 44.578125 72.90625 50.734375 67.671875 
Q 56.890625 62.453125 56.890625 51.90625 
Q 56.890625 45.015625 53.6875 40.46875 
Q 50.484375 35.9375 44.390625 34.1875 
z
M 19.671875 64.796875 
L 19.671875 38.921875 
L 32.078125 38.921875 
Q 39.203125 38.921875 42.84375 42.21875 
Q 46.484375 45.515625 46.484375 51.90625 
Q 46.484375 58.296875 42.84375 61.546875 
Q 39.203125 64.796875 32.078125 64.796875 
z
" id="DejaVuSans-82"/>
     </defs>
     <g transform="translate(565.835625 92.309687)scale(0.1 -0.1)">
      <use xlink:href="#DejaVuSans-66"/>
      <use x="68.603516" xlink:href="#DejaVuSans-82"/>
      <use x="138.007812" xlink:href="#DejaVuSans-67"/>
      <use x="207.832031" xlink:href="#DejaVuSans-65"/>
     </g>
    </g>
    <g id="PathCollection_27">
     <defs>
      <path d="M 0 3.872983 
C 1.027127 3.872983 2.012324 3.464901 2.738613 2.738613 
C 3.464901 2.012324 3.872983 1.027127 3.872983 0 
C 3.872983 -1.027127 3.464901 -2.012324 2.738613 -2.738613 
C 2.012324 -3.464901 1.027127 -3.872983 0 -3.872983 
C -1.027127 -3.872983 -2.012324 -3.464901 -2.738613 -2.738613 
C -3.464901 -2.012324 -3.872983 -1.027127 -3.872983 0 
C -3.872983 1.027127 -3.464901 2.012324 -2.738613 2.738613 
C -2.012324 3.464901 -1.027127 3.872983 0 3.872983 
z
" id="m31dd473334" style="stroke:#b2df8a;"/>
     </defs>
     <g>
      <use style="fill:#b2df8a;stroke:#b2df8a;" x="547.835625" xlink:href="#m31dd473334" y="104.362812"/>
     </g>
    </g>
    <g id="text_21">
     <!-- COAD -->
     <defs>
      <path d="M 19.671875 64.796875 
L 19.671875 8.109375 
L 31.59375 8.109375 
Q 46.6875 8.109375 53.6875 14.9375 
Q 60.6875 21.78125 60.6875 36.53125 
Q 60.6875 51.171875 53.6875 57.984375 
Q 46.6875 64.796875 31.59375 64.796875 
z
M 9.8125 72.90625 
L 30.078125 72.90625 
Q 51.265625 72.90625 61.171875 64.09375 
Q 71.09375 55.28125 71.09375 36.53125 
Q 71.09375 17.671875 61.125 8.828125 
Q 51.171875 0 30.078125 0 
L 9.8125 0 
z
" id="DejaVuSans-68"/>
     </defs>
     <g transform="translate(565.835625 106.987812)scale(0.1 -0.1)">
      <use xlink:href="#DejaVuSans-67"/>
      <use x="69.824219" xlink:href="#DejaVuSans-79"/>
      <use x="148.519531" xlink:href="#DejaVuSans-65"/>
      <use x="216.927734" xlink:href="#DejaVuSans-68"/>
     </g>
    </g>
    <g id="PathCollection_28">
     <defs>
      <path d="M 0 3.872983 
C 1.027127 3.872983 2.012324 3.464901 2.738613 2.738613 
C 3.464901 2.012324 3.872983 1.027127 3.872983 0 
C 3.872983 -1.027127 3.464901 -2.012324 2.738613 -2.738613 
C 2.012324 -3.464901 1.027127 -3.872983 0 -3.872983 
C -1.027127 -3.872983 -2.012324 -3.464901 -2.738613 -2.738613 
C -3.464901 -2.012324 -3.872983 -1.027127 -3.872983 0 
C -3.872983 1.027127 -3.464901 2.012324 -2.738613 2.738613 
C -2.012324 3.464901 -1.027127 3.872983 0 3.872983 
z
" id="m3cb127623e" style="stroke:#33a02c;"/>
     </defs>
     <g>
      <use style="fill:#33a02c;stroke:#33a02c;" x="547.835625" xlink:href="#m3cb127623e" y="119.040937"/>
     </g>
    </g>
    <g id="text_22">
     <!-- ESCA -->
     <defs>
      <path d="M 9.8125 72.90625 
L 55.90625 72.90625 
L 55.90625 64.59375 
L 19.671875 64.59375 
L 19.671875 43.015625 
L 54.390625 43.015625 
L 54.390625 34.71875 
L 19.671875 34.71875 
L 19.671875 8.296875 
L 56.78125 8.296875 
L 56.78125 0 
L 9.8125 0 
z
" id="DejaVuSans-69"/>
     </defs>
     <g transform="translate(565.835625 121.665937)scale(0.1 -0.1)">
      <use xlink:href="#DejaVuSans-69"/>
      <use x="63.183594" xlink:href="#DejaVuSans-83"/>
      <use x="126.660156" xlink:href="#DejaVuSans-67"/>
      <use x="196.484375" xlink:href="#DejaVuSans-65"/>
     </g>
    </g>
    <g id="PathCollection_29">
     <defs>
      <path d="M 0 3.872983 
C 1.027127 3.872983 2.012324 3.464901 2.738613 2.738613 
C 3.464901 2.012324 3.872983 1.027127 3.872983 0 
C 3.872983 -1.027127 3.464901 -2.012324 2.738613 -2.738613 
C 2.012324 -3.464901 1.027127 -3.872983 0 -3.872983 
C -1.027127 -3.872983 -2.012324 -3.464901 -2.738613 -2.738613 
C -3.464901 -2.012324 -3.872983 -1.027127 -3.872983 0 
C -3.872983 1.027127 -3.464901 2.012324 -2.738613 2.738613 
C -2.012324 3.464901 -1.027127 3.872983 0 3.872983 
z
" id="m58f1a1bc40" style="stroke:#fb9a99;"/>
     </defs>
     <g>
      <use style="fill:#fb9a99;stroke:#fb9a99;" x="547.835625" xlink:href="#m58f1a1bc40" y="133.719063"/>
     </g>
    </g>
    <g id="text_23">
     <!-- HNSC -->
     <defs>
      <path d="M 9.8125 72.90625 
L 19.671875 72.90625 
L 19.671875 43.015625 
L 55.515625 43.015625 
L 55.515625 72.90625 
L 65.375 72.90625 
L 65.375 0 
L 55.515625 0 
L 55.515625 34.71875 
L 19.671875 34.71875 
L 19.671875 0 
L 9.8125 0 
z
" id="DejaVuSans-72"/>
     </defs>
     <g transform="translate(565.835625 136.344063)scale(0.1 -0.1)">
      <use xlink:href="#DejaVuSans-72"/>
      <use x="75.195312" xlink:href="#DejaVuSans-78"/>
      <use x="150" xlink:href="#DejaVuSans-83"/>
      <use x="213.476562" xlink:href="#DejaVuSans-67"/>
     </g>
    </g>
    <g id="PathCollection_30">
     <defs>
      <path d="M 0 3.872983 
C 1.027127 3.872983 2.012324 3.464901 2.738613 2.738613 
C 3.464901 2.012324 3.872983 1.027127 3.872983 0 
C 3.872983 -1.027127 3.464901 -2.012324 2.738613 -2.738613 
C 2.012324 -3.464901 1.027127 -3.872983 0 -3.872983 
C -1.027127 -3.872983 -2.012324 -3.464901 -2.738613 -2.738613 
C -3.464901 -2.012324 -3.872983 -1.027127 -3.872983 0 
C -3.872983 1.027127 -3.464901 2.012324 -2.738613 2.738613 
C -2.012324 3.464901 -1.027127 3.872983 0 3.872983 
z
" id="m79f66ae9b0" style="stroke:#e31a1c;"/>
     </defs>
     <g>
      <use style="fill:#e31a1c;stroke:#e31a1c;" x="547.835625" xlink:href="#m79f66ae9b0" y="148.397187"/>
     </g>
    </g>
    <g id="text_24">
     <!-- KIRC -->
     <defs>
      <path d="M 9.8125 72.90625 
L 19.671875 72.90625 
L 19.671875 42.09375 
L 52.390625 72.90625 
L 65.09375 72.90625 
L 28.90625 38.921875 
L 67.671875 0 
L 54.6875 0 
L 19.671875 35.109375 
L 19.671875 0 
L 9.8125 0 
z
" id="DejaVuSans-75"/>
     </defs>
     <g transform="translate(565.835625 151.022187)scale(0.1 -0.1)">
      <use xlink:href="#DejaVuSans-75"/>
      <use x="65.576172" xlink:href="#DejaVuSans-73"/>
      <use x="95.068359" xlink:href="#DejaVuSans-82"/>
      <use x="164.472656" xlink:href="#DejaVuSans-67"/>
     </g>
    </g>
    <g id="PathCollection_31">
     <defs>
      <path d="M 0 3.872983 
C 1.027127 3.872983 2.012324 3.464901 2.738613 2.738613 
C 3.464901 2.012324 3.872983 1.027127 3.872983 0 
C 3.872983 -1.027127 3.464901 -2.012324 2.738613 -2.738613 
C 2.012324 -3.464901 1.027127 -3.872983 0 -3.872983 
C -1.027127 -3.872983 -2.012324 -3.464901 -2.738613 -2.738613 
C -3.464901 -2.012324 -3.872983 -1.027127 -3.872983 0 
C -3.872983 1.027127 -3.464901 2.012324 -2.738613 2.738613 
C -2.012324 3.464901 -1.027127 3.872983 0 3.872983 
z
" id="m051010ba8f" style="stroke:#fdbf6f;"/>
     </defs>
     <g>
      <use style="fill:#fdbf6f;stroke:#fdbf6f;" x="547.835625" xlink:href="#m051010ba8f" y="163.075312"/>
     </g>
    </g>
    <g id="text_25">
     <!-- KIRP -->
     <g transform="translate(565.835625 165.700312)scale(0.1 -0.1)">
      <use xlink:href="#DejaVuSans-75"/>
      <use x="65.576172" xlink:href="#DejaVuSans-73"/>
      <use x="95.068359" xlink:href="#DejaVuSans-82"/>
      <use x="164.550781" xlink:href="#DejaVuSans-80"/>
     </g>
    </g>
    <g id="PathCollection_32">
     <defs>
      <path d="M 0 3.872983 
C 1.027127 3.872983 2.012324 3.464901 2.738613 2.738613 
C 3.464901 2.012324 3.872983 1.027127 3.872983 0 
C 3.872983 -1.027127 3.464901 -2.012324 2.738613 -2.738613 
C 2.012324 -3.464901 1.027127 -3.872983 0 -3.872983 
C -1.027127 -3.872983 -2.012324 -3.464901 -2.738613 -2.738613 
C -3.464901 -2.012324 -3.872983 -1.027127 -3.872983 0 
C -3.872983 1.027127 -3.464901 2.012324 -2.738613 2.738613 
C -2.012324 3.464901 -1.027127 3.872983 0 3.872983 
z
" id="m93c3e08444" style="stroke:#ff7f00;"/>
     </defs>
     <g>
      <use style="fill:#ff7f00;stroke:#ff7f00;" x="547.835625" xlink:href="#m93c3e08444" y="177.753437"/>
     </g>
    </g>
    <g id="text_26">
     <!-- LIHC -->
     <g transform="translate(565.835625 180.378437)scale(0.1 -0.1)">
      <use xlink:href="#DejaVuSans-76"/>
      <use x="55.712891" xlink:href="#DejaVuSans-73"/>
      <use x="85.205078" xlink:href="#DejaVuSans-72"/>
      <use x="160.400391" xlink:href="#DejaVuSans-67"/>
     </g>
    </g>
    <g id="PathCollection_33">
     <defs>
      <path d="M 0 3.872983 
C 1.027127 3.872983 2.012324 3.464901 2.738613 2.738613 
C 3.464901 2.012324 3.872983 1.027127 3.872983 0 
C 3.872983 -1.027127 3.464901 -2.012324 2.738613 -2.738613 
C 2.012324 -3.464901 1.027127 -3.872983 0 -3.872983 
C -1.027127 -3.872983 -2.012324 -3.464901 -2.738613 -2.738613 
C -3.464901 -2.012324 -3.872983 -1.027127 -3.872983 0 
C -3.872983 1.027127 -3.464901 2.012324 -2.738613 2.738613 
C -2.012324 3.464901 -1.027127 3.872983 0 3.872983 
z
" id="mf058d8502b" style="stroke:#cab2d6;"/>
     </defs>
     <g>
      <use style="fill:#cab2d6;stroke:#cab2d6;" x="547.835625" xlink:href="#mf058d8502b" y="192.431562"/>
     </g>
    </g>
    <g id="text_27">
     <!-- LUAD -->
     <defs>
      <path d="M 8.6875 72.90625 
L 18.609375 72.90625 
L 18.609375 28.609375 
Q 18.609375 16.890625 22.84375 11.734375 
Q 27.09375 6.59375 36.625 6.59375 
Q 46.09375 6.59375 50.34375 11.734375 
Q 54.59375 16.890625 54.59375 28.609375 
L 54.59375 72.90625 
L 64.5 72.90625 
L 64.5 27.390625 
Q 64.5 13.140625 57.4375 5.859375 
Q 50.390625 -1.421875 36.625 -1.421875 
Q 22.796875 -1.421875 15.734375 5.859375 
Q 8.6875 13.140625 8.6875 27.390625 
z
" id="DejaVuSans-85"/>
     </defs>
     <g transform="translate(565.835625 195.056562)scale(0.1 -0.1)">
      <use xlink:href="#DejaVuSans-76"/>
      <use x="55.634766" xlink:href="#DejaVuSans-85"/>
      <use x="128.828125" xlink:href="#DejaVuSans-65"/>
      <use x="197.236328" xlink:href="#DejaVuSans-68"/>
     </g>
    </g>
    <g id="PathCollection_34">
     <defs>
      <path d="M 0 3.872983 
C 1.027127 3.872983 2.012324 3.464901 2.738613 2.738613 
C 3.464901 2.012324 3.872983 1.027127 3.872983 0 
C 3.872983 -1.027127 3.464901 -2.012324 2.738613 -2.738613 
C 2.012324 -3.464901 1.027127 -3.872983 0 -3.872983 
C -1.027127 -3.872983 -2.012324 -3.464901 -2.738613 -2.738613 
C -3.464901 -2.012324 -3.872983 -1.027127 -3.872983 0 
C -3.872983 1.027127 -3.464901 2.012324 -2.738613 2.738613 
C -2.012324 3.464901 -1.027127 3.872983 0 3.872983 
z
" id="m4eed2c126e" style="stroke:#6a3d9a;"/>
     </defs>
     <g>
      <use style="fill:#6a3d9a;stroke:#6a3d9a;" x="547.835625" xlink:href="#m4eed2c126e" y="207.109687"/>
     </g>
    </g>
    <g id="text_28">
     <!-- LUSC -->
     <g transform="translate(565.835625 209.734687)scale(0.1 -0.1)">
      <use xlink:href="#DejaVuSans-76"/>
      <use x="55.634766" xlink:href="#DejaVuSans-85"/>
      <use x="128.828125" xlink:href="#DejaVuSans-83"/>
      <use x="192.304688" xlink:href="#DejaVuSans-67"/>
     </g>
    </g>
    <g id="PathCollection_35">
     <defs>
      <path d="M 0 3.872983 
C 1.027127 3.872983 2.012324 3.464901 2.738613 2.738613 
C 3.464901 2.012324 3.872983 1.027127 3.872983 0 
C 3.872983 -1.027127 3.464901 -2.012324 2.738613 -2.738613 
C 2.012324 -3.464901 1.027127 -3.872983 0 -3.872983 
C -1.027127 -3.872983 -2.012324 -3.464901 -2.738613 -2.738613 
C -3.464901 -2.012324 -3.872983 -1.027127 -3.872983 0 
C -3.872983 1.027127 -3.464901 2.012324 -2.738613 2.738613 
C -2.012324 3.464901 -1.027127 3.872983 0 3.872983 
z
" id="m45f9d10c9f" style="stroke:#ffff99;"/>
     </defs>
     <g>
      <use style="fill:#ffff99;stroke:#ffff99;" x="547.835625" xlink:href="#m45f9d10c9f" y="221.787812"/>
     </g>
    </g>
    <g id="text_29">
     <!-- PRAD -->
     <g transform="translate(565.835625 224.412812)scale(0.1 -0.1)">
      <use xlink:href="#DejaVuSans-80"/>
      <use x="60.302734" xlink:href="#DejaVuSans-82"/>
      <use x="129.722656" xlink:href="#DejaVuSans-65"/>
      <use x="198.130859" xlink:href="#DejaVuSans-68"/>
     </g>
    </g>
    <g id="PathCollection_36">
     <defs>
      <path d="M 0 3.872983 
C 1.027127 3.872983 2.012324 3.464901 2.738613 2.738613 
C 3.464901 2.012324 3.872983 1.027127 3.872983 0 
C 3.872983 -1.027127 3.464901 -2.012324 2.738613 -2.738613 
C 2.012324 -3.464901 1.027127 -3.872983 0 -3.872983 
C -1.027127 -3.872983 -2.012324 -3.464901 -2.738613 -2.738613 
C -3.464901 -2.012324 -3.872983 -1.027127 -3.872983 0 
C -3.872983 1.027127 -3.464901 2.012324 -2.738613 2.738613 
C -2.012324 3.464901 -1.027127 3.872983 0 3.872983 
z
" id="mdf551b1405" style="stroke:#b15928;"/>
     </defs>
     <g>
      <use style="fill:#b15928;stroke:#b15928;" x="547.835625" xlink:href="#mdf551b1405" y="236.465937"/>
     </g>
    </g>
    <g id="text_30">
     <!-- THCA -->
     <defs>
      <path d="M -0.296875 72.90625 
L 61.375 72.90625 
L 61.375 64.59375 
L 35.5 64.59375 
L 35.5 0 
L 25.59375 0 
L 25.59375 64.59375 
L -0.296875 64.59375 
z
" id="DejaVuSans-84"/>
     </defs>
     <g transform="translate(565.835625 239.090937)scale(0.1 -0.1)">
      <use xlink:href="#DejaVuSans-84"/>
      <use x="61.083984" xlink:href="#DejaVuSans-72"/>
      <use x="136.279297" xlink:href="#DejaVuSans-67"/>
      <use x="206.103516" xlink:href="#DejaVuSans-65"/>
     </g>
    </g>
    <g id="PathCollection_37">
     <defs>
      <path d="M 0 3.872983 
C 1.027127 3.872983 2.012324 3.464901 2.738613 2.738613 
C 3.464901 2.012324 3.872983 1.027127 3.872983 0 
C 3.872983 -1.027127 3.464901 -2.012324 2.738613 -2.738613 
C 2.012324 -3.464901 1.027127 -3.872983 0 -3.872983 
C -1.027127 -3.872983 -2.012324 -3.464901 -2.738613 -2.738613 
C -3.464901 -2.012324 -3.872983 -1.027127 -3.872983 0 
C -3.872983 1.027127 -3.464901 2.012324 -2.738613 2.738613 
C -2.012324 3.464901 -1.027127 3.872983 0 3.872983 
z
" id="mbeada01e54" style="stroke:#6e6e6e;"/>
     </defs>
     <g>
      <use style="fill:#6e6e6e;stroke:#6e6e6e;" x="547.835625" xlink:href="#mbeada01e54" y="251.144062"/>
     </g>
    </g>
    <g id="text_31">
     <!-- UCEC -->
     <g transform="translate(565.835625 253.769062)scale(0.1 -0.1)">
      <use xlink:href="#DejaVuSans-85"/>
      <use x="73.193359" xlink:href="#DejaVuSans-67"/>
      <use x="143.017578" xlink:href="#DejaVuSans-69"/>
      <use x="206.201172" xlink:href="#DejaVuSans-67"/>
     </g>
    </g>
    <g id="PathCollection_38">
     <defs>
      <path d="M 0 3.872983 
C 1.027127 3.872983 2.012324 3.464901 2.738613 2.738613 
C 3.464901 2.012324 3.872983 1.027127 3.872983 0 
C 3.872983 -1.027127 3.464901 -2.012324 2.738613 -2.738613 
C 2.012324 -3.464901 1.027127 -3.872983 0 -3.872983 
C -1.027127 -3.872983 -2.012324 -3.464901 -2.738613 -2.738613 
C -3.464901 -2.012324 -3.872983 -1.027127 -3.872983 0 
C -3.872983 1.027127 -3.464901 2.012324 -2.738613 2.738613 
C -2.012324 3.464901 -1.027127 3.872983 0 3.872983 
z
" id="m7c087f2824" style="stroke:#000000;"/>
     </defs>
     <g>
      <use style="stroke:#000000;" x="547.835625" xlink:href="#m7c087f2824" y="265.822187"/>
     </g>
    </g>
    <g id="text_32">
     <!-- Multiclass -->
     <defs>
      <path d="M 9.8125 72.90625 
L 24.515625 72.90625 
L 43.109375 23.296875 
L 61.8125 72.90625 
L 76.515625 72.90625 
L 76.515625 0 
L 66.890625 0 
L 66.890625 64.015625 
L 48.09375 14.015625 
L 38.1875 14.015625 
L 19.390625 64.015625 
L 19.390625 0 
L 9.8125 0 
z
" id="DejaVuSans-77"/>
     </defs>
     <g transform="translate(565.835625 268.447187)scale(0.1 -0.1)">
      <use xlink:href="#DejaVuSans-77"/>
      <use x="86.279297" xlink:href="#DejaVuSans-117"/>
      <use x="149.658203" xlink:href="#DejaVuSans-108"/>
      <use x="177.441406" xlink:href="#DejaVuSans-116"/>
      <use x="216.650391" xlink:href="#DejaVuSans-105"/>
      <use x="244.433594" xlink:href="#DejaVuSans-99"/>
      <use x="299.414062" xlink:href="#DejaVuSans-108"/>
      <use x="327.197266" xlink:href="#DejaVuSans-97"/>
      <use x="388.476562" xlink:href="#DejaVuSans-115"/>
      <use x="440.576172" xlink:href="#DejaVuSans-115"/>
     </g>
    </g>
   </g>
  </g>
 </g>
 <defs>
  <clipPath id="pb917b076a7">
   <rect height="326.16" width="446.4" x="43.78125" y="7.2"/>
  </clipPath>
 </defs>
</svg>
