<?xml version="1.0" encoding="utf-8" standalone="no"?>
<!DOCTYPE svg PUBLIC "-//W3C//DTD SVG 1.1//EN"
  "http://www.w3.org/Graphics/SVG/1.1/DTD/svg11.dtd">
<!-- Created with matplotlib (https://matplotlib.org/) -->
<svg height="282.717813pt" version="1.1" viewBox="0 0 488.139063 282.717813" width="488.139063pt" xmlns="http://www.w3.org/2000/svg" xmlns:xlink="http://www.w3.org/1999/xlink">
 <defs>
  <style type="text/css">
*{stroke-linecap:butt;stroke-linejoin:round;white-space:pre;}
  </style>
 </defs>
 <g id="figure_1">
  <g id="patch_1">
   <path d="M 0 282.717813 
L 488.139063 282.717813 
L 488.139063 0 
L 0 0 
z
" style="fill:#ffffff;"/>
  </g>
  <g id="axes_1">
   <g id="patch_2">
    <path d="M 49.807187 239.758125 
L 384.607188 239.758125 
L 384.607188 22.318125 
L 49.807187 22.318125 
z
" style="fill:#ffffff;"/>
   </g>
   <g id="matplotlib.axis_1">
    <g id="xtick_1">
     <g id="line2d_1">
      <path clip-path="url(#p036157fc3b)" d="M 65.025369 239.758125 
L 65.025369 22.318125 
" style="fill:none;stroke:#cccccc;stroke-linecap:round;"/>
     </g>
     <g id="text_1">
      <!-- 0.0 -->
      <defs>
       <path d="M 31.78125 66.40625 
Q 24.171875 66.40625 20.328125 58.90625 
Q 16.5 51.421875 16.5 36.375 
Q 16.5 21.390625 20.328125 13.890625 
Q 24.171875 6.390625 31.78125 6.390625 
Q 39.453125 6.390625 43.28125 13.890625 
Q 47.125 21.390625 47.125 36.375 
Q 47.125 51.421875 43.28125 58.90625 
Q 39.453125 66.40625 31.78125 66.40625 
z
M 31.78125 74.21875 
Q 44.046875 74.21875 50.515625 64.515625 
Q 56.984375 54.828125 56.984375 36.375 
Q 56.984375 17.96875 50.515625 8.265625 
Q 44.046875 -1.421875 31.78125 -1.421875 
Q 19.53125 -1.421875 13.0625 8.265625 
Q 6.59375 17.96875 6.59375 36.375 
Q 6.59375 54.828125 13.0625 64.515625 
Q 19.53125 74.21875 31.78125 74.21875 
z
" id="DejaVuSans-48"/>
       <path d="M 10.6875 12.40625 
L 21 12.40625 
L 21 0 
L 10.6875 0 
z
" id="DejaVuSans-46"/>
      </defs>
      <g style="fill:#262626;" transform="translate(56.278651 257.616406)scale(0.11 -0.11)">
       <use xlink:href="#DejaVuSans-48"/>
       <use x="63.623047" xlink:href="#DejaVuSans-46"/>
       <use x="95.410156" xlink:href="#DejaVuSans-48"/>
      </g>
     </g>
    </g>
    <g id="xtick_2">
     <g id="line2d_2">
      <path clip-path="url(#p036157fc3b)" d="M 125.898097 239.758125 
L 125.898097 22.318125 
" style="fill:none;stroke:#cccccc;stroke-linecap:round;"/>
     </g>
     <g id="text_2">
      <!-- 0.2 -->
      <defs>
       <path d="M 19.1875 8.296875 
L 53.609375 8.296875 
L 53.609375 0 
L 7.328125 0 
L 7.328125 8.296875 
Q 12.9375 14.109375 22.625 23.890625 
Q 32.328125 33.6875 34.8125 36.53125 
Q 39.546875 41.84375 41.421875 45.53125 
Q 43.3125 49.21875 43.3125 52.78125 
Q 43.3125 58.59375 39.234375 62.25 
Q 35.15625 65.921875 28.609375 65.921875 
Q 23.96875 65.921875 18.8125 64.3125 
Q 13.671875 62.703125 7.8125 59.421875 
L 7.8125 69.390625 
Q 13.765625 71.78125 18.9375 73 
Q 24.125 74.21875 28.421875 74.21875 
Q 39.75 74.21875 46.484375 68.546875 
Q 53.21875 62.890625 53.21875 53.421875 
Q 53.21875 48.921875 51.53125 44.890625 
Q 49.859375 40.875 45.40625 35.40625 
Q 44.1875 33.984375 37.640625 27.21875 
Q 31.109375 20.453125 19.1875 8.296875 
z
" id="DejaVuSans-50"/>
      </defs>
      <g style="fill:#262626;" transform="translate(117.151378 257.616406)scale(0.11 -0.11)">
       <use xlink:href="#DejaVuSans-48"/>
       <use x="63.623047" xlink:href="#DejaVuSans-46"/>
       <use x="95.410156" xlink:href="#DejaVuSans-50"/>
      </g>
     </g>
    </g>
    <g id="xtick_3">
     <g id="line2d_3">
      <path clip-path="url(#p036157fc3b)" d="M 186.770824 239.758125 
L 186.770824 22.318125 
" style="fill:none;stroke:#cccccc;stroke-linecap:round;"/>
     </g>
     <g id="text_3">
      <!-- 0.4 -->
      <defs>
       <path d="M 37.796875 64.3125 
L 12.890625 25.390625 
L 37.796875 25.390625 
z
M 35.203125 72.90625 
L 47.609375 72.90625 
L 47.609375 25.390625 
L 58.015625 25.390625 
L 58.015625 17.1875 
L 47.609375 17.1875 
L 47.609375 0 
L 37.796875 0 
L 37.796875 17.1875 
L 4.890625 17.1875 
L 4.890625 26.703125 
z
" id="DejaVuSans-52"/>
      </defs>
      <g style="fill:#262626;" transform="translate(178.024105 257.616406)scale(0.11 -0.11)">
       <use xlink:href="#DejaVuSans-48"/>
       <use x="63.623047" xlink:href="#DejaVuSans-46"/>
       <use x="95.410156" xlink:href="#DejaVuSans-52"/>
      </g>
     </g>
    </g>
    <g id="xtick_4">
     <g id="line2d_4">
      <path clip-path="url(#p036157fc3b)" d="M 247.643551 239.758125 
L 247.643551 22.318125 
" style="fill:none;stroke:#cccccc;stroke-linecap:round;"/>
     </g>
     <g id="text_4">
      <!-- 0.6 -->
      <defs>
       <path d="M 33.015625 40.375 
Q 26.375 40.375 22.484375 35.828125 
Q 18.609375 31.296875 18.609375 23.390625 
Q 18.609375 15.53125 22.484375 10.953125 
Q 26.375 6.390625 33.015625 6.390625 
Q 39.65625 6.390625 43.53125 10.953125 
Q 47.40625 15.53125 47.40625 23.390625 
Q 47.40625 31.296875 43.53125 35.828125 
Q 39.65625 40.375 33.015625 40.375 
z
M 52.59375 71.296875 
L 52.59375 62.3125 
Q 48.875 64.0625 45.09375 64.984375 
Q 41.3125 65.921875 37.59375 65.921875 
Q 27.828125 65.921875 22.671875 59.328125 
Q 17.53125 52.734375 16.796875 39.40625 
Q 19.671875 43.65625 24.015625 45.921875 
Q 28.375 48.1875 33.59375 48.1875 
Q 44.578125 48.1875 50.953125 41.515625 
Q 57.328125 34.859375 57.328125 23.390625 
Q 57.328125 12.15625 50.6875 5.359375 
Q 44.046875 -1.421875 33.015625 -1.421875 
Q 20.359375 -1.421875 13.671875 8.265625 
Q 6.984375 17.96875 6.984375 36.375 
Q 6.984375 53.65625 15.1875 63.9375 
Q 23.390625 74.21875 37.203125 74.21875 
Q 40.921875 74.21875 44.703125 73.484375 
Q 48.484375 72.75 52.59375 71.296875 
z
" id="DejaVuSans-54"/>
      </defs>
      <g style="fill:#262626;" transform="translate(238.896832 257.616406)scale(0.11 -0.11)">
       <use xlink:href="#DejaVuSans-48"/>
       <use x="63.623047" xlink:href="#DejaVuSans-46"/>
       <use x="95.410156" xlink:href="#DejaVuSans-54"/>
      </g>
     </g>
    </g>
    <g id="xtick_5">
     <g id="line2d_5">
      <path clip-path="url(#p036157fc3b)" d="M 308.516278 239.758125 
L 308.516278 22.318125 
" style="fill:none;stroke:#cccccc;stroke-linecap:round;"/>
     </g>
     <g id="text_5">
      <!-- 0.8 -->
      <defs>
       <path d="M 31.78125 34.625 
Q 24.75 34.625 20.71875 30.859375 
Q 16.703125 27.09375 16.703125 20.515625 
Q 16.703125 13.921875 20.71875 10.15625 
Q 24.75 6.390625 31.78125 6.390625 
Q 38.8125 6.390625 42.859375 10.171875 
Q 46.921875 13.96875 46.921875 20.515625 
Q 46.921875 27.09375 42.890625 30.859375 
Q 38.875 34.625 31.78125 34.625 
z
M 21.921875 38.8125 
Q 15.578125 40.375 12.03125 44.71875 
Q 8.5 49.078125 8.5 55.328125 
Q 8.5 64.0625 14.71875 69.140625 
Q 20.953125 74.21875 31.78125 74.21875 
Q 42.671875 74.21875 48.875 69.140625 
Q 55.078125 64.0625 55.078125 55.328125 
Q 55.078125 49.078125 51.53125 44.71875 
Q 48 40.375 41.703125 38.8125 
Q 48.828125 37.15625 52.796875 32.3125 
Q 56.78125 27.484375 56.78125 20.515625 
Q 56.78125 9.90625 50.3125 4.234375 
Q 43.84375 -1.421875 31.78125 -1.421875 
Q 19.734375 -1.421875 13.25 4.234375 
Q 6.78125 9.90625 6.78125 20.515625 
Q 6.78125 27.484375 10.78125 32.3125 
Q 14.796875 37.15625 21.921875 38.8125 
z
M 18.3125 54.390625 
Q 18.3125 48.734375 21.84375 45.5625 
Q 25.390625 42.390625 31.78125 42.390625 
Q 38.140625 42.390625 41.71875 45.5625 
Q 45.3125 48.734375 45.3125 54.390625 
Q 45.3125 60.0625 41.71875 63.234375 
Q 38.140625 66.40625 31.78125 66.40625 
Q 25.390625 66.40625 21.84375 63.234375 
Q 18.3125 60.0625 18.3125 54.390625 
z
" id="DejaVuSans-56"/>
      </defs>
      <g style="fill:#262626;" transform="translate(299.76956 257.616406)scale(0.11 -0.11)">
       <use xlink:href="#DejaVuSans-48"/>
       <use x="63.623047" xlink:href="#DejaVuSans-46"/>
       <use x="95.410156" xlink:href="#DejaVuSans-56"/>
      </g>
     </g>
    </g>
    <g id="xtick_6">
     <g id="line2d_6">
      <path clip-path="url(#p036157fc3b)" d="M 369.389006 239.758125 
L 369.389006 22.318125 
" style="fill:none;stroke:#cccccc;stroke-linecap:round;"/>
     </g>
     <g id="text_6">
      <!-- 1.0 -->
      <defs>
       <path d="M 12.40625 8.296875 
L 28.515625 8.296875 
L 28.515625 63.921875 
L 10.984375 60.40625 
L 10.984375 69.390625 
L 28.421875 72.90625 
L 38.28125 72.90625 
L 38.28125 8.296875 
L 54.390625 8.296875 
L 54.390625 0 
L 12.40625 0 
z
" id="DejaVuSans-49"/>
      </defs>
      <g style="fill:#262626;" transform="translate(360.642287 257.616406)scale(0.11 -0.11)">
       <use xlink:href="#DejaVuSans-49"/>
       <use x="63.623047" xlink:href="#DejaVuSans-46"/>
       <use x="95.410156" xlink:href="#DejaVuSans-48"/>
      </g>
     </g>
    </g>
    <g id="text_7">
     <!-- Recall -->
     <defs>
      <path d="M 44.390625 34.1875 
Q 47.5625 33.109375 50.5625 29.59375 
Q 53.5625 26.078125 56.59375 19.921875 
L 66.609375 0 
L 56 0 
L 46.6875 18.703125 
Q 43.0625 26.03125 39.671875 28.421875 
Q 36.28125 30.8125 30.421875 30.8125 
L 19.671875 30.8125 
L 19.671875 0 
L 9.8125 0 
L 9.8125 72.90625 
L 32.078125 72.90625 
Q 44.578125 72.90625 50.734375 67.671875 
Q 56.890625 62.453125 56.890625 51.90625 
Q 56.890625 45.015625 53.6875 40.46875 
Q 50.484375 35.9375 44.390625 34.1875 
z
M 19.671875 64.796875 
L 19.671875 38.921875 
L 32.078125 38.921875 
Q 39.203125 38.921875 42.84375 42.21875 
Q 46.484375 45.515625 46.484375 51.90625 
Q 46.484375 58.296875 42.84375 61.546875 
Q 39.203125 64.796875 32.078125 64.796875 
z
" id="DejaVuSans-82"/>
      <path d="M 56.203125 29.59375 
L 56.203125 25.203125 
L 14.890625 25.203125 
Q 15.484375 15.921875 20.484375 11.0625 
Q 25.484375 6.203125 34.421875 6.203125 
Q 39.59375 6.203125 44.453125 7.46875 
Q 49.3125 8.734375 54.109375 11.28125 
L 54.109375 2.78125 
Q 49.265625 0.734375 44.1875 -0.34375 
Q 39.109375 -1.421875 33.890625 -1.421875 
Q 20.796875 -1.421875 13.15625 6.1875 
Q 5.515625 13.8125 5.515625 26.8125 
Q 5.515625 40.234375 12.765625 48.109375 
Q 20.015625 56 32.328125 56 
Q 43.359375 56 49.78125 48.890625 
Q 56.203125 41.796875 56.203125 29.59375 
z
M 47.21875 32.234375 
Q 47.125 39.59375 43.09375 43.984375 
Q 39.0625 48.390625 32.421875 48.390625 
Q 24.90625 48.390625 20.390625 44.140625 
Q 15.875 39.890625 15.1875 32.171875 
z
" id="DejaVuSans-101"/>
      <path d="M 48.78125 52.59375 
L 48.78125 44.1875 
Q 44.96875 46.296875 41.140625 47.34375 
Q 37.3125 48.390625 33.40625 48.390625 
Q 24.65625 48.390625 19.8125 42.84375 
Q 14.984375 37.3125 14.984375 27.296875 
Q 14.984375 17.28125 19.8125 11.734375 
Q 24.65625 6.203125 33.40625 6.203125 
Q 37.3125 6.203125 41.140625 7.25 
Q 44.96875 8.296875 48.78125 10.40625 
L 48.78125 2.09375 
Q 45.015625 0.34375 40.984375 -0.53125 
Q 36.96875 -1.421875 32.421875 -1.421875 
Q 20.0625 -1.421875 12.78125 6.34375 
Q 5.515625 14.109375 5.515625 27.296875 
Q 5.515625 40.671875 12.859375 48.328125 
Q 20.21875 56 33.015625 56 
Q 37.15625 56 41.109375 55.140625 
Q 45.0625 54.296875 48.78125 52.59375 
z
" id="DejaVuSans-99"/>
      <path d="M 34.28125 27.484375 
Q 23.390625 27.484375 19.1875 25 
Q 14.984375 22.515625 14.984375 16.5 
Q 14.984375 11.71875 18.140625 8.90625 
Q 21.296875 6.109375 26.703125 6.109375 
Q 34.1875 6.109375 38.703125 11.40625 
Q 43.21875 16.703125 43.21875 25.484375 
L 43.21875 27.484375 
z
M 52.203125 31.203125 
L 52.203125 0 
L 43.21875 0 
L 43.21875 8.296875 
Q 40.140625 3.328125 35.546875 0.953125 
Q 30.953125 -1.421875 24.3125 -1.421875 
Q 15.921875 -1.421875 10.953125 3.296875 
Q 6 8.015625 6 15.921875 
Q 6 25.140625 12.171875 29.828125 
Q 18.359375 34.515625 30.609375 34.515625 
L 43.21875 34.515625 
L 43.21875 35.40625 
Q 43.21875 41.609375 39.140625 45 
Q 35.0625 48.390625 27.6875 48.390625 
Q 23 48.390625 18.546875 47.265625 
Q 14.109375 46.140625 10.015625 43.890625 
L 10.015625 52.203125 
Q 14.9375 54.109375 19.578125 55.046875 
Q 24.21875 56 28.609375 56 
Q 40.484375 56 46.34375 49.84375 
Q 52.203125 43.703125 52.203125 31.203125 
z
" id="DejaVuSans-97"/>
      <path d="M 9.421875 75.984375 
L 18.40625 75.984375 
L 18.40625 0 
L 9.421875 0 
z
" id="DejaVuSans-108"/>
     </defs>
     <g style="fill:#262626;" transform="translate(199.040312 273.022188)scale(0.12 -0.12)">
      <use xlink:href="#DejaVuSans-82"/>
      <use x="69.419922" xlink:href="#DejaVuSans-101"/>
      <use x="130.943359" xlink:href="#DejaVuSans-99"/>
      <use x="185.923828" xlink:href="#DejaVuSans-97"/>
      <use x="247.203125" xlink:href="#DejaVuSans-108"/>
      <use x="274.986328" xlink:href="#DejaVuSans-108"/>
     </g>
    </g>
   </g>
   <g id="matplotlib.axis_2">
    <g id="ytick_1">
     <g id="line2d_7">
      <path clip-path="url(#p036157fc3b)" d="M 49.807187 239.758125 
L 384.607188 239.758125 
" style="fill:none;stroke:#cccccc;stroke-linecap:round;"/>
     </g>
     <g id="text_8">
      <!-- 0.0 -->
      <g style="fill:#262626;" transform="translate(22.81375 243.937266)scale(0.11 -0.11)">
       <use xlink:href="#DejaVuSans-48"/>
       <use x="63.623047" xlink:href="#DejaVuSans-46"/>
       <use x="95.410156" xlink:href="#DejaVuSans-48"/>
      </g>
     </g>
    </g>
    <g id="ytick_2">
     <g id="line2d_8">
      <path clip-path="url(#p036157fc3b)" d="M 49.807187 198.074486 
L 384.607188 198.074486 
" style="fill:none;stroke:#cccccc;stroke-linecap:round;"/>
     </g>
     <g id="text_9">
      <!-- 0.2 -->
      <g style="fill:#262626;" transform="translate(22.81375 202.253627)scale(0.11 -0.11)">
       <use xlink:href="#DejaVuSans-48"/>
       <use x="63.623047" xlink:href="#DejaVuSans-46"/>
       <use x="95.410156" xlink:href="#DejaVuSans-50"/>
      </g>
     </g>
    </g>
    <g id="ytick_3">
     <g id="line2d_9">
      <path clip-path="url(#p036157fc3b)" d="M 49.807187 156.390847 
L 384.607188 156.390847 
" style="fill:none;stroke:#cccccc;stroke-linecap:round;"/>
     </g>
     <g id="text_10">
      <!-- 0.4 -->
      <g style="fill:#262626;" transform="translate(22.81375 160.569988)scale(0.11 -0.11)">
       <use xlink:href="#DejaVuSans-48"/>
       <use x="63.623047" xlink:href="#DejaVuSans-46"/>
       <use x="95.410156" xlink:href="#DejaVuSans-52"/>
      </g>
     </g>
    </g>
    <g id="ytick_4">
     <g id="line2d_10">
      <path clip-path="url(#p036157fc3b)" d="M 49.807187 114.707209 
L 384.607188 114.707209 
" style="fill:none;stroke:#cccccc;stroke-linecap:round;"/>
     </g>
     <g id="text_11">
      <!-- 0.6 -->
      <g style="fill:#262626;" transform="translate(22.81375 118.886349)scale(0.11 -0.11)">
       <use xlink:href="#DejaVuSans-48"/>
       <use x="63.623047" xlink:href="#DejaVuSans-46"/>
       <use x="95.410156" xlink:href="#DejaVuSans-54"/>
      </g>
     </g>
    </g>
    <g id="ytick_5">
     <g id="line2d_11">
      <path clip-path="url(#p036157fc3b)" d="M 49.807187 73.02357 
L 384.607188 73.02357 
" style="fill:none;stroke:#cccccc;stroke-linecap:round;"/>
     </g>
     <g id="text_12">
      <!-- 0.8 -->
      <g style="fill:#262626;" transform="translate(22.81375 77.20271)scale(0.11 -0.11)">
       <use xlink:href="#DejaVuSans-48"/>
       <use x="63.623047" xlink:href="#DejaVuSans-46"/>
       <use x="95.410156" xlink:href="#DejaVuSans-56"/>
      </g>
     </g>
    </g>
    <g id="ytick_6">
     <g id="line2d_12">
      <path clip-path="url(#p036157fc3b)" d="M 49.807187 31.339931 
L 384.607188 31.339931 
" style="fill:none;stroke:#cccccc;stroke-linecap:round;"/>
     </g>
     <g id="text_13">
      <!-- 1.0 -->
      <g style="fill:#262626;" transform="translate(22.81375 35.519072)scale(0.11 -0.11)">
       <use xlink:href="#DejaVuSans-49"/>
       <use x="63.623047" xlink:href="#DejaVuSans-46"/>
       <use x="95.410156" xlink:href="#DejaVuSans-48"/>
      </g>
     </g>
    </g>
    <g id="text_14">
     <!-- Precision -->
     <defs>
      <path d="M 19.671875 64.796875 
L 19.671875 37.40625 
L 32.078125 37.40625 
Q 38.96875 37.40625 42.71875 40.96875 
Q 46.484375 44.53125 46.484375 51.125 
Q 46.484375 57.671875 42.71875 61.234375 
Q 38.96875 64.796875 32.078125 64.796875 
z
M 9.8125 72.90625 
L 32.078125 72.90625 
Q 44.34375 72.90625 50.609375 67.359375 
Q 56.890625 61.8125 56.890625 51.125 
Q 56.890625 40.328125 50.609375 34.8125 
Q 44.34375 29.296875 32.078125 29.296875 
L 19.671875 29.296875 
L 19.671875 0 
L 9.8125 0 
z
" id="DejaVuSans-80"/>
      <path d="M 41.109375 46.296875 
Q 39.59375 47.171875 37.8125 47.578125 
Q 36.03125 48 33.890625 48 
Q 26.265625 48 22.1875 43.046875 
Q 18.109375 38.09375 18.109375 28.8125 
L 18.109375 0 
L 9.078125 0 
L 9.078125 54.6875 
L 18.109375 54.6875 
L 18.109375 46.1875 
Q 20.953125 51.171875 25.484375 53.578125 
Q 30.03125 56 36.53125 56 
Q 37.453125 56 38.578125 55.875 
Q 39.703125 55.765625 41.0625 55.515625 
z
" id="DejaVuSans-114"/>
      <path d="M 9.421875 54.6875 
L 18.40625 54.6875 
L 18.40625 0 
L 9.421875 0 
z
M 9.421875 75.984375 
L 18.40625 75.984375 
L 18.40625 64.59375 
L 9.421875 64.59375 
z
" id="DejaVuSans-105"/>
      <path d="M 44.28125 53.078125 
L 44.28125 44.578125 
Q 40.484375 46.53125 36.375 47.5 
Q 32.28125 48.484375 27.875 48.484375 
Q 21.1875 48.484375 17.84375 46.4375 
Q 14.5 44.390625 14.5 40.28125 
Q 14.5 37.15625 16.890625 35.375 
Q 19.28125 33.59375 26.515625 31.984375 
L 29.59375 31.296875 
Q 39.15625 29.25 43.1875 25.515625 
Q 47.21875 21.78125 47.21875 15.09375 
Q 47.21875 7.46875 41.1875 3.015625 
Q 35.15625 -1.421875 24.609375 -1.421875 
Q 20.21875 -1.421875 15.453125 -0.5625 
Q 10.6875 0.296875 5.421875 2 
L 5.421875 11.28125 
Q 10.40625 8.6875 15.234375 7.390625 
Q 20.0625 6.109375 24.8125 6.109375 
Q 31.15625 6.109375 34.5625 8.28125 
Q 37.984375 10.453125 37.984375 14.40625 
Q 37.984375 18.0625 35.515625 20.015625 
Q 33.0625 21.96875 24.703125 23.78125 
L 21.578125 24.515625 
Q 13.234375 26.265625 9.515625 29.90625 
Q 5.8125 33.546875 5.8125 39.890625 
Q 5.8125 47.609375 11.28125 51.796875 
Q 16.75 56 26.8125 56 
Q 31.78125 56 36.171875 55.265625 
Q 40.578125 54.546875 44.28125 53.078125 
z
" id="DejaVuSans-115"/>
      <path d="M 30.609375 48.390625 
Q 23.390625 48.390625 19.1875 42.75 
Q 14.984375 37.109375 14.984375 27.296875 
Q 14.984375 17.484375 19.15625 11.84375 
Q 23.34375 6.203125 30.609375 6.203125 
Q 37.796875 6.203125 41.984375 11.859375 
Q 46.1875 17.53125 46.1875 27.296875 
Q 46.1875 37.015625 41.984375 42.703125 
Q 37.796875 48.390625 30.609375 48.390625 
z
M 30.609375 56 
Q 42.328125 56 49.015625 48.375 
Q 55.71875 40.765625 55.71875 27.296875 
Q 55.71875 13.875 49.015625 6.21875 
Q 42.328125 -1.421875 30.609375 -1.421875 
Q 18.84375 -1.421875 12.171875 6.21875 
Q 5.515625 13.875 5.515625 27.296875 
Q 5.515625 40.765625 12.171875 48.375 
Q 18.84375 56 30.609375 56 
z
" id="DejaVuSans-111"/>
      <path d="M 54.890625 33.015625 
L 54.890625 0 
L 45.90625 0 
L 45.90625 32.71875 
Q 45.90625 40.484375 42.875 44.328125 
Q 39.84375 48.1875 33.796875 48.1875 
Q 26.515625 48.1875 22.3125 43.546875 
Q 18.109375 38.921875 18.109375 30.90625 
L 18.109375 0 
L 9.078125 0 
L 9.078125 54.6875 
L 18.109375 54.6875 
L 18.109375 46.1875 
Q 21.34375 51.125 25.703125 53.5625 
Q 30.078125 56 35.796875 56 
Q 45.21875 56 50.046875 50.171875 
Q 54.890625 44.34375 54.890625 33.015625 
z
" id="DejaVuSans-110"/>
     </defs>
     <g style="fill:#262626;" transform="translate(16.318125 158.04375)rotate(-90)scale(0.12 -0.12)">
      <use xlink:href="#DejaVuSans-80"/>
      <use x="60.287109" xlink:href="#DejaVuSans-114"/>
      <use x="101.369141" xlink:href="#DejaVuSans-101"/>
      <use x="162.892578" xlink:href="#DejaVuSans-99"/>
      <use x="217.873047" xlink:href="#DejaVuSans-105"/>
      <use x="245.65625" xlink:href="#DejaVuSans-115"/>
      <use x="297.755859" xlink:href="#DejaVuSans-105"/>
      <use x="325.539062" xlink:href="#DejaVuSans-111"/>
      <use x="386.720703" xlink:href="#DejaVuSans-110"/>
     </g>
    </g>
   </g>
   <g id="line2d_13">
    <path clip-path="url(#p036157fc3b)" d="M 65.025369 31.339931 
L 261.557317 31.339931 
L 263.296538 33.152263 
L 263.296538 31.339931 
L 265.035759 33.13664 
L 317.212382 32.767453 
L 318.951603 35.536271 
L 318.951603 32.757742 
L 320.690824 35.508295 
L 322.430045 36.82462 
L 322.430045 35.48069 
L 324.169265 36.788773 
L 325.908486 36.753391 
L 327.647707 38.020001 
L 327.647707 36.718465 
L 329.386928 37.977453 
L 338.083032 37.772591 
L 339.822252 38.964987 
L 339.822252 37.733127 
L 343.300694 40.076023 
L 343.300694 38.873119 
L 345.039915 41.205881 
L 345.039915 40.024022 
L 346.779136 42.30931 
L 346.779136 41.147846 
L 348.518356 45.631464 
L 348.518356 42.245534 
L 350.257577 46.647482 
L 350.257577 45.550262 
L 351.996798 46.561485 
L 353.736019 50.701184 
L 353.736019 46.476448 
L 357.21446 54.497508 
L 357.21446 50.491873 
L 358.953681 59.129024 
L 358.953681 54.375626 
L 360.692902 93.951158 
L 360.692902 91.510874 
L 360.692902 58.987243 
L 362.432123 111.558445 
L 362.432123 108.247014 
L 362.432123 93.694555 
L 364.171343 143.132978 
L 364.171343 140.180543 
L 364.171343 111.270923 
L 365.910564 157.249321 
L 365.910564 154.316543 
L 365.910564 142.83246 
L 367.649785 211.776053 
L 367.649785 207.37887 
L 367.649785 156.961856 
L 369.389006 211.636935 
L 369.389006 211.636935 
" style="fill:none;stroke:#000000;stroke-linecap:round;"/>
   </g>
   <g id="line2d_14">
    <path clip-path="url(#p036157fc3b)" d="M 65.025369 31.339931 
L 76.731663 31.339931 
L 82.58481 31.339931 
L 91.36453 31.339931 
L 100.14425 31.339931 
L 108.923971 31.339931 
L 114.777118 31.339931 
L 120.630264 31.339931 
L 126.483411 31.339931 
L 132.336558 31.339931 
L 138.189705 31.339931 
L 141.116278 31.339931 
L 146.969425 31.339931 
L 155.749146 31.339931 
L 158.675719 31.339931 
L 161.602292 31.339931 
L 167.455439 31.339931 
L 170.382013 31.339931 
L 176.23516 31.339931 
L 179.161733 31.339931 
L 182.088306 31.339931 
L 185.01488 31.339931 
L 187.941453 31.339931 
L 193.7946 31.339931 
L 196.721174 31.339931 
L 199.647747 31.339931 
L 205.500894 31.339931 
L 211.354041 31.339931 
L 214.280614 31.339931 
L 220.133761 31.339931 
L 223.060334 31.339931 
L 225.986908 31.339931 
L 231.840055 31.339931 
L 234.766628 31.339931 
L 237.693201 31.339931 
L 243.546348 31.339931 
L 246.472922 31.339931 
L 252.326069 31.339931 
L 255.252642 31.339931 
L 261.105789 31.339931 
L 264.032362 31.339931 
L 266.958936 31.339931 
L 269.885509 31.339931 
L 272.812083 31.339931 
L 275.738656 31.339931 
L 278.665229 31.339931 
L 284.518376 31.339931 
L 287.44495 31.339931 
L 290.371523 31.339931 
L 293.298097 31.339931 
L 299.151243 31.339931 
L 302.077817 31.339931 
L 305.00439 31.339931 
L 307.930964 31.339931 
L 310.857537 31.339931 
L 313.784111 31.339931 
L 316.710684 31.339931 
L 319.637257 31.339931 
L 322.563831 31.339931 
L 325.490404 31.339931 
L 328.416978 31.339931 
L 331.343551 31.339931 
L 334.270125 31.339931 
L 337.196698 31.339931 
L 340.123271 31.339931 
L 343.049845 31.339931 
L 345.976418 33.488572 
L 345.976418 31.339931 
L 348.902992 33.466647 
L 351.829565 33.445165 
L 354.756139 33.424113 
L 357.682712 33.403478 
L 360.609285 33.383247 
L 363.535859 33.363409 
L 366.462432 74.626787 
L 366.462432 73.346699 
L 366.462432 72.04661 
L 366.462432 70.726046 
L 366.462432 69.384522 
L 366.462432 68.021533 
L 366.462432 66.636561 
L 366.462432 65.229068 
L 366.462432 63.798502 
L 366.462432 62.344291 
L 366.462432 60.865842 
L 366.462432 59.362545 
L 366.462432 57.833769 
L 366.462432 56.27886 
L 366.462432 54.697142 
L 366.462432 53.087917 
L 366.462432 51.450459 
L 366.462432 49.784019 
L 366.462432 48.087822 
L 366.462432 46.361062 
L 366.462432 44.602907 
L 366.462432 42.812492 
L 366.462432 40.988922 
L 366.462432 39.131265 
L 366.462432 37.238559 
L 366.462432 35.309801 
L 366.462432 33.343952 
L 369.389006 74.296353 
" style="fill:none;stroke:#6e6e6e;stroke-linecap:round;"/>
   </g>
   <g id="line2d_15">
    <path clip-path="url(#p036157fc3b)" d="M 65.025369 31.339931 
L 77.32289 31.339931 
L 95.769171 31.339931 
L 117.289832 31.339931 
L 144.959254 31.339931 
L 161.868345 31.339931 
L 178.777435 31.339931 
L 189.537766 31.339931 
L 194.149336 31.339931 
L 206.446857 31.339931 
L 215.669997 31.339931 
L 220.281568 31.339931 
L 227.967518 31.339931 
L 234.116278 31.339931 
L 240.265039 31.339931 
L 244.876609 31.339931 
L 247.950989 31.339931 
L 255.63694 31.339931 
L 261.7857 31.339931 
L 264.86008 31.339931 
L 266.39727 31.339931 
L 267.93446 31.339931 
L 275.620411 31.339931 
L 277.157601 31.339931 
L 278.694791 31.339931 
L 280.231981 31.339931 
L 281.769171 31.339931 
L 283.306361 31.339931 
L 284.843551 31.339931 
L 286.380741 31.339931 
L 289.455121 31.339931 
L 292.529502 31.339931 
L 294.066692 31.339931 
L 298.678262 31.339931 
L 303.289832 31.339931 
L 306.364212 31.339931 
L 307.901402 31.339931 
L 309.438592 31.339931 
L 310.975783 31.339931 
L 312.512973 31.339931 
L 314.050163 31.339931 
L 315.587353 31.339931 
L 317.124543 31.339931 
L 320.198923 31.339931 
L 321.736113 31.339931 
L 323.273303 31.339931 
L 324.810493 31.339931 
L 327.884873 31.339931 
L 329.422064 31.339931 
L 330.959254 31.339931 
L 332.496444 31.339931 
L 334.033634 31.339931 
L 335.570824 31.339931 
L 337.108014 31.339931 
L 338.645204 31.339931 
L 340.182394 31.339931 
L 341.719584 31.339931 
L 343.256774 31.339931 
L 344.793964 31.339931 
L 346.331154 31.339931 
L 347.868345 31.339931 
L 349.405535 31.339931 
L 350.942725 31.339931 
L 352.479915 31.339931 
L 354.017105 31.339931 
L 355.554295 31.339931 
L 357.091485 31.339931 
L 358.628675 31.339931 
L 360.165865 31.339931 
L 361.703055 31.339931 
L 363.240245 35.5504 
L 363.240245 34.513812 
L 363.240245 33.466647 
L 363.240245 32.408742 
L 363.240245 31.339931 
L 364.777435 36.550386 
L 364.777435 35.529242 
L 366.314626 36.524463 
L 367.851816 37.500075 
L 367.851816 36.498797 
L 369.389006 37.469878 
" style="fill:none;stroke:#b15928;stroke-linecap:round;"/>
   </g>
   <g id="line2d_16">
    <path clip-path="url(#p036157fc3b)" d="M 65.025369 31.339931 
L 84.288891 31.339931 
L 138.22675 31.339931 
L 180.606497 31.339931 
L 207.575427 31.339931 
L 253.807878 31.339931 
L 269.218695 31.339931 
L 276.924103 31.339931 
L 280.776808 31.339931 
L 288.482216 31.339931 
L 292.334921 31.339931 
L 296.187625 31.339931 
L 303.893033 31.339931 
L 311.598442 31.339931 
L 315.451146 31.339931 
L 319.30385 31.339931 
L 323.156555 31.339931 
L 327.009259 31.339931 
L 330.861963 31.339931 
L 338.567372 31.339931 
L 342.420076 31.339931 
L 346.27278 31.339931 
L 350.125484 31.339931 
L 353.978189 34.082276 
L 353.978189 31.339931 
L 357.830893 34.046661 
L 361.683597 34.011959 
L 365.536301 33.978136 
L 369.389006 33.945159 
" style="fill:none;stroke:#ffff99;stroke-linecap:round;"/>
   </g>
   <g id="line2d_17">
    <path clip-path="url(#p036157fc3b)" d="M 65.025369 31.339931 
L 71.64197 31.339931 
L 84.875172 31.339931 
L 91.491772 31.339931 
L 98.108373 31.339931 
L 104.724974 61.113959 
L 111.341575 57.392205 
L 124.574776 52.18175 
L 131.191377 50.28704 
L 137.807978 48.708114 
L 144.424579 47.3721 
L 151.04118 46.226945 
L 157.65778 45.234477 
L 164.274381 44.366068 
L 170.890982 43.599825 
L 177.507583 42.91872 
L 184.124184 42.30931 
L 190.740784 41.760841 
L 197.357385 41.264607 
L 210.590587 40.401592 
L 217.207188 40.024022 
L 223.823788 39.676659 
L 230.440389 39.356015 
L 237.05699 39.059123 
L 243.673591 38.783438 
L 250.290191 38.526765 
L 256.906792 38.287204 
L 263.523393 38.063099 
L 270.139994 37.853 
L 276.756595 37.655634 
L 283.373195 37.469878 
L 289.989796 37.294737 
L 296.606397 37.129325 
L 303.222998 36.972855 
L 309.839599 36.82462 
L 316.456199 36.683987 
L 323.0728 36.550386 
L 329.689401 36.423302 
L 336.306002 36.302269 
L 342.922603 36.186866 
L 349.539203 36.076708 
L 356.155804 35.971446 
L 362.772405 48.353661 
L 362.772405 44.366068 
L 362.772405 40.20879 
L 362.772405 35.870761 
L 369.389006 48.013387 
" style="fill:none;stroke:#6a3d9a;stroke-linecap:round;"/>
   </g>
   <g id="line2d_18">
    <path clip-path="url(#p036157fc3b)" d="M 65.025369 31.339931 
L 67.331154 31.339931 
L 71.942725 31.339931 
L 74.24851 31.339931 
L 76.554295 31.339931 
L 78.86008 31.339931 
L 88.083221 31.339931 
L 92.694791 31.339931 
L 101.917931 31.339931 
L 104.223716 31.339931 
L 115.752642 31.339931 
L 118.058427 31.339931 
L 120.364212 31.339931 
L 127.281568 31.339931 
L 129.587353 31.339931 
L 143.422064 31.339931 
L 148.033634 31.339931 
L 152.645204 31.339931 
L 157.256774 31.339931 
L 159.562559 31.339931 
L 161.868345 31.339931 
L 166.479915 31.339931 
L 173.39727 31.339931 
L 175.703055 31.339931 
L 178.00884 31.339931 
L 180.314626 31.339931 
L 182.620411 31.339931 
L 187.231981 31.339931 
L 191.843551 31.339931 
L 194.149336 31.339931 
L 196.455121 31.339931 
L 198.760907 31.339931 
L 201.066692 31.339931 
L 203.372477 31.339931 
L 205.678262 31.339931 
L 207.984047 31.339931 
L 212.595617 31.339931 
L 214.901402 31.339931 
L 217.207188 31.339931 
L 219.512973 31.339931 
L 221.818758 31.339931 
L 224.124543 31.339931 
L 231.041898 31.339931 
L 235.653468 31.339931 
L 240.265039 31.339931 
L 242.570824 31.339931 
L 244.876609 31.339931 
L 247.182394 31.339931 
L 249.488179 31.339931 
L 251.793964 31.339931 
L 254.099749 31.339931 
L 256.405535 31.339931 
L 258.71132 31.339931 
L 261.017105 31.339931 
L 263.32289 31.339931 
L 265.628675 31.339931 
L 267.93446 31.339931 
L 272.54603 31.339931 
L 274.851816 31.339931 
L 277.157601 31.339931 
L 279.463386 31.339931 
L 281.769171 31.339931 
L 284.074956 31.339931 
L 286.380741 31.339931 
L 288.686526 31.339931 
L 290.992311 31.339931 
L 293.298097 31.339931 
L 295.603882 31.339931 
L 297.909667 31.339931 
L 300.215452 31.339931 
L 302.521237 31.339931 
L 304.827022 31.339931 
L 307.132807 31.339931 
L 309.438592 31.339931 
L 311.744378 31.339931 
L 314.050163 31.339931 
L 316.355948 31.339931 
L 318.661733 31.339931 
L 320.967518 31.339931 
L 323.273303 31.339931 
L 325.579088 31.339931 
L 327.884873 31.339931 
L 330.190659 31.339931 
L 332.496444 31.339931 
L 334.802229 31.339931 
L 337.108014 31.339931 
L 339.413799 31.339931 
L 341.719584 31.339931 
L 344.025369 31.339931 
L 346.331154 31.339931 
L 348.63694 33.020723 
L 348.63694 31.339931 
L 350.942725 33.007277 
L 353.24851 32.994044 
L 355.554295 32.981019 
L 357.86008 32.968198 
L 360.165865 32.955576 
L 362.47165 32.943148 
L 364.777435 37.56137 
L 364.777435 36.041093 
L 364.777435 34.497783 
L 364.777435 32.93091 
L 367.083221 39.002365 
L 367.083221 37.515285 
L 369.389006 38.946435 
" style="fill:none;stroke:#cab2d6;stroke-linecap:round;"/>
   </g>
   <g id="line2d_19">
    <path clip-path="url(#p036157fc3b)" d="M 65.025369 31.339931 
L 76.298097 31.339931 
L 128.904157 31.339931 
L 185.267794 31.339931 
L 211.570824 31.339931 
L 241.63143 31.339931 
L 252.904157 31.339931 
L 267.93446 31.339931 
L 275.449612 31.339931 
L 279.207188 31.339931 
L 286.722339 31.339931 
L 290.479915 31.339931 
L 294.237491 31.339931 
L 297.995066 31.339931 
L 301.752642 31.339931 
L 305.510218 31.339931 
L 309.267794 31.339931 
L 313.025369 31.339931 
L 316.782945 31.339931 
L 320.540521 31.339931 
L 328.055672 31.339931 
L 331.813248 31.339931 
L 335.570824 31.339931 
L 339.3284 31.339931 
L 343.085975 34.11884 
L 343.085975 31.339931 
L 346.843551 34.082276 
L 350.601127 34.046661 
L 354.358703 34.011959 
L 358.116278 43.895244 
L 358.116278 41.506672 
L 358.116278 39.059123 
L 358.116278 36.550386 
L 358.116278 33.978136 
L 361.873854 48.304203 
L 361.873854 46.051804 
L 361.873854 43.745776 
L 365.63143 58.524913 
L 365.63143 56.533339 
L 365.63143 54.497508 
L 365.63143 52.415928 
L 365.63143 50.28704 
L 365.63143 48.109211 
L 369.389006 58.232601 
" style="fill:none;stroke:#ff7f00;stroke-linecap:round;"/>
   </g>
   <g id="line2d_20">
    <path clip-path="url(#p036157fc3b)" d="M 65.025369 31.339931 
L 73.847504 31.339931 
L 87.080705 31.339931 
L 122.369243 31.339931 
L 144.424579 31.339931 
L 162.068848 31.339931 
L 179.713116 31.339931 
L 188.535251 31.339931 
L 192.946318 31.339931 
L 210.590587 31.339931 
L 215.001654 31.339931 
L 219.412721 31.339931 
L 223.823788 31.339931 
L 228.234855 31.339931 
L 232.645923 31.339931 
L 237.05699 31.339931 
L 245.879124 31.339931 
L 250.290191 31.339931 
L 254.701259 31.339931 
L 263.523393 31.339931 
L 267.93446 31.339931 
L 272.345527 31.339931 
L 276.756595 31.339931 
L 281.167662 31.339931 
L 285.578729 31.339931 
L 289.989796 31.339931 
L 294.400863 31.339931 
L 298.811931 31.339931 
L 303.222998 31.339931 
L 307.634065 31.339931 
L 312.045132 31.339931 
L 316.456199 31.339931 
L 320.867267 31.339931 
L 325.278334 31.339931 
L 329.689401 31.339931 
L 334.100468 31.339931 
L 338.511535 34.648156 
L 338.511535 31.339931 
L 342.922603 34.596465 
L 347.33367 37.655634 
L 347.33367 34.546365 
L 351.744737 40.534851 
L 351.744737 37.56137 
L 356.155804 40.401592 
L 360.566871 62.998391 
L 360.566871 60.73224 
L 360.566871 58.407229 
L 360.566871 56.021033 
L 360.566871 53.571205 
L 360.566871 51.055166 
L 360.566871 48.470194 
L 360.566871 45.813417 
L 360.566871 43.081801 
L 360.566871 40.272139 
L 364.977938 113.218507 
L 364.977938 112.078511 
L 364.977938 110.917787 
L 364.977938 109.735765 
L 364.977938 108.531855 
L 364.977938 107.305441 
L 364.977938 106.055887 
L 364.977938 104.782533 
L 364.977938 103.484691 
L 364.977938 102.161647 
L 364.977938 100.812662 
L 364.977938 99.436965 
L 364.977938 98.033753 
L 364.977938 96.602194 
L 364.977938 95.141419 
L 364.977938 93.650525 
L 364.977938 92.128571 
L 364.977938 90.574576 
L 364.977938 88.987517 
L 364.977938 87.366327 
L 364.977938 85.709895 
L 364.977938 84.017057 
L 364.977938 82.286601 
L 364.977938 80.517258 
L 364.977938 78.707702 
L 364.977938 76.856548 
L 364.977938 74.962344 
L 364.977938 73.02357 
L 364.977938 71.038635 
L 364.977938 69.00587 
L 364.977938 66.923525 
L 364.977938 64.789765 
L 364.977938 62.60266 
L 369.389006 112.493918 
" style="fill:none;stroke:#fdbf6f;stroke-linecap:round;"/>
   </g>
   <g id="line2d_21">
    <path clip-path="url(#p036157fc3b)" d="M 65.025369 31.339931 
L 289.293312 31.339931 
L 321.331589 31.339931 
L 324.535417 31.339931 
L 327.739245 31.339931 
L 330.943073 31.339931 
L 334.1469 31.339931 
L 337.350728 31.339931 
L 340.554556 31.339931 
L 343.758384 31.339931 
L 346.962211 31.339931 
L 350.166039 31.339931 
L 353.369867 31.339931 
L 356.573695 31.339931 
L 359.777522 31.339931 
L 362.98135 31.339931 
L 366.185178 41.866102 
L 366.185178 39.846796 
L 366.185178 37.785855 
L 366.185178 35.681977 
L 366.185178 33.533807 
L 366.185178 31.339931 
L 369.389006 41.760841 
" style="fill:none;stroke:#e31a1c;stroke-linecap:round;"/>
   </g>
   <g id="line2d_22">
    <path clip-path="url(#p036157fc3b)" d="M 65.025369 31.339931 
L 67.583047 31.339931 
L 70.140725 31.339931 
L 72.698402 31.339931 
L 85.48679 31.339931 
L 95.717501 31.339931 
L 100.832856 31.339931 
L 111.063566 31.339931 
L 116.178922 31.339931 
L 123.851954 31.339931 
L 136.640343 31.339931 
L 151.986408 31.339931 
L 169.890152 31.339931 
L 177.563184 31.339931 
L 180.120862 31.339931 
L 187.793895 31.339931 
L 192.90925 31.339931 
L 198.024605 31.339931 
L 200.582283 31.339931 
L 203.139961 31.339931 
L 208.255316 31.339931 
L 213.370671 31.339931 
L 215.928349 31.339931 
L 221.043704 31.339931 
L 223.601382 31.339931 
L 226.159059 31.339931 
L 231.274414 31.339931 
L 238.947447 31.339931 
L 241.505125 31.339931 
L 244.062802 31.339931 
L 249.178158 31.339931 
L 251.735835 31.339931 
L 254.293513 31.339931 
L 256.851191 31.339931 
L 259.408868 31.339931 
L 264.524223 31.339931 
L 267.081901 31.339931 
L 269.639579 31.339931 
L 272.197256 31.339931 
L 274.754934 31.339931 
L 277.312611 31.339931 
L 279.870289 31.339931 
L 282.427967 31.339931 
L 284.985644 31.339931 
L 287.543322 31.339931 
L 290.101 31.339931 
L 292.658677 31.339931 
L 295.216355 31.339931 
L 297.774032 31.339931 
L 300.33171 31.339931 
L 302.889388 31.339931 
L 305.447065 31.339931 
L 308.004743 31.339931 
L 310.562421 31.339931 
L 313.120098 31.339931 
L 315.677776 31.339931 
L 318.235453 31.339931 
L 320.793131 31.339931 
L 323.350809 31.339931 
L 328.466164 31.339931 
L 333.581519 31.339931 
L 336.139197 31.339931 
L 341.254552 31.339931 
L 343.81223 31.339931 
L 346.369907 31.339931 
L 348.927585 31.339931 
L 351.485262 31.339931 
L 354.04294 31.339931 
L 356.600618 31.339931 
L 359.158295 31.339931 
L 361.715973 31.339931 
L 364.27365 31.339931 
L 366.831328 31.339931 
L 369.389006 31.339931 
" style="fill:none;stroke:#fb9a99;stroke-linecap:round;"/>
   </g>
   <g id="line2d_23">
    <path clip-path="url(#p036157fc3b)" d="M 65.025369 31.339931 
L 359.570824 31.339931 
L 362.843551 42.195045 
L 362.843551 31.339931 
L 366.116278 110.200869 
L 366.116278 108.426112 
L 366.116278 42.083137 
L 369.389006 109.671601 
L 369.389006 109.671601 
" style="fill:none;stroke:#33a02c;stroke-linecap:round;"/>
   </g>
   <g id="line2d_24">
    <path clip-path="url(#p036157fc3b)" d="M 65.025369 31.339931 
L 67.440954 31.339931 
L 69.856538 31.339931 
L 74.687707 31.339931 
L 79.518876 31.339931 
L 96.427967 31.339931 
L 98.843551 31.339931 
L 108.505889 31.339931 
L 118.168226 31.339931 
L 122.999395 31.339931 
L 137.492902 31.339931 
L 156.817577 31.339931 
L 168.895499 31.339931 
L 176.142252 31.339931 
L 183.389006 31.339931 
L 193.051343 31.339931 
L 209.960434 31.339931 
L 219.622772 31.339931 
L 222.038356 31.339931 
L 231.700694 31.339931 
L 236.531863 31.339931 
L 238.947447 31.339931 
L 241.363032 31.339931 
L 248.609785 34.046661 
L 251.025369 34.011959 
L 258.272123 33.912995 
L 260.687707 33.881616 
L 263.103291 33.850994 
L 270.350045 33.763398 
L 272.765629 33.735543 
L 275.181213 33.70832 
L 277.596798 35.971446 
L 277.596798 33.681709 
L 280.012382 35.920551 
L 282.427967 35.870761 
L 284.843551 35.822043 
L 287.259136 35.774361 
L 289.67472 35.727683 
L 292.090304 35.681977 
L 294.505889 35.637213 
L 296.921473 35.593364 
L 299.337058 35.5504 
L 301.752642 35.508295 
L 304.168226 35.467024 
L 306.583811 35.426562 
L 308.999395 35.386886 
L 311.41498 35.347973 
L 313.830564 35.309801 
L 316.246149 35.27235 
L 321.077317 35.199527 
L 325.908486 36.972855 
L 325.908486 35.129353 
L 328.324071 36.922561 
L 330.739655 36.873157 
L 333.155239 36.82462 
L 335.570824 36.776927 
L 337.986408 36.730057 
L 340.401993 36.683987 
L 342.817577 36.638699 
L 345.233162 36.594171 
L 347.648746 36.550386 
L 350.06433 36.507324 
L 352.479915 36.464969 
L 354.895499 36.423302 
L 357.311084 36.382307 
L 359.726668 42.649445 
L 359.726668 41.109534 
L 359.726668 39.545372 
L 359.726668 37.956382 
L 359.726668 36.341968 
L 362.142252 42.562449 
L 364.557837 43.971337 
L 364.557837 42.476781 
L 366.973421 45.338168 
L 366.973421 43.876364 
L 369.389006 45.234477 
" style="fill:none;stroke:#b2df8a;stroke-linecap:round;"/>
   </g>
   <g id="line2d_25">
    <path clip-path="url(#p036157fc3b)" d="M 65.025369 31.339931 
L 69.744185 31.339931 
L 72.103593 31.339931 
L 74.463001 31.339931 
L 79.181818 31.339931 
L 93.338266 31.339931 
L 107.494714 31.339931 
L 128.729386 31.339931 
L 131.088794 31.339931 
L 135.80761 31.339931 
L 138.167018 31.339931 
L 147.604651 31.339931 
L 157.042283 31.339931 
L 166.479915 31.339931 
L 182.995771 31.339931 
L 194.792811 31.339931 
L 201.871035 31.339931 
L 211.308667 31.339931 
L 218.386892 31.339931 
L 220.7463 31.339931 
L 223.105708 31.339931 
L 225.465116 31.339931 
L 227.824524 31.339931 
L 232.54334 31.339931 
L 234.902748 31.339931 
L 237.262156 31.339931 
L 241.980972 31.339931 
L 244.34038 31.339931 
L 246.699788 31.339931 
L 249.059196 31.339931 
L 253.778012 31.339931 
L 256.13742 31.339931 
L 260.856236 31.339931 
L 265.575052 31.339931 
L 267.93446 31.339931 
L 270.293868 31.339931 
L 272.653276 31.339931 
L 275.012684 31.339931 
L 277.372092 31.339931 
L 279.7315 31.339931 
L 282.090908 31.339931 
L 284.450316 31.339931 
L 289.169133 31.339931 
L 291.528541 31.339931 
L 293.887949 31.339931 
L 296.247357 31.339931 
L 298.606765 31.339931 
L 300.966173 31.339931 
L 303.325581 31.339931 
L 305.684989 31.339931 
L 308.044397 31.339931 
L 310.403805 31.339931 
L 312.763213 31.339931 
L 315.122621 31.339931 
L 317.482029 31.339931 
L 319.841437 31.339931 
L 322.200845 31.339931 
L 324.560253 31.339931 
L 326.919661 31.339931 
L 329.279069 31.339931 
L 331.638477 31.339931 
L 333.997885 31.339931 
L 336.357293 31.339931 
L 338.716701 33.121283 
L 338.716701 31.339931 
L 341.076109 33.106187 
L 343.435517 33.091344 
L 345.794925 33.076749 
L 348.154333 33.062395 
L 350.513741 33.048277 
L 352.873149 33.034388 
L 355.232557 33.020723 
L 357.591966 33.007277 
L 359.951374 32.994044 
L 362.310782 32.981019 
L 364.67019 32.968198 
L 367.029598 32.955576 
L 369.389006 32.943148 
" style="fill:none;stroke:#a6cee3;stroke-linecap:round;"/>
   </g>
   <g id="line2d_26">
    <path clip-path="url(#p036157fc3b)" d="M 65.025369 31.339931 
L 197.838592 31.339931 
L 236.575783 31.339931 
L 264.245204 31.339931 
L 280.846857 31.339931 
L 300.215452 31.339931 
L 305.749336 31.339931 
L 311.283221 31.339931 
L 316.817105 31.339931 
L 319.584047 31.339931 
L 325.117931 31.339931 
L 327.884873 31.339931 
L 330.651816 31.339931 
L 333.418758 31.339931 
L 336.1857 31.339931 
L 338.952642 31.339931 
L 341.719584 31.339931 
L 344.486526 31.339931 
L 347.253468 31.339931 
L 350.020411 31.339931 
L 352.787353 31.339931 
L 355.554295 31.339931 
L 358.321237 31.339931 
L 361.088179 31.339931 
L 363.855121 31.339931 
L 366.622064 31.339931 
L 369.389006 31.339931 
" style="fill:none;stroke:#1f78b4;stroke-linecap:round;"/>
   </g>
   <g id="line2d_27"/>
   <g id="line2d_28"/>
   <g id="line2d_29"/>
   <g id="line2d_30"/>
   <g id="line2d_31"/>
   <g id="line2d_32"/>
   <g id="line2d_33"/>
   <g id="line2d_34"/>
   <g id="line2d_35"/>
   <g id="line2d_36"/>
   <g id="line2d_37"/>
   <g id="line2d_38"/>
   <g id="line2d_39"/>
   <g id="line2d_40"/>
   <g id="patch_3">
    <path d="M 49.807187 239.758125 
L 49.807187 22.318125 
" style="fill:none;stroke:#cccccc;stroke-linecap:square;stroke-linejoin:miter;stroke-width:1.25;"/>
   </g>
   <g id="patch_4">
    <path d="M 384.607188 239.758125 
L 384.607188 22.318125 
" style="fill:none;stroke:#cccccc;stroke-linecap:square;stroke-linejoin:miter;stroke-width:1.25;"/>
   </g>
   <g id="patch_5">
    <path d="M 49.807187 239.758125 
L 384.607188 239.758125 
" style="fill:none;stroke:#cccccc;stroke-linecap:square;stroke-linejoin:miter;stroke-width:1.25;"/>
   </g>
   <g id="patch_6">
    <path d="M 49.807187 22.318125 
L 384.607188 22.318125 
" style="fill:none;stroke:#cccccc;stroke-linecap:square;stroke-linejoin:miter;stroke-width:1.25;"/>
   </g>
   <g id="text_15">
    <!-- Precision recall curve for each class -->
    <defs>
     <path id="DejaVuSans-32"/>
     <path d="M 8.5 21.578125 
L 8.5 54.6875 
L 17.484375 54.6875 
L 17.484375 21.921875 
Q 17.484375 14.15625 20.5 10.265625 
Q 23.53125 6.390625 29.59375 6.390625 
Q 36.859375 6.390625 41.078125 11.03125 
Q 45.3125 15.671875 45.3125 23.6875 
L 45.3125 54.6875 
L 54.296875 54.6875 
L 54.296875 0 
L 45.3125 0 
L 45.3125 8.40625 
Q 42.046875 3.421875 37.71875 1 
Q 33.40625 -1.421875 27.6875 -1.421875 
Q 18.265625 -1.421875 13.375 4.4375 
Q 8.5 10.296875 8.5 21.578125 
z
M 31.109375 56 
z
" id="DejaVuSans-117"/>
     <path d="M 2.984375 54.6875 
L 12.5 54.6875 
L 29.59375 8.796875 
L 46.6875 54.6875 
L 56.203125 54.6875 
L 35.6875 0 
L 23.484375 0 
z
" id="DejaVuSans-118"/>
     <path d="M 37.109375 75.984375 
L 37.109375 68.5 
L 28.515625 68.5 
Q 23.6875 68.5 21.796875 66.546875 
Q 19.921875 64.59375 19.921875 59.515625 
L 19.921875 54.6875 
L 34.71875 54.6875 
L 34.71875 47.703125 
L 19.921875 47.703125 
L 19.921875 0 
L 10.890625 0 
L 10.890625 47.703125 
L 2.296875 47.703125 
L 2.296875 54.6875 
L 10.890625 54.6875 
L 10.890625 58.5 
Q 10.890625 67.625 15.140625 71.796875 
Q 19.390625 75.984375 28.609375 75.984375 
z
" id="DejaVuSans-102"/>
     <path d="M 54.890625 33.015625 
L 54.890625 0 
L 45.90625 0 
L 45.90625 32.71875 
Q 45.90625 40.484375 42.875 44.328125 
Q 39.84375 48.1875 33.796875 48.1875 
Q 26.515625 48.1875 22.3125 43.546875 
Q 18.109375 38.921875 18.109375 30.90625 
L 18.109375 0 
L 9.078125 0 
L 9.078125 75.984375 
L 18.109375 75.984375 
L 18.109375 46.1875 
Q 21.34375 51.125 25.703125 53.5625 
Q 30.078125 56 35.796875 56 
Q 45.21875 56 50.046875 50.171875 
Q 54.890625 44.34375 54.890625 33.015625 
z
" id="DejaVuSans-104"/>
    </defs>
    <g style="fill:#262626;" transform="translate(109.775313 16.318125)scale(0.12 -0.12)">
     <use xlink:href="#DejaVuSans-80"/>
     <use x="60.287109" xlink:href="#DejaVuSans-114"/>
     <use x="101.369141" xlink:href="#DejaVuSans-101"/>
     <use x="162.892578" xlink:href="#DejaVuSans-99"/>
     <use x="217.873047" xlink:href="#DejaVuSans-105"/>
     <use x="245.65625" xlink:href="#DejaVuSans-115"/>
     <use x="297.755859" xlink:href="#DejaVuSans-105"/>
     <use x="325.539062" xlink:href="#DejaVuSans-111"/>
     <use x="386.720703" xlink:href="#DejaVuSans-110"/>
     <use x="450.099609" xlink:href="#DejaVuSans-32"/>
     <use x="481.886719" xlink:href="#DejaVuSans-114"/>
     <use x="522.96875" xlink:href="#DejaVuSans-101"/>
     <use x="584.492188" xlink:href="#DejaVuSans-99"/>
     <use x="639.472656" xlink:href="#DejaVuSans-97"/>
     <use x="700.751953" xlink:href="#DejaVuSans-108"/>
     <use x="728.535156" xlink:href="#DejaVuSans-108"/>
     <use x="756.318359" xlink:href="#DejaVuSans-32"/>
     <use x="788.105469" xlink:href="#DejaVuSans-99"/>
     <use x="843.085938" xlink:href="#DejaVuSans-117"/>
     <use x="906.464844" xlink:href="#DejaVuSans-114"/>
     <use x="947.578125" xlink:href="#DejaVuSans-118"/>
     <use x="1006.757812" xlink:href="#DejaVuSans-101"/>
     <use x="1068.28125" xlink:href="#DejaVuSans-32"/>
     <use x="1100.068359" xlink:href="#DejaVuSans-102"/>
     <use x="1135.273438" xlink:href="#DejaVuSans-111"/>
     <use x="1196.455078" xlink:href="#DejaVuSans-114"/>
     <use x="1237.568359" xlink:href="#DejaVuSans-32"/>
     <use x="1269.355469" xlink:href="#DejaVuSans-101"/>
     <use x="1330.878906" xlink:href="#DejaVuSans-97"/>
     <use x="1392.158203" xlink:href="#DejaVuSans-99"/>
     <use x="1447.138672" xlink:href="#DejaVuSans-104"/>
     <use x="1510.517578" xlink:href="#DejaVuSans-32"/>
     <use x="1542.304688" xlink:href="#DejaVuSans-99"/>
     <use x="1597.285156" xlink:href="#DejaVuSans-108"/>
     <use x="1625.068359" xlink:href="#DejaVuSans-97"/>
     <use x="1686.347656" xlink:href="#DejaVuSans-115"/>
     <use x="1738.447266" xlink:href="#DejaVuSans-115"/>
    </g>
   </g>
   <g id="legend_1">
    <g id="patch_7">
     <path d="M 403.547188 268.775 
L 478.739063 268.775 
Q 480.939063 268.775 480.939063 266.575 
L 480.939063 24.518125 
Q 480.939063 22.318125 478.739063 22.318125 
L 403.547188 22.318125 
Q 401.347188 22.318125 401.347188 24.518125 
L 401.347188 266.575 
Q 401.347188 268.775 403.547188 268.775 
z
" style="fill:#ffffff;opacity:0.8;stroke:#cccccc;stroke-linejoin:miter;"/>
    </g>
    <g id="text_16">
     <!-- Class -->
     <defs>
      <path d="M 64.40625 67.28125 
L 64.40625 56.890625 
Q 59.421875 61.53125 53.78125 63.8125 
Q 48.140625 66.109375 41.796875 66.109375 
Q 29.296875 66.109375 22.65625 58.46875 
Q 16.015625 50.828125 16.015625 36.375 
Q 16.015625 21.96875 22.65625 14.328125 
Q 29.296875 6.6875 41.796875 6.6875 
Q 48.140625 6.6875 53.78125 8.984375 
Q 59.421875 11.28125 64.40625 15.921875 
L 64.40625 5.609375 
Q 59.234375 2.09375 53.4375 0.328125 
Q 47.65625 -1.421875 41.21875 -1.421875 
Q 24.65625 -1.421875 15.125 8.703125 
Q 5.609375 18.84375 5.609375 36.375 
Q 5.609375 53.953125 15.125 64.078125 
Q 24.65625 74.21875 41.21875 74.21875 
Q 47.75 74.21875 53.53125 72.484375 
Q 59.328125 70.75 64.40625 67.28125 
z
" id="DejaVuSans-67"/>
     </defs>
     <g style="fill:#262626;" transform="translate(425.358437 35.83625)scale(0.12 -0.12)">
      <use xlink:href="#DejaVuSans-67"/>
      <use x="69.824219" xlink:href="#DejaVuSans-108"/>
      <use x="97.607422" xlink:href="#DejaVuSans-97"/>
      <use x="158.886719" xlink:href="#DejaVuSans-115"/>
      <use x="210.986328" xlink:href="#DejaVuSans-115"/>
     </g>
    </g>
    <g id="line2d_41">
     <path d="M 405.747187 48.340156 
L 427.747187 48.340156 
" style="fill:none;stroke:#000000;stroke-linecap:round;stroke-width:1.5;"/>
    </g>
    <g id="line2d_42"/>
    <g id="text_17">
     <!-- Normal -->
     <defs>
      <path d="M 9.8125 72.90625 
L 23.09375 72.90625 
L 55.421875 11.921875 
L 55.421875 72.90625 
L 64.984375 72.90625 
L 64.984375 0 
L 51.703125 0 
L 19.390625 60.984375 
L 19.390625 0 
L 9.8125 0 
z
" id="DejaVuSans-78"/>
      <path d="M 52 44.1875 
Q 55.375 50.25 60.0625 53.125 
Q 64.75 56 71.09375 56 
Q 79.640625 56 84.28125 50.015625 
Q 88.921875 44.046875 88.921875 33.015625 
L 88.921875 0 
L 79.890625 0 
L 79.890625 32.71875 
Q 79.890625 40.578125 77.09375 44.375 
Q 74.3125 48.1875 68.609375 48.1875 
Q 61.625 48.1875 57.5625 43.546875 
Q 53.515625 38.921875 53.515625 30.90625 
L 53.515625 0 
L 44.484375 0 
L 44.484375 32.71875 
Q 44.484375 40.625 41.703125 44.40625 
Q 38.921875 48.1875 33.109375 48.1875 
Q 26.21875 48.1875 22.15625 43.53125 
Q 18.109375 38.875 18.109375 30.90625 
L 18.109375 0 
L 9.078125 0 
L 9.078125 54.6875 
L 18.109375 54.6875 
L 18.109375 46.1875 
Q 21.1875 51.21875 25.484375 53.609375 
Q 29.78125 56 35.6875 56 
Q 41.65625 56 45.828125 52.96875 
Q 50 49.953125 52 44.1875 
z
" id="DejaVuSans-109"/>
     </defs>
     <g style="fill:#262626;" transform="translate(436.547188 52.190156)scale(0.11 -0.11)">
      <use xlink:href="#DejaVuSans-78"/>
      <use x="74.804688" xlink:href="#DejaVuSans-111"/>
      <use x="135.986328" xlink:href="#DejaVuSans-114"/>
      <use x="177.083984" xlink:href="#DejaVuSans-109"/>
      <use x="274.496094" xlink:href="#DejaVuSans-97"/>
      <use x="335.775391" xlink:href="#DejaVuSans-108"/>
     </g>
    </g>
    <g id="line2d_43">
     <path d="M 405.747187 64.486094 
L 427.747187 64.486094 
" style="fill:none;stroke:#6e6e6e;stroke-linecap:round;stroke-width:1.5;"/>
    </g>
    <g id="line2d_44"/>
    <g id="text_18">
     <!-- BLCA -->
     <defs>
      <path d="M 19.671875 34.8125 
L 19.671875 8.109375 
L 35.5 8.109375 
Q 43.453125 8.109375 47.28125 11.40625 
Q 51.125 14.703125 51.125 21.484375 
Q 51.125 28.328125 47.28125 31.5625 
Q 43.453125 34.8125 35.5 34.8125 
z
M 19.671875 64.796875 
L 19.671875 42.828125 
L 34.28125 42.828125 
Q 41.5 42.828125 45.03125 45.53125 
Q 48.578125 48.25 48.578125 53.8125 
Q 48.578125 59.328125 45.03125 62.0625 
Q 41.5 64.796875 34.28125 64.796875 
z
M 9.8125 72.90625 
L 35.015625 72.90625 
Q 46.296875 72.90625 52.390625 68.21875 
Q 58.5 63.53125 58.5 54.890625 
Q 58.5 48.1875 55.375 44.234375 
Q 52.25 40.28125 46.1875 39.3125 
Q 53.46875 37.75 57.5 32.78125 
Q 61.53125 27.828125 61.53125 20.40625 
Q 61.53125 10.640625 54.890625 5.3125 
Q 48.25 0 35.984375 0 
L 9.8125 0 
z
" id="DejaVuSans-66"/>
      <path d="M 9.8125 72.90625 
L 19.671875 72.90625 
L 19.671875 8.296875 
L 55.171875 8.296875 
L 55.171875 0 
L 9.8125 0 
z
" id="DejaVuSans-76"/>
      <path d="M 34.1875 63.1875 
L 20.796875 26.90625 
L 47.609375 26.90625 
z
M 28.609375 72.90625 
L 39.796875 72.90625 
L 67.578125 0 
L 57.328125 0 
L 50.6875 18.703125 
L 17.828125 18.703125 
L 11.1875 0 
L 0.78125 0 
z
" id="DejaVuSans-65"/>
     </defs>
     <g style="fill:#262626;" transform="translate(436.547188 68.336094)scale(0.11 -0.11)">
      <use xlink:href="#DejaVuSans-66"/>
      <use x="68.603516" xlink:href="#DejaVuSans-76"/>
      <use x="124.316406" xlink:href="#DejaVuSans-67"/>
      <use x="194.140625" xlink:href="#DejaVuSans-65"/>
     </g>
    </g>
    <g id="line2d_45">
     <path d="M 405.747187 80.632031 
L 427.747187 80.632031 
" style="fill:none;stroke:#b15928;stroke-linecap:round;stroke-width:1.5;"/>
    </g>
    <g id="line2d_46"/>
    <g id="text_19">
     <!-- BRCA -->
     <g style="fill:#262626;" transform="translate(436.547188 84.482031)scale(0.11 -0.11)">
      <use xlink:href="#DejaVuSans-66"/>
      <use x="68.603516" xlink:href="#DejaVuSans-82"/>
      <use x="138.007812" xlink:href="#DejaVuSans-67"/>
      <use x="207.832031" xlink:href="#DejaVuSans-65"/>
     </g>
    </g>
    <g id="line2d_47">
     <path d="M 405.747187 96.777969 
L 427.747187 96.777969 
" style="fill:none;stroke:#ffff99;stroke-linecap:round;stroke-width:1.5;"/>
    </g>
    <g id="line2d_48"/>
    <g id="text_20">
     <!-- COAD -->
     <defs>
      <path d="M 39.40625 66.21875 
Q 28.65625 66.21875 22.328125 58.203125 
Q 16.015625 50.203125 16.015625 36.375 
Q 16.015625 22.609375 22.328125 14.59375 
Q 28.65625 6.59375 39.40625 6.59375 
Q 50.140625 6.59375 56.421875 14.59375 
Q 62.703125 22.609375 62.703125 36.375 
Q 62.703125 50.203125 56.421875 58.203125 
Q 50.140625 66.21875 39.40625 66.21875 
z
M 39.40625 74.21875 
Q 54.734375 74.21875 63.90625 63.9375 
Q 73.09375 53.65625 73.09375 36.375 
Q 73.09375 19.140625 63.90625 8.859375 
Q 54.734375 -1.421875 39.40625 -1.421875 
Q 24.03125 -1.421875 14.8125 8.828125 
Q 5.609375 19.09375 5.609375 36.375 
Q 5.609375 53.65625 14.8125 63.9375 
Q 24.03125 74.21875 39.40625 74.21875 
z
" id="DejaVuSans-79"/>
      <path d="M 19.671875 64.796875 
L 19.671875 8.109375 
L 31.59375 8.109375 
Q 46.6875 8.109375 53.6875 14.9375 
Q 60.6875 21.78125 60.6875 36.53125 
Q 60.6875 51.171875 53.6875 57.984375 
Q 46.6875 64.796875 31.59375 64.796875 
z
M 9.8125 72.90625 
L 30.078125 72.90625 
Q 51.265625 72.90625 61.171875 64.09375 
Q 71.09375 55.28125 71.09375 36.53125 
Q 71.09375 17.671875 61.125 8.828125 
Q 51.171875 0 30.078125 0 
L 9.8125 0 
z
" id="DejaVuSans-68"/>
     </defs>
     <g style="fill:#262626;" transform="translate(436.547188 100.627969)scale(0.11 -0.11)">
      <use xlink:href="#DejaVuSans-67"/>
      <use x="69.824219" xlink:href="#DejaVuSans-79"/>
      <use x="148.519531" xlink:href="#DejaVuSans-65"/>
      <use x="216.927734" xlink:href="#DejaVuSans-68"/>
     </g>
    </g>
    <g id="line2d_49">
     <path d="M 405.747187 112.923906 
L 427.747187 112.923906 
" style="fill:none;stroke:#6a3d9a;stroke-linecap:round;stroke-width:1.5;"/>
    </g>
    <g id="line2d_50"/>
    <g id="text_21">
     <!-- ESCA -->
     <defs>
      <path d="M 9.8125 72.90625 
L 55.90625 72.90625 
L 55.90625 64.59375 
L 19.671875 64.59375 
L 19.671875 43.015625 
L 54.390625 43.015625 
L 54.390625 34.71875 
L 19.671875 34.71875 
L 19.671875 8.296875 
L 56.78125 8.296875 
L 56.78125 0 
L 9.8125 0 
z
" id="DejaVuSans-69"/>
      <path d="M 53.515625 70.515625 
L 53.515625 60.890625 
Q 47.90625 63.578125 42.921875 64.890625 
Q 37.9375 66.21875 33.296875 66.21875 
Q 25.25 66.21875 20.875 63.09375 
Q 16.5 59.96875 16.5 54.203125 
Q 16.5 49.359375 19.40625 46.890625 
Q 22.3125 44.4375 30.421875 42.921875 
L 36.375 41.703125 
Q 47.40625 39.59375 52.65625 34.296875 
Q 57.90625 29 57.90625 20.125 
Q 57.90625 9.515625 50.796875 4.046875 
Q 43.703125 -1.421875 29.984375 -1.421875 
Q 24.8125 -1.421875 18.96875 -0.25 
Q 13.140625 0.921875 6.890625 3.21875 
L 6.890625 13.375 
Q 12.890625 10.015625 18.65625 8.296875 
Q 24.421875 6.59375 29.984375 6.59375 
Q 38.421875 6.59375 43.015625 9.90625 
Q 47.609375 13.234375 47.609375 19.390625 
Q 47.609375 24.75 44.3125 27.78125 
Q 41.015625 30.8125 33.5 32.328125 
L 27.484375 33.5 
Q 16.453125 35.6875 11.515625 40.375 
Q 6.59375 45.0625 6.59375 53.421875 
Q 6.59375 63.09375 13.40625 68.65625 
Q 20.21875 74.21875 32.171875 74.21875 
Q 37.3125 74.21875 42.625 73.28125 
Q 47.953125 72.359375 53.515625 70.515625 
z
" id="DejaVuSans-83"/>
     </defs>
     <g style="fill:#262626;" transform="translate(436.547188 116.773906)scale(0.11 -0.11)">
      <use xlink:href="#DejaVuSans-69"/>
      <use x="63.183594" xlink:href="#DejaVuSans-83"/>
      <use x="126.660156" xlink:href="#DejaVuSans-67"/>
      <use x="196.484375" xlink:href="#DejaVuSans-65"/>
     </g>
    </g>
    <g id="line2d_51">
     <path d="M 405.747187 129.069844 
L 427.747187 129.069844 
" style="fill:none;stroke:#cab2d6;stroke-linecap:round;stroke-width:1.5;"/>
    </g>
    <g id="line2d_52"/>
    <g id="text_22">
     <!-- HNSC -->
     <defs>
      <path d="M 9.8125 72.90625 
L 19.671875 72.90625 
L 19.671875 43.015625 
L 55.515625 43.015625 
L 55.515625 72.90625 
L 65.375 72.90625 
L 65.375 0 
L 55.515625 0 
L 55.515625 34.71875 
L 19.671875 34.71875 
L 19.671875 0 
L 9.8125 0 
z
" id="DejaVuSans-72"/>
     </defs>
     <g style="fill:#262626;" transform="translate(436.547188 132.919844)scale(0.11 -0.11)">
      <use xlink:href="#DejaVuSans-72"/>
      <use x="75.195312" xlink:href="#DejaVuSans-78"/>
      <use x="150" xlink:href="#DejaVuSans-83"/>
      <use x="213.476562" xlink:href="#DejaVuSans-67"/>
     </g>
    </g>
    <g id="line2d_53">
     <path d="M 405.747187 145.215781 
L 427.747187 145.215781 
" style="fill:none;stroke:#ff7f00;stroke-linecap:round;stroke-width:1.5;"/>
    </g>
    <g id="line2d_54"/>
    <g id="text_23">
     <!-- KIRC -->
     <defs>
      <path d="M 9.8125 72.90625 
L 19.671875 72.90625 
L 19.671875 42.09375 
L 52.390625 72.90625 
L 65.09375 72.90625 
L 28.90625 38.921875 
L 67.671875 0 
L 54.6875 0 
L 19.671875 35.109375 
L 19.671875 0 
L 9.8125 0 
z
" id="DejaVuSans-75"/>
      <path d="M 9.8125 72.90625 
L 19.671875 72.90625 
L 19.671875 0 
L 9.8125 0 
z
" id="DejaVuSans-73"/>
     </defs>
     <g style="fill:#262626;" transform="translate(436.547188 149.065781)scale(0.11 -0.11)">
      <use xlink:href="#DejaVuSans-75"/>
      <use x="65.576172" xlink:href="#DejaVuSans-73"/>
      <use x="95.068359" xlink:href="#DejaVuSans-82"/>
      <use x="164.472656" xlink:href="#DejaVuSans-67"/>
     </g>
    </g>
    <g id="line2d_55">
     <path d="M 405.747187 161.361719 
L 427.747187 161.361719 
" style="fill:none;stroke:#fdbf6f;stroke-linecap:round;stroke-width:1.5;"/>
    </g>
    <g id="line2d_56"/>
    <g id="text_24">
     <!-- KIRP -->
     <g style="fill:#262626;" transform="translate(436.547188 165.211719)scale(0.11 -0.11)">
      <use xlink:href="#DejaVuSans-75"/>
      <use x="65.576172" xlink:href="#DejaVuSans-73"/>
      <use x="95.068359" xlink:href="#DejaVuSans-82"/>
      <use x="164.550781" xlink:href="#DejaVuSans-80"/>
     </g>
    </g>
    <g id="line2d_57">
     <path d="M 405.747187 177.507656 
L 427.747187 177.507656 
" style="fill:none;stroke:#e31a1c;stroke-linecap:round;stroke-width:1.5;"/>
    </g>
    <g id="line2d_58"/>
    <g id="text_25">
     <!-- LIHC -->
     <g style="fill:#262626;" transform="translate(436.547188 181.357656)scale(0.11 -0.11)">
      <use xlink:href="#DejaVuSans-76"/>
      <use x="55.712891" xlink:href="#DejaVuSans-73"/>
      <use x="85.205078" xlink:href="#DejaVuSans-72"/>
      <use x="160.400391" xlink:href="#DejaVuSans-67"/>
     </g>
    </g>
    <g id="line2d_59">
     <path d="M 405.747187 193.653594 
L 427.747187 193.653594 
" style="fill:none;stroke:#fb9a99;stroke-linecap:round;stroke-width:1.5;"/>
    </g>
    <g id="line2d_60"/>
    <g id="text_26">
     <!-- LUAD -->
     <defs>
      <path d="M 8.6875 72.90625 
L 18.609375 72.90625 
L 18.609375 28.609375 
Q 18.609375 16.890625 22.84375 11.734375 
Q 27.09375 6.59375 36.625 6.59375 
Q 46.09375 6.59375 50.34375 11.734375 
Q 54.59375 16.890625 54.59375 28.609375 
L 54.59375 72.90625 
L 64.5 72.90625 
L 64.5 27.390625 
Q 64.5 13.140625 57.4375 5.859375 
Q 50.390625 -1.421875 36.625 -1.421875 
Q 22.796875 -1.421875 15.734375 5.859375 
Q 8.6875 13.140625 8.6875 27.390625 
z
" id="DejaVuSans-85"/>
     </defs>
     <g style="fill:#262626;" transform="translate(436.547188 197.503594)scale(0.11 -0.11)">
      <use xlink:href="#DejaVuSans-76"/>
      <use x="55.634766" xlink:href="#DejaVuSans-85"/>
      <use x="128.828125" xlink:href="#DejaVuSans-65"/>
      <use x="197.236328" xlink:href="#DejaVuSans-68"/>
     </g>
    </g>
    <g id="line2d_61">
     <path d="M 405.747187 209.799531 
L 427.747187 209.799531 
" style="fill:none;stroke:#33a02c;stroke-linecap:round;stroke-width:1.5;"/>
    </g>
    <g id="line2d_62"/>
    <g id="text_27">
     <!-- LUSC -->
     <g style="fill:#262626;" transform="translate(436.547188 213.649531)scale(0.11 -0.11)">
      <use xlink:href="#DejaVuSans-76"/>
      <use x="55.634766" xlink:href="#DejaVuSans-85"/>
      <use x="128.828125" xlink:href="#DejaVuSans-83"/>
      <use x="192.304688" xlink:href="#DejaVuSans-67"/>
     </g>
    </g>
    <g id="line2d_63">
     <path d="M 405.747187 225.945469 
L 427.747187 225.945469 
" style="fill:none;stroke:#b2df8a;stroke-linecap:round;stroke-width:1.5;"/>
    </g>
    <g id="line2d_64"/>
    <g id="text_28">
     <!-- PRAD -->
     <g style="fill:#262626;" transform="translate(436.547188 229.795469)scale(0.11 -0.11)">
      <use xlink:href="#DejaVuSans-80"/>
      <use x="60.302734" xlink:href="#DejaVuSans-82"/>
      <use x="129.722656" xlink:href="#DejaVuSans-65"/>
      <use x="198.130859" xlink:href="#DejaVuSans-68"/>
     </g>
    </g>
    <g id="line2d_65">
     <path d="M 405.747187 242.091406 
L 427.747187 242.091406 
" style="fill:none;stroke:#a6cee3;stroke-linecap:round;stroke-width:1.5;"/>
    </g>
    <g id="line2d_66"/>
    <g id="text_29">
     <!-- THCA -->
     <defs>
      <path d="M -0.296875 72.90625 
L 61.375 72.90625 
L 61.375 64.59375 
L 35.5 64.59375 
L 35.5 0 
L 25.59375 0 
L 25.59375 64.59375 
L -0.296875 64.59375 
z
" id="DejaVuSans-84"/>
     </defs>
     <g style="fill:#262626;" transform="translate(436.547188 245.941406)scale(0.11 -0.11)">
      <use xlink:href="#DejaVuSans-84"/>
      <use x="61.083984" xlink:href="#DejaVuSans-72"/>
      <use x="136.279297" xlink:href="#DejaVuSans-67"/>
      <use x="206.103516" xlink:href="#DejaVuSans-65"/>
     </g>
    </g>
    <g id="line2d_67">
     <path d="M 405.747187 258.237344 
L 427.747187 258.237344 
" style="fill:none;stroke:#1f78b4;stroke-linecap:round;stroke-width:1.5;"/>
    </g>
    <g id="line2d_68"/>
    <g id="text_30">
     <!-- UCEC -->
     <g style="fill:#262626;" transform="translate(436.547188 262.087344)scale(0.11 -0.11)">
      <use xlink:href="#DejaVuSans-85"/>
      <use x="73.193359" xlink:href="#DejaVuSans-67"/>
      <use x="143.017578" xlink:href="#DejaVuSans-69"/>
      <use x="206.201172" xlink:href="#DejaVuSans-67"/>
     </g>
    </g>
   </g>
  </g>
 </g>
 <defs>
  <clipPath id="p036157fc3b">
   <rect height="217.44" width="334.8" x="49.807187" y="22.318125"/>
  </clipPath>
 </defs>
</svg>
