<?xml version="1.0" encoding="utf-8" standalone="no"?>
<!DOCTYPE svg PUBLIC "-//W3C//DTD SVG 1.1//EN"
  "http://www.w3.org/Graphics/SVG/1.1/DTD/svg11.dtd">
<!-- Created with matplotlib (https://matplotlib.org/) -->
<svg height="384.475933pt" version="1.1" viewBox="0 0 565.924594 384.475933" width="565.924594pt" xmlns="http://www.w3.org/2000/svg" xmlns:xlink="http://www.w3.org/1999/xlink">
 <defs>
  <style type="text/css">
*{stroke-linecap:butt;stroke-linejoin:round;white-space:pre;}
  </style>
 </defs>
 <g id="figure_1">
  <g id="patch_1">
   <path d="M 0 384.475933 
L 565.924594 384.475933 
L 565.924594 0 
L 0 0 
z
" style="fill:#ffffff;"/>
  </g>
  <g id="axes_1">
   <g id="patch_2">
    <path d="M 64.360781 273.70262 
L 421.480781 273.70262 
L 421.480781 7.59062 
L 64.360781 7.59062 
z
" style="fill:#ffffff;"/>
   </g>
   <g id="matplotlib.axis_1">
    <g id="xtick_1">
     <g id="line2d_1">
      <path clip-path="url(#p885dcf3e3c)" d="M 80.593509 273.70262 
L 80.593509 7.59062 
" style="fill:none;stroke:#cccccc;stroke-linecap:round;"/>
     </g>
     <g id="text_1">
      <!-- 0.0 -->
      <defs>
       <path d="M 31.78125 66.40625 
Q 24.171875 66.40625 20.328125 58.90625 
Q 16.5 51.421875 16.5 36.375 
Q 16.5 21.390625 20.328125 13.890625 
Q 24.171875 6.390625 31.78125 6.390625 
Q 39.453125 6.390625 43.28125 13.890625 
Q 47.125 21.390625 47.125 36.375 
Q 47.125 51.421875 43.28125 58.90625 
Q 39.453125 66.40625 31.78125 66.40625 
z
M 31.78125 74.21875 
Q 44.046875 74.21875 50.515625 64.515625 
Q 56.984375 54.828125 56.984375 36.375 
Q 56.984375 17.96875 50.515625 8.265625 
Q 44.046875 -1.421875 31.78125 -1.421875 
Q 19.53125 -1.421875 13.0625 8.265625 
Q 6.59375 17.96875 6.59375 36.375 
Q 6.59375 54.828125 13.0625 64.515625 
Q 19.53125 74.21875 31.78125 74.21875 
z
" id="DejaVuSans-48"/>
       <path d="M 10.6875 12.40625 
L 21 12.40625 
L 21 0 
L 10.6875 0 
z
" id="DejaVuSans-46"/>
      </defs>
      <g style="fill:#262626;" transform="translate(67.47343 295.740042)scale(0.165 -0.165)">
       <use xlink:href="#DejaVuSans-48"/>
       <use x="63.623047" xlink:href="#DejaVuSans-46"/>
       <use x="95.410156" xlink:href="#DejaVuSans-48"/>
      </g>
     </g>
    </g>
    <g id="xtick_2">
     <g id="line2d_2">
      <path clip-path="url(#p885dcf3e3c)" d="M 145.524418 273.70262 
L 145.524418 7.59062 
" style="fill:none;stroke:#cccccc;stroke-linecap:round;"/>
     </g>
     <g id="text_2">
      <!-- 0.2 -->
      <defs>
       <path d="M 19.1875 8.296875 
L 53.609375 8.296875 
L 53.609375 0 
L 7.328125 0 
L 7.328125 8.296875 
Q 12.9375 14.109375 22.625 23.890625 
Q 32.328125 33.6875 34.8125 36.53125 
Q 39.546875 41.84375 41.421875 45.53125 
Q 43.3125 49.21875 43.3125 52.78125 
Q 43.3125 58.59375 39.234375 62.25 
Q 35.15625 65.921875 28.609375 65.921875 
Q 23.96875 65.921875 18.8125 64.3125 
Q 13.671875 62.703125 7.8125 59.421875 
L 7.8125 69.390625 
Q 13.765625 71.78125 18.9375 73 
Q 24.125 74.21875 28.421875 74.21875 
Q 39.75 74.21875 46.484375 68.546875 
Q 53.21875 62.890625 53.21875 53.421875 
Q 53.21875 48.921875 51.53125 44.890625 
Q 49.859375 40.875 45.40625 35.40625 
Q 44.1875 33.984375 37.640625 27.21875 
Q 31.109375 20.453125 19.1875 8.296875 
z
" id="DejaVuSans-50"/>
      </defs>
      <g style="fill:#262626;" transform="translate(132.404339 295.740042)scale(0.165 -0.165)">
       <use xlink:href="#DejaVuSans-48"/>
       <use x="63.623047" xlink:href="#DejaVuSans-46"/>
       <use x="95.410156" xlink:href="#DejaVuSans-50"/>
      </g>
     </g>
    </g>
    <g id="xtick_3">
     <g id="line2d_3">
      <path clip-path="url(#p885dcf3e3c)" d="M 210.455327 273.70262 
L 210.455327 7.59062 
" style="fill:none;stroke:#cccccc;stroke-linecap:round;"/>
     </g>
     <g id="text_3">
      <!-- 0.4 -->
      <defs>
       <path d="M 37.796875 64.3125 
L 12.890625 25.390625 
L 37.796875 25.390625 
z
M 35.203125 72.90625 
L 47.609375 72.90625 
L 47.609375 25.390625 
L 58.015625 25.390625 
L 58.015625 17.1875 
L 47.609375 17.1875 
L 47.609375 0 
L 37.796875 0 
L 37.796875 17.1875 
L 4.890625 17.1875 
L 4.890625 26.703125 
z
" id="DejaVuSans-52"/>
      </defs>
      <g style="fill:#262626;" transform="translate(197.335249 295.740042)scale(0.165 -0.165)">
       <use xlink:href="#DejaVuSans-48"/>
       <use x="63.623047" xlink:href="#DejaVuSans-46"/>
       <use x="95.410156" xlink:href="#DejaVuSans-52"/>
      </g>
     </g>
    </g>
    <g id="xtick_4">
     <g id="line2d_4">
      <path clip-path="url(#p885dcf3e3c)" d="M 275.386236 273.70262 
L 275.386236 7.59062 
" style="fill:none;stroke:#cccccc;stroke-linecap:round;"/>
     </g>
     <g id="text_4">
      <!-- 0.6 -->
      <defs>
       <path d="M 33.015625 40.375 
Q 26.375 40.375 22.484375 35.828125 
Q 18.609375 31.296875 18.609375 23.390625 
Q 18.609375 15.53125 22.484375 10.953125 
Q 26.375 6.390625 33.015625 6.390625 
Q 39.65625 6.390625 43.53125 10.953125 
Q 47.40625 15.53125 47.40625 23.390625 
Q 47.40625 31.296875 43.53125 35.828125 
Q 39.65625 40.375 33.015625 40.375 
z
M 52.59375 71.296875 
L 52.59375 62.3125 
Q 48.875 64.0625 45.09375 64.984375 
Q 41.3125 65.921875 37.59375 65.921875 
Q 27.828125 65.921875 22.671875 59.328125 
Q 17.53125 52.734375 16.796875 39.40625 
Q 19.671875 43.65625 24.015625 45.921875 
Q 28.375 48.1875 33.59375 48.1875 
Q 44.578125 48.1875 50.953125 41.515625 
Q 57.328125 34.859375 57.328125 23.390625 
Q 57.328125 12.15625 50.6875 5.359375 
Q 44.046875 -1.421875 33.015625 -1.421875 
Q 20.359375 -1.421875 13.671875 8.265625 
Q 6.984375 17.96875 6.984375 36.375 
Q 6.984375 53.65625 15.1875 63.9375 
Q 23.390625 74.21875 37.203125 74.21875 
Q 40.921875 74.21875 44.703125 73.484375 
Q 48.484375 72.75 52.59375 71.296875 
z
" id="DejaVuSans-54"/>
      </defs>
      <g style="fill:#262626;" transform="translate(262.266158 295.740042)scale(0.165 -0.165)">
       <use xlink:href="#DejaVuSans-48"/>
       <use x="63.623047" xlink:href="#DejaVuSans-46"/>
       <use x="95.410156" xlink:href="#DejaVuSans-54"/>
      </g>
     </g>
    </g>
    <g id="xtick_5">
     <g id="line2d_5">
      <path clip-path="url(#p885dcf3e3c)" d="M 340.317145 273.70262 
L 340.317145 7.59062 
" style="fill:none;stroke:#cccccc;stroke-linecap:round;"/>
     </g>
     <g id="text_5">
      <!-- 0.8 -->
      <defs>
       <path d="M 31.78125 34.625 
Q 24.75 34.625 20.71875 30.859375 
Q 16.703125 27.09375 16.703125 20.515625 
Q 16.703125 13.921875 20.71875 10.15625 
Q 24.75 6.390625 31.78125 6.390625 
Q 38.8125 6.390625 42.859375 10.171875 
Q 46.921875 13.96875 46.921875 20.515625 
Q 46.921875 27.09375 42.890625 30.859375 
Q 38.875 34.625 31.78125 34.625 
z
M 21.921875 38.8125 
Q 15.578125 40.375 12.03125 44.71875 
Q 8.5 49.078125 8.5 55.328125 
Q 8.5 64.0625 14.71875 69.140625 
Q 20.953125 74.21875 31.78125 74.21875 
Q 42.671875 74.21875 48.875 69.140625 
Q 55.078125 64.0625 55.078125 55.328125 
Q 55.078125 49.078125 51.53125 44.71875 
Q 48 40.375 41.703125 38.8125 
Q 48.828125 37.15625 52.796875 32.3125 
Q 56.78125 27.484375 56.78125 20.515625 
Q 56.78125 9.90625 50.3125 4.234375 
Q 43.84375 -1.421875 31.78125 -1.421875 
Q 19.734375 -1.421875 13.25 4.234375 
Q 6.78125 9.90625 6.78125 20.515625 
Q 6.78125 27.484375 10.78125 32.3125 
Q 14.796875 37.15625 21.921875 38.8125 
z
M 18.3125 54.390625 
Q 18.3125 48.734375 21.84375 45.5625 
Q 25.390625 42.390625 31.78125 42.390625 
Q 38.140625 42.390625 41.71875 45.5625 
Q 45.3125 48.734375 45.3125 54.390625 
Q 45.3125 60.0625 41.71875 63.234375 
Q 38.140625 66.40625 31.78125 66.40625 
Q 25.390625 66.40625 21.84375 63.234375 
Q 18.3125 60.0625 18.3125 54.390625 
z
" id="DejaVuSans-56"/>
      </defs>
      <g style="fill:#262626;" transform="translate(327.197067 295.740042)scale(0.165 -0.165)">
       <use xlink:href="#DejaVuSans-48"/>
       <use x="63.623047" xlink:href="#DejaVuSans-46"/>
       <use x="95.410156" xlink:href="#DejaVuSans-56"/>
      </g>
     </g>
    </g>
    <g id="xtick_6">
     <g id="line2d_6">
      <path clip-path="url(#p885dcf3e3c)" d="M 405.248054 273.70262 
L 405.248054 7.59062 
" style="fill:none;stroke:#cccccc;stroke-linecap:round;"/>
     </g>
     <g id="text_6">
      <!-- 1.0 -->
      <defs>
       <path d="M 12.40625 8.296875 
L 28.515625 8.296875 
L 28.515625 63.921875 
L 10.984375 60.40625 
L 10.984375 69.390625 
L 28.421875 72.90625 
L 38.28125 72.90625 
L 38.28125 8.296875 
L 54.390625 8.296875 
L 54.390625 0 
L 12.40625 0 
z
" id="DejaVuSans-49"/>
      </defs>
      <g style="fill:#262626;" transform="translate(392.127976 295.740042)scale(0.165 -0.165)">
       <use xlink:href="#DejaVuSans-49"/>
       <use x="63.623047" xlink:href="#DejaVuSans-46"/>
       <use x="95.410156" xlink:href="#DejaVuSans-48"/>
      </g>
     </g>
    </g>
    <g id="text_7">
     <!-- Recall -->
     <defs>
      <path d="M 44.390625 34.1875 
Q 47.5625 33.109375 50.5625 29.59375 
Q 53.5625 26.078125 56.59375 19.921875 
L 66.609375 0 
L 56 0 
L 46.6875 18.703125 
Q 43.0625 26.03125 39.671875 28.421875 
Q 36.28125 30.8125 30.421875 30.8125 
L 19.671875 30.8125 
L 19.671875 0 
L 9.8125 0 
L 9.8125 72.90625 
L 32.078125 72.90625 
Q 44.578125 72.90625 50.734375 67.671875 
Q 56.890625 62.453125 56.890625 51.90625 
Q 56.890625 45.015625 53.6875 40.46875 
Q 50.484375 35.9375 44.390625 34.1875 
z
M 19.671875 64.796875 
L 19.671875 38.921875 
L 32.078125 38.921875 
Q 39.203125 38.921875 42.84375 42.21875 
Q 46.484375 45.515625 46.484375 51.90625 
Q 46.484375 58.296875 42.84375 61.546875 
Q 39.203125 64.796875 32.078125 64.796875 
z
" id="DejaVuSans-82"/>
      <path d="M 56.203125 29.59375 
L 56.203125 25.203125 
L 14.890625 25.203125 
Q 15.484375 15.921875 20.484375 11.0625 
Q 25.484375 6.203125 34.421875 6.203125 
Q 39.59375 6.203125 44.453125 7.46875 
Q 49.3125 8.734375 54.109375 11.28125 
L 54.109375 2.78125 
Q 49.265625 0.734375 44.1875 -0.34375 
Q 39.109375 -1.421875 33.890625 -1.421875 
Q 20.796875 -1.421875 13.15625 6.1875 
Q 5.515625 13.8125 5.515625 26.8125 
Q 5.515625 40.234375 12.765625 48.109375 
Q 20.015625 56 32.328125 56 
Q 43.359375 56 49.78125 48.890625 
Q 56.203125 41.796875 56.203125 29.59375 
z
M 47.21875 32.234375 
Q 47.125 39.59375 43.09375 43.984375 
Q 39.0625 48.390625 32.421875 48.390625 
Q 24.90625 48.390625 20.390625 44.140625 
Q 15.875 39.890625 15.1875 32.171875 
z
" id="DejaVuSans-101"/>
      <path d="M 48.78125 52.59375 
L 48.78125 44.1875 
Q 44.96875 46.296875 41.140625 47.34375 
Q 37.3125 48.390625 33.40625 48.390625 
Q 24.65625 48.390625 19.8125 42.84375 
Q 14.984375 37.3125 14.984375 27.296875 
Q 14.984375 17.28125 19.8125 11.734375 
Q 24.65625 6.203125 33.40625 6.203125 
Q 37.3125 6.203125 41.140625 7.25 
Q 44.96875 8.296875 48.78125 10.40625 
L 48.78125 2.09375 
Q 45.015625 0.34375 40.984375 -0.53125 
Q 36.96875 -1.421875 32.421875 -1.421875 
Q 20.0625 -1.421875 12.78125 6.34375 
Q 5.515625 14.109375 5.515625 27.296875 
Q 5.515625 40.671875 12.859375 48.328125 
Q 20.21875 56 33.015625 56 
Q 37.15625 56 41.109375 55.140625 
Q 45.0625 54.296875 48.78125 52.59375 
z
" id="DejaVuSans-99"/>
      <path d="M 34.28125 27.484375 
Q 23.390625 27.484375 19.1875 25 
Q 14.984375 22.515625 14.984375 16.5 
Q 14.984375 11.71875 18.140625 8.90625 
Q 21.296875 6.109375 26.703125 6.109375 
Q 34.1875 6.109375 38.703125 11.40625 
Q 43.21875 16.703125 43.21875 25.484375 
L 43.21875 27.484375 
z
M 52.203125 31.203125 
L 52.203125 0 
L 43.21875 0 
L 43.21875 8.296875 
Q 40.140625 3.328125 35.546875 0.953125 
Q 30.953125 -1.421875 24.3125 -1.421875 
Q 15.921875 -1.421875 10.953125 3.296875 
Q 6 8.015625 6 15.921875 
Q 6 25.140625 12.171875 29.828125 
Q 18.359375 34.515625 30.609375 34.515625 
L 43.21875 34.515625 
L 43.21875 35.40625 
Q 43.21875 41.609375 39.140625 45 
Q 35.0625 48.390625 27.6875 48.390625 
Q 23 48.390625 18.546875 47.265625 
Q 14.109375 46.140625 10.015625 43.890625 
L 10.015625 52.203125 
Q 14.9375 54.109375 19.578125 55.046875 
Q 24.21875 56 28.609375 56 
Q 40.484375 56 46.34375 49.84375 
Q 52.203125 43.703125 52.203125 31.203125 
z
" id="DejaVuSans-97"/>
      <path d="M 9.421875 75.984375 
L 18.40625 75.984375 
L 18.40625 0 
L 9.421875 0 
z
" id="DejaVuSans-108"/>
     </defs>
     <g style="fill:#262626;" transform="translate(215.670469 316.848714)scale(0.18 -0.18)">
      <use xlink:href="#DejaVuSans-82"/>
      <use x="69.419922" xlink:href="#DejaVuSans-101"/>
      <use x="130.943359" xlink:href="#DejaVuSans-99"/>
      <use x="185.923828" xlink:href="#DejaVuSans-97"/>
      <use x="247.203125" xlink:href="#DejaVuSans-108"/>
      <use x="274.986328" xlink:href="#DejaVuSans-108"/>
     </g>
    </g>
   </g>
   <g id="matplotlib.axis_2">
    <g id="ytick_1">
     <g id="line2d_7">
      <path clip-path="url(#p885dcf3e3c)" d="M 64.360781 273.70262 
L 421.480781 273.70262 
" style="fill:none;stroke:#cccccc;stroke-linecap:round;"/>
     </g>
     <g id="text_8">
      <!-- 0.0 -->
      <g style="fill:#262626;" transform="translate(28.620625 279.971331)scale(0.165 -0.165)">
       <use xlink:href="#DejaVuSans-48"/>
       <use x="63.623047" xlink:href="#DejaVuSans-46"/>
       <use x="95.410156" xlink:href="#DejaVuSans-48"/>
      </g>
     </g>
    </g>
    <g id="ytick_2">
     <g id="line2d_8">
      <path clip-path="url(#p885dcf3e3c)" d="M 64.360781 221.655839 
L 421.480781 221.655839 
" style="fill:none;stroke:#cccccc;stroke-linecap:round;"/>
     </g>
     <g id="text_9">
      <!-- 0.2 -->
      <g style="fill:#262626;" transform="translate(28.620625 227.924549)scale(0.165 -0.165)">
       <use xlink:href="#DejaVuSans-48"/>
       <use x="63.623047" xlink:href="#DejaVuSans-46"/>
       <use x="95.410156" xlink:href="#DejaVuSans-50"/>
      </g>
     </g>
    </g>
    <g id="ytick_3">
     <g id="line2d_9">
      <path clip-path="url(#p885dcf3e3c)" d="M 64.360781 169.609057 
L 421.480781 169.609057 
" style="fill:none;stroke:#cccccc;stroke-linecap:round;"/>
     </g>
     <g id="text_10">
      <!-- 0.4 -->
      <g style="fill:#262626;" transform="translate(28.620625 175.877768)scale(0.165 -0.165)">
       <use xlink:href="#DejaVuSans-48"/>
       <use x="63.623047" xlink:href="#DejaVuSans-46"/>
       <use x="95.410156" xlink:href="#DejaVuSans-52"/>
      </g>
     </g>
    </g>
    <g id="ytick_4">
     <g id="line2d_10">
      <path clip-path="url(#p885dcf3e3c)" d="M 64.360781 117.562275 
L 421.480781 117.562275 
" style="fill:none;stroke:#cccccc;stroke-linecap:round;"/>
     </g>
     <g id="text_11">
      <!-- 0.6 -->
      <g style="fill:#262626;" transform="translate(28.620625 123.830986)scale(0.165 -0.165)">
       <use xlink:href="#DejaVuSans-48"/>
       <use x="63.623047" xlink:href="#DejaVuSans-46"/>
       <use x="95.410156" xlink:href="#DejaVuSans-54"/>
      </g>
     </g>
    </g>
    <g id="ytick_5">
     <g id="line2d_11">
      <path clip-path="url(#p885dcf3e3c)" d="M 64.360781 65.515493 
L 421.480781 65.515493 
" style="fill:none;stroke:#cccccc;stroke-linecap:round;"/>
     </g>
     <g id="text_12">
      <!-- 0.8 -->
      <g style="fill:#262626;" transform="translate(28.620625 71.784204)scale(0.165 -0.165)">
       <use xlink:href="#DejaVuSans-48"/>
       <use x="63.623047" xlink:href="#DejaVuSans-46"/>
       <use x="95.410156" xlink:href="#DejaVuSans-56"/>
      </g>
     </g>
    </g>
    <g id="ytick_6">
     <g id="line2d_12">
      <path clip-path="url(#p885dcf3e3c)" d="M 64.360781 13.468711 
L 421.480781 13.468711 
" style="fill:none;stroke:#cccccc;stroke-linecap:round;"/>
     </g>
     <g id="text_13">
      <!-- 1.0 -->
      <g style="fill:#262626;" transform="translate(28.620625 19.737422)scale(0.165 -0.165)">
       <use xlink:href="#DejaVuSans-49"/>
       <use x="63.623047" xlink:href="#DejaVuSans-46"/>
       <use x="95.410156" xlink:href="#DejaVuSans-48"/>
      </g>
     </g>
    </g>
    <g id="text_14">
     <!-- Precision -->
     <defs>
      <path d="M 19.671875 64.796875 
L 19.671875 37.40625 
L 32.078125 37.40625 
Q 38.96875 37.40625 42.71875 40.96875 
Q 46.484375 44.53125 46.484375 51.125 
Q 46.484375 57.671875 42.71875 61.234375 
Q 38.96875 64.796875 32.078125 64.796875 
z
M 9.8125 72.90625 
L 32.078125 72.90625 
Q 44.34375 72.90625 50.609375 67.359375 
Q 56.890625 61.8125 56.890625 51.125 
Q 56.890625 40.328125 50.609375 34.8125 
Q 44.34375 29.296875 32.078125 29.296875 
L 19.671875 29.296875 
L 19.671875 0 
L 9.8125 0 
z
" id="DejaVuSans-80"/>
      <path d="M 41.109375 46.296875 
Q 39.59375 47.171875 37.8125 47.578125 
Q 36.03125 48 33.890625 48 
Q 26.265625 48 22.1875 43.046875 
Q 18.109375 38.09375 18.109375 28.8125 
L 18.109375 0 
L 9.078125 0 
L 9.078125 54.6875 
L 18.109375 54.6875 
L 18.109375 46.1875 
Q 20.953125 51.171875 25.484375 53.578125 
Q 30.03125 56 36.53125 56 
Q 37.453125 56 38.578125 55.875 
Q 39.703125 55.765625 41.0625 55.515625 
z
" id="DejaVuSans-114"/>
      <path d="M 9.421875 54.6875 
L 18.40625 54.6875 
L 18.40625 0 
L 9.421875 0 
z
M 9.421875 75.984375 
L 18.40625 75.984375 
L 18.40625 64.59375 
L 9.421875 64.59375 
z
" id="DejaVuSans-105"/>
      <path d="M 44.28125 53.078125 
L 44.28125 44.578125 
Q 40.484375 46.53125 36.375 47.5 
Q 32.28125 48.484375 27.875 48.484375 
Q 21.1875 48.484375 17.84375 46.4375 
Q 14.5 44.390625 14.5 40.28125 
Q 14.5 37.15625 16.890625 35.375 
Q 19.28125 33.59375 26.515625 31.984375 
L 29.59375 31.296875 
Q 39.15625 29.25 43.1875 25.515625 
Q 47.21875 21.78125 47.21875 15.09375 
Q 47.21875 7.46875 41.1875 3.015625 
Q 35.15625 -1.421875 24.609375 -1.421875 
Q 20.21875 -1.421875 15.453125 -0.5625 
Q 10.6875 0.296875 5.421875 2 
L 5.421875 11.28125 
Q 10.40625 8.6875 15.234375 7.390625 
Q 20.0625 6.109375 24.8125 6.109375 
Q 31.15625 6.109375 34.5625 8.28125 
Q 37.984375 10.453125 37.984375 14.40625 
Q 37.984375 18.0625 35.515625 20.015625 
Q 33.0625 21.96875 24.703125 23.78125 
L 21.578125 24.515625 
Q 13.234375 26.265625 9.515625 29.90625 
Q 5.8125 33.546875 5.8125 39.890625 
Q 5.8125 47.609375 11.28125 51.796875 
Q 16.75 56 26.8125 56 
Q 31.78125 56 36.171875 55.265625 
Q 40.578125 54.546875 44.28125 53.078125 
z
" id="DejaVuSans-115"/>
      <path d="M 30.609375 48.390625 
Q 23.390625 48.390625 19.1875 42.75 
Q 14.984375 37.109375 14.984375 27.296875 
Q 14.984375 17.484375 19.15625 11.84375 
Q 23.34375 6.203125 30.609375 6.203125 
Q 37.796875 6.203125 41.984375 11.859375 
Q 46.1875 17.53125 46.1875 27.296875 
Q 46.1875 37.015625 41.984375 42.703125 
Q 37.796875 48.390625 30.609375 48.390625 
z
M 30.609375 56 
Q 42.328125 56 49.015625 48.375 
Q 55.71875 40.765625 55.71875 27.296875 
Q 55.71875 13.875 49.015625 6.21875 
Q 42.328125 -1.421875 30.609375 -1.421875 
Q 18.84375 -1.421875 12.171875 6.21875 
Q 5.515625 13.875 5.515625 27.296875 
Q 5.515625 40.765625 12.171875 48.375 
Q 18.84375 56 30.609375 56 
z
" id="DejaVuSans-111"/>
      <path d="M 54.890625 33.015625 
L 54.890625 0 
L 45.90625 0 
L 45.90625 32.71875 
Q 45.90625 40.484375 42.875 44.328125 
Q 39.84375 48.1875 33.796875 48.1875 
Q 26.515625 48.1875 22.3125 43.546875 
Q 18.109375 38.921875 18.109375 30.90625 
L 18.109375 0 
L 9.078125 0 
L 9.078125 54.6875 
L 18.109375 54.6875 
L 18.109375 46.1875 
Q 21.34375 51.125 25.703125 53.5625 
Q 30.078125 56 35.796875 56 
Q 45.21875 56 50.046875 50.171875 
Q 54.890625 44.34375 54.890625 33.015625 
z
" id="DejaVuSans-110"/>
     </defs>
     <g style="fill:#262626;" transform="translate(20.877187 181.155058)rotate(-90)scale(0.18 -0.18)">
      <use xlink:href="#DejaVuSans-80"/>
      <use x="60.287109" xlink:href="#DejaVuSans-114"/>
      <use x="101.369141" xlink:href="#DejaVuSans-101"/>
      <use x="162.892578" xlink:href="#DejaVuSans-99"/>
      <use x="217.873047" xlink:href="#DejaVuSans-105"/>
      <use x="245.65625" xlink:href="#DejaVuSans-115"/>
      <use x="297.755859" xlink:href="#DejaVuSans-105"/>
      <use x="325.539062" xlink:href="#DejaVuSans-111"/>
      <use x="386.720703" xlink:href="#DejaVuSans-110"/>
     </g>
    </g>
   </g>
   <g id="line2d_13">
    <path clip-path="url(#p885dcf3e3c)" d="M 80.593509 13.468711 
L 259.522434 13.468711 
L 261.367062 16.097336 
L 261.367062 13.468711 
L 263.21169 16.07105 
L 305.638137 15.584434 
L 325.929046 15.410755 
L 327.773674 17.29568 
L 327.773674 15.39637 
L 329.618302 17.267746 
L 368.355492 16.762811 
L 370.20012 18.348097 
L 370.20012 16.742093 
L 373.889376 19.854819 
L 373.889376 18.287857 
L 375.734004 19.815879 
L 379.423261 19.739408 
L 381.267889 22.707785 
L 381.267889 19.701858 
L 383.112517 24.121561 
L 383.112517 22.653437 
L 384.957145 25.502649 
L 384.957145 24.059626 
L 386.801773 25.433488 
L 388.646401 41.301215 
L 388.646401 25.365118 
L 390.491029 42.38359 
L 390.491029 41.153169 
L 392.335657 50.456272 
L 392.335657 42.231406 
L 394.180285 52.503797 
L 394.180285 50.269466 
L 396.024913 60.783967 
L 396.024913 52.309593 
L 397.869542 66.479322 
L 397.869542 60.558656 
L 399.71417 118.459633 
L 399.71417 115.179852 
L 399.71417 66.235034 
L 401.558798 122.262151 
L 401.558798 119.160981 
L 401.558798 118.098839 
L 403.403426 123.896916 
L 403.403426 121.899507 
L 405.248054 123.534856 
L 405.248054 123.534856 
" style="fill:none;stroke:#000000;stroke-linecap:round;"/>
   </g>
   <g id="line2d_14">
    <path clip-path="url(#p885dcf3e3c)" d="M 80.593509 13.468711 
L 83.715187 13.468711 
L 86.836865 13.468711 
L 89.958543 13.468711 
L 93.080222 13.468711 
L 96.2019 13.468711 
L 99.323578 13.468711 
L 102.445257 13.468711 
L 105.566935 13.468711 
L 108.688613 13.468711 
L 111.810292 13.468711 
L 114.93197 13.468711 
L 118.053648 13.468711 
L 121.175327 13.468711 
L 124.297005 13.468711 
L 127.418683 13.468711 
L 130.540362 13.468711 
L 133.66204 13.468711 
L 136.783718 13.468711 
L 139.905397 13.468711 
L 143.027075 13.468711 
L 146.148753 13.468711 
L 149.270432 13.468711 
L 152.39211 13.468711 
L 155.513788 13.468711 
L 158.635467 13.468711 
L 161.757145 13.468711 
L 164.878823 13.468711 
L 168.000502 13.468711 
L 171.12218 13.468711 
L 174.243858 13.468711 
L 177.365536 13.468711 
L 180.487215 13.468711 
L 183.608893 13.468711 
L 186.730571 13.468711 
L 189.85225 13.468711 
L 192.973928 13.468711 
L 196.095606 13.468711 
L 199.217285 13.468711 
L 202.338963 13.468711 
L 205.460641 13.468711 
L 208.58232 13.468711 
L 211.703998 13.468711 
L 214.825676 13.468711 
L 217.947355 13.468711 
L 221.069033 13.468711 
L 224.190711 13.468711 
L 227.31239 13.468711 
L 230.434068 13.468711 
L 233.555746 13.468711 
L 236.677425 13.468711 
L 239.799103 13.468711 
L 242.920781 13.468711 
L 246.04246 13.468711 
L 249.164138 13.468711 
L 252.285816 13.468711 
L 255.407495 13.468711 
L 258.529173 13.468711 
L 261.650851 13.468711 
L 264.77253 13.468711 
L 267.894208 13.468711 
L 271.015886 13.468711 
L 274.137564 13.468711 
L 277.259243 13.468711 
L 280.380921 13.468711 
L 283.502599 13.468711 
L 286.624278 13.468711 
L 289.745956 13.468711 
L 292.867634 13.468711 
L 295.989313 13.468711 
L 299.110991 13.468711 
L 302.232669 13.468711 
L 305.354348 13.468711 
L 308.476026 13.468711 
L 311.597704 13.468711 
L 314.719383 13.468711 
L 317.841061 13.468711 
L 320.962739 13.468711 
L 324.084418 13.468711 
L 327.206096 13.468711 
L 330.327774 13.468711 
L 333.449453 13.468711 
L 336.571131 13.468711 
L 339.692809 13.468711 
L 342.814488 13.468711 
L 345.936166 13.468711 
L 349.057844 13.468711 
L 352.179523 13.468711 
L 355.301201 13.468711 
L 358.422879 16.360199 
L 358.422879 13.468711 
L 361.544557 16.328424 
L 364.666236 16.29734 
L 367.787914 16.266925 
L 370.909592 16.237157 
L 374.031271 16.208015 
L 377.152949 16.179481 
L 380.274627 16.151535 
L 383.396306 18.725962 
L 383.396306 16.124159 
L 386.517984 18.673389 
L 389.639662 18.621858 
L 392.761341 18.571337 
L 395.883019 18.521797 
L 399.004697 18.473209 
L 402.126376 18.425547 
L 405.248054 18.378785 
" style="fill:none;stroke:#6e6e6e;stroke-linecap:round;"/>
   </g>
   <g id="line2d_15">
    <path clip-path="url(#p885dcf3e3c)" d="M 80.593509 13.468711 
L 385.572021 13.468711 
L 387.21169 14.852934 
L 387.21169 13.468711 
L 388.85136 14.84561 
L 398.689376 14.803244 
L 400.329046 16.11068 
L 400.329046 14.796435 
L 401.968715 16.097336 
L 403.608385 57.390046 
L 403.608385 54.616808 
L 403.608385 16.084127 
L 405.248054 57.205502 
L 405.248054 57.205502 
" style="fill:none;stroke:#b15928;stroke-linecap:round;"/>
   </g>
   <g id="line2d_16">
    <path clip-path="url(#p885dcf3e3c)" d="M 80.593509 13.468711 
L 84.70306 13.468711 
L 88.812611 13.468711 
L 92.922162 13.468711 
L 97.031713 13.468711 
L 101.141265 13.468711 
L 105.250816 13.468711 
L 109.360367 13.468711 
L 113.469918 13.468711 
L 117.579469 13.468711 
L 121.689021 13.468711 
L 125.798572 13.468711 
L 129.908123 13.468711 
L 134.017674 13.468711 
L 138.127225 13.468711 
L 142.236777 13.468711 
L 146.346328 13.468711 
L 150.455879 13.468711 
L 154.56543 13.468711 
L 158.674981 13.468711 
L 162.784533 13.468711 
L 166.894084 13.468711 
L 171.003635 13.468711 
L 175.113186 13.468711 
L 179.222738 13.468711 
L 183.332289 13.468711 
L 187.44184 13.468711 
L 191.551391 13.468711 
L 195.660942 13.468711 
L 199.770494 13.468711 
L 203.880045 13.468711 
L 207.989596 13.468711 
L 212.099147 13.468711 
L 216.208698 13.468711 
L 220.31825 13.468711 
L 224.427801 13.468711 
L 228.537352 13.468711 
L 232.646903 13.468711 
L 236.756454 13.468711 
L 240.866006 13.468711 
L 244.975557 13.468711 
L 249.085108 13.468711 
L 253.194659 13.468711 
L 257.30421 13.468711 
L 261.413762 13.468711 
L 265.523313 13.468711 
L 269.632864 13.468711 
L 273.742415 13.468711 
L 277.851967 13.468711 
L 281.961518 13.468711 
L 286.071069 13.468711 
L 290.18062 13.468711 
L 294.290171 13.468711 
L 298.399723 13.468711 
L 302.509274 13.468711 
L 306.618825 13.468711 
L 310.728376 13.468711 
L 314.837927 13.468711 
L 318.947479 13.468711 
L 323.05703 13.468711 
L 327.166581 13.468711 
L 331.276132 13.468711 
L 335.385683 13.468711 
L 339.495235 13.468711 
L 343.604786 13.468711 
L 347.714337 13.468711 
L 351.823888 13.468711 
L 355.933439 13.468711 
L 360.042991 13.468711 
L 364.152542 13.468711 
L 368.262093 13.468711 
L 372.371644 13.468711 
L 376.481196 13.468711 
L 380.590747 13.468711 
L 384.700298 13.468711 
L 388.809849 13.468711 
L 392.9194 13.468711 
L 397.028952 13.468711 
L 401.138503 13.468711 
L 405.248054 13.468711 
" style="fill:none;stroke:#ffff99;stroke-linecap:round;"/>
   </g>
   <g id="line2d_17">
    <path clip-path="url(#p885dcf3e3c)" d="M 80.593509 13.468711 
L 87.651216 13.468711 
L 94.708924 13.468711 
L 101.766631 13.468711 
L 108.824339 13.468711 
L 115.882046 13.468711 
L 122.939754 13.468711 
L 129.997461 13.468711 
L 137.055169 13.468711 
L 144.112876 13.468711 
L 151.170584 13.468711 
L 158.228291 13.468711 
L 165.285999 13.468711 
L 172.343706 13.468711 
L 179.401414 13.468711 
L 186.459121 13.468711 
L 193.516829 13.468711 
L 200.574536 13.468711 
L 207.632244 13.468711 
L 214.689951 13.468711 
L 221.747659 13.468711 
L 228.805366 13.468711 
L 235.863074 13.468711 
L 242.920781 13.468711 
L 249.978489 13.468711 
L 257.036196 13.468711 
L 264.093904 13.468711 
L 271.151611 13.468711 
L 278.209319 13.468711 
L 285.267026 13.468711 
L 292.324734 13.468711 
L 299.382441 13.468711 
L 306.440149 13.468711 
L 313.497856 13.468711 
L 320.555564 13.468711 
L 327.613271 13.468711 
L 334.670979 13.468711 
L 341.728686 13.468711 
L 348.786394 13.468711 
L 355.844101 13.468711 
L 362.901809 13.468711 
L 369.959516 13.468711 
L 377.017224 13.468711 
L 384.074931 13.468711 
L 391.132639 19.251687 
L 391.132639 13.468711 
L 398.190346 24.542494 
L 398.190346 19.12597 
L 405.248054 24.311791 
" style="fill:none;stroke:#6a3d9a;stroke-linecap:round;"/>
   </g>
   <g id="line2d_18">
    <path clip-path="url(#p885dcf3e3c)" d="M 80.593509 13.468711 
L 392.950533 13.468711 
L 395.410037 15.486028 
L 395.410037 13.468711 
L 397.869542 15.47051 
L 400.329046 26.765334 
L 400.329046 15.455229 
L 402.78855 28.446202 
L 402.78855 26.668982 
L 405.248054 28.33922 
L 405.248054 28.33922 
" style="fill:none;stroke:#cab2d6;stroke-linecap:round;"/>
   </g>
   <g id="line2d_19">
    <path clip-path="url(#p885dcf3e3c)" d="M 80.593509 13.468711 
L 84.601589 13.468711 
L 88.60967 13.468711 
L 92.617751 13.468711 
L 96.625832 13.468711 
L 100.633913 13.468711 
L 104.641993 13.468711 
L 108.650074 13.468711 
L 112.658155 13.468711 
L 116.666236 13.468711 
L 120.674317 13.468711 
L 124.682397 13.468711 
L 128.690478 13.468711 
L 132.698559 13.468711 
L 136.70664 13.468711 
L 140.714721 13.468711 
L 144.722801 13.468711 
L 148.730882 13.468711 
L 152.738963 13.468711 
L 156.747044 13.468711 
L 160.755125 13.468711 
L 164.763205 13.468711 
L 168.771286 13.468711 
L 172.779367 13.468711 
L 176.787448 13.468711 
L 180.795529 13.468711 
L 184.80361 13.468711 
L 188.81169 13.468711 
L 192.819771 13.468711 
L 196.827852 13.468711 
L 200.835933 13.468711 
L 204.844014 13.468711 
L 208.852094 13.468711 
L 212.860175 13.468711 
L 216.868256 13.468711 
L 220.876337 13.468711 
L 224.884418 13.468711 
L 228.892498 13.468711 
L 232.900579 13.468711 
L 236.90866 13.468711 
L 240.916741 13.468711 
L 244.924822 13.468711 
L 248.932902 13.468711 
L 252.940983 13.468711 
L 256.949064 13.468711 
L 260.957145 13.468711 
L 264.965226 13.468711 
L 268.973307 13.468711 
L 272.981387 13.468711 
L 276.989468 13.468711 
L 280.997549 13.468711 
L 285.00563 13.468711 
L 289.013711 13.468711 
L 293.021791 13.468711 
L 297.029872 13.468711 
L 301.037953 13.468711 
L 305.046034 13.468711 
L 309.054115 13.468711 
L 313.062195 13.468711 
L 317.070276 13.468711 
L 321.078357 13.468711 
L 325.086438 13.468711 
L 329.094519 13.468711 
L 333.102599 13.468711 
L 337.11068 13.468711 
L 341.118761 13.468711 
L 345.126842 13.468711 
L 349.134923 13.468711 
L 353.143003 13.468711 
L 357.151084 13.468711 
L 361.159165 13.468711 
L 365.167246 17.083071 
L 365.167246 13.468711 
L 369.175327 17.033559 
L 373.183408 16.985385 
L 377.191488 20.316972 
L 377.191488 16.938496 
L 381.199569 20.228033 
L 385.20765 23.351011 
L 385.20765 20.141375 
L 389.215731 26.319768 
L 389.215731 23.227483 
L 393.223812 26.163048 
L 397.231892 28.958825 
L 397.231892 26.010104 
L 401.239973 28.776588 
L 405.248054 28.598589 
" style="fill:none;stroke:#ff7f00;stroke-linecap:round;"/>
   </g>
   <g id="line2d_20">
    <path clip-path="url(#p885dcf3e3c)" d="M 80.593509 13.468711 
L 85.298647 13.468711 
L 90.003785 13.468711 
L 94.708924 13.468711 
L 99.414062 13.468711 
L 104.1192 13.468711 
L 108.824339 13.468711 
L 113.529477 13.468711 
L 118.234615 13.468711 
L 122.939754 13.468711 
L 127.644892 13.468711 
L 132.35003 13.468711 
L 137.055169 13.468711 
L 141.760307 13.468711 
L 146.465445 13.468711 
L 151.170584 13.468711 
L 155.875722 13.468711 
L 160.58086 13.468711 
L 165.285999 13.468711 
L 169.991137 13.468711 
L 174.696275 13.468711 
L 179.401414 13.468711 
L 184.106552 13.468711 
L 188.81169 13.468711 
L 193.516829 13.468711 
L 198.221967 13.468711 
L 202.927105 13.468711 
L 207.632244 13.468711 
L 212.337382 13.468711 
L 217.04252 13.468711 
L 221.747659 13.468711 
L 226.452797 13.468711 
L 231.157935 13.468711 
L 235.863074 13.468711 
L 240.568212 13.468711 
L 245.27335 13.468711 
L 249.978489 13.468711 
L 254.683627 13.468711 
L 259.388765 13.468711 
L 264.093904 13.468711 
L 268.799042 13.468711 
L 273.50418 13.468711 
L 278.209319 13.468711 
L 282.914457 13.468711 
L 287.619595 13.468711 
L 292.324734 13.468711 
L 297.029872 13.468711 
L 301.73501 13.468711 
L 306.440149 13.468711 
L 311.145287 13.468711 
L 315.850426 13.468711 
L 320.555564 13.468711 
L 325.260702 13.468711 
L 329.965841 13.468711 
L 334.670979 13.468711 
L 339.376117 13.468711 
L 344.081256 13.468711 
L 348.786394 13.468711 
L 353.491532 13.468711 
L 358.196671 13.468711 
L 362.901809 13.468711 
L 367.606947 13.468711 
L 372.312086 13.468711 
L 377.017224 13.468711 
L 381.722362 28.776588 
L 381.722362 25.120976 
L 381.722362 21.354587 
L 381.722362 17.47231 
L 381.722362 13.468711 
L 386.427501 45.118781 
L 386.427501 41.987496 
L 386.427501 38.76923 
L 386.427501 35.460309 
L 386.427501 32.056847 
L 386.427501 28.554735 
L 391.132639 80.720171 
L 391.132639 78.527188 
L 391.132639 76.283793 
L 391.132639 73.988225 
L 391.132639 71.638644 
L 391.132639 69.23312 
L 391.132639 66.769632 
L 391.132639 64.246059 
L 391.132639 61.660176 
L 391.132639 59.009645 
L 391.132639 56.292013 
L 391.132639 53.504697 
L 391.132639 50.644984 
L 391.132639 47.710015 
L 391.132639 44.69678 
L 395.837777 120.75813 
L 395.837777 119.404639 
L 395.837777 118.026978 
L 395.837777 116.624495 
L 395.837777 115.196512 
L 395.837777 113.742327 
L 395.837777 112.261214 
L 395.837777 110.752415 
L 395.837777 109.215149 
L 395.837777 107.648602 
L 395.837777 106.051929 
L 395.837777 104.424252 
L 395.837777 102.76466 
L 395.837777 101.072205 
L 395.837777 99.345901 
L 395.837777 97.584722 
L 395.837777 95.787601 
L 395.837777 93.953425 
L 395.837777 92.081038 
L 395.837777 90.169232 
L 395.837777 88.216749 
L 395.837777 86.222277 
L 395.837777 84.184447 
L 395.837777 82.10183 
L 395.837777 79.972932 
L 400.542916 121.151708 
L 400.542916 119.825178 
L 405.248054 120.23134 
" style="fill:none;stroke:#fdbf6f;stroke-linecap:round;"/>
   </g>
   <g id="line2d_21">
    <path clip-path="url(#p885dcf3e3c)" d="M 80.593509 13.468711 
L 84.010925 13.468711 
L 87.428341 13.468711 
L 90.845757 13.468711 
L 94.263174 13.468711 
L 97.68059 13.468711 
L 101.098006 13.468711 
L 104.515422 13.468711 
L 107.932839 13.468711 
L 111.350255 13.468711 
L 114.767671 13.468711 
L 118.185087 13.468711 
L 121.602504 13.468711 
L 125.01992 13.468711 
L 128.437336 13.468711 
L 131.854753 13.468711 
L 135.272169 13.468711 
L 138.689585 13.468711 
L 142.107001 13.468711 
L 145.524418 13.468711 
L 148.941834 13.468711 
L 152.35925 13.468711 
L 155.776666 13.468711 
L 159.194083 13.468711 
L 162.611499 13.468711 
L 166.028915 13.468711 
L 169.446331 13.468711 
L 172.863748 13.468711 
L 176.281164 13.468711 
L 179.69858 13.468711 
L 183.115997 13.468711 
L 186.533413 13.468711 
L 189.950829 13.468711 
L 193.368245 13.468711 
L 196.785662 13.468711 
L 200.203078 13.468711 
L 203.620494 13.468711 
L 207.03791 13.468711 
L 210.455327 13.468711 
L 213.872743 13.468711 
L 217.290159 13.468711 
L 220.707576 13.468711 
L 224.124992 13.468711 
L 227.542408 13.468711 
L 230.959824 13.468711 
L 234.377241 13.468711 
L 237.794657 13.468711 
L 241.212073 13.468711 
L 244.629489 13.468711 
L 248.046906 13.468711 
L 251.464322 13.468711 
L 254.881738 13.468711 
L 258.299154 13.468711 
L 261.716571 13.468711 
L 265.133987 13.468711 
L 268.551403 13.468711 
L 271.96882 13.468711 
L 275.386236 13.468711 
L 278.803652 13.468711 
L 282.221068 13.468711 
L 285.638485 13.468711 
L 289.055901 13.468711 
L 292.473317 13.468711 
L 295.890733 13.468711 
L 299.30815 13.468711 
L 302.725566 13.468711 
L 306.142982 13.468711 
L 309.560398 13.468711 
L 312.977815 13.468711 
L 316.395231 13.468711 
L 319.812647 13.468711 
L 323.230064 13.468711 
L 326.64748 13.468711 
L 330.064896 13.468711 
L 333.482312 13.468711 
L 336.899729 13.468711 
L 340.317145 13.468711 
L 343.734561 13.468711 
L 347.151977 13.468711 
L 350.569394 13.468711 
L 353.98681 13.468711 
L 357.404226 13.468711 
L 360.821642 13.468711 
L 364.239059 13.468711 
L 367.656475 13.468711 
L 371.073891 13.468711 
L 374.491308 13.468711 
L 377.908724 13.468711 
L 381.32614 13.468711 
L 384.743556 13.468711 
L 388.160973 13.468711 
L 391.578389 13.468711 
L 394.995805 13.468711 
L 398.413221 13.468711 
L 401.830638 13.468711 
L 405.248054 13.468711 
" style="fill:none;stroke:#e31a1c;stroke-linecap:round;"/>
   </g>
   <g id="line2d_22">
    <path clip-path="url(#p885dcf3e3c)" d="M 80.593509 13.468711 
L 83.321698 13.468711 
L 86.049887 13.468711 
L 88.778077 13.468711 
L 91.506266 13.468711 
L 94.234456 13.468711 
L 96.962645 13.468711 
L 99.690835 13.468711 
L 102.419024 13.468711 
L 105.147214 13.468711 
L 107.875403 13.468711 
L 110.603593 13.468711 
L 113.331782 13.468711 
L 116.059971 13.468711 
L 118.788161 13.468711 
L 121.51635 13.468711 
L 124.24454 13.468711 
L 126.972729 13.468711 
L 129.700919 13.468711 
L 132.429108 13.468711 
L 135.157298 13.468711 
L 137.885487 13.468711 
L 140.613677 13.468711 
L 143.341866 13.468711 
L 146.070056 13.468711 
L 148.798245 13.468711 
L 151.526434 13.468711 
L 154.254624 13.468711 
L 156.982813 13.468711 
L 159.711003 13.468711 
L 162.439192 13.468711 
L 165.167382 13.468711 
L 167.895571 13.468711 
L 170.623761 13.468711 
L 173.35195 13.468711 
L 176.08014 13.468711 
L 178.808329 13.468711 
L 181.536518 13.468711 
L 184.264708 13.468711 
L 186.992897 13.468711 
L 189.721087 13.468711 
L 192.449276 13.468711 
L 195.177466 13.468711 
L 197.905655 13.468711 
L 200.633845 13.468711 
L 203.362034 13.468711 
L 206.090224 13.468711 
L 208.818413 13.468711 
L 211.546602 13.468711 
L 214.274792 13.468711 
L 217.002981 13.468711 
L 219.731171 13.468711 
L 222.45936 13.468711 
L 225.18755 13.468711 
L 227.915739 13.468711 
L 230.643929 13.468711 
L 233.372118 13.468711 
L 236.100308 13.468711 
L 238.828497 13.468711 
L 241.556687 13.468711 
L 244.284876 13.468711 
L 247.013065 13.468711 
L 249.741255 13.468711 
L 252.469444 13.468711 
L 255.197634 13.468711 
L 257.925823 13.468711 
L 260.654013 13.468711 
L 263.382202 13.468711 
L 266.110392 13.468711 
L 268.838581 13.468711 
L 271.566771 13.468711 
L 274.29496 13.468711 
L 277.023149 13.468711 
L 279.751339 13.468711 
L 282.479528 13.468711 
L 285.207718 13.468711 
L 287.935907 13.468711 
L 290.664097 13.468711 
L 293.392286 13.468711 
L 296.120476 13.468711 
L 298.848665 13.468711 
L 301.576855 13.468711 
L 304.305044 13.468711 
L 307.033234 13.468711 
L 309.761423 13.468711 
L 312.489612 13.468711 
L 315.217802 13.468711 
L 317.945991 13.468711 
L 320.674181 13.468711 
L 323.40237 13.468711 
L 326.13056 13.468711 
L 328.858749 13.468711 
L 331.586939 13.468711 
L 334.315128 13.468711 
L 337.043318 13.468711 
L 339.771507 13.468711 
L 342.499696 13.468711 
L 345.227886 13.468711 
L 347.956075 13.468711 
L 350.684265 13.468711 
L 353.412454 13.468711 
L 356.140644 13.468711 
L 358.868833 13.468711 
L 361.597023 13.468711 
L 364.325212 13.468711 
L 367.053402 13.468711 
L 369.781591 13.468711 
L 372.50978 13.468711 
L 375.23797 13.468711 
L 377.966159 13.468711 
L 380.694349 13.468711 
L 383.422538 13.468711 
L 386.150728 13.468711 
L 388.878917 13.468711 
L 391.607107 13.468711 
L 394.335296 13.468711 
L 397.063486 13.468711 
L 399.791675 13.468711 
L 402.519865 13.468711 
L 405.248054 13.468711 
" style="fill:none;stroke:#fb9a99;stroke-linecap:round;"/>
   </g>
   <g id="line2d_23">
    <path clip-path="url(#p885dcf3e3c)" d="M 80.593509 13.468711 
L 84.122362 13.468711 
L 87.651216 13.468711 
L 91.18007 13.468711 
L 94.708924 13.468711 
L 98.237777 13.468711 
L 101.766631 13.468711 
L 105.295485 13.468711 
L 108.824339 13.468711 
L 112.353192 13.468711 
L 115.882046 13.468711 
L 119.4109 13.468711 
L 122.939754 13.468711 
L 126.468607 13.468711 
L 129.997461 13.468711 
L 133.526315 13.468711 
L 137.055169 13.468711 
L 140.584022 13.468711 
L 144.112876 13.468711 
L 147.64173 13.468711 
L 151.170584 13.468711 
L 154.699437 13.468711 
L 158.228291 13.468711 
L 161.757145 13.468711 
L 165.285999 13.468711 
L 168.814852 13.468711 
L 172.343706 13.468711 
L 175.87256 13.468711 
L 179.401414 13.468711 
L 182.930267 13.468711 
L 186.459121 13.468711 
L 189.987975 13.468711 
L 193.516829 13.468711 
L 197.045682 13.468711 
L 200.574536 13.468711 
L 204.10339 13.468711 
L 207.632244 13.468711 
L 211.161097 13.468711 
L 214.689951 13.468711 
L 218.218805 13.468711 
L 221.747659 13.468711 
L 225.276512 13.468711 
L 228.805366 13.468711 
L 232.33422 13.468711 
L 235.863074 13.468711 
L 239.391927 13.468711 
L 242.920781 13.468711 
L 246.449635 13.468711 
L 249.978489 13.468711 
L 253.507343 13.468711 
L 257.036196 13.468711 
L 260.56505 13.468711 
L 264.093904 13.468711 
L 267.622758 13.468711 
L 271.151611 13.468711 
L 274.680465 13.468711 
L 278.209319 13.468711 
L 281.738173 13.468711 
L 285.267026 13.468711 
L 288.79588 13.468711 
L 292.324734 13.468711 
L 295.853588 13.468711 
L 299.382441 13.468711 
L 302.911295 13.468711 
L 306.440149 13.468711 
L 309.969003 13.468711 
L 313.497856 13.468711 
L 317.02671 13.468711 
L 320.555564 13.468711 
L 324.084418 13.468711 
L 327.613271 13.468711 
L 331.142125 13.468711 
L 334.670979 13.468711 
L 338.199833 13.468711 
L 341.728686 13.468711 
L 345.25754 13.468711 
L 348.786394 13.468711 
L 352.315248 13.468711 
L 355.844101 13.468711 
L 359.372955 16.721635 
L 359.372955 13.468711 
L 362.901809 16.681475 
L 366.430663 16.642295 
L 369.959516 16.604059 
L 373.48837 16.566734 
L 377.017224 16.530286 
L 380.546078 16.494687 
L 384.074931 16.459905 
L 387.603785 16.425914 
L 391.132639 16.392687 
L 394.661493 19.188138 
L 394.661493 16.360199 
L 398.190346 24.542494 
L 398.190346 21.863353 
L 398.190346 19.12597 
L 401.7192 32.056847 
L 401.7192 29.565654 
L 401.7192 27.02256 
L 401.7192 24.425928 
L 405.248054 31.869088 
" style="fill:none;stroke:#33a02c;stroke-linecap:round;"/>
   </g>
   <g id="line2d_24">
    <path clip-path="url(#p885dcf3e3c)" d="M 80.593509 13.468711 
L 320.219483 13.468711 
L 322.796106 16.208015 
L 322.796106 13.468711 
L 325.372729 16.179481 
L 382.058444 15.674083 
L 397.518184 15.567371 
L 400.094807 41.551507 
L 400.094807 15.550582 
L 402.671431 131.030521 
L 402.671431 126.511495 
L 402.671431 41.350916 
L 405.248054 130.517151 
L 405.248054 130.517151 
" style="fill:none;stroke:#b2df8a;stroke-linecap:round;"/>
   </g>
   <g id="line2d_25">
    <path clip-path="url(#p885dcf3e3c)" d="M 80.593509 13.468711 
L 354.914016 13.468711 
L 357.430718 15.813161 
L 357.430718 13.468711 
L 359.94742 15.792228 
L 387.631141 15.584434 
L 390.147843 17.632453 
L 390.147843 15.567371 
L 392.664544 17.599408 
L 405.248054 17.441748 
L 405.248054 17.441748 
" style="fill:none;stroke:#a6cee3;stroke-linecap:round;"/>
   </g>
   <g id="line2d_26">
    <path clip-path="url(#p885dcf3e3c)" d="M 80.593509 13.468711 
L 83.544913 13.468711 
L 86.496318 13.468711 
L 89.447723 13.468711 
L 92.399128 13.468711 
L 95.350533 13.468711 
L 98.301938 13.468711 
L 101.253343 13.468711 
L 104.204748 13.468711 
L 107.156153 13.468711 
L 110.107558 13.468711 
L 113.058963 13.468711 
L 116.010368 13.468711 
L 118.961773 13.468711 
L 121.913178 13.468711 
L 124.864583 13.468711 
L 127.815988 13.468711 
L 130.767393 13.468711 
L 133.718798 13.468711 
L 136.670203 13.468711 
L 139.621608 13.468711 
L 142.573013 13.468711 
L 145.524418 13.468711 
L 148.475823 13.468711 
L 151.427228 13.468711 
L 154.378632 13.468711 
L 157.330037 13.468711 
L 160.281442 13.468711 
L 163.232847 13.468711 
L 166.184252 13.468711 
L 172.087062 13.468711 
L 175.038467 13.468711 
L 177.989872 13.468711 
L 180.941277 13.468711 
L 183.892682 13.468711 
L 186.844087 13.468711 
L 189.795492 13.468711 
L 192.746897 13.468711 
L 195.698302 13.468711 
L 198.649707 13.468711 
L 201.601112 13.468711 
L 204.552517 13.468711 
L 207.503922 13.468711 
L 210.455327 13.468711 
L 216.358137 13.468711 
L 219.309542 13.468711 
L 222.260947 13.468711 
L 225.212351 13.468711 
L 228.163756 13.468711 
L 231.115161 13.468711 
L 234.066566 13.468711 
L 237.017971 13.468711 
L 239.969376 13.468711 
L 242.920781 13.468711 
L 245.872186 13.468711 
L 248.823591 13.468711 
L 251.774996 13.468711 
L 254.726401 13.468711 
L 257.677806 13.468711 
L 260.629211 13.468711 
L 263.580616 13.468711 
L 266.532021 13.468711 
L 269.483426 13.468711 
L 272.434831 13.468711 
L 275.386236 13.468711 
L 278.337641 13.468711 
L 281.289046 13.468711 
L 284.240451 13.468711 
L 287.191856 13.468711 
L 290.143261 13.468711 
L 293.094666 13.468711 
L 296.046071 13.468711 
L 298.997475 13.468711 
L 301.94888 13.468711 
L 304.900285 13.468711 
L 307.85169 13.468711 
L 310.803095 13.468711 
L 313.7545 13.468711 
L 316.705905 13.468711 
L 319.65731 13.468711 
L 322.608715 13.468711 
L 325.56012 13.468711 
L 328.511525 13.468711 
L 331.46293 13.468711 
L 334.414335 13.468711 
L 337.36574 13.468711 
L 340.317145 13.468711 
L 343.26855 13.468711 
L 346.219955 13.468711 
L 349.17136 13.468711 
L 352.122765 13.468711 
L 355.07417 13.468711 
L 358.025575 13.468711 
L 360.97698 13.468711 
L 363.928385 13.468711 
L 366.87979 13.468711 
L 369.831194 13.468711 
L 372.782599 13.468711 
L 375.734004 13.468711 
L 378.685409 13.468711 
L 381.636814 13.468711 
L 384.588219 13.468711 
L 387.539624 13.468711 
L 390.491029 13.468711 
L 393.442434 13.468711 
L 396.393839 13.468711 
L 399.345244 13.468711 
L 402.296649 13.468711 
L 405.248054 13.468711 
" style="fill:none;stroke:#1f78b4;stroke-linecap:round;"/>
   </g>
   <g id="line2d_27"/>
   <g id="line2d_28"/>
   <g id="line2d_29"/>
   <g id="line2d_30"/>
   <g id="line2d_31"/>
   <g id="line2d_32"/>
   <g id="line2d_33"/>
   <g id="line2d_34"/>
   <g id="line2d_35"/>
   <g id="line2d_36"/>
   <g id="line2d_37"/>
   <g id="line2d_38"/>
   <g id="line2d_39"/>
   <g id="line2d_40"/>
   <g id="patch_3">
    <path d="M 64.360781 273.70262 
L 64.360781 7.59062 
" style="fill:none;stroke:#ffffff;stroke-linecap:square;stroke-linejoin:miter;stroke-width:1.25;"/>
   </g>
   <g id="patch_4">
    <path d="M 421.480781 273.70262 
L 421.480781 7.59062 
" style="fill:none;stroke:#ffffff;stroke-linecap:square;stroke-linejoin:miter;stroke-width:1.25;"/>
   </g>
   <g id="patch_5">
    <path d="M 64.360781 273.70262 
L 421.480781 273.70262 
" style="fill:none;stroke:#ffffff;stroke-linecap:square;stroke-linejoin:miter;stroke-width:1.25;"/>
   </g>
   <g id="patch_6">
    <path d="M 64.360781 7.59062 
L 421.480781 7.59062 
" style="fill:none;stroke:#ffffff;stroke-linecap:square;stroke-linejoin:miter;stroke-width:1.25;"/>
   </g>
   <g id="legend_1">
    <g id="patch_7">
     <path d="M 442.636781 377.275933 
L 555.424594 377.275933 
Q 558.724594 377.275933 558.724594 373.975933 
L 558.724594 10.89062 
Q 558.724594 7.59062 555.424594 7.59062 
L 442.636781 7.59062 
Q 439.336781 7.59062 439.336781 10.89062 
L 439.336781 373.975933 
Q 439.336781 377.275933 442.636781 377.275933 
z
" style="fill:#ffffff;opacity:0.8;stroke:#cccccc;stroke-linejoin:miter;"/>
    </g>
    <g id="text_15">
     <!-- Class -->
     <defs>
      <path d="M 64.40625 67.28125 
L 64.40625 56.890625 
Q 59.421875 61.53125 53.78125 63.8125 
Q 48.140625 66.109375 41.796875 66.109375 
Q 29.296875 66.109375 22.65625 58.46875 
Q 16.015625 50.828125 16.015625 36.375 
Q 16.015625 21.96875 22.65625 14.328125 
Q 29.296875 6.6875 41.796875 6.6875 
Q 48.140625 6.6875 53.78125 8.984375 
Q 59.421875 11.28125 64.40625 15.921875 
L 64.40625 5.609375 
Q 59.234375 2.09375 53.4375 0.328125 
Q 47.65625 -1.421875 41.21875 -1.421875 
Q 24.65625 -1.421875 15.125 8.703125 
Q 5.609375 18.84375 5.609375 36.375 
Q 5.609375 53.953125 15.125 64.078125 
Q 24.65625 74.21875 41.21875 74.21875 
Q 47.75 74.21875 53.53125 72.484375 
Q 59.328125 70.75 64.40625 67.28125 
z
" id="DejaVuSans-67"/>
     </defs>
     <g style="fill:#262626;" transform="translate(475.353656 27.867808)scale(0.18 -0.18)">
      <use xlink:href="#DejaVuSans-67"/>
      <use x="69.824219" xlink:href="#DejaVuSans-108"/>
      <use x="97.607422" xlink:href="#DejaVuSans-97"/>
      <use x="158.886719" xlink:href="#DejaVuSans-115"/>
      <use x="210.986328" xlink:href="#DejaVuSans-115"/>
     </g>
    </g>
    <g id="line2d_41">
     <path d="M 445.936781 46.623667 
L 478.936781 46.623667 
" style="fill:none;stroke:#000000;stroke-linecap:round;stroke-width:1.5;"/>
    </g>
    <g id="line2d_42"/>
    <g id="text_16">
     <!-- Normal -->
     <defs>
      <path d="M 9.8125 72.90625 
L 23.09375 72.90625 
L 55.421875 11.921875 
L 55.421875 72.90625 
L 64.984375 72.90625 
L 64.984375 0 
L 51.703125 0 
L 19.390625 60.984375 
L 19.390625 0 
L 9.8125 0 
z
" id="DejaVuSans-78"/>
      <path d="M 52 44.1875 
Q 55.375 50.25 60.0625 53.125 
Q 64.75 56 71.09375 56 
Q 79.640625 56 84.28125 50.015625 
Q 88.921875 44.046875 88.921875 33.015625 
L 88.921875 0 
L 79.890625 0 
L 79.890625 32.71875 
Q 79.890625 40.578125 77.09375 44.375 
Q 74.3125 48.1875 68.609375 48.1875 
Q 61.625 48.1875 57.5625 43.546875 
Q 53.515625 38.921875 53.515625 30.90625 
L 53.515625 0 
L 44.484375 0 
L 44.484375 32.71875 
Q 44.484375 40.625 41.703125 44.40625 
Q 38.921875 48.1875 33.109375 48.1875 
Q 26.21875 48.1875 22.15625 43.53125 
Q 18.109375 38.875 18.109375 30.90625 
L 18.109375 0 
L 9.078125 0 
L 9.078125 54.6875 
L 18.109375 54.6875 
L 18.109375 46.1875 
Q 21.1875 51.21875 25.484375 53.609375 
Q 29.78125 56 35.6875 56 
Q 41.65625 56 45.828125 52.96875 
Q 50 49.953125 52 44.1875 
z
" id="DejaVuSans-109"/>
     </defs>
     <g style="fill:#262626;" transform="translate(492.136781 52.398667)scale(0.165 -0.165)">
      <use xlink:href="#DejaVuSans-78"/>
      <use x="74.804688" xlink:href="#DejaVuSans-111"/>
      <use x="135.986328" xlink:href="#DejaVuSans-114"/>
      <use x="177.083984" xlink:href="#DejaVuSans-109"/>
      <use x="274.496094" xlink:href="#DejaVuSans-97"/>
      <use x="335.775391" xlink:href="#DejaVuSans-108"/>
     </g>
    </g>
    <g id="line2d_43">
     <path d="M 445.936781 70.842574 
L 478.936781 70.842574 
" style="fill:none;stroke:#6e6e6e;stroke-linecap:round;stroke-width:1.5;"/>
    </g>
    <g id="line2d_44"/>
    <g id="text_17">
     <!-- BLCA -->
     <defs>
      <path d="M 19.671875 34.8125 
L 19.671875 8.109375 
L 35.5 8.109375 
Q 43.453125 8.109375 47.28125 11.40625 
Q 51.125 14.703125 51.125 21.484375 
Q 51.125 28.328125 47.28125 31.5625 
Q 43.453125 34.8125 35.5 34.8125 
z
M 19.671875 64.796875 
L 19.671875 42.828125 
L 34.28125 42.828125 
Q 41.5 42.828125 45.03125 45.53125 
Q 48.578125 48.25 48.578125 53.8125 
Q 48.578125 59.328125 45.03125 62.0625 
Q 41.5 64.796875 34.28125 64.796875 
z
M 9.8125 72.90625 
L 35.015625 72.90625 
Q 46.296875 72.90625 52.390625 68.21875 
Q 58.5 63.53125 58.5 54.890625 
Q 58.5 48.1875 55.375 44.234375 
Q 52.25 40.28125 46.1875 39.3125 
Q 53.46875 37.75 57.5 32.78125 
Q 61.53125 27.828125 61.53125 20.40625 
Q 61.53125 10.640625 54.890625 5.3125 
Q 48.25 0 35.984375 0 
L 9.8125 0 
z
" id="DejaVuSans-66"/>
      <path d="M 9.8125 72.90625 
L 19.671875 72.90625 
L 19.671875 8.296875 
L 55.171875 8.296875 
L 55.171875 0 
L 9.8125 0 
z
" id="DejaVuSans-76"/>
      <path d="M 34.1875 63.1875 
L 20.796875 26.90625 
L 47.609375 26.90625 
z
M 28.609375 72.90625 
L 39.796875 72.90625 
L 67.578125 0 
L 57.328125 0 
L 50.6875 18.703125 
L 17.828125 18.703125 
L 11.1875 0 
L 0.78125 0 
z
" id="DejaVuSans-65"/>
     </defs>
     <g style="fill:#262626;" transform="translate(492.136781 76.617574)scale(0.165 -0.165)">
      <use xlink:href="#DejaVuSans-66"/>
      <use x="68.603516" xlink:href="#DejaVuSans-76"/>
      <use x="124.316406" xlink:href="#DejaVuSans-67"/>
      <use x="194.140625" xlink:href="#DejaVuSans-65"/>
     </g>
    </g>
    <g id="line2d_45">
     <path d="M 445.936781 95.06148 
L 478.936781 95.06148 
" style="fill:none;stroke:#b15928;stroke-linecap:round;stroke-width:1.5;"/>
    </g>
    <g id="line2d_46"/>
    <g id="text_18">
     <!-- BRCA -->
     <g style="fill:#262626;" transform="translate(492.136781 100.83648)scale(0.165 -0.165)">
      <use xlink:href="#DejaVuSans-66"/>
      <use x="68.603516" xlink:href="#DejaVuSans-82"/>
      <use x="138.007812" xlink:href="#DejaVuSans-67"/>
      <use x="207.832031" xlink:href="#DejaVuSans-65"/>
     </g>
    </g>
    <g id="line2d_47">
     <path d="M 445.936781 119.280386 
L 478.936781 119.280386 
" style="fill:none;stroke:#ffff99;stroke-linecap:round;stroke-width:1.5;"/>
    </g>
    <g id="line2d_48"/>
    <g id="text_19">
     <!-- COAD -->
     <defs>
      <path d="M 39.40625 66.21875 
Q 28.65625 66.21875 22.328125 58.203125 
Q 16.015625 50.203125 16.015625 36.375 
Q 16.015625 22.609375 22.328125 14.59375 
Q 28.65625 6.59375 39.40625 6.59375 
Q 50.140625 6.59375 56.421875 14.59375 
Q 62.703125 22.609375 62.703125 36.375 
Q 62.703125 50.203125 56.421875 58.203125 
Q 50.140625 66.21875 39.40625 66.21875 
z
M 39.40625 74.21875 
Q 54.734375 74.21875 63.90625 63.9375 
Q 73.09375 53.65625 73.09375 36.375 
Q 73.09375 19.140625 63.90625 8.859375 
Q 54.734375 -1.421875 39.40625 -1.421875 
Q 24.03125 -1.421875 14.8125 8.828125 
Q 5.609375 19.09375 5.609375 36.375 
Q 5.609375 53.65625 14.8125 63.9375 
Q 24.03125 74.21875 39.40625 74.21875 
z
" id="DejaVuSans-79"/>
      <path d="M 19.671875 64.796875 
L 19.671875 8.109375 
L 31.59375 8.109375 
Q 46.6875 8.109375 53.6875 14.9375 
Q 60.6875 21.78125 60.6875 36.53125 
Q 60.6875 51.171875 53.6875 57.984375 
Q 46.6875 64.796875 31.59375 64.796875 
z
M 9.8125 72.90625 
L 30.078125 72.90625 
Q 51.265625 72.90625 61.171875 64.09375 
Q 71.09375 55.28125 71.09375 36.53125 
Q 71.09375 17.671875 61.125 8.828125 
Q 51.171875 0 30.078125 0 
L 9.8125 0 
z
" id="DejaVuSans-68"/>
     </defs>
     <g style="fill:#262626;" transform="translate(492.136781 125.055386)scale(0.165 -0.165)">
      <use xlink:href="#DejaVuSans-67"/>
      <use x="69.824219" xlink:href="#DejaVuSans-79"/>
      <use x="148.519531" xlink:href="#DejaVuSans-65"/>
      <use x="216.927734" xlink:href="#DejaVuSans-68"/>
     </g>
    </g>
    <g id="line2d_49">
     <path d="M 445.936781 143.499292 
L 478.936781 143.499292 
" style="fill:none;stroke:#6a3d9a;stroke-linecap:round;stroke-width:1.5;"/>
    </g>
    <g id="line2d_50"/>
    <g id="text_20">
     <!-- ESCA -->
     <defs>
      <path d="M 9.8125 72.90625 
L 55.90625 72.90625 
L 55.90625 64.59375 
L 19.671875 64.59375 
L 19.671875 43.015625 
L 54.390625 43.015625 
L 54.390625 34.71875 
L 19.671875 34.71875 
L 19.671875 8.296875 
L 56.78125 8.296875 
L 56.78125 0 
L 9.8125 0 
z
" id="DejaVuSans-69"/>
      <path d="M 53.515625 70.515625 
L 53.515625 60.890625 
Q 47.90625 63.578125 42.921875 64.890625 
Q 37.9375 66.21875 33.296875 66.21875 
Q 25.25 66.21875 20.875 63.09375 
Q 16.5 59.96875 16.5 54.203125 
Q 16.5 49.359375 19.40625 46.890625 
Q 22.3125 44.4375 30.421875 42.921875 
L 36.375 41.703125 
Q 47.40625 39.59375 52.65625 34.296875 
Q 57.90625 29 57.90625 20.125 
Q 57.90625 9.515625 50.796875 4.046875 
Q 43.703125 -1.421875 29.984375 -1.421875 
Q 24.8125 -1.421875 18.96875 -0.25 
Q 13.140625 0.921875 6.890625 3.21875 
L 6.890625 13.375 
Q 12.890625 10.015625 18.65625 8.296875 
Q 24.421875 6.59375 29.984375 6.59375 
Q 38.421875 6.59375 43.015625 9.90625 
Q 47.609375 13.234375 47.609375 19.390625 
Q 47.609375 24.75 44.3125 27.78125 
Q 41.015625 30.8125 33.5 32.328125 
L 27.484375 33.5 
Q 16.453125 35.6875 11.515625 40.375 
Q 6.59375 45.0625 6.59375 53.421875 
Q 6.59375 63.09375 13.40625 68.65625 
Q 20.21875 74.21875 32.171875 74.21875 
Q 37.3125 74.21875 42.625 73.28125 
Q 47.953125 72.359375 53.515625 70.515625 
z
" id="DejaVuSans-83"/>
     </defs>
     <g style="fill:#262626;" transform="translate(492.136781 149.274292)scale(0.165 -0.165)">
      <use xlink:href="#DejaVuSans-69"/>
      <use x="63.183594" xlink:href="#DejaVuSans-83"/>
      <use x="126.660156" xlink:href="#DejaVuSans-67"/>
      <use x="196.484375" xlink:href="#DejaVuSans-65"/>
     </g>
    </g>
    <g id="line2d_51">
     <path d="M 445.936781 167.718199 
L 478.936781 167.718199 
" style="fill:none;stroke:#cab2d6;stroke-linecap:round;stroke-width:1.5;"/>
    </g>
    <g id="line2d_52"/>
    <g id="text_21">
     <!-- HNSC -->
     <defs>
      <path d="M 9.8125 72.90625 
L 19.671875 72.90625 
L 19.671875 43.015625 
L 55.515625 43.015625 
L 55.515625 72.90625 
L 65.375 72.90625 
L 65.375 0 
L 55.515625 0 
L 55.515625 34.71875 
L 19.671875 34.71875 
L 19.671875 0 
L 9.8125 0 
z
" id="DejaVuSans-72"/>
     </defs>
     <g style="fill:#262626;" transform="translate(492.136781 173.493199)scale(0.165 -0.165)">
      <use xlink:href="#DejaVuSans-72"/>
      <use x="75.195312" xlink:href="#DejaVuSans-78"/>
      <use x="150" xlink:href="#DejaVuSans-83"/>
      <use x="213.476562" xlink:href="#DejaVuSans-67"/>
     </g>
    </g>
    <g id="line2d_53">
     <path d="M 445.936781 191.937105 
L 478.936781 191.937105 
" style="fill:none;stroke:#ff7f00;stroke-linecap:round;stroke-width:1.5;"/>
    </g>
    <g id="line2d_54"/>
    <g id="text_22">
     <!-- KIRC -->
     <defs>
      <path d="M 9.8125 72.90625 
L 19.671875 72.90625 
L 19.671875 42.09375 
L 52.390625 72.90625 
L 65.09375 72.90625 
L 28.90625 38.921875 
L 67.671875 0 
L 54.6875 0 
L 19.671875 35.109375 
L 19.671875 0 
L 9.8125 0 
z
" id="DejaVuSans-75"/>
      <path d="M 9.8125 72.90625 
L 19.671875 72.90625 
L 19.671875 0 
L 9.8125 0 
z
" id="DejaVuSans-73"/>
     </defs>
     <g style="fill:#262626;" transform="translate(492.136781 197.712105)scale(0.165 -0.165)">
      <use xlink:href="#DejaVuSans-75"/>
      <use x="65.576172" xlink:href="#DejaVuSans-73"/>
      <use x="95.068359" xlink:href="#DejaVuSans-82"/>
      <use x="164.472656" xlink:href="#DejaVuSans-67"/>
     </g>
    </g>
    <g id="line2d_55">
     <path d="M 445.936781 216.156011 
L 478.936781 216.156011 
" style="fill:none;stroke:#fdbf6f;stroke-linecap:round;stroke-width:1.5;"/>
    </g>
    <g id="line2d_56"/>
    <g id="text_23">
     <!-- KIRP -->
     <g style="fill:#262626;" transform="translate(492.136781 221.931011)scale(0.165 -0.165)">
      <use xlink:href="#DejaVuSans-75"/>
      <use x="65.576172" xlink:href="#DejaVuSans-73"/>
      <use x="95.068359" xlink:href="#DejaVuSans-82"/>
      <use x="164.550781" xlink:href="#DejaVuSans-80"/>
     </g>
    </g>
    <g id="line2d_57">
     <path d="M 445.936781 240.374917 
L 478.936781 240.374917 
" style="fill:none;stroke:#e31a1c;stroke-linecap:round;stroke-width:1.5;"/>
    </g>
    <g id="line2d_58"/>
    <g id="text_24">
     <!-- LIHC -->
     <g style="fill:#262626;" transform="translate(492.136781 246.149917)scale(0.165 -0.165)">
      <use xlink:href="#DejaVuSans-76"/>
      <use x="55.712891" xlink:href="#DejaVuSans-73"/>
      <use x="85.205078" xlink:href="#DejaVuSans-72"/>
      <use x="160.400391" xlink:href="#DejaVuSans-67"/>
     </g>
    </g>
    <g id="line2d_59">
     <path d="M 445.936781 264.593824 
L 478.936781 264.593824 
" style="fill:none;stroke:#fb9a99;stroke-linecap:round;stroke-width:1.5;"/>
    </g>
    <g id="line2d_60"/>
    <g id="text_25">
     <!-- LUAD -->
     <defs>
      <path d="M 8.6875 72.90625 
L 18.609375 72.90625 
L 18.609375 28.609375 
Q 18.609375 16.890625 22.84375 11.734375 
Q 27.09375 6.59375 36.625 6.59375 
Q 46.09375 6.59375 50.34375 11.734375 
Q 54.59375 16.890625 54.59375 28.609375 
L 54.59375 72.90625 
L 64.5 72.90625 
L 64.5 27.390625 
Q 64.5 13.140625 57.4375 5.859375 
Q 50.390625 -1.421875 36.625 -1.421875 
Q 22.796875 -1.421875 15.734375 5.859375 
Q 8.6875 13.140625 8.6875 27.390625 
z
" id="DejaVuSans-85"/>
     </defs>
     <g style="fill:#262626;" transform="translate(492.136781 270.368824)scale(0.165 -0.165)">
      <use xlink:href="#DejaVuSans-76"/>
      <use x="55.634766" xlink:href="#DejaVuSans-85"/>
      <use x="128.828125" xlink:href="#DejaVuSans-65"/>
      <use x="197.236328" xlink:href="#DejaVuSans-68"/>
     </g>
    </g>
    <g id="line2d_61">
     <path d="M 445.936781 288.81273 
L 478.936781 288.81273 
" style="fill:none;stroke:#33a02c;stroke-linecap:round;stroke-width:1.5;"/>
    </g>
    <g id="line2d_62"/>
    <g id="text_26">
     <!-- LUSC -->
     <g style="fill:#262626;" transform="translate(492.136781 294.58773)scale(0.165 -0.165)">
      <use xlink:href="#DejaVuSans-76"/>
      <use x="55.634766" xlink:href="#DejaVuSans-85"/>
      <use x="128.828125" xlink:href="#DejaVuSans-83"/>
      <use x="192.304688" xlink:href="#DejaVuSans-67"/>
     </g>
    </g>
    <g id="line2d_63">
     <path d="M 445.936781 313.031636 
L 478.936781 313.031636 
" style="fill:none;stroke:#b2df8a;stroke-linecap:round;stroke-width:1.5;"/>
    </g>
    <g id="line2d_64"/>
    <g id="text_27">
     <!-- PRAD -->
     <g style="fill:#262626;" transform="translate(492.136781 318.806636)scale(0.165 -0.165)">
      <use xlink:href="#DejaVuSans-80"/>
      <use x="60.302734" xlink:href="#DejaVuSans-82"/>
      <use x="129.722656" xlink:href="#DejaVuSans-65"/>
      <use x="198.130859" xlink:href="#DejaVuSans-68"/>
     </g>
    </g>
    <g id="line2d_65">
     <path d="M 445.936781 337.250542 
L 478.936781 337.250542 
" style="fill:none;stroke:#a6cee3;stroke-linecap:round;stroke-width:1.5;"/>
    </g>
    <g id="line2d_66"/>
    <g id="text_28">
     <!-- THCA -->
     <defs>
      <path d="M -0.296875 72.90625 
L 61.375 72.90625 
L 61.375 64.59375 
L 35.5 64.59375 
L 35.5 0 
L 25.59375 0 
L 25.59375 64.59375 
L -0.296875 64.59375 
z
" id="DejaVuSans-84"/>
     </defs>
     <g style="fill:#262626;" transform="translate(492.136781 343.025542)scale(0.165 -0.165)">
      <use xlink:href="#DejaVuSans-84"/>
      <use x="61.083984" xlink:href="#DejaVuSans-72"/>
      <use x="136.279297" xlink:href="#DejaVuSans-67"/>
      <use x="206.103516" xlink:href="#DejaVuSans-65"/>
     </g>
    </g>
    <g id="line2d_67">
     <path d="M 445.936781 361.469449 
L 478.936781 361.469449 
" style="fill:none;stroke:#1f78b4;stroke-linecap:round;stroke-width:1.5;"/>
    </g>
    <g id="line2d_68"/>
    <g id="text_29">
     <!-- UCEC -->
     <g style="fill:#262626;" transform="translate(492.136781 367.244449)scale(0.165 -0.165)">
      <use xlink:href="#DejaVuSans-85"/>
      <use x="73.193359" xlink:href="#DejaVuSans-67"/>
      <use x="143.017578" xlink:href="#DejaVuSans-69"/>
      <use x="206.201172" xlink:href="#DejaVuSans-67"/>
     </g>
    </g>
   </g>
  </g>
 </g>
 <defs>
  <clipPath id="p885dcf3e3c">
   <rect height="266.112" width="357.12" x="64.360781" y="7.59062"/>
  </clipPath>
 </defs>
</svg>
