<?xml version="1.0" encoding="utf-8" standalone="no"?>
<!DOCTYPE svg PUBLIC "-//W3C//DTD SVG 1.1//EN"
  "http://www.w3.org/Graphics/SVG/1.1/DTD/svg11.dtd">
<!-- Created with matplotlib (https://matplotlib.org/) -->
<svg height="282.717813pt" version="1.1" viewBox="0 0 488.139063 282.717813" width="488.139063pt" xmlns="http://www.w3.org/2000/svg" xmlns:xlink="http://www.w3.org/1999/xlink">
 <defs>
  <style type="text/css">
*{stroke-linecap:butt;stroke-linejoin:round;white-space:pre;}
  </style>
 </defs>
 <g id="figure_1">
  <g id="patch_1">
   <path d="M 0 282.717813 
L 488.139063 282.717813 
L 488.139063 0 
L 0 0 
z
" style="fill:#ffffff;"/>
  </g>
  <g id="axes_1">
   <g id="patch_2">
    <path d="M 49.807187 239.758125 
L 384.607188 239.758125 
L 384.607188 22.318125 
L 49.807187 22.318125 
z
" style="fill:#ffffff;"/>
   </g>
   <g id="matplotlib.axis_1">
    <g id="xtick_1">
     <g id="line2d_1">
      <path clip-path="url(#p064dce99a4)" d="M 65.025369 239.758125 
L 65.025369 22.318125 
" style="fill:none;stroke:#cccccc;stroke-linecap:round;"/>
     </g>
     <g id="text_1">
      <!-- 0.0 -->
      <defs>
       <path d="M 31.78125 66.40625 
Q 24.171875 66.40625 20.328125 58.90625 
Q 16.5 51.421875 16.5 36.375 
Q 16.5 21.390625 20.328125 13.890625 
Q 24.171875 6.390625 31.78125 6.390625 
Q 39.453125 6.390625 43.28125 13.890625 
Q 47.125 21.390625 47.125 36.375 
Q 47.125 51.421875 43.28125 58.90625 
Q 39.453125 66.40625 31.78125 66.40625 
z
M 31.78125 74.21875 
Q 44.046875 74.21875 50.515625 64.515625 
Q 56.984375 54.828125 56.984375 36.375 
Q 56.984375 17.96875 50.515625 8.265625 
Q 44.046875 -1.421875 31.78125 -1.421875 
Q 19.53125 -1.421875 13.0625 8.265625 
Q 6.59375 17.96875 6.59375 36.375 
Q 6.59375 54.828125 13.0625 64.515625 
Q 19.53125 74.21875 31.78125 74.21875 
z
" id="DejaVuSans-48"/>
       <path d="M 10.6875 12.40625 
L 21 12.40625 
L 21 0 
L 10.6875 0 
z
" id="DejaVuSans-46"/>
      </defs>
      <g style="fill:#262626;" transform="translate(56.278651 257.616406)scale(0.11 -0.11)">
       <use xlink:href="#DejaVuSans-48"/>
       <use x="63.623047" xlink:href="#DejaVuSans-46"/>
       <use x="95.410156" xlink:href="#DejaVuSans-48"/>
      </g>
     </g>
    </g>
    <g id="xtick_2">
     <g id="line2d_2">
      <path clip-path="url(#p064dce99a4)" d="M 125.898097 239.758125 
L 125.898097 22.318125 
" style="fill:none;stroke:#cccccc;stroke-linecap:round;"/>
     </g>
     <g id="text_2">
      <!-- 0.2 -->
      <defs>
       <path d="M 19.1875 8.296875 
L 53.609375 8.296875 
L 53.609375 0 
L 7.328125 0 
L 7.328125 8.296875 
Q 12.9375 14.109375 22.625 23.890625 
Q 32.328125 33.6875 34.8125 36.53125 
Q 39.546875 41.84375 41.421875 45.53125 
Q 43.3125 49.21875 43.3125 52.78125 
Q 43.3125 58.59375 39.234375 62.25 
Q 35.15625 65.921875 28.609375 65.921875 
Q 23.96875 65.921875 18.8125 64.3125 
Q 13.671875 62.703125 7.8125 59.421875 
L 7.8125 69.390625 
Q 13.765625 71.78125 18.9375 73 
Q 24.125 74.21875 28.421875 74.21875 
Q 39.75 74.21875 46.484375 68.546875 
Q 53.21875 62.890625 53.21875 53.421875 
Q 53.21875 48.921875 51.53125 44.890625 
Q 49.859375 40.875 45.40625 35.40625 
Q 44.1875 33.984375 37.640625 27.21875 
Q 31.109375 20.453125 19.1875 8.296875 
z
" id="DejaVuSans-50"/>
      </defs>
      <g style="fill:#262626;" transform="translate(117.151378 257.616406)scale(0.11 -0.11)">
       <use xlink:href="#DejaVuSans-48"/>
       <use x="63.623047" xlink:href="#DejaVuSans-46"/>
       <use x="95.410156" xlink:href="#DejaVuSans-50"/>
      </g>
     </g>
    </g>
    <g id="xtick_3">
     <g id="line2d_3">
      <path clip-path="url(#p064dce99a4)" d="M 186.770824 239.758125 
L 186.770824 22.318125 
" style="fill:none;stroke:#cccccc;stroke-linecap:round;"/>
     </g>
     <g id="text_3">
      <!-- 0.4 -->
      <defs>
       <path d="M 37.796875 64.3125 
L 12.890625 25.390625 
L 37.796875 25.390625 
z
M 35.203125 72.90625 
L 47.609375 72.90625 
L 47.609375 25.390625 
L 58.015625 25.390625 
L 58.015625 17.1875 
L 47.609375 17.1875 
L 47.609375 0 
L 37.796875 0 
L 37.796875 17.1875 
L 4.890625 17.1875 
L 4.890625 26.703125 
z
" id="DejaVuSans-52"/>
      </defs>
      <g style="fill:#262626;" transform="translate(178.024105 257.616406)scale(0.11 -0.11)">
       <use xlink:href="#DejaVuSans-48"/>
       <use x="63.623047" xlink:href="#DejaVuSans-46"/>
       <use x="95.410156" xlink:href="#DejaVuSans-52"/>
      </g>
     </g>
    </g>
    <g id="xtick_4">
     <g id="line2d_4">
      <path clip-path="url(#p064dce99a4)" d="M 247.643551 239.758125 
L 247.643551 22.318125 
" style="fill:none;stroke:#cccccc;stroke-linecap:round;"/>
     </g>
     <g id="text_4">
      <!-- 0.6 -->
      <defs>
       <path d="M 33.015625 40.375 
Q 26.375 40.375 22.484375 35.828125 
Q 18.609375 31.296875 18.609375 23.390625 
Q 18.609375 15.53125 22.484375 10.953125 
Q 26.375 6.390625 33.015625 6.390625 
Q 39.65625 6.390625 43.53125 10.953125 
Q 47.40625 15.53125 47.40625 23.390625 
Q 47.40625 31.296875 43.53125 35.828125 
Q 39.65625 40.375 33.015625 40.375 
z
M 52.59375 71.296875 
L 52.59375 62.3125 
Q 48.875 64.0625 45.09375 64.984375 
Q 41.3125 65.921875 37.59375 65.921875 
Q 27.828125 65.921875 22.671875 59.328125 
Q 17.53125 52.734375 16.796875 39.40625 
Q 19.671875 43.65625 24.015625 45.921875 
Q 28.375 48.1875 33.59375 48.1875 
Q 44.578125 48.1875 50.953125 41.515625 
Q 57.328125 34.859375 57.328125 23.390625 
Q 57.328125 12.15625 50.6875 5.359375 
Q 44.046875 -1.421875 33.015625 -1.421875 
Q 20.359375 -1.421875 13.671875 8.265625 
Q 6.984375 17.96875 6.984375 36.375 
Q 6.984375 53.65625 15.1875 63.9375 
Q 23.390625 74.21875 37.203125 74.21875 
Q 40.921875 74.21875 44.703125 73.484375 
Q 48.484375 72.75 52.59375 71.296875 
z
" id="DejaVuSans-54"/>
      </defs>
      <g style="fill:#262626;" transform="translate(238.896832 257.616406)scale(0.11 -0.11)">
       <use xlink:href="#DejaVuSans-48"/>
       <use x="63.623047" xlink:href="#DejaVuSans-46"/>
       <use x="95.410156" xlink:href="#DejaVuSans-54"/>
      </g>
     </g>
    </g>
    <g id="xtick_5">
     <g id="line2d_5">
      <path clip-path="url(#p064dce99a4)" d="M 308.516278 239.758125 
L 308.516278 22.318125 
" style="fill:none;stroke:#cccccc;stroke-linecap:round;"/>
     </g>
     <g id="text_5">
      <!-- 0.8 -->
      <defs>
       <path d="M 31.78125 34.625 
Q 24.75 34.625 20.71875 30.859375 
Q 16.703125 27.09375 16.703125 20.515625 
Q 16.703125 13.921875 20.71875 10.15625 
Q 24.75 6.390625 31.78125 6.390625 
Q 38.8125 6.390625 42.859375 10.171875 
Q 46.921875 13.96875 46.921875 20.515625 
Q 46.921875 27.09375 42.890625 30.859375 
Q 38.875 34.625 31.78125 34.625 
z
M 21.921875 38.8125 
Q 15.578125 40.375 12.03125 44.71875 
Q 8.5 49.078125 8.5 55.328125 
Q 8.5 64.0625 14.71875 69.140625 
Q 20.953125 74.21875 31.78125 74.21875 
Q 42.671875 74.21875 48.875 69.140625 
Q 55.078125 64.0625 55.078125 55.328125 
Q 55.078125 49.078125 51.53125 44.71875 
Q 48 40.375 41.703125 38.8125 
Q 48.828125 37.15625 52.796875 32.3125 
Q 56.78125 27.484375 56.78125 20.515625 
Q 56.78125 9.90625 50.3125 4.234375 
Q 43.84375 -1.421875 31.78125 -1.421875 
Q 19.734375 -1.421875 13.25 4.234375 
Q 6.78125 9.90625 6.78125 20.515625 
Q 6.78125 27.484375 10.78125 32.3125 
Q 14.796875 37.15625 21.921875 38.8125 
z
M 18.3125 54.390625 
Q 18.3125 48.734375 21.84375 45.5625 
Q 25.390625 42.390625 31.78125 42.390625 
Q 38.140625 42.390625 41.71875 45.5625 
Q 45.3125 48.734375 45.3125 54.390625 
Q 45.3125 60.0625 41.71875 63.234375 
Q 38.140625 66.40625 31.78125 66.40625 
Q 25.390625 66.40625 21.84375 63.234375 
Q 18.3125 60.0625 18.3125 54.390625 
z
" id="DejaVuSans-56"/>
      </defs>
      <g style="fill:#262626;" transform="translate(299.76956 257.616406)scale(0.11 -0.11)">
       <use xlink:href="#DejaVuSans-48"/>
       <use x="63.623047" xlink:href="#DejaVuSans-46"/>
       <use x="95.410156" xlink:href="#DejaVuSans-56"/>
      </g>
     </g>
    </g>
    <g id="xtick_6">
     <g id="line2d_6">
      <path clip-path="url(#p064dce99a4)" d="M 369.389006 239.758125 
L 369.389006 22.318125 
" style="fill:none;stroke:#cccccc;stroke-linecap:round;"/>
     </g>
     <g id="text_6">
      <!-- 1.0 -->
      <defs>
       <path d="M 12.40625 8.296875 
L 28.515625 8.296875 
L 28.515625 63.921875 
L 10.984375 60.40625 
L 10.984375 69.390625 
L 28.421875 72.90625 
L 38.28125 72.90625 
L 38.28125 8.296875 
L 54.390625 8.296875 
L 54.390625 0 
L 12.40625 0 
z
" id="DejaVuSans-49"/>
      </defs>
      <g style="fill:#262626;" transform="translate(360.642287 257.616406)scale(0.11 -0.11)">
       <use xlink:href="#DejaVuSans-49"/>
       <use x="63.623047" xlink:href="#DejaVuSans-46"/>
       <use x="95.410156" xlink:href="#DejaVuSans-48"/>
      </g>
     </g>
    </g>
    <g id="text_7">
     <!-- Recall -->
     <defs>
      <path d="M 44.390625 34.1875 
Q 47.5625 33.109375 50.5625 29.59375 
Q 53.5625 26.078125 56.59375 19.921875 
L 66.609375 0 
L 56 0 
L 46.6875 18.703125 
Q 43.0625 26.03125 39.671875 28.421875 
Q 36.28125 30.8125 30.421875 30.8125 
L 19.671875 30.8125 
L 19.671875 0 
L 9.8125 0 
L 9.8125 72.90625 
L 32.078125 72.90625 
Q 44.578125 72.90625 50.734375 67.671875 
Q 56.890625 62.453125 56.890625 51.90625 
Q 56.890625 45.015625 53.6875 40.46875 
Q 50.484375 35.9375 44.390625 34.1875 
z
M 19.671875 64.796875 
L 19.671875 38.921875 
L 32.078125 38.921875 
Q 39.203125 38.921875 42.84375 42.21875 
Q 46.484375 45.515625 46.484375 51.90625 
Q 46.484375 58.296875 42.84375 61.546875 
Q 39.203125 64.796875 32.078125 64.796875 
z
" id="DejaVuSans-82"/>
      <path d="M 56.203125 29.59375 
L 56.203125 25.203125 
L 14.890625 25.203125 
Q 15.484375 15.921875 20.484375 11.0625 
Q 25.484375 6.203125 34.421875 6.203125 
Q 39.59375 6.203125 44.453125 7.46875 
Q 49.3125 8.734375 54.109375 11.28125 
L 54.109375 2.78125 
Q 49.265625 0.734375 44.1875 -0.34375 
Q 39.109375 -1.421875 33.890625 -1.421875 
Q 20.796875 -1.421875 13.15625 6.1875 
Q 5.515625 13.8125 5.515625 26.8125 
Q 5.515625 40.234375 12.765625 48.109375 
Q 20.015625 56 32.328125 56 
Q 43.359375 56 49.78125 48.890625 
Q 56.203125 41.796875 56.203125 29.59375 
z
M 47.21875 32.234375 
Q 47.125 39.59375 43.09375 43.984375 
Q 39.0625 48.390625 32.421875 48.390625 
Q 24.90625 48.390625 20.390625 44.140625 
Q 15.875 39.890625 15.1875 32.171875 
z
" id="DejaVuSans-101"/>
      <path d="M 48.78125 52.59375 
L 48.78125 44.1875 
Q 44.96875 46.296875 41.140625 47.34375 
Q 37.3125 48.390625 33.40625 48.390625 
Q 24.65625 48.390625 19.8125 42.84375 
Q 14.984375 37.3125 14.984375 27.296875 
Q 14.984375 17.28125 19.8125 11.734375 
Q 24.65625 6.203125 33.40625 6.203125 
Q 37.3125 6.203125 41.140625 7.25 
Q 44.96875 8.296875 48.78125 10.40625 
L 48.78125 2.09375 
Q 45.015625 0.34375 40.984375 -0.53125 
Q 36.96875 -1.421875 32.421875 -1.421875 
Q 20.0625 -1.421875 12.78125 6.34375 
Q 5.515625 14.109375 5.515625 27.296875 
Q 5.515625 40.671875 12.859375 48.328125 
Q 20.21875 56 33.015625 56 
Q 37.15625 56 41.109375 55.140625 
Q 45.0625 54.296875 48.78125 52.59375 
z
" id="DejaVuSans-99"/>
      <path d="M 34.28125 27.484375 
Q 23.390625 27.484375 19.1875 25 
Q 14.984375 22.515625 14.984375 16.5 
Q 14.984375 11.71875 18.140625 8.90625 
Q 21.296875 6.109375 26.703125 6.109375 
Q 34.1875 6.109375 38.703125 11.40625 
Q 43.21875 16.703125 43.21875 25.484375 
L 43.21875 27.484375 
z
M 52.203125 31.203125 
L 52.203125 0 
L 43.21875 0 
L 43.21875 8.296875 
Q 40.140625 3.328125 35.546875 0.953125 
Q 30.953125 -1.421875 24.3125 -1.421875 
Q 15.921875 -1.421875 10.953125 3.296875 
Q 6 8.015625 6 15.921875 
Q 6 25.140625 12.171875 29.828125 
Q 18.359375 34.515625 30.609375 34.515625 
L 43.21875 34.515625 
L 43.21875 35.40625 
Q 43.21875 41.609375 39.140625 45 
Q 35.0625 48.390625 27.6875 48.390625 
Q 23 48.390625 18.546875 47.265625 
Q 14.109375 46.140625 10.015625 43.890625 
L 10.015625 52.203125 
Q 14.9375 54.109375 19.578125 55.046875 
Q 24.21875 56 28.609375 56 
Q 40.484375 56 46.34375 49.84375 
Q 52.203125 43.703125 52.203125 31.203125 
z
" id="DejaVuSans-97"/>
      <path d="M 9.421875 75.984375 
L 18.40625 75.984375 
L 18.40625 0 
L 9.421875 0 
z
" id="DejaVuSans-108"/>
     </defs>
     <g style="fill:#262626;" transform="translate(199.040312 273.022188)scale(0.12 -0.12)">
      <use xlink:href="#DejaVuSans-82"/>
      <use x="69.419922" xlink:href="#DejaVuSans-101"/>
      <use x="130.943359" xlink:href="#DejaVuSans-99"/>
      <use x="185.923828" xlink:href="#DejaVuSans-97"/>
      <use x="247.203125" xlink:href="#DejaVuSans-108"/>
      <use x="274.986328" xlink:href="#DejaVuSans-108"/>
     </g>
    </g>
   </g>
   <g id="matplotlib.axis_2">
    <g id="ytick_1">
     <g id="line2d_7">
      <path clip-path="url(#p064dce99a4)" d="M 49.807187 239.758125 
L 384.607188 239.758125 
" style="fill:none;stroke:#cccccc;stroke-linecap:round;"/>
     </g>
     <g id="text_8">
      <!-- 0.0 -->
      <g style="fill:#262626;" transform="translate(22.81375 243.937266)scale(0.11 -0.11)">
       <use xlink:href="#DejaVuSans-48"/>
       <use x="63.623047" xlink:href="#DejaVuSans-46"/>
       <use x="95.410156" xlink:href="#DejaVuSans-48"/>
      </g>
     </g>
    </g>
    <g id="ytick_2">
     <g id="line2d_8">
      <path clip-path="url(#p064dce99a4)" d="M 49.807187 198.02461 
L 384.607188 198.02461 
" style="fill:none;stroke:#cccccc;stroke-linecap:round;"/>
     </g>
     <g id="text_9">
      <!-- 0.2 -->
      <g style="fill:#262626;" transform="translate(22.81375 202.20375)scale(0.11 -0.11)">
       <use xlink:href="#DejaVuSans-48"/>
       <use x="63.623047" xlink:href="#DejaVuSans-46"/>
       <use x="95.410156" xlink:href="#DejaVuSans-50"/>
      </g>
     </g>
    </g>
    <g id="ytick_3">
     <g id="line2d_9">
      <path clip-path="url(#p064dce99a4)" d="M 49.807187 156.291094 
L 384.607188 156.291094 
" style="fill:none;stroke:#cccccc;stroke-linecap:round;"/>
     </g>
     <g id="text_10">
      <!-- 0.4 -->
      <g style="fill:#262626;" transform="translate(22.81375 160.470235)scale(0.11 -0.11)">
       <use xlink:href="#DejaVuSans-48"/>
       <use x="63.623047" xlink:href="#DejaVuSans-46"/>
       <use x="95.410156" xlink:href="#DejaVuSans-52"/>
      </g>
     </g>
    </g>
    <g id="ytick_4">
     <g id="line2d_10">
      <path clip-path="url(#p064dce99a4)" d="M 49.807187 114.557579 
L 384.607188 114.557579 
" style="fill:none;stroke:#cccccc;stroke-linecap:round;"/>
     </g>
     <g id="text_11">
      <!-- 0.6 -->
      <g style="fill:#262626;" transform="translate(22.81375 118.73672)scale(0.11 -0.11)">
       <use xlink:href="#DejaVuSans-48"/>
       <use x="63.623047" xlink:href="#DejaVuSans-46"/>
       <use x="95.410156" xlink:href="#DejaVuSans-54"/>
      </g>
     </g>
    </g>
    <g id="ytick_5">
     <g id="line2d_11">
      <path clip-path="url(#p064dce99a4)" d="M 49.807187 72.824064 
L 384.607188 72.824064 
" style="fill:none;stroke:#cccccc;stroke-linecap:round;"/>
     </g>
     <g id="text_12">
      <!-- 0.8 -->
      <g style="fill:#262626;" transform="translate(22.81375 77.003205)scale(0.11 -0.11)">
       <use xlink:href="#DejaVuSans-48"/>
       <use x="63.623047" xlink:href="#DejaVuSans-46"/>
       <use x="95.410156" xlink:href="#DejaVuSans-56"/>
      </g>
     </g>
    </g>
    <g id="ytick_6">
     <g id="line2d_12">
      <path clip-path="url(#p064dce99a4)" d="M 49.807187 31.090549 
L 384.607188 31.090549 
" style="fill:none;stroke:#cccccc;stroke-linecap:round;"/>
     </g>
     <g id="text_13">
      <!-- 1.0 -->
      <g style="fill:#262626;" transform="translate(22.81375 35.269689)scale(0.11 -0.11)">
       <use xlink:href="#DejaVuSans-49"/>
       <use x="63.623047" xlink:href="#DejaVuSans-46"/>
       <use x="95.410156" xlink:href="#DejaVuSans-48"/>
      </g>
     </g>
    </g>
    <g id="text_14">
     <!-- Precision -->
     <defs>
      <path d="M 19.671875 64.796875 
L 19.671875 37.40625 
L 32.078125 37.40625 
Q 38.96875 37.40625 42.71875 40.96875 
Q 46.484375 44.53125 46.484375 51.125 
Q 46.484375 57.671875 42.71875 61.234375 
Q 38.96875 64.796875 32.078125 64.796875 
z
M 9.8125 72.90625 
L 32.078125 72.90625 
Q 44.34375 72.90625 50.609375 67.359375 
Q 56.890625 61.8125 56.890625 51.125 
Q 56.890625 40.328125 50.609375 34.8125 
Q 44.34375 29.296875 32.078125 29.296875 
L 19.671875 29.296875 
L 19.671875 0 
L 9.8125 0 
z
" id="DejaVuSans-80"/>
      <path d="M 41.109375 46.296875 
Q 39.59375 47.171875 37.8125 47.578125 
Q 36.03125 48 33.890625 48 
Q 26.265625 48 22.1875 43.046875 
Q 18.109375 38.09375 18.109375 28.8125 
L 18.109375 0 
L 9.078125 0 
L 9.078125 54.6875 
L 18.109375 54.6875 
L 18.109375 46.1875 
Q 20.953125 51.171875 25.484375 53.578125 
Q 30.03125 56 36.53125 56 
Q 37.453125 56 38.578125 55.875 
Q 39.703125 55.765625 41.0625 55.515625 
z
" id="DejaVuSans-114"/>
      <path d="M 9.421875 54.6875 
L 18.40625 54.6875 
L 18.40625 0 
L 9.421875 0 
z
M 9.421875 75.984375 
L 18.40625 75.984375 
L 18.40625 64.59375 
L 9.421875 64.59375 
z
" id="DejaVuSans-105"/>
      <path d="M 44.28125 53.078125 
L 44.28125 44.578125 
Q 40.484375 46.53125 36.375 47.5 
Q 32.28125 48.484375 27.875 48.484375 
Q 21.1875 48.484375 17.84375 46.4375 
Q 14.5 44.390625 14.5 40.28125 
Q 14.5 37.15625 16.890625 35.375 
Q 19.28125 33.59375 26.515625 31.984375 
L 29.59375 31.296875 
Q 39.15625 29.25 43.1875 25.515625 
Q 47.21875 21.78125 47.21875 15.09375 
Q 47.21875 7.46875 41.1875 3.015625 
Q 35.15625 -1.421875 24.609375 -1.421875 
Q 20.21875 -1.421875 15.453125 -0.5625 
Q 10.6875 0.296875 5.421875 2 
L 5.421875 11.28125 
Q 10.40625 8.6875 15.234375 7.390625 
Q 20.0625 6.109375 24.8125 6.109375 
Q 31.15625 6.109375 34.5625 8.28125 
Q 37.984375 10.453125 37.984375 14.40625 
Q 37.984375 18.0625 35.515625 20.015625 
Q 33.0625 21.96875 24.703125 23.78125 
L 21.578125 24.515625 
Q 13.234375 26.265625 9.515625 29.90625 
Q 5.8125 33.546875 5.8125 39.890625 
Q 5.8125 47.609375 11.28125 51.796875 
Q 16.75 56 26.8125 56 
Q 31.78125 56 36.171875 55.265625 
Q 40.578125 54.546875 44.28125 53.078125 
z
" id="DejaVuSans-115"/>
      <path d="M 30.609375 48.390625 
Q 23.390625 48.390625 19.1875 42.75 
Q 14.984375 37.109375 14.984375 27.296875 
Q 14.984375 17.484375 19.15625 11.84375 
Q 23.34375 6.203125 30.609375 6.203125 
Q 37.796875 6.203125 41.984375 11.859375 
Q 46.1875 17.53125 46.1875 27.296875 
Q 46.1875 37.015625 41.984375 42.703125 
Q 37.796875 48.390625 30.609375 48.390625 
z
M 30.609375 56 
Q 42.328125 56 49.015625 48.375 
Q 55.71875 40.765625 55.71875 27.296875 
Q 55.71875 13.875 49.015625 6.21875 
Q 42.328125 -1.421875 30.609375 -1.421875 
Q 18.84375 -1.421875 12.171875 6.21875 
Q 5.515625 13.875 5.515625 27.296875 
Q 5.515625 40.765625 12.171875 48.375 
Q 18.84375 56 30.609375 56 
z
" id="DejaVuSans-111"/>
      <path d="M 54.890625 33.015625 
L 54.890625 0 
L 45.90625 0 
L 45.90625 32.71875 
Q 45.90625 40.484375 42.875 44.328125 
Q 39.84375 48.1875 33.796875 48.1875 
Q 26.515625 48.1875 22.3125 43.546875 
Q 18.109375 38.921875 18.109375 30.90625 
L 18.109375 0 
L 9.078125 0 
L 9.078125 54.6875 
L 18.109375 54.6875 
L 18.109375 46.1875 
Q 21.34375 51.125 25.703125 53.5625 
Q 30.078125 56 35.796875 56 
Q 45.21875 56 50.046875 50.171875 
Q 54.890625 44.34375 54.890625 33.015625 
z
" id="DejaVuSans-110"/>
     </defs>
     <g style="fill:#262626;" transform="translate(16.318125 158.04375)rotate(-90)scale(0.12 -0.12)">
      <use xlink:href="#DejaVuSans-80"/>
      <use x="60.287109" xlink:href="#DejaVuSans-114"/>
      <use x="101.369141" xlink:href="#DejaVuSans-101"/>
      <use x="162.892578" xlink:href="#DejaVuSans-99"/>
      <use x="217.873047" xlink:href="#DejaVuSans-105"/>
      <use x="245.65625" xlink:href="#DejaVuSans-115"/>
      <use x="297.755859" xlink:href="#DejaVuSans-105"/>
      <use x="325.539062" xlink:href="#DejaVuSans-111"/>
      <use x="386.720703" xlink:href="#DejaVuSans-110"/>
     </g>
    </g>
   </g>
   <g id="line2d_13">
    <path clip-path="url(#p064dce99a4)" d="M 65.025369 31.090549 
L 209.380694 31.090549 
L 211.119915 33.545461 
L 211.119915 31.090549 
L 212.859136 33.516916 
L 249.382772 33.040713 
L 296.341733 32.647769 
L 298.080954 34.159189 
L 298.080954 32.636234 
L 299.820175 34.136791 
L 306.777058 34.050372 
L 308.516278 35.46819 
L 308.516278 34.029529 
L 310.255499 36.846896 
L 310.255499 35.43779 
L 311.99472 36.807469 
L 313.733941 36.768578 
L 315.473162 38.092816 
L 315.473162 36.730213 
L 317.212382 38.046134 
L 320.690824 37.954614 
L 322.430045 39.220454 
L 322.430045 37.90975 
L 324.169265 40.453837 
L 324.169265 39.168003 
L 325.908486 40.394199 
L 338.083032 39.997092 
L 339.822252 41.146817 
L 339.822252 39.943112 
L 341.561473 41.0866 
L 348.518356 40.852774 
L 350.257577 41.946087 
L 350.257577 40.796017 
L 351.996798 43.01441 
L 351.996798 41.883699 
L 353.736019 44.05859 
L 353.736019 42.946661 
L 355.475239 45.079436 
L 355.475239 43.985736 
L 357.21446 47.141901 
L 357.21446 45.00172 
L 358.953681 76.495068 
L 358.953681 74.969245 
L 358.953681 47.054188 
L 360.692902 85.525569 
L 360.692902 83.487253 
L 360.692902 76.28583 
L 362.432123 109.054258 
L 362.432123 107.110707 
L 362.432123 85.289919 
L 364.171343 159.465456 
L 364.171343 154.909843 
L 364.171343 108.769719 
L 365.910564 176.202684 
L 365.910564 171.901939 
L 365.910564 159.178905 
L 367.649785 188.977484 
L 367.649785 187.137606 
L 367.649785 175.947653 
L 369.389006 188.756972 
L 369.389006 188.756972 
" style="fill:none;stroke:#000000;stroke-linecap:round;"/>
   </g>
   <g id="line2d_14">
    <path clip-path="url(#p064dce99a4)" d="M 65.025369 31.090549 
L 293.298097 31.090549 
L 296.22467 33.698893 
L 296.22467 31.090549 
L 299.151243 33.666692 
L 354.756139 33.177224 
L 363.535859 33.116447 
L 366.462432 206.539021 
L 366.462432 199.956717 
L 366.462432 33.096968 
L 369.389006 206.268267 
L 369.389006 206.268267 
" style="fill:none;stroke:#6e6e6e;stroke-linecap:round;"/>
   </g>
   <g id="line2d_15">
    <path clip-path="url(#p064dce99a4)" d="M 65.025369 31.090549 
L 346.331154 31.090549 
L 347.868345 32.218481 
L 347.868345 31.090549 
L 349.405535 32.212417 
L 364.777435 32.155179 
L 366.314626 36.281284 
L 366.314626 32.149775 
L 367.851816 36.255588 
L 369.389006 36.230144 
L 369.389006 36.230144 
" style="fill:none;stroke:#b15928;stroke-linecap:round;"/>
   </g>
   <g id="line2d_16">
    <path clip-path="url(#p064dce99a4)" d="M 65.025369 31.090549 
L 68.878074 31.090549 
L 72.730778 31.090549 
L 76.583482 31.090549 
L 80.436186 31.090549 
L 84.288891 31.090549 
L 88.141595 31.090549 
L 91.994299 31.090549 
L 95.847003 31.090549 
L 99.699708 31.090549 
L 103.552412 31.090549 
L 107.405116 31.090549 
L 111.25782 31.090549 
L 115.110525 31.090549 
L 118.963229 31.090549 
L 122.815933 31.090549 
L 126.668637 31.090549 
L 130.521342 31.090549 
L 134.374046 31.090549 
L 138.22675 31.090549 
L 142.079454 31.090549 
L 145.932159 31.090549 
L 149.784863 31.090549 
L 153.637567 31.090549 
L 157.490272 31.090549 
L 161.342976 31.090549 
L 165.19568 31.090549 
L 169.048384 31.090549 
L 172.901089 31.090549 
L 176.753793 31.090549 
L 180.606497 31.090549 
L 184.459201 31.090549 
L 188.311906 31.090549 
L 192.16461 31.090549 
L 196.017314 31.090549 
L 199.870018 31.090549 
L 203.722723 31.090549 
L 207.575427 31.090549 
L 211.428131 31.090549 
L 215.280835 31.090549 
L 219.13354 31.090549 
L 222.986244 31.090549 
L 226.838948 31.090549 
L 230.691652 31.090549 
L 234.544357 31.090549 
L 238.397061 31.090549 
L 242.249765 31.090549 
L 246.102469 31.090549 
L 249.955174 31.090549 
L 253.807878 31.090549 
L 257.660582 31.090549 
L 261.513286 31.090549 
L 265.365991 31.090549 
L 269.218695 31.090549 
L 273.071399 31.090549 
L 276.924103 31.090549 
L 280.776808 31.090549 
L 284.629512 31.090549 
L 288.482216 31.090549 
L 292.334921 31.090549 
L 296.187625 31.090549 
L 300.040329 34.456155 
L 300.040329 31.090549 
L 303.893033 34.402732 
L 307.745738 34.350979 
L 311.598442 34.300819 
L 315.451146 34.252179 
L 319.30385 34.20499 
L 323.156555 34.159189 
L 327.009259 34.114716 
L 330.861963 34.071514 
L 334.714667 34.029529 
L 338.567372 33.988709 
L 342.420076 33.949009 
L 346.27278 33.910381 
L 350.125484 33.872783 
L 353.978189 33.836175 
L 357.830893 33.800517 
L 361.683597 33.765774 
L 365.536301 33.73191 
L 369.389006 33.698893 
" style="fill:none;stroke:#ffff99;stroke-linecap:round;"/>
   </g>
   <g id="line2d_17">
    <path clip-path="url(#p064dce99a4)" d="M 65.025369 31.090549 
L 71.64197 31.090549 
L 78.258571 31.090549 
L 84.875172 31.090549 
L 91.491772 31.090549 
L 98.108373 31.090549 
L 104.724974 60.900202 
L 104.724974 31.090549 
L 111.341575 57.173996 
L 117.958176 54.275835 
L 124.574776 51.957306 
L 131.191377 50.060328 
L 137.807978 48.479513 
L 144.424579 47.141901 
L 151.04118 45.995375 
L 157.65778 45.00172 
L 164.274381 44.132272 
L 170.890982 43.365112 
L 177.507583 42.683192 
L 184.124184 42.073053 
L 190.740784 41.523927 
L 197.357385 41.0271 
L 203.973986 40.575438 
L 210.590587 40.163052 
L 217.207188 39.785031 
L 223.823788 39.437252 
L 230.440389 39.116225 
L 237.05699 38.818977 
L 243.673591 38.542962 
L 250.290191 38.285982 
L 256.906792 38.046134 
L 263.523393 37.821761 
L 270.139994 37.61141 
L 276.756595 37.413809 
L 283.373195 37.22783 
L 289.989796 37.052479 
L 296.606397 36.88687 
L 303.222998 36.730213 
L 309.839599 36.581801 
L 316.456199 36.440999 
L 323.0728 41.269455 
L 323.0728 36.307238 
L 329.689401 41.0271 
L 336.306002 40.796017 
L 342.922603 40.575438 
L 349.539203 56.64168 
L 349.539203 52.826754 
L 349.539203 48.849491 
L 349.539203 44.699304 
L 349.539203 40.364663 
L 356.155804 56.130658 
L 362.772405 55.639675 
L 369.389006 55.167577 
" style="fill:none;stroke:#6a3d9a;stroke-linecap:round;"/>
   </g>
   <g id="line2d_18">
    <path clip-path="url(#p064dce99a4)" d="M 65.025369 31.090549 
L 212.595617 31.090549 
L 214.901402 34.252179 
L 214.901402 31.090549 
L 217.207188 34.20499 
L 249.488179 33.666692 
L 293.298097 33.177224 
L 339.413799 32.829445 
L 341.719584 34.511329 
L 341.719584 32.815074 
L 344.025369 34.483517 
L 350.942725 34.402732 
L 353.24851 35.981195 
L 353.24851 34.376652 
L 355.554295 40.575438 
L 355.554295 35.943283 
L 357.86008 41.991094 
L 357.86008 40.504123 
L 360.165865 41.910349 
L 362.47165 41.830792 
L 364.777435 43.18722 
L 364.777435 41.752396 
L 367.083221 125.860406 
L 367.083221 121.932899 
L 367.083221 43.100193 
L 369.389006 125.46717 
L 369.389006 125.46717 
" style="fill:none;stroke:#cab2d6;stroke-linecap:round;"/>
   </g>
   <g id="line2d_19">
    <path clip-path="url(#p064dce99a4)" d="M 65.025369 31.090549 
L 68.782945 31.090549 
L 72.540521 31.090549 
L 76.298097 31.090549 
L 80.055672 31.090549 
L 83.813248 31.090549 
L 87.570824 31.090549 
L 91.3284 31.090549 
L 95.085975 31.090549 
L 98.843551 31.090549 
L 102.601127 31.090549 
L 106.358703 31.090549 
L 110.116278 31.090549 
L 113.873854 31.090549 
L 117.63143 31.090549 
L 121.389006 31.090549 
L 125.146581 31.090549 
L 128.904157 31.090549 
L 132.661733 31.090549 
L 136.419309 31.090549 
L 140.176884 31.090549 
L 143.93446 31.090549 
L 147.692036 31.090549 
L 151.449612 31.090549 
L 155.207187 31.090549 
L 158.964763 31.090549 
L 162.722339 31.090549 
L 166.479915 31.090549 
L 170.237491 31.090549 
L 173.995066 31.090549 
L 177.752642 31.090549 
L 181.510218 31.090549 
L 185.267794 31.090549 
L 189.025369 31.090549 
L 192.782945 31.090549 
L 196.540521 31.090549 
L 200.298097 31.090549 
L 204.055672 31.090549 
L 207.813248 31.090549 
L 211.570824 31.090549 
L 215.3284 31.090549 
L 219.085975 31.090549 
L 222.843551 31.090549 
L 226.601127 31.090549 
L 230.358703 31.090549 
L 234.116278 31.090549 
L 237.873854 31.090549 
L 241.63143 31.090549 
L 245.389006 31.090549 
L 249.146581 31.090549 
L 252.904157 31.090549 
L 256.661733 31.090549 
L 260.419309 31.090549 
L 264.176884 31.090549 
L 267.93446 31.090549 
L 271.692036 31.090549 
L 275.449612 31.090549 
L 279.207188 31.090549 
L 282.964763 31.090549 
L 286.722339 31.090549 
L 290.479915 31.090549 
L 294.237491 31.090549 
L 297.995066 31.090549 
L 301.752642 31.090549 
L 305.510218 31.090549 
L 309.267794 31.090549 
L 313.025369 31.090549 
L 316.782945 31.090549 
L 320.540521 31.090549 
L 324.298097 31.090549 
L 328.055672 31.090549 
L 331.813248 31.090549 
L 335.570824 31.090549 
L 339.3284 31.090549 
L 343.085975 31.090549 
L 346.843551 31.090549 
L 350.601127 33.800517 
L 350.601127 31.090549 
L 354.358703 36.373272 
L 354.358703 33.765774 
L 358.116278 36.307238 
L 361.873854 36.242834 
L 365.63143 56.314102 
L 365.63143 54.275835 
L 365.63143 52.191764 
L 365.63143 50.060328 
L 365.63143 47.879894 
L 365.63143 45.648752 
L 365.63143 43.365112 
L 365.63143 41.0271 
L 365.63143 38.63275 
L 365.63143 36.180002 
L 369.389006 56.039933 
" style="fill:none;stroke:#ff7f00;stroke-linecap:round;"/>
   </g>
   <g id="line2d_20">
    <path clip-path="url(#p064dce99a4)" d="M 65.025369 31.090549 
L 320.867267 31.090549 
L 325.278334 34.568342 
L 325.278334 31.090549 
L 329.689401 34.511329 
L 351.744737 34.252179 
L 356.155804 43.01441 
L 356.155804 34.20499 
L 360.566871 42.846468 
L 364.977938 142.570487 
L 364.977938 140.531585 
L 364.977938 42.683192 
L 369.389006 141.81212 
L 369.389006 141.81212 
" style="fill:none;stroke:#fdbf6f;stroke-linecap:round;"/>
   </g>
   <g id="line2d_21">
    <path clip-path="url(#p064dce99a4)" d="M 65.025369 31.090549 
L 68.229197 31.090549 
L 71.433025 31.090549 
L 74.636853 31.090549 
L 77.84068 31.090549 
L 81.044508 31.090549 
L 84.248336 31.090549 
L 87.452164 31.090549 
L 90.655991 31.090549 
L 93.859819 31.090549 
L 97.063647 31.090549 
L 100.267475 31.090549 
L 103.471302 31.090549 
L 106.67513 31.090549 
L 109.878958 31.090549 
L 113.082786 31.090549 
L 116.286613 31.090549 
L 119.490441 31.090549 
L 122.694269 31.090549 
L 125.898097 31.090549 
L 129.101924 31.090549 
L 132.305752 31.090549 
L 135.50958 31.090549 
L 138.713408 31.090549 
L 141.917235 31.090549 
L 145.121063 31.090549 
L 148.324891 31.090549 
L 151.528719 31.090549 
L 154.732546 31.090549 
L 157.936374 31.090549 
L 161.140202 31.090549 
L 164.34403 31.090549 
L 167.547857 31.090549 
L 170.751685 31.090549 
L 173.955513 31.090549 
L 177.159341 31.090549 
L 180.363168 31.090549 
L 183.566996 31.090549 
L 186.770824 31.090549 
L 189.974652 31.090549 
L 193.178479 31.090549 
L 196.382307 31.090549 
L 199.586135 31.090549 
L 202.789963 31.090549 
L 205.99379 31.090549 
L 209.197618 31.090549 
L 212.401446 31.090549 
L 215.605274 31.090549 
L 218.809101 31.090549 
L 222.012929 31.090549 
L 225.216757 31.090549 
L 228.420585 31.090549 
L 231.624412 31.090549 
L 234.82824 31.090549 
L 238.032068 31.090549 
L 241.235896 31.090549 
L 244.439723 31.090549 
L 247.643551 31.090549 
L 250.847379 31.090549 
L 254.051207 31.090549 
L 257.255034 31.090549 
L 260.458862 31.090549 
L 263.66269 31.090549 
L 266.866518 31.090549 
L 270.070345 31.090549 
L 273.274173 31.090549 
L 276.478001 31.090549 
L 279.681829 31.090549 
L 282.885656 31.090549 
L 286.089484 31.090549 
L 289.293312 31.090549 
L 292.49714 31.090549 
L 295.700967 31.090549 
L 298.904795 31.090549 
L 302.108623 31.090549 
L 305.312451 31.090549 
L 308.516278 31.090549 
L 311.720106 31.090549 
L 314.923934 31.090549 
L 318.127762 31.090549 
L 321.331589 31.090549 
L 324.535417 31.090549 
L 327.739245 31.090549 
L 330.943073 31.090549 
L 334.1469 31.090549 
L 337.350728 31.090549 
L 340.554556 31.090549 
L 343.758384 31.090549 
L 346.962211 31.090549 
L 350.166039 31.090549 
L 353.369867 31.090549 
L 356.573695 31.090549 
L 359.777522 33.334286 
L 359.777522 31.090549 
L 362.98135 37.61141 
L 362.98135 35.48355 
L 362.98135 33.310416 
L 366.185178 45.552658 
L 366.185178 43.610603 
L 366.185178 41.629315 
L 366.185178 39.607593 
L 366.185178 37.544185 
L 369.389006 45.410872 
" style="fill:none;stroke:#e31a1c;stroke-linecap:round;"/>
   </g>
   <g id="line2d_22">
    <path clip-path="url(#p064dce99a4)" d="M 65.025369 31.090549 
L 67.583047 31.090549 
L 70.140725 31.090549 
L 72.698402 31.090549 
L 75.25608 31.090549 
L 77.813757 31.090549 
L 80.371435 31.090549 
L 82.929113 31.090549 
L 85.48679 31.090549 
L 88.044468 31.090549 
L 90.602145 31.090549 
L 93.159823 31.090549 
L 95.717501 31.090549 
L 98.275178 31.090549 
L 100.832856 31.090549 
L 103.390534 31.090549 
L 105.948211 31.090549 
L 108.505889 31.090549 
L 111.063566 31.090549 
L 113.621244 31.090549 
L 116.178922 31.090549 
L 118.736599 31.090549 
L 121.294277 31.090549 
L 123.851954 31.090549 
L 126.409632 31.090549 
L 128.96731 31.090549 
L 131.524987 31.090549 
L 134.082665 31.090549 
L 136.640343 31.090549 
L 139.19802 31.090549 
L 141.755698 31.090549 
L 144.313375 31.090549 
L 146.871053 31.090549 
L 149.428731 31.090549 
L 151.986408 31.090549 
L 154.544086 31.090549 
L 157.101764 31.090549 
L 159.659441 31.090549 
L 162.217119 31.090549 
L 164.774796 31.090549 
L 167.332474 31.090549 
L 169.890152 31.090549 
L 172.447829 31.090549 
L 175.005507 31.090549 
L 177.563184 31.090549 
L 180.120862 31.090549 
L 182.67854 31.090549 
L 185.236217 31.090549 
L 187.793895 31.090549 
L 190.351573 31.090549 
L 192.90925 31.090549 
L 195.466928 31.090549 
L 198.024605 31.090549 
L 200.582283 31.090549 
L 203.139961 31.090549 
L 205.697638 31.090549 
L 208.255316 31.090549 
L 210.812993 31.090549 
L 213.370671 31.090549 
L 215.928349 31.090549 
L 218.486026 31.090549 
L 221.043704 31.090549 
L 223.601382 31.090549 
L 226.159059 31.090549 
L 228.716737 31.090549 
L 231.274414 31.090549 
L 233.832092 31.090549 
L 236.38977 31.090549 
L 238.947447 31.090549 
L 241.505125 31.090549 
L 244.062802 31.090549 
L 246.62048 31.090549 
L 249.178158 31.090549 
L 251.735835 31.090549 
L 254.293513 31.090549 
L 256.851191 31.090549 
L 259.408868 31.090549 
L 261.966546 31.090549 
L 264.524223 31.090549 
L 267.081901 31.090549 
L 269.639579 31.090549 
L 272.197256 31.090549 
L 274.754934 31.090549 
L 277.312611 31.090549 
L 279.870289 31.090549 
L 282.427967 31.090549 
L 284.985644 31.090549 
L 287.543322 31.090549 
L 290.101 31.090549 
L 292.658677 31.090549 
L 295.216355 31.090549 
L 297.774032 31.090549 
L 300.33171 31.090549 
L 302.889388 31.090549 
L 305.447065 31.090549 
L 308.004743 31.090549 
L 310.562421 31.090549 
L 313.120098 31.090549 
L 315.677776 31.090549 
L 318.235453 31.090549 
L 320.793131 31.090549 
L 323.350809 31.090549 
L 325.908486 31.090549 
L 328.466164 31.090549 
L 331.023841 31.090549 
L 333.581519 31.090549 
L 336.139197 31.090549 
L 338.696874 31.090549 
L 341.254552 31.090549 
L 343.81223 31.090549 
L 346.369907 31.090549 
L 348.927585 31.090549 
L 351.485262 31.090549 
L 354.04294 31.090549 
L 356.600618 31.090549 
L 359.158295 31.090549 
L 361.715973 31.090549 
L 364.27365 31.090549 
L 366.831328 34.568342 
L 366.831328 32.844058 
L 366.831328 31.090549 
L 369.389006 34.539599 
" style="fill:none;stroke:#fb9a99;stroke-linecap:round;"/>
   </g>
   <g id="line2d_23">
    <path clip-path="url(#p064dce99a4)" d="M 65.025369 31.090549 
L 339.93446 31.090549 
L 343.207188 38.204216 
L 343.207188 31.090549 
L 346.479915 42.5558 
L 346.479915 38.124287 
L 349.752642 44.552973 
L 349.752642 42.431178 
L 356.298097 46.305893 
L 356.298097 44.269553 
L 359.570824 60.900202 
L 359.570824 46.149034 
L 362.843551 111.455764 
L 362.843551 109.698197 
L 362.843551 60.618979 
L 366.116278 122.700704 
L 366.116278 121.255551 
L 366.116278 110.9164 
L 369.389006 122.145491 
L 369.389006 122.145491 
" style="fill:none;stroke:#33a02c;stroke-linecap:round;"/>
   </g>
   <g id="line2d_24">
    <path clip-path="url(#p064dce99a4)" d="M 65.025369 31.090549 
L 81.93446 31.090549 
L 84.350045 54.275835 
L 84.350045 31.090549 
L 86.765629 51.957306 
L 89.181213 50.060328 
L 91.596798 48.479513 
L 94.012382 47.141901 
L 96.427967 45.995375 
L 98.843551 45.00172 
L 103.67472 43.365112 
L 108.505889 42.073053 
L 113.337058 41.0271 
L 120.583811 39.785031 
L 127.830564 38.818977 
L 137.492902 37.821761 
L 147.155239 37.052479 
L 159.233162 36.307238 
L 173.726668 35.6268 
L 193.051343 34.954763 
L 217.207188 34.350979 
L 236.531863 33.988709 
L 238.947447 36.730213 
L 238.947447 33.949009 
L 241.363032 36.655017 
L 263.103291 36.058824 
L 265.518876 38.36965 
L 265.518876 36.000374 
L 267.93446 38.285982 
L 296.921473 37.413809 
L 330.739655 36.630396 
L 357.311084 36.138958 
L 359.726668 37.714916 
L 359.726668 36.09857 
L 362.142252 39.241626 
L 362.142252 37.662756 
L 364.557837 45.210911 
L 364.557837 39.178439 
L 366.973421 45.105535 
L 369.389006 45.00172 
L 369.389006 45.00172 
" style="fill:none;stroke:#b2df8a;stroke-linecap:round;"/>
   </g>
   <g id="line2d_25">
    <path clip-path="url(#p064dce99a4)" d="M 65.025369 31.090549 
L 329.279069 31.090549 
L 331.638477 32.920966 
L 331.638477 31.090549 
L 333.997885 32.905049 
L 369.389006 32.695684 
L 369.389006 32.695684 
" style="fill:none;stroke:#a6cee3;stroke-linecap:round;"/>
   </g>
   <g id="line2d_26">
    <path clip-path="url(#p064dce99a4)" d="M 65.025369 31.090549 
L 67.792311 31.090549 
L 70.559254 31.090549 
L 73.326196 31.090549 
L 76.093138 31.090549 
L 78.86008 31.090549 
L 81.627022 31.090549 
L 84.393964 31.090549 
L 87.160907 31.090549 
L 89.927849 31.090549 
L 92.694791 31.090549 
L 95.461733 31.090549 
L 98.228675 31.090549 
L 100.995617 31.090549 
L 103.762559 31.090549 
L 106.529502 31.090549 
L 109.296444 31.090549 
L 112.063386 31.090549 
L 114.830328 31.090549 
L 117.59727 31.090549 
L 120.364212 31.090549 
L 123.131154 31.090549 
L 125.898097 31.090549 
L 128.665039 31.090549 
L 131.431981 31.090549 
L 134.198923 31.090549 
L 136.965865 31.090549 
L 139.732807 31.090549 
L 142.499749 31.090549 
L 145.266692 31.090549 
L 148.033634 31.090549 
L 150.800576 31.090549 
L 153.567518 31.090549 
L 156.33446 31.090549 
L 159.101402 31.090549 
L 161.868345 31.090549 
L 164.635287 31.090549 
L 167.402229 31.090549 
L 170.169171 31.090549 
L 172.936113 31.090549 
L 175.703055 31.090549 
L 178.469997 31.090549 
L 181.23694 31.090549 
L 184.003882 31.090549 
L 186.770824 31.090549 
L 189.537766 31.090549 
L 192.304708 31.090549 
L 195.07165 31.090549 
L 197.838592 31.090549 
L 200.605535 31.090549 
L 203.372477 31.090549 
L 206.139419 31.090549 
L 208.906361 31.090549 
L 211.673303 31.090549 
L 214.440245 31.090549 
L 217.207188 31.090549 
L 219.97413 31.090549 
L 222.741072 31.090549 
L 225.508014 31.090549 
L 228.274956 31.090549 
L 231.041898 31.090549 
L 233.80884 31.090549 
L 236.575783 31.090549 
L 239.342725 31.090549 
L 242.109667 31.090549 
L 244.876609 31.090549 
L 247.643551 31.090549 
L 250.410493 31.090549 
L 253.177435 31.090549 
L 255.944378 31.090549 
L 258.71132 31.090549 
L 261.478262 31.090549 
L 264.245204 31.090549 
L 267.012146 31.090549 
L 269.779088 31.090549 
L 272.54603 31.090549 
L 275.312973 31.090549 
L 278.079915 31.090549 
L 280.846857 31.090549 
L 283.613799 31.090549 
L 286.380741 31.090549 
L 289.147683 31.090549 
L 291.914626 31.090549 
L 294.681568 31.090549 
L 297.44851 31.090549 
L 300.215452 31.090549 
L 302.982394 31.090549 
L 305.749336 31.090549 
L 308.516278 31.090549 
L 311.283221 31.090549 
L 314.050163 31.090549 
L 316.817105 31.090549 
L 319.584047 31.090549 
L 322.350989 31.090549 
L 325.117931 31.090549 
L 327.884873 31.090549 
L 330.651816 31.090549 
L 333.418758 31.090549 
L 336.1857 31.090549 
L 338.952642 31.090549 
L 341.719584 31.090549 
L 344.486526 31.090549 
L 347.253468 31.090549 
L 350.020411 31.090549 
L 352.787353 31.090549 
L 355.554295 31.090549 
L 358.321237 31.090549 
L 361.088179 31.090549 
L 363.855121 31.090549 
L 366.622064 31.090549 
L 369.389006 31.090549 
" style="fill:none;stroke:#1f78b4;stroke-linecap:round;"/>
   </g>
   <g id="line2d_27"/>
   <g id="line2d_28"/>
   <g id="line2d_29"/>
   <g id="line2d_30"/>
   <g id="line2d_31"/>
   <g id="line2d_32"/>
   <g id="line2d_33"/>
   <g id="line2d_34"/>
   <g id="line2d_35"/>
   <g id="line2d_36"/>
   <g id="line2d_37"/>
   <g id="line2d_38"/>
   <g id="line2d_39"/>
   <g id="line2d_40"/>
   <g id="patch_3">
    <path d="M 49.807187 239.758125 
L 49.807187 22.318125 
" style="fill:none;stroke:#cccccc;stroke-linecap:square;stroke-linejoin:miter;stroke-width:1.25;"/>
   </g>
   <g id="patch_4">
    <path d="M 384.607188 239.758125 
L 384.607188 22.318125 
" style="fill:none;stroke:#cccccc;stroke-linecap:square;stroke-linejoin:miter;stroke-width:1.25;"/>
   </g>
   <g id="patch_5">
    <path d="M 49.807187 239.758125 
L 384.607188 239.758125 
" style="fill:none;stroke:#cccccc;stroke-linecap:square;stroke-linejoin:miter;stroke-width:1.25;"/>
   </g>
   <g id="patch_6">
    <path d="M 49.807187 22.318125 
L 384.607188 22.318125 
" style="fill:none;stroke:#cccccc;stroke-linecap:square;stroke-linejoin:miter;stroke-width:1.25;"/>
   </g>
   <g id="text_15">
    <!-- Precision recall curve for each class -->
    <defs>
     <path id="DejaVuSans-32"/>
     <path d="M 8.5 21.578125 
L 8.5 54.6875 
L 17.484375 54.6875 
L 17.484375 21.921875 
Q 17.484375 14.15625 20.5 10.265625 
Q 23.53125 6.390625 29.59375 6.390625 
Q 36.859375 6.390625 41.078125 11.03125 
Q 45.3125 15.671875 45.3125 23.6875 
L 45.3125 54.6875 
L 54.296875 54.6875 
L 54.296875 0 
L 45.3125 0 
L 45.3125 8.40625 
Q 42.046875 3.421875 37.71875 1 
Q 33.40625 -1.421875 27.6875 -1.421875 
Q 18.265625 -1.421875 13.375 4.4375 
Q 8.5 10.296875 8.5 21.578125 
z
M 31.109375 56 
z
" id="DejaVuSans-117"/>
     <path d="M 2.984375 54.6875 
L 12.5 54.6875 
L 29.59375 8.796875 
L 46.6875 54.6875 
L 56.203125 54.6875 
L 35.6875 0 
L 23.484375 0 
z
" id="DejaVuSans-118"/>
     <path d="M 37.109375 75.984375 
L 37.109375 68.5 
L 28.515625 68.5 
Q 23.6875 68.5 21.796875 66.546875 
Q 19.921875 64.59375 19.921875 59.515625 
L 19.921875 54.6875 
L 34.71875 54.6875 
L 34.71875 47.703125 
L 19.921875 47.703125 
L 19.921875 0 
L 10.890625 0 
L 10.890625 47.703125 
L 2.296875 47.703125 
L 2.296875 54.6875 
L 10.890625 54.6875 
L 10.890625 58.5 
Q 10.890625 67.625 15.140625 71.796875 
Q 19.390625 75.984375 28.609375 75.984375 
z
" id="DejaVuSans-102"/>
     <path d="M 54.890625 33.015625 
L 54.890625 0 
L 45.90625 0 
L 45.90625 32.71875 
Q 45.90625 40.484375 42.875 44.328125 
Q 39.84375 48.1875 33.796875 48.1875 
Q 26.515625 48.1875 22.3125 43.546875 
Q 18.109375 38.921875 18.109375 30.90625 
L 18.109375 0 
L 9.078125 0 
L 9.078125 75.984375 
L 18.109375 75.984375 
L 18.109375 46.1875 
Q 21.34375 51.125 25.703125 53.5625 
Q 30.078125 56 35.796875 56 
Q 45.21875 56 50.046875 50.171875 
Q 54.890625 44.34375 54.890625 33.015625 
z
" id="DejaVuSans-104"/>
    </defs>
    <g style="fill:#262626;" transform="translate(109.775313 16.318125)scale(0.12 -0.12)">
     <use xlink:href="#DejaVuSans-80"/>
     <use x="60.287109" xlink:href="#DejaVuSans-114"/>
     <use x="101.369141" xlink:href="#DejaVuSans-101"/>
     <use x="162.892578" xlink:href="#DejaVuSans-99"/>
     <use x="217.873047" xlink:href="#DejaVuSans-105"/>
     <use x="245.65625" xlink:href="#DejaVuSans-115"/>
     <use x="297.755859" xlink:href="#DejaVuSans-105"/>
     <use x="325.539062" xlink:href="#DejaVuSans-111"/>
     <use x="386.720703" xlink:href="#DejaVuSans-110"/>
     <use x="450.099609" xlink:href="#DejaVuSans-32"/>
     <use x="481.886719" xlink:href="#DejaVuSans-114"/>
     <use x="522.96875" xlink:href="#DejaVuSans-101"/>
     <use x="584.492188" xlink:href="#DejaVuSans-99"/>
     <use x="639.472656" xlink:href="#DejaVuSans-97"/>
     <use x="700.751953" xlink:href="#DejaVuSans-108"/>
     <use x="728.535156" xlink:href="#DejaVuSans-108"/>
     <use x="756.318359" xlink:href="#DejaVuSans-32"/>
     <use x="788.105469" xlink:href="#DejaVuSans-99"/>
     <use x="843.085938" xlink:href="#DejaVuSans-117"/>
     <use x="906.464844" xlink:href="#DejaVuSans-114"/>
     <use x="947.578125" xlink:href="#DejaVuSans-118"/>
     <use x="1006.757812" xlink:href="#DejaVuSans-101"/>
     <use x="1068.28125" xlink:href="#DejaVuSans-32"/>
     <use x="1100.068359" xlink:href="#DejaVuSans-102"/>
     <use x="1135.273438" xlink:href="#DejaVuSans-111"/>
     <use x="1196.455078" xlink:href="#DejaVuSans-114"/>
     <use x="1237.568359" xlink:href="#DejaVuSans-32"/>
     <use x="1269.355469" xlink:href="#DejaVuSans-101"/>
     <use x="1330.878906" xlink:href="#DejaVuSans-97"/>
     <use x="1392.158203" xlink:href="#DejaVuSans-99"/>
     <use x="1447.138672" xlink:href="#DejaVuSans-104"/>
     <use x="1510.517578" xlink:href="#DejaVuSans-32"/>
     <use x="1542.304688" xlink:href="#DejaVuSans-99"/>
     <use x="1597.285156" xlink:href="#DejaVuSans-108"/>
     <use x="1625.068359" xlink:href="#DejaVuSans-97"/>
     <use x="1686.347656" xlink:href="#DejaVuSans-115"/>
     <use x="1738.447266" xlink:href="#DejaVuSans-115"/>
    </g>
   </g>
   <g id="legend_1">
    <g id="patch_7">
     <path d="M 403.547188 268.775 
L 478.739063 268.775 
Q 480.939063 268.775 480.939063 266.575 
L 480.939063 24.518125 
Q 480.939063 22.318125 478.739063 22.318125 
L 403.547188 22.318125 
Q 401.347188 22.318125 401.347188 24.518125 
L 401.347188 266.575 
Q 401.347188 268.775 403.547188 268.775 
z
" style="fill:#ffffff;opacity:0.8;stroke:#cccccc;stroke-linejoin:miter;"/>
    </g>
    <g id="text_16">
     <!-- Class -->
     <defs>
      <path d="M 64.40625 67.28125 
L 64.40625 56.890625 
Q 59.421875 61.53125 53.78125 63.8125 
Q 48.140625 66.109375 41.796875 66.109375 
Q 29.296875 66.109375 22.65625 58.46875 
Q 16.015625 50.828125 16.015625 36.375 
Q 16.015625 21.96875 22.65625 14.328125 
Q 29.296875 6.6875 41.796875 6.6875 
Q 48.140625 6.6875 53.78125 8.984375 
Q 59.421875 11.28125 64.40625 15.921875 
L 64.40625 5.609375 
Q 59.234375 2.09375 53.4375 0.328125 
Q 47.65625 -1.421875 41.21875 -1.421875 
Q 24.65625 -1.421875 15.125 8.703125 
Q 5.609375 18.84375 5.609375 36.375 
Q 5.609375 53.953125 15.125 64.078125 
Q 24.65625 74.21875 41.21875 74.21875 
Q 47.75 74.21875 53.53125 72.484375 
Q 59.328125 70.75 64.40625 67.28125 
z
" id="DejaVuSans-67"/>
     </defs>
     <g style="fill:#262626;" transform="translate(425.358437 35.83625)scale(0.12 -0.12)">
      <use xlink:href="#DejaVuSans-67"/>
      <use x="69.824219" xlink:href="#DejaVuSans-108"/>
      <use x="97.607422" xlink:href="#DejaVuSans-97"/>
      <use x="158.886719" xlink:href="#DejaVuSans-115"/>
      <use x="210.986328" xlink:href="#DejaVuSans-115"/>
     </g>
    </g>
    <g id="line2d_41">
     <path d="M 405.747187 48.340156 
L 427.747187 48.340156 
" style="fill:none;stroke:#000000;stroke-linecap:round;stroke-width:1.5;"/>
    </g>
    <g id="line2d_42"/>
    <g id="text_17">
     <!-- Normal -->
     <defs>
      <path d="M 9.8125 72.90625 
L 23.09375 72.90625 
L 55.421875 11.921875 
L 55.421875 72.90625 
L 64.984375 72.90625 
L 64.984375 0 
L 51.703125 0 
L 19.390625 60.984375 
L 19.390625 0 
L 9.8125 0 
z
" id="DejaVuSans-78"/>
      <path d="M 52 44.1875 
Q 55.375 50.25 60.0625 53.125 
Q 64.75 56 71.09375 56 
Q 79.640625 56 84.28125 50.015625 
Q 88.921875 44.046875 88.921875 33.015625 
L 88.921875 0 
L 79.890625 0 
L 79.890625 32.71875 
Q 79.890625 40.578125 77.09375 44.375 
Q 74.3125 48.1875 68.609375 48.1875 
Q 61.625 48.1875 57.5625 43.546875 
Q 53.515625 38.921875 53.515625 30.90625 
L 53.515625 0 
L 44.484375 0 
L 44.484375 32.71875 
Q 44.484375 40.625 41.703125 44.40625 
Q 38.921875 48.1875 33.109375 48.1875 
Q 26.21875 48.1875 22.15625 43.53125 
Q 18.109375 38.875 18.109375 30.90625 
L 18.109375 0 
L 9.078125 0 
L 9.078125 54.6875 
L 18.109375 54.6875 
L 18.109375 46.1875 
Q 21.1875 51.21875 25.484375 53.609375 
Q 29.78125 56 35.6875 56 
Q 41.65625 56 45.828125 52.96875 
Q 50 49.953125 52 44.1875 
z
" id="DejaVuSans-109"/>
     </defs>
     <g style="fill:#262626;" transform="translate(436.547188 52.190156)scale(0.11 -0.11)">
      <use xlink:href="#DejaVuSans-78"/>
      <use x="74.804688" xlink:href="#DejaVuSans-111"/>
      <use x="135.986328" xlink:href="#DejaVuSans-114"/>
      <use x="177.083984" xlink:href="#DejaVuSans-109"/>
      <use x="274.496094" xlink:href="#DejaVuSans-97"/>
      <use x="335.775391" xlink:href="#DejaVuSans-108"/>
     </g>
    </g>
    <g id="line2d_43">
     <path d="M 405.747187 64.486094 
L 427.747187 64.486094 
" style="fill:none;stroke:#6e6e6e;stroke-linecap:round;stroke-width:1.5;"/>
    </g>
    <g id="line2d_44"/>
    <g id="text_18">
     <!-- BLCA -->
     <defs>
      <path d="M 19.671875 34.8125 
L 19.671875 8.109375 
L 35.5 8.109375 
Q 43.453125 8.109375 47.28125 11.40625 
Q 51.125 14.703125 51.125 21.484375 
Q 51.125 28.328125 47.28125 31.5625 
Q 43.453125 34.8125 35.5 34.8125 
z
M 19.671875 64.796875 
L 19.671875 42.828125 
L 34.28125 42.828125 
Q 41.5 42.828125 45.03125 45.53125 
Q 48.578125 48.25 48.578125 53.8125 
Q 48.578125 59.328125 45.03125 62.0625 
Q 41.5 64.796875 34.28125 64.796875 
z
M 9.8125 72.90625 
L 35.015625 72.90625 
Q 46.296875 72.90625 52.390625 68.21875 
Q 58.5 63.53125 58.5 54.890625 
Q 58.5 48.1875 55.375 44.234375 
Q 52.25 40.28125 46.1875 39.3125 
Q 53.46875 37.75 57.5 32.78125 
Q 61.53125 27.828125 61.53125 20.40625 
Q 61.53125 10.640625 54.890625 5.3125 
Q 48.25 0 35.984375 0 
L 9.8125 0 
z
" id="DejaVuSans-66"/>
      <path d="M 9.8125 72.90625 
L 19.671875 72.90625 
L 19.671875 8.296875 
L 55.171875 8.296875 
L 55.171875 0 
L 9.8125 0 
z
" id="DejaVuSans-76"/>
      <path d="M 34.1875 63.1875 
L 20.796875 26.90625 
L 47.609375 26.90625 
z
M 28.609375 72.90625 
L 39.796875 72.90625 
L 67.578125 0 
L 57.328125 0 
L 50.6875 18.703125 
L 17.828125 18.703125 
L 11.1875 0 
L 0.78125 0 
z
" id="DejaVuSans-65"/>
     </defs>
     <g style="fill:#262626;" transform="translate(436.547188 68.336094)scale(0.11 -0.11)">
      <use xlink:href="#DejaVuSans-66"/>
      <use x="68.603516" xlink:href="#DejaVuSans-76"/>
      <use x="124.316406" xlink:href="#DejaVuSans-67"/>
      <use x="194.140625" xlink:href="#DejaVuSans-65"/>
     </g>
    </g>
    <g id="line2d_45">
     <path d="M 405.747187 80.632031 
L 427.747187 80.632031 
" style="fill:none;stroke:#b15928;stroke-linecap:round;stroke-width:1.5;"/>
    </g>
    <g id="line2d_46"/>
    <g id="text_19">
     <!-- BRCA -->
     <g style="fill:#262626;" transform="translate(436.547188 84.482031)scale(0.11 -0.11)">
      <use xlink:href="#DejaVuSans-66"/>
      <use x="68.603516" xlink:href="#DejaVuSans-82"/>
      <use x="138.007812" xlink:href="#DejaVuSans-67"/>
      <use x="207.832031" xlink:href="#DejaVuSans-65"/>
     </g>
    </g>
    <g id="line2d_47">
     <path d="M 405.747187 96.777969 
L 427.747187 96.777969 
" style="fill:none;stroke:#ffff99;stroke-linecap:round;stroke-width:1.5;"/>
    </g>
    <g id="line2d_48"/>
    <g id="text_20">
     <!-- COAD -->
     <defs>
      <path d="M 39.40625 66.21875 
Q 28.65625 66.21875 22.328125 58.203125 
Q 16.015625 50.203125 16.015625 36.375 
Q 16.015625 22.609375 22.328125 14.59375 
Q 28.65625 6.59375 39.40625 6.59375 
Q 50.140625 6.59375 56.421875 14.59375 
Q 62.703125 22.609375 62.703125 36.375 
Q 62.703125 50.203125 56.421875 58.203125 
Q 50.140625 66.21875 39.40625 66.21875 
z
M 39.40625 74.21875 
Q 54.734375 74.21875 63.90625 63.9375 
Q 73.09375 53.65625 73.09375 36.375 
Q 73.09375 19.140625 63.90625 8.859375 
Q 54.734375 -1.421875 39.40625 -1.421875 
Q 24.03125 -1.421875 14.8125 8.828125 
Q 5.609375 19.09375 5.609375 36.375 
Q 5.609375 53.65625 14.8125 63.9375 
Q 24.03125 74.21875 39.40625 74.21875 
z
" id="DejaVuSans-79"/>
      <path d="M 19.671875 64.796875 
L 19.671875 8.109375 
L 31.59375 8.109375 
Q 46.6875 8.109375 53.6875 14.9375 
Q 60.6875 21.78125 60.6875 36.53125 
Q 60.6875 51.171875 53.6875 57.984375 
Q 46.6875 64.796875 31.59375 64.796875 
z
M 9.8125 72.90625 
L 30.078125 72.90625 
Q 51.265625 72.90625 61.171875 64.09375 
Q 71.09375 55.28125 71.09375 36.53125 
Q 71.09375 17.671875 61.125 8.828125 
Q 51.171875 0 30.078125 0 
L 9.8125 0 
z
" id="DejaVuSans-68"/>
     </defs>
     <g style="fill:#262626;" transform="translate(436.547188 100.627969)scale(0.11 -0.11)">
      <use xlink:href="#DejaVuSans-67"/>
      <use x="69.824219" xlink:href="#DejaVuSans-79"/>
      <use x="148.519531" xlink:href="#DejaVuSans-65"/>
      <use x="216.927734" xlink:href="#DejaVuSans-68"/>
     </g>
    </g>
    <g id="line2d_49">
     <path d="M 405.747187 112.923906 
L 427.747187 112.923906 
" style="fill:none;stroke:#6a3d9a;stroke-linecap:round;stroke-width:1.5;"/>
    </g>
    <g id="line2d_50"/>
    <g id="text_21">
     <!-- ESCA -->
     <defs>
      <path d="M 9.8125 72.90625 
L 55.90625 72.90625 
L 55.90625 64.59375 
L 19.671875 64.59375 
L 19.671875 43.015625 
L 54.390625 43.015625 
L 54.390625 34.71875 
L 19.671875 34.71875 
L 19.671875 8.296875 
L 56.78125 8.296875 
L 56.78125 0 
L 9.8125 0 
z
" id="DejaVuSans-69"/>
      <path d="M 53.515625 70.515625 
L 53.515625 60.890625 
Q 47.90625 63.578125 42.921875 64.890625 
Q 37.9375 66.21875 33.296875 66.21875 
Q 25.25 66.21875 20.875 63.09375 
Q 16.5 59.96875 16.5 54.203125 
Q 16.5 49.359375 19.40625 46.890625 
Q 22.3125 44.4375 30.421875 42.921875 
L 36.375 41.703125 
Q 47.40625 39.59375 52.65625 34.296875 
Q 57.90625 29 57.90625 20.125 
Q 57.90625 9.515625 50.796875 4.046875 
Q 43.703125 -1.421875 29.984375 -1.421875 
Q 24.8125 -1.421875 18.96875 -0.25 
Q 13.140625 0.921875 6.890625 3.21875 
L 6.890625 13.375 
Q 12.890625 10.015625 18.65625 8.296875 
Q 24.421875 6.59375 29.984375 6.59375 
Q 38.421875 6.59375 43.015625 9.90625 
Q 47.609375 13.234375 47.609375 19.390625 
Q 47.609375 24.75 44.3125 27.78125 
Q 41.015625 30.8125 33.5 32.328125 
L 27.484375 33.5 
Q 16.453125 35.6875 11.515625 40.375 
Q 6.59375 45.0625 6.59375 53.421875 
Q 6.59375 63.09375 13.40625 68.65625 
Q 20.21875 74.21875 32.171875 74.21875 
Q 37.3125 74.21875 42.625 73.28125 
Q 47.953125 72.359375 53.515625 70.515625 
z
" id="DejaVuSans-83"/>
     </defs>
     <g style="fill:#262626;" transform="translate(436.547188 116.773906)scale(0.11 -0.11)">
      <use xlink:href="#DejaVuSans-69"/>
      <use x="63.183594" xlink:href="#DejaVuSans-83"/>
      <use x="126.660156" xlink:href="#DejaVuSans-67"/>
      <use x="196.484375" xlink:href="#DejaVuSans-65"/>
     </g>
    </g>
    <g id="line2d_51">
     <path d="M 405.747187 129.069844 
L 427.747187 129.069844 
" style="fill:none;stroke:#cab2d6;stroke-linecap:round;stroke-width:1.5;"/>
    </g>
    <g id="line2d_52"/>
    <g id="text_22">
     <!-- HNSC -->
     <defs>
      <path d="M 9.8125 72.90625 
L 19.671875 72.90625 
L 19.671875 43.015625 
L 55.515625 43.015625 
L 55.515625 72.90625 
L 65.375 72.90625 
L 65.375 0 
L 55.515625 0 
L 55.515625 34.71875 
L 19.671875 34.71875 
L 19.671875 0 
L 9.8125 0 
z
" id="DejaVuSans-72"/>
     </defs>
     <g style="fill:#262626;" transform="translate(436.547188 132.919844)scale(0.11 -0.11)">
      <use xlink:href="#DejaVuSans-72"/>
      <use x="75.195312" xlink:href="#DejaVuSans-78"/>
      <use x="150" xlink:href="#DejaVuSans-83"/>
      <use x="213.476562" xlink:href="#DejaVuSans-67"/>
     </g>
    </g>
    <g id="line2d_53">
     <path d="M 405.747187 145.215781 
L 427.747187 145.215781 
" style="fill:none;stroke:#ff7f00;stroke-linecap:round;stroke-width:1.5;"/>
    </g>
    <g id="line2d_54"/>
    <g id="text_23">
     <!-- KIRC -->
     <defs>
      <path d="M 9.8125 72.90625 
L 19.671875 72.90625 
L 19.671875 42.09375 
L 52.390625 72.90625 
L 65.09375 72.90625 
L 28.90625 38.921875 
L 67.671875 0 
L 54.6875 0 
L 19.671875 35.109375 
L 19.671875 0 
L 9.8125 0 
z
" id="DejaVuSans-75"/>
      <path d="M 9.8125 72.90625 
L 19.671875 72.90625 
L 19.671875 0 
L 9.8125 0 
z
" id="DejaVuSans-73"/>
     </defs>
     <g style="fill:#262626;" transform="translate(436.547188 149.065781)scale(0.11 -0.11)">
      <use xlink:href="#DejaVuSans-75"/>
      <use x="65.576172" xlink:href="#DejaVuSans-73"/>
      <use x="95.068359" xlink:href="#DejaVuSans-82"/>
      <use x="164.472656" xlink:href="#DejaVuSans-67"/>
     </g>
    </g>
    <g id="line2d_55">
     <path d="M 405.747187 161.361719 
L 427.747187 161.361719 
" style="fill:none;stroke:#fdbf6f;stroke-linecap:round;stroke-width:1.5;"/>
    </g>
    <g id="line2d_56"/>
    <g id="text_24">
     <!-- KIRP -->
     <g style="fill:#262626;" transform="translate(436.547188 165.211719)scale(0.11 -0.11)">
      <use xlink:href="#DejaVuSans-75"/>
      <use x="65.576172" xlink:href="#DejaVuSans-73"/>
      <use x="95.068359" xlink:href="#DejaVuSans-82"/>
      <use x="164.550781" xlink:href="#DejaVuSans-80"/>
     </g>
    </g>
    <g id="line2d_57">
     <path d="M 405.747187 177.507656 
L 427.747187 177.507656 
" style="fill:none;stroke:#e31a1c;stroke-linecap:round;stroke-width:1.5;"/>
    </g>
    <g id="line2d_58"/>
    <g id="text_25">
     <!-- LIHC -->
     <g style="fill:#262626;" transform="translate(436.547188 181.357656)scale(0.11 -0.11)">
      <use xlink:href="#DejaVuSans-76"/>
      <use x="55.712891" xlink:href="#DejaVuSans-73"/>
      <use x="85.205078" xlink:href="#DejaVuSans-72"/>
      <use x="160.400391" xlink:href="#DejaVuSans-67"/>
     </g>
    </g>
    <g id="line2d_59">
     <path d="M 405.747187 193.653594 
L 427.747187 193.653594 
" style="fill:none;stroke:#fb9a99;stroke-linecap:round;stroke-width:1.5;"/>
    </g>
    <g id="line2d_60"/>
    <g id="text_26">
     <!-- LUAD -->
     <defs>
      <path d="M 8.6875 72.90625 
L 18.609375 72.90625 
L 18.609375 28.609375 
Q 18.609375 16.890625 22.84375 11.734375 
Q 27.09375 6.59375 36.625 6.59375 
Q 46.09375 6.59375 50.34375 11.734375 
Q 54.59375 16.890625 54.59375 28.609375 
L 54.59375 72.90625 
L 64.5 72.90625 
L 64.5 27.390625 
Q 64.5 13.140625 57.4375 5.859375 
Q 50.390625 -1.421875 36.625 -1.421875 
Q 22.796875 -1.421875 15.734375 5.859375 
Q 8.6875 13.140625 8.6875 27.390625 
z
" id="DejaVuSans-85"/>
     </defs>
     <g style="fill:#262626;" transform="translate(436.547188 197.503594)scale(0.11 -0.11)">
      <use xlink:href="#DejaVuSans-76"/>
      <use x="55.634766" xlink:href="#DejaVuSans-85"/>
      <use x="128.828125" xlink:href="#DejaVuSans-65"/>
      <use x="197.236328" xlink:href="#DejaVuSans-68"/>
     </g>
    </g>
    <g id="line2d_61">
     <path d="M 405.747187 209.799531 
L 427.747187 209.799531 
" style="fill:none;stroke:#33a02c;stroke-linecap:round;stroke-width:1.5;"/>
    </g>
    <g id="line2d_62"/>
    <g id="text_27">
     <!-- LUSC -->
     <g style="fill:#262626;" transform="translate(436.547188 213.649531)scale(0.11 -0.11)">
      <use xlink:href="#DejaVuSans-76"/>
      <use x="55.634766" xlink:href="#DejaVuSans-85"/>
      <use x="128.828125" xlink:href="#DejaVuSans-83"/>
      <use x="192.304688" xlink:href="#DejaVuSans-67"/>
     </g>
    </g>
    <g id="line2d_63">
     <path d="M 405.747187 225.945469 
L 427.747187 225.945469 
" style="fill:none;stroke:#b2df8a;stroke-linecap:round;stroke-width:1.5;"/>
    </g>
    <g id="line2d_64"/>
    <g id="text_28">
     <!-- PRAD -->
     <g style="fill:#262626;" transform="translate(436.547188 229.795469)scale(0.11 -0.11)">
      <use xlink:href="#DejaVuSans-80"/>
      <use x="60.302734" xlink:href="#DejaVuSans-82"/>
      <use x="129.722656" xlink:href="#DejaVuSans-65"/>
      <use x="198.130859" xlink:href="#DejaVuSans-68"/>
     </g>
    </g>
    <g id="line2d_65">
     <path d="M 405.747187 242.091406 
L 427.747187 242.091406 
" style="fill:none;stroke:#a6cee3;stroke-linecap:round;stroke-width:1.5;"/>
    </g>
    <g id="line2d_66"/>
    <g id="text_29">
     <!-- THCA -->
     <defs>
      <path d="M -0.296875 72.90625 
L 61.375 72.90625 
L 61.375 64.59375 
L 35.5 64.59375 
L 35.5 0 
L 25.59375 0 
L 25.59375 64.59375 
L -0.296875 64.59375 
z
" id="DejaVuSans-84"/>
     </defs>
     <g style="fill:#262626;" transform="translate(436.547188 245.941406)scale(0.11 -0.11)">
      <use xlink:href="#DejaVuSans-84"/>
      <use x="61.083984" xlink:href="#DejaVuSans-72"/>
      <use x="136.279297" xlink:href="#DejaVuSans-67"/>
      <use x="206.103516" xlink:href="#DejaVuSans-65"/>
     </g>
    </g>
    <g id="line2d_67">
     <path d="M 405.747187 258.237344 
L 427.747187 258.237344 
" style="fill:none;stroke:#1f78b4;stroke-linecap:round;stroke-width:1.5;"/>
    </g>
    <g id="line2d_68"/>
    <g id="text_30">
     <!-- UCEC -->
     <g style="fill:#262626;" transform="translate(436.547188 262.087344)scale(0.11 -0.11)">
      <use xlink:href="#DejaVuSans-85"/>
      <use x="73.193359" xlink:href="#DejaVuSans-67"/>
      <use x="143.017578" xlink:href="#DejaVuSans-69"/>
      <use x="206.201172" xlink:href="#DejaVuSans-67"/>
     </g>
    </g>
   </g>
  </g>
 </g>
 <defs>
  <clipPath id="p064dce99a4">
   <rect height="217.44" width="334.8" x="49.807187" y="22.318125"/>
  </clipPath>
 </defs>
</svg>
