<?xml version="1.0" encoding="utf-8" standalone="no"?>
<!DOCTYPE svg PUBLIC "-//W3C//DTD SVG 1.1//EN"
  "http://www.w3.org/Graphics/SVG/1.1/DTD/svg11.dtd">
<!-- Created with matplotlib (https://matplotlib.org/) -->
<svg height="331.389812pt" version="1.1" viewBox="0 0 511.575062 331.389812" width="511.575062pt" xmlns="http://www.w3.org/2000/svg" xmlns:xlink="http://www.w3.org/1999/xlink">
 <defs>
  <style type="text/css">
*{stroke-linecap:butt;stroke-linejoin:round;white-space:pre;}
  </style>
 </defs>
 <g id="figure_1">
  <g id="patch_1">
   <path d="M 0 331.389812 
L 511.575062 331.389812 
L 511.575062 0 
L 0 0 
z
" style="fill:#ffffff;"/>
  </g>
  <g id="axes_1">
   <g id="patch_2">
    <path d="M 49.807187 288.430125 
L 406.927188 288.430125 
L 406.927188 22.318125 
L 49.807187 22.318125 
z
" style="fill:#ffffff;"/>
   </g>
   <g id="matplotlib.axis_1">
    <g id="xtick_1">
     <g id="line2d_1">
      <path clip-path="url(#peaa84654d5)" d="M 66.039915 288.430125 
L 66.039915 22.318125 
" style="fill:none;stroke:#cccccc;stroke-linecap:round;"/>
     </g>
     <g id="text_1">
      <!-- 0.0 -->
      <defs>
       <path d="M 31.78125 66.40625 
Q 24.171875 66.40625 20.328125 58.90625 
Q 16.5 51.421875 16.5 36.375 
Q 16.5 21.390625 20.328125 13.890625 
Q 24.171875 6.390625 31.78125 6.390625 
Q 39.453125 6.390625 43.28125 13.890625 
Q 47.125 21.390625 47.125 36.375 
Q 47.125 51.421875 43.28125 58.90625 
Q 39.453125 66.40625 31.78125 66.40625 
z
M 31.78125 74.21875 
Q 44.046875 74.21875 50.515625 64.515625 
Q 56.984375 54.828125 56.984375 36.375 
Q 56.984375 17.96875 50.515625 8.265625 
Q 44.046875 -1.421875 31.78125 -1.421875 
Q 19.53125 -1.421875 13.0625 8.265625 
Q 6.59375 17.96875 6.59375 36.375 
Q 6.59375 54.828125 13.0625 64.515625 
Q 19.53125 74.21875 31.78125 74.21875 
z
" id="DejaVuSans-48"/>
       <path d="M 10.6875 12.40625 
L 21 12.40625 
L 21 0 
L 10.6875 0 
z
" id="DejaVuSans-46"/>
      </defs>
      <g style="fill:#262626;" transform="translate(57.293196 306.288406)scale(0.11 -0.11)">
       <use xlink:href="#DejaVuSans-48"/>
       <use x="63.623047" xlink:href="#DejaVuSans-46"/>
       <use x="95.410156" xlink:href="#DejaVuSans-48"/>
      </g>
     </g>
    </g>
    <g id="xtick_2">
     <g id="line2d_2">
      <path clip-path="url(#peaa84654d5)" d="M 130.970824 288.430125 
L 130.970824 22.318125 
" style="fill:none;stroke:#cccccc;stroke-linecap:round;"/>
     </g>
     <g id="text_2">
      <!-- 0.2 -->
      <defs>
       <path d="M 19.1875 8.296875 
L 53.609375 8.296875 
L 53.609375 0 
L 7.328125 0 
L 7.328125 8.296875 
Q 12.9375 14.109375 22.625 23.890625 
Q 32.328125 33.6875 34.8125 36.53125 
Q 39.546875 41.84375 41.421875 45.53125 
Q 43.3125 49.21875 43.3125 52.78125 
Q 43.3125 58.59375 39.234375 62.25 
Q 35.15625 65.921875 28.609375 65.921875 
Q 23.96875 65.921875 18.8125 64.3125 
Q 13.671875 62.703125 7.8125 59.421875 
L 7.8125 69.390625 
Q 13.765625 71.78125 18.9375 73 
Q 24.125 74.21875 28.421875 74.21875 
Q 39.75 74.21875 46.484375 68.546875 
Q 53.21875 62.890625 53.21875 53.421875 
Q 53.21875 48.921875 51.53125 44.890625 
Q 49.859375 40.875 45.40625 35.40625 
Q 44.1875 33.984375 37.640625 27.21875 
Q 31.109375 20.453125 19.1875 8.296875 
z
" id="DejaVuSans-50"/>
      </defs>
      <g style="fill:#262626;" transform="translate(122.224105 306.288406)scale(0.11 -0.11)">
       <use xlink:href="#DejaVuSans-48"/>
       <use x="63.623047" xlink:href="#DejaVuSans-46"/>
       <use x="95.410156" xlink:href="#DejaVuSans-50"/>
      </g>
     </g>
    </g>
    <g id="xtick_3">
     <g id="line2d_3">
      <path clip-path="url(#peaa84654d5)" d="M 195.901733 288.430125 
L 195.901733 22.318125 
" style="fill:none;stroke:#cccccc;stroke-linecap:round;"/>
     </g>
     <g id="text_3">
      <!-- 0.4 -->
      <defs>
       <path d="M 37.796875 64.3125 
L 12.890625 25.390625 
L 37.796875 25.390625 
z
M 35.203125 72.90625 
L 47.609375 72.90625 
L 47.609375 25.390625 
L 58.015625 25.390625 
L 58.015625 17.1875 
L 47.609375 17.1875 
L 47.609375 0 
L 37.796875 0 
L 37.796875 17.1875 
L 4.890625 17.1875 
L 4.890625 26.703125 
z
" id="DejaVuSans-52"/>
      </defs>
      <g style="fill:#262626;" transform="translate(187.155014 306.288406)scale(0.11 -0.11)">
       <use xlink:href="#DejaVuSans-48"/>
       <use x="63.623047" xlink:href="#DejaVuSans-46"/>
       <use x="95.410156" xlink:href="#DejaVuSans-52"/>
      </g>
     </g>
    </g>
    <g id="xtick_4">
     <g id="line2d_4">
      <path clip-path="url(#peaa84654d5)" d="M 260.832642 288.430125 
L 260.832642 22.318125 
" style="fill:none;stroke:#cccccc;stroke-linecap:round;"/>
     </g>
     <g id="text_4">
      <!-- 0.6 -->
      <defs>
       <path d="M 33.015625 40.375 
Q 26.375 40.375 22.484375 35.828125 
Q 18.609375 31.296875 18.609375 23.390625 
Q 18.609375 15.53125 22.484375 10.953125 
Q 26.375 6.390625 33.015625 6.390625 
Q 39.65625 6.390625 43.53125 10.953125 
Q 47.40625 15.53125 47.40625 23.390625 
Q 47.40625 31.296875 43.53125 35.828125 
Q 39.65625 40.375 33.015625 40.375 
z
M 52.59375 71.296875 
L 52.59375 62.3125 
Q 48.875 64.0625 45.09375 64.984375 
Q 41.3125 65.921875 37.59375 65.921875 
Q 27.828125 65.921875 22.671875 59.328125 
Q 17.53125 52.734375 16.796875 39.40625 
Q 19.671875 43.65625 24.015625 45.921875 
Q 28.375 48.1875 33.59375 48.1875 
Q 44.578125 48.1875 50.953125 41.515625 
Q 57.328125 34.859375 57.328125 23.390625 
Q 57.328125 12.15625 50.6875 5.359375 
Q 44.046875 -1.421875 33.015625 -1.421875 
Q 20.359375 -1.421875 13.671875 8.265625 
Q 6.984375 17.96875 6.984375 36.375 
Q 6.984375 53.65625 15.1875 63.9375 
Q 23.390625 74.21875 37.203125 74.21875 
Q 40.921875 74.21875 44.703125 73.484375 
Q 48.484375 72.75 52.59375 71.296875 
z
" id="DejaVuSans-54"/>
      </defs>
      <g style="fill:#262626;" transform="translate(252.085923 306.288406)scale(0.11 -0.11)">
       <use xlink:href="#DejaVuSans-48"/>
       <use x="63.623047" xlink:href="#DejaVuSans-46"/>
       <use x="95.410156" xlink:href="#DejaVuSans-54"/>
      </g>
     </g>
    </g>
    <g id="xtick_5">
     <g id="line2d_5">
      <path clip-path="url(#peaa84654d5)" d="M 325.763551 288.430125 
L 325.763551 22.318125 
" style="fill:none;stroke:#cccccc;stroke-linecap:round;"/>
     </g>
     <g id="text_5">
      <!-- 0.8 -->
      <defs>
       <path d="M 31.78125 34.625 
Q 24.75 34.625 20.71875 30.859375 
Q 16.703125 27.09375 16.703125 20.515625 
Q 16.703125 13.921875 20.71875 10.15625 
Q 24.75 6.390625 31.78125 6.390625 
Q 38.8125 6.390625 42.859375 10.171875 
Q 46.921875 13.96875 46.921875 20.515625 
Q 46.921875 27.09375 42.890625 30.859375 
Q 38.875 34.625 31.78125 34.625 
z
M 21.921875 38.8125 
Q 15.578125 40.375 12.03125 44.71875 
Q 8.5 49.078125 8.5 55.328125 
Q 8.5 64.0625 14.71875 69.140625 
Q 20.953125 74.21875 31.78125 74.21875 
Q 42.671875 74.21875 48.875 69.140625 
Q 55.078125 64.0625 55.078125 55.328125 
Q 55.078125 49.078125 51.53125 44.71875 
Q 48 40.375 41.703125 38.8125 
Q 48.828125 37.15625 52.796875 32.3125 
Q 56.78125 27.484375 56.78125 20.515625 
Q 56.78125 9.90625 50.3125 4.234375 
Q 43.84375 -1.421875 31.78125 -1.421875 
Q 19.734375 -1.421875 13.25 4.234375 
Q 6.78125 9.90625 6.78125 20.515625 
Q 6.78125 27.484375 10.78125 32.3125 
Q 14.796875 37.15625 21.921875 38.8125 
z
M 18.3125 54.390625 
Q 18.3125 48.734375 21.84375 45.5625 
Q 25.390625 42.390625 31.78125 42.390625 
Q 38.140625 42.390625 41.71875 45.5625 
Q 45.3125 48.734375 45.3125 54.390625 
Q 45.3125 60.0625 41.71875 63.234375 
Q 38.140625 66.40625 31.78125 66.40625 
Q 25.390625 66.40625 21.84375 63.234375 
Q 18.3125 60.0625 18.3125 54.390625 
z
" id="DejaVuSans-56"/>
      </defs>
      <g style="fill:#262626;" transform="translate(317.016832 306.288406)scale(0.11 -0.11)">
       <use xlink:href="#DejaVuSans-48"/>
       <use x="63.623047" xlink:href="#DejaVuSans-46"/>
       <use x="95.410156" xlink:href="#DejaVuSans-56"/>
      </g>
     </g>
    </g>
    <g id="xtick_6">
     <g id="line2d_6">
      <path clip-path="url(#peaa84654d5)" d="M 390.69446 288.430125 
L 390.69446 22.318125 
" style="fill:none;stroke:#cccccc;stroke-linecap:round;"/>
     </g>
     <g id="text_6">
      <!-- 1.0 -->
      <defs>
       <path d="M 12.40625 8.296875 
L 28.515625 8.296875 
L 28.515625 63.921875 
L 10.984375 60.40625 
L 10.984375 69.390625 
L 28.421875 72.90625 
L 38.28125 72.90625 
L 38.28125 8.296875 
L 54.390625 8.296875 
L 54.390625 0 
L 12.40625 0 
z
" id="DejaVuSans-49"/>
      </defs>
      <g style="fill:#262626;" transform="translate(381.947741 306.288406)scale(0.11 -0.11)">
       <use xlink:href="#DejaVuSans-49"/>
       <use x="63.623047" xlink:href="#DejaVuSans-46"/>
       <use x="95.410156" xlink:href="#DejaVuSans-48"/>
      </g>
     </g>
    </g>
    <g id="text_7">
     <!-- Recall -->
     <defs>
      <path d="M 44.390625 34.1875 
Q 47.5625 33.109375 50.5625 29.59375 
Q 53.5625 26.078125 56.59375 19.921875 
L 66.609375 0 
L 56 0 
L 46.6875 18.703125 
Q 43.0625 26.03125 39.671875 28.421875 
Q 36.28125 30.8125 30.421875 30.8125 
L 19.671875 30.8125 
L 19.671875 0 
L 9.8125 0 
L 9.8125 72.90625 
L 32.078125 72.90625 
Q 44.578125 72.90625 50.734375 67.671875 
Q 56.890625 62.453125 56.890625 51.90625 
Q 56.890625 45.015625 53.6875 40.46875 
Q 50.484375 35.9375 44.390625 34.1875 
z
M 19.671875 64.796875 
L 19.671875 38.921875 
L 32.078125 38.921875 
Q 39.203125 38.921875 42.84375 42.21875 
Q 46.484375 45.515625 46.484375 51.90625 
Q 46.484375 58.296875 42.84375 61.546875 
Q 39.203125 64.796875 32.078125 64.796875 
z
" id="DejaVuSans-82"/>
      <path d="M 56.203125 29.59375 
L 56.203125 25.203125 
L 14.890625 25.203125 
Q 15.484375 15.921875 20.484375 11.0625 
Q 25.484375 6.203125 34.421875 6.203125 
Q 39.59375 6.203125 44.453125 7.46875 
Q 49.3125 8.734375 54.109375 11.28125 
L 54.109375 2.78125 
Q 49.265625 0.734375 44.1875 -0.34375 
Q 39.109375 -1.421875 33.890625 -1.421875 
Q 20.796875 -1.421875 13.15625 6.1875 
Q 5.515625 13.8125 5.515625 26.8125 
Q 5.515625 40.234375 12.765625 48.109375 
Q 20.015625 56 32.328125 56 
Q 43.359375 56 49.78125 48.890625 
Q 56.203125 41.796875 56.203125 29.59375 
z
M 47.21875 32.234375 
Q 47.125 39.59375 43.09375 43.984375 
Q 39.0625 48.390625 32.421875 48.390625 
Q 24.90625 48.390625 20.390625 44.140625 
Q 15.875 39.890625 15.1875 32.171875 
z
" id="DejaVuSans-101"/>
      <path d="M 48.78125 52.59375 
L 48.78125 44.1875 
Q 44.96875 46.296875 41.140625 47.34375 
Q 37.3125 48.390625 33.40625 48.390625 
Q 24.65625 48.390625 19.8125 42.84375 
Q 14.984375 37.3125 14.984375 27.296875 
Q 14.984375 17.28125 19.8125 11.734375 
Q 24.65625 6.203125 33.40625 6.203125 
Q 37.3125 6.203125 41.140625 7.25 
Q 44.96875 8.296875 48.78125 10.40625 
L 48.78125 2.09375 
Q 45.015625 0.34375 40.984375 -0.53125 
Q 36.96875 -1.421875 32.421875 -1.421875 
Q 20.0625 -1.421875 12.78125 6.34375 
Q 5.515625 14.109375 5.515625 27.296875 
Q 5.515625 40.671875 12.859375 48.328125 
Q 20.21875 56 33.015625 56 
Q 37.15625 56 41.109375 55.140625 
Q 45.0625 54.296875 48.78125 52.59375 
z
" id="DejaVuSans-99"/>
      <path d="M 34.28125 27.484375 
Q 23.390625 27.484375 19.1875 25 
Q 14.984375 22.515625 14.984375 16.5 
Q 14.984375 11.71875 18.140625 8.90625 
Q 21.296875 6.109375 26.703125 6.109375 
Q 34.1875 6.109375 38.703125 11.40625 
Q 43.21875 16.703125 43.21875 25.484375 
L 43.21875 27.484375 
z
M 52.203125 31.203125 
L 52.203125 0 
L 43.21875 0 
L 43.21875 8.296875 
Q 40.140625 3.328125 35.546875 0.953125 
Q 30.953125 -1.421875 24.3125 -1.421875 
Q 15.921875 -1.421875 10.953125 3.296875 
Q 6 8.015625 6 15.921875 
Q 6 25.140625 12.171875 29.828125 
Q 18.359375 34.515625 30.609375 34.515625 
L 43.21875 34.515625 
L 43.21875 35.40625 
Q 43.21875 41.609375 39.140625 45 
Q 35.0625 48.390625 27.6875 48.390625 
Q 23 48.390625 18.546875 47.265625 
Q 14.109375 46.140625 10.015625 43.890625 
L 10.015625 52.203125 
Q 14.9375 54.109375 19.578125 55.046875 
Q 24.21875 56 28.609375 56 
Q 40.484375 56 46.34375 49.84375 
Q 52.203125 43.703125 52.203125 31.203125 
z
" id="DejaVuSans-97"/>
      <path d="M 9.421875 75.984375 
L 18.40625 75.984375 
L 18.40625 0 
L 9.421875 0 
z
" id="DejaVuSans-108"/>
     </defs>
     <g style="fill:#262626;" transform="translate(210.200312 321.694187)scale(0.12 -0.12)">
      <use xlink:href="#DejaVuSans-82"/>
      <use x="69.419922" xlink:href="#DejaVuSans-101"/>
      <use x="130.943359" xlink:href="#DejaVuSans-99"/>
      <use x="185.923828" xlink:href="#DejaVuSans-97"/>
      <use x="247.203125" xlink:href="#DejaVuSans-108"/>
      <use x="274.986328" xlink:href="#DejaVuSans-108"/>
     </g>
    </g>
   </g>
   <g id="matplotlib.axis_2">
    <g id="ytick_1">
     <g id="line2d_7">
      <path clip-path="url(#peaa84654d5)" d="M 49.807187 288.430125 
L 406.927188 288.430125 
" style="fill:none;stroke:#cccccc;stroke-linecap:round;"/>
     </g>
     <g id="text_8">
      <!-- 0.0 -->
      <g style="fill:#262626;" transform="translate(22.81375 292.609266)scale(0.11 -0.11)">
       <use xlink:href="#DejaVuSans-48"/>
       <use x="63.623047" xlink:href="#DejaVuSans-46"/>
       <use x="95.410156" xlink:href="#DejaVuSans-48"/>
      </g>
     </g>
    </g>
    <g id="ytick_2">
     <g id="line2d_8">
      <path clip-path="url(#peaa84654d5)" d="M 49.807187 237.550104 
L 406.927188 237.550104 
" style="fill:none;stroke:#cccccc;stroke-linecap:round;"/>
     </g>
     <g id="text_9">
      <!-- 0.2 -->
      <g style="fill:#262626;" transform="translate(22.81375 241.729244)scale(0.11 -0.11)">
       <use xlink:href="#DejaVuSans-48"/>
       <use x="63.623047" xlink:href="#DejaVuSans-46"/>
       <use x="95.410156" xlink:href="#DejaVuSans-50"/>
      </g>
     </g>
    </g>
    <g id="ytick_3">
     <g id="line2d_9">
      <path clip-path="url(#peaa84654d5)" d="M 49.807187 186.670082 
L 406.927188 186.670082 
" style="fill:none;stroke:#cccccc;stroke-linecap:round;"/>
     </g>
     <g id="text_10">
      <!-- 0.4 -->
      <g style="fill:#262626;" transform="translate(22.81375 190.849223)scale(0.11 -0.11)">
       <use xlink:href="#DejaVuSans-48"/>
       <use x="63.623047" xlink:href="#DejaVuSans-46"/>
       <use x="95.410156" xlink:href="#DejaVuSans-52"/>
      </g>
     </g>
    </g>
    <g id="ytick_4">
     <g id="line2d_10">
      <path clip-path="url(#peaa84654d5)" d="M 49.807187 135.790061 
L 406.927188 135.790061 
" style="fill:none;stroke:#cccccc;stroke-linecap:round;"/>
     </g>
     <g id="text_11">
      <!-- 0.6 -->
      <g style="fill:#262626;" transform="translate(22.81375 139.969201)scale(0.11 -0.11)">
       <use xlink:href="#DejaVuSans-48"/>
       <use x="63.623047" xlink:href="#DejaVuSans-46"/>
       <use x="95.410156" xlink:href="#DejaVuSans-54"/>
      </g>
     </g>
    </g>
    <g id="ytick_5">
     <g id="line2d_11">
      <path clip-path="url(#peaa84654d5)" d="M 49.807187 84.910039 
L 406.927188 84.910039 
" style="fill:none;stroke:#cccccc;stroke-linecap:round;"/>
     </g>
     <g id="text_12">
      <!-- 0.8 -->
      <g style="fill:#262626;" transform="translate(22.81375 89.08918)scale(0.11 -0.11)">
       <use xlink:href="#DejaVuSans-48"/>
       <use x="63.623047" xlink:href="#DejaVuSans-46"/>
       <use x="95.410156" xlink:href="#DejaVuSans-56"/>
      </g>
     </g>
    </g>
    <g id="ytick_6">
     <g id="line2d_12">
      <path clip-path="url(#peaa84654d5)" d="M 49.807187 34.030018 
L 406.927188 34.030018 
" style="fill:none;stroke:#cccccc;stroke-linecap:round;"/>
     </g>
     <g id="text_13">
      <!-- 1.0 -->
      <g style="fill:#262626;" transform="translate(22.81375 38.209159)scale(0.11 -0.11)">
       <use xlink:href="#DejaVuSans-49"/>
       <use x="63.623047" xlink:href="#DejaVuSans-46"/>
       <use x="95.410156" xlink:href="#DejaVuSans-48"/>
      </g>
     </g>
    </g>
    <g id="text_14">
     <!-- Precision -->
     <defs>
      <path d="M 19.671875 64.796875 
L 19.671875 37.40625 
L 32.078125 37.40625 
Q 38.96875 37.40625 42.71875 40.96875 
Q 46.484375 44.53125 46.484375 51.125 
Q 46.484375 57.671875 42.71875 61.234375 
Q 38.96875 64.796875 32.078125 64.796875 
z
M 9.8125 72.90625 
L 32.078125 72.90625 
Q 44.34375 72.90625 50.609375 67.359375 
Q 56.890625 61.8125 56.890625 51.125 
Q 56.890625 40.328125 50.609375 34.8125 
Q 44.34375 29.296875 32.078125 29.296875 
L 19.671875 29.296875 
L 19.671875 0 
L 9.8125 0 
z
" id="DejaVuSans-80"/>
      <path d="M 41.109375 46.296875 
Q 39.59375 47.171875 37.8125 47.578125 
Q 36.03125 48 33.890625 48 
Q 26.265625 48 22.1875 43.046875 
Q 18.109375 38.09375 18.109375 28.8125 
L 18.109375 0 
L 9.078125 0 
L 9.078125 54.6875 
L 18.109375 54.6875 
L 18.109375 46.1875 
Q 20.953125 51.171875 25.484375 53.578125 
Q 30.03125 56 36.53125 56 
Q 37.453125 56 38.578125 55.875 
Q 39.703125 55.765625 41.0625 55.515625 
z
" id="DejaVuSans-114"/>
      <path d="M 9.421875 54.6875 
L 18.40625 54.6875 
L 18.40625 0 
L 9.421875 0 
z
M 9.421875 75.984375 
L 18.40625 75.984375 
L 18.40625 64.59375 
L 9.421875 64.59375 
z
" id="DejaVuSans-105"/>
      <path d="M 44.28125 53.078125 
L 44.28125 44.578125 
Q 40.484375 46.53125 36.375 47.5 
Q 32.28125 48.484375 27.875 48.484375 
Q 21.1875 48.484375 17.84375 46.4375 
Q 14.5 44.390625 14.5 40.28125 
Q 14.5 37.15625 16.890625 35.375 
Q 19.28125 33.59375 26.515625 31.984375 
L 29.59375 31.296875 
Q 39.15625 29.25 43.1875 25.515625 
Q 47.21875 21.78125 47.21875 15.09375 
Q 47.21875 7.46875 41.1875 3.015625 
Q 35.15625 -1.421875 24.609375 -1.421875 
Q 20.21875 -1.421875 15.453125 -0.5625 
Q 10.6875 0.296875 5.421875 2 
L 5.421875 11.28125 
Q 10.40625 8.6875 15.234375 7.390625 
Q 20.0625 6.109375 24.8125 6.109375 
Q 31.15625 6.109375 34.5625 8.28125 
Q 37.984375 10.453125 37.984375 14.40625 
Q 37.984375 18.0625 35.515625 20.015625 
Q 33.0625 21.96875 24.703125 23.78125 
L 21.578125 24.515625 
Q 13.234375 26.265625 9.515625 29.90625 
Q 5.8125 33.546875 5.8125 39.890625 
Q 5.8125 47.609375 11.28125 51.796875 
Q 16.75 56 26.8125 56 
Q 31.78125 56 36.171875 55.265625 
Q 40.578125 54.546875 44.28125 53.078125 
z
" id="DejaVuSans-115"/>
      <path d="M 30.609375 48.390625 
Q 23.390625 48.390625 19.1875 42.75 
Q 14.984375 37.109375 14.984375 27.296875 
Q 14.984375 17.484375 19.15625 11.84375 
Q 23.34375 6.203125 30.609375 6.203125 
Q 37.796875 6.203125 41.984375 11.859375 
Q 46.1875 17.53125 46.1875 27.296875 
Q 46.1875 37.015625 41.984375 42.703125 
Q 37.796875 48.390625 30.609375 48.390625 
z
M 30.609375 56 
Q 42.328125 56 49.015625 48.375 
Q 55.71875 40.765625 55.71875 27.296875 
Q 55.71875 13.875 49.015625 6.21875 
Q 42.328125 -1.421875 30.609375 -1.421875 
Q 18.84375 -1.421875 12.171875 6.21875 
Q 5.515625 13.875 5.515625 27.296875 
Q 5.515625 40.765625 12.171875 48.375 
Q 18.84375 56 30.609375 56 
z
" id="DejaVuSans-111"/>
      <path d="M 54.890625 33.015625 
L 54.890625 0 
L 45.90625 0 
L 45.90625 32.71875 
Q 45.90625 40.484375 42.875 44.328125 
Q 39.84375 48.1875 33.796875 48.1875 
Q 26.515625 48.1875 22.3125 43.546875 
Q 18.109375 38.921875 18.109375 30.90625 
L 18.109375 0 
L 9.078125 0 
L 9.078125 54.6875 
L 18.109375 54.6875 
L 18.109375 46.1875 
Q 21.34375 51.125 25.703125 53.5625 
Q 30.078125 56 35.796875 56 
Q 45.21875 56 50.046875 50.171875 
Q 54.890625 44.34375 54.890625 33.015625 
z
" id="DejaVuSans-110"/>
     </defs>
     <g style="fill:#262626;" transform="translate(16.318125 182.37975)rotate(-90)scale(0.12 -0.12)">
      <use xlink:href="#DejaVuSans-80"/>
      <use x="60.287109" xlink:href="#DejaVuSans-114"/>
      <use x="101.369141" xlink:href="#DejaVuSans-101"/>
      <use x="162.892578" xlink:href="#DejaVuSans-99"/>
      <use x="217.873047" xlink:href="#DejaVuSans-105"/>
      <use x="245.65625" xlink:href="#DejaVuSans-115"/>
      <use x="297.755859" xlink:href="#DejaVuSans-105"/>
      <use x="325.539062" xlink:href="#DejaVuSans-111"/>
      <use x="386.720703" xlink:href="#DejaVuSans-110"/>
     </g>
    </g>
   </g>
   <g id="line2d_13">
    <path clip-path="url(#peaa84654d5)" d="M 66.039915 34.030018 
L 264.54298 34.030018 
L 266.398149 36.363964 
L 266.398149 34.030018 
L 268.253317 36.342746 
L 316.487707 35.900607 
L 318.342876 37.716976 
L 318.342876 35.886953 
L 320.198045 37.690451 
L 323.908382 37.63853 
L 325.763551 39.367083 
L 325.763551 37.613118 
L 327.61872 39.33002 
L 335.039395 39.186777 
L 336.894564 40.814021 
L 336.894564 39.152168 
L 338.749733 40.769094 
L 340.604902 43.941711 
L 340.604902 40.724758 
L 342.460071 43.877764 
L 344.315239 45.372698 
L 344.315239 43.814638 
L 346.170408 45.300909 
L 348.025577 45.230023 
L 349.880746 46.671017 
L 349.880746 45.160023 
L 351.735915 48.07665 
L 351.735915 46.592986 
L 355.446252 49.355326 
L 355.446252 47.906388 
L 357.301421 50.687168 
L 357.301421 49.263557 
L 359.15659 51.987673 
L 359.15659 50.588605 
L 362.866928 53.146789 
L 362.866928 51.778863 
L 364.722097 54.382027 
L 364.722097 53.036923 
L 366.577265 56.897443 
L 366.577265 54.26639 
L 368.432434 63.064813 
L 368.432434 56.769692 
L 370.287603 62.907868 
L 372.142772 63.959442 
L 372.142772 62.752611 
L 373.997941 74.062522 
L 373.997941 63.800243 
L 375.85311 74.938578 
L 375.85311 73.860338 
L 377.708278 86.83004 
L 377.708278 74.734035 
L 379.563447 87.525368 
L 379.563447 86.582153 
L 381.418616 138.263395 
L 381.418616 135.610273 
L 381.418616 87.276552 
L 383.273785 205.092159 
L 383.273785 198.176145 
L 383.273785 137.902726 
L 385.128954 217.854611 
L 385.128954 213.117185 
L 385.128954 204.76508 
L 386.984123 232.860405 
L 386.984123 231.198371 
L 386.984123 217.558598 
L 388.839291 259.871661 
L 388.839291 257.344719 
L 388.839291 232.609673 
L 390.69446 259.726051 
L 390.69446 259.726051 
" style="fill:none;stroke:#000000;stroke-linecap:round;"/>
   </g>
   <g id="line2d_14">
    <path clip-path="url(#peaa84654d5)" d="M 66.039915 34.030018 
L 69.161593 34.030018 
L 72.283271 34.030018 
L 75.40495 34.030018 
L 78.526628 34.030018 
L 81.648306 34.030018 
L 84.769985 34.030018 
L 87.891663 34.030018 
L 91.013341 34.030018 
L 94.13502 34.030018 
L 97.256698 34.030018 
L 100.378376 34.030018 
L 103.500055 34.030018 
L 106.621733 34.030018 
L 109.743411 34.030018 
L 112.86509 34.030018 
L 115.986768 34.030018 
L 119.108446 34.030018 
L 122.230125 34.030018 
L 125.351803 34.030018 
L 128.473481 34.030018 
L 131.59516 34.030018 
L 134.716838 34.030018 
L 137.838516 34.030018 
L 140.960194 34.030018 
L 144.081873 34.030018 
L 147.203551 34.030018 
L 150.325229 34.030018 
L 153.446908 34.030018 
L 156.568586 34.030018 
L 159.690264 34.030018 
L 162.811943 34.030018 
L 165.933621 34.030018 
L 169.055299 34.030018 
L 172.176978 34.030018 
L 175.298656 34.030018 
L 178.420334 34.030018 
L 181.542013 34.030018 
L 184.663691 34.030018 
L 187.785369 34.030018 
L 190.907048 34.030018 
L 194.028726 34.030018 
L 197.150404 34.030018 
L 200.272083 34.030018 
L 203.393761 34.030018 
L 206.515439 34.030018 
L 209.637118 34.030018 
L 212.758796 34.030018 
L 215.880474 34.030018 
L 219.002153 34.030018 
L 222.123831 34.030018 
L 225.245509 34.030018 
L 228.367188 34.030018 
L 231.488866 34.030018 
L 234.610544 34.030018 
L 237.732222 34.030018 
L 240.853901 34.030018 
L 243.975579 34.030018 
L 247.097257 34.030018 
L 250.218936 34.030018 
L 253.340614 34.030018 
L 256.462292 34.030018 
L 259.583971 34.030018 
L 262.705649 34.030018 
L 265.827327 34.030018 
L 268.949006 34.030018 
L 272.070684 34.030018 
L 275.192362 34.030018 
L 278.314041 34.030018 
L 281.435719 37.664305 
L 281.435719 34.030018 
L 284.557397 37.613118 
L 287.679076 37.563353 
L 290.800754 37.514951 
L 293.922432 37.467857 
L 297.044111 37.422019 
L 300.165789 37.377388 
L 303.287467 37.333916 
L 306.409146 37.291558 
L 309.530824 37.250273 
L 312.652502 37.210019 
L 315.774181 37.17076 
L 318.895859 37.132458 
L 322.017537 37.09508 
L 325.139215 37.058591 
L 328.260894 37.02296 
L 331.382572 36.988159 
L 334.50425 36.954157 
L 337.625929 36.920928 
L 340.747607 36.888446 
L 343.869285 36.856686 
L 346.990964 36.825624 
L 350.112642 36.795237 
L 353.23432 36.765503 
L 356.355999 36.736402 
L 359.477677 36.707914 
L 362.599355 36.680019 
L 365.721034 36.6527 
L 368.842712 36.625937 
L 371.96439 36.599716 
L 375.086069 36.574019 
L 378.207747 39.018255 
L 378.207747 36.548831 
L 381.329425 48.295445 
L 381.329425 46.030023 
L 381.329425 43.721451 
L 381.329425 41.368483 
L 381.329425 38.969826 
L 384.451104 56.744313 
L 384.451104 54.657054 
L 384.451104 52.531844 
L 384.451104 50.36764 
L 384.451104 48.163357 
L 387.572782 58.577397 
L 387.572782 56.543302 
L 390.69446 58.363941 
" style="fill:none;stroke:#6e6e6e;stroke-linecap:round;"/>
   </g>
   <g id="line2d_15">
    <path clip-path="url(#peaa84654d5)" d="M 66.039915 34.030018 
L 372.658097 34.030018 
L 374.297766 35.37605 
L 374.297766 34.030018 
L 375.937435 35.368966 
L 379.216774 35.355019 
L 380.856444 36.6527 
L 380.856444 35.348153 
L 384.135783 37.904131 
L 384.135783 36.625937 
L 385.775452 40.390021 
L 385.775452 37.884565 
L 387.415121 55.428158 
L 387.415121 54.334252 
L 387.415121 40.358379 
L 389.054791 66.67428 
L 389.054791 65.688698 
L 389.054791 55.328632 
L 390.69446 66.530472 
L 390.69446 66.530472 
" style="fill:none;stroke:#b15928;stroke-linecap:round;"/>
   </g>
   <g id="line2d_16">
    <path clip-path="url(#peaa84654d5)" d="M 66.039915 34.030018 
L 70.149466 34.030018 
L 74.259017 34.030018 
L 78.368568 34.030018 
L 82.47812 34.030018 
L 86.587671 34.030018 
L 90.697222 34.030018 
L 94.806773 34.030018 
L 98.916324 34.030018 
L 103.025876 34.030018 
L 107.135427 34.030018 
L 111.244978 34.030018 
L 115.354529 34.030018 
L 119.46408 34.030018 
L 123.573632 34.030018 
L 127.683183 34.030018 
L 131.792734 34.030018 
L 135.902285 34.030018 
L 140.011837 34.030018 
L 144.121388 34.030018 
L 148.230939 34.030018 
L 152.34049 34.030018 
L 156.450041 34.030018 
L 160.559593 34.030018 
L 164.669144 34.030018 
L 168.778695 34.030018 
L 172.888246 34.030018 
L 176.997797 34.030018 
L 181.107349 34.030018 
L 185.2169 34.030018 
L 189.326451 34.030018 
L 193.436002 34.030018 
L 197.545553 34.030018 
L 201.655105 34.030018 
L 205.764656 34.030018 
L 209.874207 34.030018 
L 213.983758 34.030018 
L 218.093309 34.030018 
L 222.202861 34.030018 
L 226.312412 34.030018 
L 230.421963 34.030018 
L 234.531514 34.030018 
L 238.641066 34.030018 
L 242.750617 34.030018 
L 246.860168 34.030018 
L 250.969719 34.030018 
L 255.07927 34.030018 
L 259.188822 34.030018 
L 263.298373 34.030018 
L 267.407924 34.030018 
L 271.517475 34.030018 
L 275.627026 34.030018 
L 279.736578 34.030018 
L 283.846129 34.030018 
L 287.95568 34.030018 
L 292.065231 34.030018 
L 296.174782 34.030018 
L 300.284334 34.030018 
L 304.393885 34.030018 
L 308.503436 34.030018 
L 312.612987 34.030018 
L 316.722538 34.030018 
L 320.83209 34.030018 
L 324.941641 34.030018 
L 329.051192 34.030018 
L 333.160743 34.030018 
L 337.270295 34.030018 
L 341.379846 34.030018 
L 345.489397 34.030018 
L 349.598948 34.030018 
L 353.708499 34.030018 
L 357.818051 34.030018 
L 361.927602 34.030018 
L 366.037153 34.030018 
L 370.146704 34.030018 
L 374.256255 34.030018 
L 378.365807 34.030018 
L 382.475358 34.030018 
L 386.584909 37.250273 
L 386.584909 34.030018 
L 390.69446 37.210019 
" style="fill:none;stroke:#ffff99;stroke-linecap:round;"/>
   </g>
   <g id="line2d_17">
    <path clip-path="url(#peaa84654d5)" d="M 66.039915 34.030018 
L 73.097622 34.030018 
L 80.15533 34.030018 
L 87.213037 34.030018 
L 94.270745 84.910039 
L 94.270745 34.030018 
L 101.328452 76.430036 
L 108.38616 70.37289 
L 115.443867 65.830031 
L 122.501575 62.296697 
L 129.559282 59.470029 
L 136.61699 57.1573 
L 143.674697 55.230027 
L 150.732405 53.599257 
L 157.790112 52.201454 
L 164.84782 50.990025 
L 171.905527 49.930025 
L 178.963235 48.99473 
L 186.020942 48.163357 
L 193.07865 47.419497 
L 200.136357 46.750023 
L 207.194065 46.144309 
L 214.251772 45.593659 
L 221.30948 45.090892 
L 228.367188 44.630022 
L 235.424895 44.206022 
L 242.482603 43.814638 
L 249.54031 43.452244 
L 256.598018 43.115736 
L 263.655725 42.802436 
L 270.713433 42.510022 
L 277.77114 42.236473 
L 284.828848 41.980021 
L 291.886555 41.739112 
L 298.944263 41.512374 
L 306.00197 41.298593 
L 313.059678 54.114237 
L 313.059678 47.781375 
L 313.059678 41.096688 
L 320.117385 53.599257 
L 327.175093 53.110026 
L 334.2328 52.64466 
L 341.290508 57.695144 
L 341.290508 52.201454 
L 348.348215 57.1573 
L 355.405923 61.682204 
L 355.405923 56.643361 
L 362.46363 70.37289 
L 362.46363 65.830031 
L 362.46363 61.093859 
L 369.521338 73.935917 
L 369.521338 69.646033 
L 376.579045 84.910039 
L 376.579045 81.141149 
L 376.579045 77.230036 
L 376.579045 73.168496 
L 383.636753 129.430058 
L 383.636753 127.190621 
L 383.636753 124.887199 
L 383.636753 122.517012 
L 383.636753 120.077113 
L 383.636753 117.564382 
L 383.636753 114.975507 
L 383.636753 112.306974 
L 383.636753 109.55505 
L 383.636753 106.715763 
L 383.636753 103.784886 
L 383.636753 100.757915 
L 383.636753 97.630045 
L 383.636753 94.396145 
L 383.636753 91.050732 
L 383.636753 87.587935 
L 383.636753 84.001468 
L 390.69446 128.123208 
" style="fill:none;stroke:#6a3d9a;stroke-linecap:round;"/>
   </g>
   <g id="line2d_18">
    <path clip-path="url(#peaa84654d5)" d="M 66.039915 34.030018 
L 284.935783 34.030018 
L 287.395287 36.825624 
L 287.395287 34.030018 
L 289.854791 36.795237 
L 304.611816 36.625937 
L 307.07132 41.586457 
L 307.07132 36.599716 
L 309.530824 41.512374 
L 341.504378 40.666543 
L 343.963882 46.856914 
L 343.963882 40.609331 
L 346.423386 46.750023 
L 353.801898 46.439779 
L 356.261402 53.905026 
L 356.261402 46.339701 
L 358.720907 53.750957 
L 366.099419 53.302753 
L 368.558923 54.913609 
L 368.558923 53.157846 
L 371.018427 54.758916 
L 373.477931 59.65305 
L 373.477931 54.606497 
L 375.937435 61.093859 
L 375.937435 59.470029 
L 378.39694 67.136881 
L 378.39694 60.903269 
L 380.856444 76.980685 
L 380.856444 66.911665 
L 383.315948 79.400738 
L 383.315948 76.703584 
L 385.775452 81.730038 
L 385.775452 79.113581 
L 388.234956 99.0755 
L 388.234956 81.433765 
L 390.69446 98.708011 
L 390.69446 98.708011 
" style="fill:none;stroke:#cab2d6;stroke-linecap:round;"/>
   </g>
   <g id="line2d_19">
    <path clip-path="url(#peaa84654d5)" d="M 66.039915 34.030018 
L 70.047996 34.030018 
L 74.056076 34.030018 
L 78.064157 34.030018 
L 82.072238 34.030018 
L 86.080319 34.030018 
L 90.0884 34.030018 
L 94.09648 34.030018 
L 98.104561 34.030018 
L 102.112642 34.030018 
L 106.120723 34.030018 
L 110.128804 34.030018 
L 114.136884 34.030018 
L 118.144965 34.030018 
L 122.153046 34.030018 
L 126.161127 34.030018 
L 130.169208 34.030018 
L 134.177289 34.030018 
L 138.185369 34.030018 
L 142.19345 34.030018 
L 146.201531 34.030018 
L 150.209612 34.030018 
L 154.217693 34.030018 
L 158.225773 34.030018 
L 162.233854 34.030018 
L 166.241935 34.030018 
L 170.250016 34.030018 
L 174.258097 34.030018 
L 178.266177 34.030018 
L 182.274258 34.030018 
L 186.282339 34.030018 
L 190.29042 34.030018 
L 194.298501 34.030018 
L 198.306581 34.030018 
L 202.314662 34.030018 
L 206.322743 34.030018 
L 210.330824 34.030018 
L 214.338905 34.030018 
L 218.346985 34.030018 
L 222.355066 34.030018 
L 226.363147 34.030018 
L 230.371228 34.030018 
L 234.379309 34.030018 
L 238.38739 34.030018 
L 242.39547 34.030018 
L 246.403551 34.030018 
L 250.411632 34.030018 
L 254.419713 34.030018 
L 258.427794 34.030018 
L 262.435874 34.030018 
L 266.443955 34.030018 
L 270.452036 34.030018 
L 274.460117 34.030018 
L 278.468198 34.030018 
L 282.476278 34.030018 
L 286.484359 34.030018 
L 290.49244 34.030018 
L 294.500521 34.030018 
L 298.508602 34.030018 
L 302.516682 34.030018 
L 306.524763 34.030018 
L 310.532844 34.030018 
L 314.540925 34.030018 
L 318.549006 34.030018 
L 322.557086 34.030018 
L 326.565167 34.030018 
L 330.573248 34.030018 
L 334.581329 34.030018 
L 338.58941 34.030018 
L 342.597491 37.664305 
L 342.597491 34.030018 
L 346.605571 37.613118 
L 350.613652 37.563353 
L 354.621733 37.514951 
L 358.629814 37.467857 
L 362.637895 37.422019 
L 366.645975 40.637813 
L 366.645975 37.377388 
L 370.654056 40.553098 
L 374.662137 40.470527 
L 378.670218 43.452244 
L 378.670218 40.390021 
L 382.678299 51.987673 
L 382.678299 49.172882 
L 382.678299 46.290264 
L 382.678299 43.337339 
L 386.686379 59.755872 
L 386.686379 57.1573 
L 386.686379 54.498992 
L 386.686379 51.778863 
L 390.69446 59.470029 
" style="fill:none;stroke:#ff7f00;stroke-linecap:round;"/>
   </g>
   <g id="line2d_20">
    <path clip-path="url(#peaa84654d5)" d="M 66.039915 34.030018 
L 315.412247 34.030018 
L 320.117385 38.655475 
L 320.117385 34.030018 
L 324.822523 38.572877 
L 353.053354 38.133246 
L 357.758492 41.980021 
L 357.758492 38.068115 
L 362.46363 41.857714 
L 367.168769 41.739112 
L 371.873907 52.201454 
L 371.873907 41.624051 
L 376.579045 55.230027 
L 376.579045 51.945519 
L 381.284184 64.156346 
L 381.284184 54.939616 
L 385.989322 268.267879 
L 385.989322 263.249328 
L 385.989322 63.765095 
L 390.69446 267.995192 
L 390.69446 267.995192 
" style="fill:none;stroke:#fdbf6f;stroke-linecap:round;"/>
   </g>
   <g id="line2d_21">
    <path clip-path="url(#peaa84654d5)" d="M 66.039915 34.030018 
L 69.457331 34.030018 
L 72.874747 34.030018 
L 76.292164 34.030018 
L 79.70958 34.030018 
L 83.126996 34.030018 
L 86.544412 34.030018 
L 89.961829 34.030018 
L 93.379245 34.030018 
L 96.796661 34.030018 
L 100.214077 34.030018 
L 103.631494 34.030018 
L 107.04891 34.030018 
L 110.466326 34.030018 
L 113.883743 34.030018 
L 117.301159 34.030018 
L 120.718575 34.030018 
L 124.135991 34.030018 
L 127.553408 34.030018 
L 130.970824 34.030018 
L 134.38824 34.030018 
L 137.805656 34.030018 
L 141.223073 34.030018 
L 144.640489 34.030018 
L 148.057905 34.030018 
L 151.475321 34.030018 
L 154.892738 34.030018 
L 158.310154 34.030018 
L 161.72757 34.030018 
L 165.144987 34.030018 
L 168.562403 34.030018 
L 171.979819 34.030018 
L 175.397235 34.030018 
L 178.814652 34.030018 
L 182.232068 34.030018 
L 185.649484 34.030018 
L 189.0669 34.030018 
L 192.484317 34.030018 
L 195.901733 34.030018 
L 199.319149 34.030018 
L 202.736565 34.030018 
L 206.153982 34.030018 
L 209.571398 34.030018 
L 212.988814 34.030018 
L 216.406231 34.030018 
L 219.823647 34.030018 
L 223.241063 34.030018 
L 226.658479 34.030018 
L 230.075896 34.030018 
L 233.493312 34.030018 
L 236.910728 34.030018 
L 240.328144 34.030018 
L 243.745561 34.030018 
L 247.162977 34.030018 
L 250.580393 34.030018 
L 253.99781 34.030018 
L 257.415226 34.030018 
L 260.832642 34.030018 
L 264.250058 34.030018 
L 267.667475 34.030018 
L 271.084891 34.030018 
L 274.502307 34.030018 
L 277.919723 34.030018 
L 281.33714 34.030018 
L 284.754556 34.030018 
L 288.171972 34.030018 
L 291.589388 34.030018 
L 295.006805 34.030018 
L 298.424221 34.030018 
L 301.841637 34.030018 
L 305.259054 34.030018 
L 308.67647 34.030018 
L 312.093886 34.030018 
L 315.511302 34.030018 
L 318.928719 34.030018 
L 322.346135 34.030018 
L 325.763551 34.030018 
L 329.180967 34.030018 
L 332.598384 34.030018 
L 336.0158 34.030018 
L 339.433216 34.030018 
L 342.850632 34.030018 
L 346.268049 34.030018 
L 349.685465 34.030018 
L 353.102881 34.030018 
L 356.520298 34.030018 
L 359.937714 34.030018 
L 363.35513 34.030018 
L 366.772546 34.030018 
L 370.189963 34.030018 
L 373.607379 34.030018 
L 377.024795 39.500988 
L 377.024795 36.795237 
L 377.024795 34.030018 
L 380.442211 42.063706 
L 380.442211 39.442786 
L 383.859628 51.838026 
L 383.859628 49.448206 
L 383.859628 47.009615 
L 383.859628 44.520744 
L 383.859628 41.980021 
L 387.277044 84.040295 
L 387.277044 82.278314 
L 387.277044 80.48569 
L 387.277044 78.661616 
L 387.277044 76.805257 
L 387.277044 74.91575 
L 387.277044 72.992197 
L 387.277044 71.03367 
L 387.277044 69.039207 
L 387.277044 67.00781 
L 387.277044 64.938442 
L 387.277044 62.83003 
L 387.277044 60.681458 
L 387.277044 58.491567 
L 387.277044 56.259154 
L 387.277044 53.982968 
L 387.277044 51.661709 
L 390.69446 83.61648 
" style="fill:none;stroke:#e31a1c;stroke-linecap:round;"/>
   </g>
   <g id="line2d_22">
    <path clip-path="url(#peaa84654d5)" d="M 66.039915 34.030018 
L 68.768104 34.030018 
L 71.496294 34.030018 
L 74.224483 34.030018 
L 76.952673 34.030018 
L 79.680862 34.030018 
L 82.409052 34.030018 
L 85.137241 34.030018 
L 87.86543 34.030018 
L 90.59362 34.030018 
L 93.321809 34.030018 
L 96.049999 34.030018 
L 98.778188 34.030018 
L 101.506378 34.030018 
L 104.234567 34.030018 
L 106.962757 34.030018 
L 109.690946 34.030018 
L 112.419136 34.030018 
L 115.147325 34.030018 
L 117.875514 34.030018 
L 120.603704 34.030018 
L 123.331893 34.030018 
L 126.060083 34.030018 
L 128.788272 34.030018 
L 131.516462 34.030018 
L 134.244651 34.030018 
L 136.972841 34.030018 
L 139.70103 34.030018 
L 142.42922 34.030018 
L 145.157409 34.030018 
L 147.885599 34.030018 
L 150.613788 34.030018 
L 153.341977 34.030018 
L 156.070167 34.030018 
L 158.798356 34.030018 
L 161.526546 34.030018 
L 164.254735 34.030018 
L 166.982925 34.030018 
L 169.711114 34.030018 
L 172.439304 34.030018 
L 175.167493 34.030018 
L 177.895683 34.030018 
L 180.623872 34.030018 
L 183.352061 34.030018 
L 186.080251 34.030018 
L 188.80844 34.030018 
L 191.53663 34.030018 
L 194.264819 34.030018 
L 196.993009 34.030018 
L 199.721198 34.030018 
L 202.449388 34.030018 
L 205.177577 34.030018 
L 207.905767 34.030018 
L 210.633956 34.030018 
L 213.362145 34.030018 
L 216.090335 34.030018 
L 218.818524 34.030018 
L 221.546714 34.030018 
L 224.274903 34.030018 
L 227.003093 34.030018 
L 229.731282 34.030018 
L 232.459472 34.030018 
L 235.187661 34.030018 
L 237.915851 34.030018 
L 240.64404 34.030018 
L 243.37223 34.030018 
L 246.100419 34.030018 
L 248.828608 34.030018 
L 251.556798 34.030018 
L 254.284987 34.030018 
L 257.013177 34.030018 
L 259.741366 34.030018 
L 262.469556 34.030018 
L 265.197745 34.030018 
L 267.925935 34.030018 
L 270.654124 34.030018 
L 273.382314 34.030018 
L 276.110503 34.030018 
L 278.838692 34.030018 
L 281.566882 34.030018 
L 284.295071 34.030018 
L 287.023261 34.030018 
L 289.75145 34.030018 
L 292.47964 34.030018 
L 295.207829 34.030018 
L 297.936019 34.030018 
L 300.664208 34.030018 
L 303.392398 34.030018 
L 306.120587 34.030018 
L 308.848776 34.030018 
L 311.576966 34.030018 
L 314.305155 34.030018 
L 317.033345 34.030018 
L 319.761534 34.030018 
L 322.489724 34.030018 
L 325.217913 34.030018 
L 327.946103 34.030018 
L 330.674292 34.030018 
L 333.402482 34.030018 
L 336.130671 34.030018 
L 338.858861 34.030018 
L 341.58705 34.030018 
L 344.315239 34.030018 
L 347.043429 34.030018 
L 349.771618 34.030018 
L 352.499808 34.030018 
L 355.227997 34.030018 
L 357.956187 34.030018 
L 360.684376 34.030018 
L 363.412566 34.030018 
L 366.140755 34.030018 
L 368.868945 34.030018 
L 371.597134 34.030018 
L 374.325323 34.030018 
L 377.053513 34.030018 
L 379.781702 34.030018 
L 382.509892 34.030018 
L 385.238081 34.030018 
L 387.966271 34.030018 
L 390.69446 34.030018 
" style="fill:none;stroke:#fb9a99;stroke-linecap:round;"/>
   </g>
   <g id="line2d_23">
    <path clip-path="url(#peaa84654d5)" d="M 66.039915 34.030018 
L 296.439915 34.030018 
L 299.930824 37.771196 
L 299.930824 34.030018 
L 303.421733 37.716976 
L 306.912642 41.196218 
L 306.912642 37.664305 
L 310.403551 41.096688 
L 317.385369 40.905697 
L 320.876278 44.072128 
L 320.876278 40.814021 
L 324.367188 43.941711 
L 331.349006 43.690782 
L 334.839915 46.592986 
L 334.839915 43.570022 
L 338.330824 46.439779 
L 345.312642 46.144309 
L 348.803551 48.820722 
L 348.803551 46.001788 
L 355.785369 51.180587 
L 355.785369 48.48457 
L 359.276278 50.990025 
L 362.767187 50.803651 
L 366.258097 62.879515 
L 366.258097 50.621329 
L 369.749006 67.102032 
L 369.749006 62.585132 
L 373.239915 73.168496 
L 373.239915 66.774586 
L 376.730824 82.597311 
L 376.730824 72.795749 
L 380.221733 91.050732 
L 380.221733 82.159768 
L 383.712642 176.592397 
L 383.712642 173.824136 
L 383.712642 90.563375 
L 387.203551 226.83852 
L 387.203551 222.501083 
L 387.203551 175.907001 
L 390.69446 226.332461 
L 390.69446 226.332461 
" style="fill:none;stroke:#33a02c;stroke-linecap:round;"/>
   </g>
   <g id="line2d_24">
    <path clip-path="url(#peaa84654d5)" d="M 66.039915 34.030018 
L 68.616538 161.230072 
L 68.616538 34.030018 
L 71.193162 118.830054 
L 73.769785 97.630045 
L 76.346408 84.910039 
L 78.923032 76.430036 
L 81.499655 70.37289 
L 84.076278 65.830031 
L 86.652902 62.296697 
L 89.229525 59.470029 
L 91.806149 57.1573 
L 94.382772 55.230027 
L 96.959395 53.599257 
L 99.536019 52.201454 
L 102.112642 50.990025 
L 104.689265 49.930025 
L 109.842512 48.163357 
L 114.995759 46.750023 
L 120.149006 45.593659 
L 125.302252 44.630022 
L 133.032123 43.452244 
L 140.761993 42.510022 
L 151.068486 41.512374 
L 163.951603 40.553098 
L 179.411343 39.683354 
L 197.447707 38.922328 
L 220.637317 38.200512 
L 241.250304 37.716976 
L 243.826928 41.196218 
L 243.826928 37.664305 
L 246.403551 41.096688 
L 272.169785 40.234899 
L 303.089265 39.442786 
L 310.819136 39.275381 
L 313.395759 41.739112 
L 313.395759 39.221857 
L 315.972382 41.662021 
L 349.468486 40.784003 
L 359.77498 40.553098 
L 362.351603 42.581282 
L 362.351603 40.497817 
L 364.928226 44.542419 
L 364.928226 42.510022 
L 367.50485 44.456252 
L 370.081473 44.371486 
L 372.658097 46.241223 
L 372.658097 44.288087 
L 375.23472 48.052071 
L 375.23472 46.144309 
L 377.811343 47.942524 
L 385.541213 47.623917 
L 388.117837 51.116592 
L 388.117837 47.520933 
L 390.69446 50.990025 
L 390.69446 50.990025 
" style="fill:none;stroke:#b2df8a;stroke-linecap:round;"/>
   </g>
   <g id="line2d_25">
    <path clip-path="url(#peaa84654d5)" d="M 66.039915 34.030018 
L 305.126596 34.030018 
L 307.643297 36.6527 
L 307.643297 34.030018 
L 310.159999 36.625937 
L 363.010739 36.167834 
L 365.527441 38.234978 
L 365.527441 36.150019 
L 368.044143 38.200512 
L 383.144355 38.00502 
L 385.661056 39.90079 
L 385.661056 37.974206 
L 388.177758 39.855975 
L 390.69446 39.811839 
L 390.69446 39.811839 
" style="fill:none;stroke:#a6cee3;stroke-linecap:round;"/>
   </g>
   <g id="line2d_26">
    <path clip-path="url(#peaa84654d5)" d="M 66.039915 34.030018 
L 68.99132 34.030018 
L 71.942725 34.030018 
L 74.89413 34.030018 
L 77.845535 34.030018 
L 80.79694 34.030018 
L 83.748345 34.030018 
L 86.699749 34.030018 
L 89.651154 34.030018 
L 92.602559 34.030018 
L 95.553964 34.030018 
L 98.505369 34.030018 
L 101.456774 34.030018 
L 104.408179 34.030018 
L 107.359584 34.030018 
L 110.310989 34.030018 
L 113.262394 34.030018 
L 116.213799 34.030018 
L 119.165204 34.030018 
L 122.116609 34.030018 
L 125.068014 34.030018 
L 128.019419 34.030018 
L 130.970824 34.030018 
L 133.922229 34.030018 
L 136.873634 34.030018 
L 139.825039 34.030018 
L 142.776444 34.030018 
L 145.727849 34.030018 
L 148.679254 34.030018 
L 151.630659 34.030018 
L 154.582064 34.030018 
L 157.533468 34.030018 
L 160.484873 34.030018 
L 163.436278 34.030018 
L 166.387683 34.030018 
L 169.339088 34.030018 
L 172.290493 34.030018 
L 175.241898 34.030018 
L 178.193303 34.030018 
L 181.144708 34.030018 
L 184.096113 34.030018 
L 187.047518 34.030018 
L 189.998923 34.030018 
L 192.950328 34.030018 
L 195.901733 34.030018 
L 198.853138 34.030018 
L 201.804543 34.030018 
L 204.755948 34.030018 
L 207.707353 34.030018 
L 210.658758 34.030018 
L 213.610163 34.030018 
L 216.561568 34.030018 
L 219.512973 34.030018 
L 222.464378 34.030018 
L 225.415783 34.030018 
L 228.367188 34.030018 
L 231.318592 34.030018 
L 234.269997 34.030018 
L 237.221402 34.030018 
L 240.172807 34.030018 
L 243.124212 34.030018 
L 246.075617 34.030018 
L 249.027022 34.030018 
L 251.978427 34.030018 
L 254.929832 34.030018 
L 257.881237 34.030018 
L 260.832642 34.030018 
L 263.784047 34.030018 
L 266.735452 34.030018 
L 269.686857 34.030018 
L 272.638262 34.030018 
L 275.589667 34.030018 
L 278.541072 34.030018 
L 281.492477 34.030018 
L 284.443882 34.030018 
L 287.395287 34.030018 
L 290.346692 34.030018 
L 293.298097 34.030018 
L 296.249502 34.030018 
L 299.200907 34.030018 
L 302.152311 34.030018 
L 305.103716 34.030018 
L 308.055121 34.030018 
L 311.006526 34.030018 
L 313.957931 34.030018 
L 316.909336 34.030018 
L 319.860741 34.030018 
L 322.812146 34.030018 
L 325.763551 34.030018 
L 328.714956 34.030018 
L 331.666361 34.030018 
L 334.617766 34.030018 
L 337.569171 34.030018 
L 340.520576 34.030018 
L 343.471981 34.030018 
L 346.423386 34.030018 
L 349.374791 34.030018 
L 352.326196 34.030018 
L 355.277601 34.030018 
L 358.229006 34.030018 
L 361.180411 34.030018 
L 364.131816 34.030018 
L 367.083221 34.030018 
L 370.034626 34.030018 
L 372.98603 34.030018 
L 375.937435 34.030018 
L 378.88884 34.030018 
L 381.840245 34.030018 
L 384.79165 34.030018 
L 387.743055 34.030018 
L 390.69446 34.030018 
" style="fill:none;stroke:#1f78b4;stroke-linecap:round;"/>
   </g>
   <g id="line2d_27"/>
   <g id="line2d_28"/>
   <g id="line2d_29"/>
   <g id="line2d_30"/>
   <g id="line2d_31"/>
   <g id="line2d_32"/>
   <g id="line2d_33"/>
   <g id="line2d_34"/>
   <g id="line2d_35"/>
   <g id="line2d_36"/>
   <g id="line2d_37"/>
   <g id="line2d_38"/>
   <g id="line2d_39"/>
   <g id="line2d_40"/>
   <g id="patch_3">
    <path d="M 49.807187 288.430125 
L 49.807187 22.318125 
" style="fill:none;stroke:#cccccc;stroke-linecap:square;stroke-linejoin:miter;stroke-width:1.25;"/>
   </g>
   <g id="patch_4">
    <path d="M 406.927188 288.430125 
L 406.927188 22.318125 
" style="fill:none;stroke:#cccccc;stroke-linecap:square;stroke-linejoin:miter;stroke-width:1.25;"/>
   </g>
   <g id="patch_5">
    <path d="M 49.807187 288.430125 
L 406.927188 288.430125 
" style="fill:none;stroke:#cccccc;stroke-linecap:square;stroke-linejoin:miter;stroke-width:1.25;"/>
   </g>
   <g id="patch_6">
    <path d="M 49.807187 22.318125 
L 406.927188 22.318125 
" style="fill:none;stroke:#cccccc;stroke-linecap:square;stroke-linejoin:miter;stroke-width:1.25;"/>
   </g>
   <g id="text_15">
    <!-- Precision recall curve for each class -->
    <defs>
     <path id="DejaVuSans-32"/>
     <path d="M 8.5 21.578125 
L 8.5 54.6875 
L 17.484375 54.6875 
L 17.484375 21.921875 
Q 17.484375 14.15625 20.5 10.265625 
Q 23.53125 6.390625 29.59375 6.390625 
Q 36.859375 6.390625 41.078125 11.03125 
Q 45.3125 15.671875 45.3125 23.6875 
L 45.3125 54.6875 
L 54.296875 54.6875 
L 54.296875 0 
L 45.3125 0 
L 45.3125 8.40625 
Q 42.046875 3.421875 37.71875 1 
Q 33.40625 -1.421875 27.6875 -1.421875 
Q 18.265625 -1.421875 13.375 4.4375 
Q 8.5 10.296875 8.5 21.578125 
z
M 31.109375 56 
z
" id="DejaVuSans-117"/>
     <path d="M 2.984375 54.6875 
L 12.5 54.6875 
L 29.59375 8.796875 
L 46.6875 54.6875 
L 56.203125 54.6875 
L 35.6875 0 
L 23.484375 0 
z
" id="DejaVuSans-118"/>
     <path d="M 37.109375 75.984375 
L 37.109375 68.5 
L 28.515625 68.5 
Q 23.6875 68.5 21.796875 66.546875 
Q 19.921875 64.59375 19.921875 59.515625 
L 19.921875 54.6875 
L 34.71875 54.6875 
L 34.71875 47.703125 
L 19.921875 47.703125 
L 19.921875 0 
L 10.890625 0 
L 10.890625 47.703125 
L 2.296875 47.703125 
L 2.296875 54.6875 
L 10.890625 54.6875 
L 10.890625 58.5 
Q 10.890625 67.625 15.140625 71.796875 
Q 19.390625 75.984375 28.609375 75.984375 
z
" id="DejaVuSans-102"/>
     <path d="M 54.890625 33.015625 
L 54.890625 0 
L 45.90625 0 
L 45.90625 32.71875 
Q 45.90625 40.484375 42.875 44.328125 
Q 39.84375 48.1875 33.796875 48.1875 
Q 26.515625 48.1875 22.3125 43.546875 
Q 18.109375 38.921875 18.109375 30.90625 
L 18.109375 0 
L 9.078125 0 
L 9.078125 75.984375 
L 18.109375 75.984375 
L 18.109375 46.1875 
Q 21.34375 51.125 25.703125 53.5625 
Q 30.078125 56 35.796875 56 
Q 45.21875 56 50.046875 50.171875 
Q 54.890625 44.34375 54.890625 33.015625 
z
" id="DejaVuSans-104"/>
    </defs>
    <g style="fill:#262626;" transform="translate(120.935313 16.318125)scale(0.12 -0.12)">
     <use xlink:href="#DejaVuSans-80"/>
     <use x="60.287109" xlink:href="#DejaVuSans-114"/>
     <use x="101.369141" xlink:href="#DejaVuSans-101"/>
     <use x="162.892578" xlink:href="#DejaVuSans-99"/>
     <use x="217.873047" xlink:href="#DejaVuSans-105"/>
     <use x="245.65625" xlink:href="#DejaVuSans-115"/>
     <use x="297.755859" xlink:href="#DejaVuSans-105"/>
     <use x="325.539062" xlink:href="#DejaVuSans-111"/>
     <use x="386.720703" xlink:href="#DejaVuSans-110"/>
     <use x="450.099609" xlink:href="#DejaVuSans-32"/>
     <use x="481.886719" xlink:href="#DejaVuSans-114"/>
     <use x="522.96875" xlink:href="#DejaVuSans-101"/>
     <use x="584.492188" xlink:href="#DejaVuSans-99"/>
     <use x="639.472656" xlink:href="#DejaVuSans-97"/>
     <use x="700.751953" xlink:href="#DejaVuSans-108"/>
     <use x="728.535156" xlink:href="#DejaVuSans-108"/>
     <use x="756.318359" xlink:href="#DejaVuSans-32"/>
     <use x="788.105469" xlink:href="#DejaVuSans-99"/>
     <use x="843.085938" xlink:href="#DejaVuSans-117"/>
     <use x="906.464844" xlink:href="#DejaVuSans-114"/>
     <use x="947.578125" xlink:href="#DejaVuSans-118"/>
     <use x="1006.757812" xlink:href="#DejaVuSans-101"/>
     <use x="1068.28125" xlink:href="#DejaVuSans-32"/>
     <use x="1100.068359" xlink:href="#DejaVuSans-102"/>
     <use x="1135.273438" xlink:href="#DejaVuSans-111"/>
     <use x="1196.455078" xlink:href="#DejaVuSans-114"/>
     <use x="1237.568359" xlink:href="#DejaVuSans-32"/>
     <use x="1269.355469" xlink:href="#DejaVuSans-101"/>
     <use x="1330.878906" xlink:href="#DejaVuSans-97"/>
     <use x="1392.158203" xlink:href="#DejaVuSans-99"/>
     <use x="1447.138672" xlink:href="#DejaVuSans-104"/>
     <use x="1510.517578" xlink:href="#DejaVuSans-32"/>
     <use x="1542.304688" xlink:href="#DejaVuSans-99"/>
     <use x="1597.285156" xlink:href="#DejaVuSans-108"/>
     <use x="1625.068359" xlink:href="#DejaVuSans-97"/>
     <use x="1686.347656" xlink:href="#DejaVuSans-115"/>
     <use x="1738.447266" xlink:href="#DejaVuSans-115"/>
    </g>
   </g>
   <g id="legend_1">
    <g id="patch_7">
     <path d="M 426.983187 268.775 
L 502.175063 268.775 
Q 504.375063 268.775 504.375063 266.575 
L 504.375063 24.518125 
Q 504.375063 22.318125 502.175063 22.318125 
L 426.983187 22.318125 
Q 424.783187 22.318125 424.783187 24.518125 
L 424.783187 266.575 
Q 424.783187 268.775 426.983187 268.775 
z
" style="fill:#ffffff;opacity:0.8;stroke:#cccccc;stroke-linejoin:miter;"/>
    </g>
    <g id="text_16">
     <!-- Class -->
     <defs>
      <path d="M 64.40625 67.28125 
L 64.40625 56.890625 
Q 59.421875 61.53125 53.78125 63.8125 
Q 48.140625 66.109375 41.796875 66.109375 
Q 29.296875 66.109375 22.65625 58.46875 
Q 16.015625 50.828125 16.015625 36.375 
Q 16.015625 21.96875 22.65625 14.328125 
Q 29.296875 6.6875 41.796875 6.6875 
Q 48.140625 6.6875 53.78125 8.984375 
Q 59.421875 11.28125 64.40625 15.921875 
L 64.40625 5.609375 
Q 59.234375 2.09375 53.4375 0.328125 
Q 47.65625 -1.421875 41.21875 -1.421875 
Q 24.65625 -1.421875 15.125 8.703125 
Q 5.609375 18.84375 5.609375 36.375 
Q 5.609375 53.953125 15.125 64.078125 
Q 24.65625 74.21875 41.21875 74.21875 
Q 47.75 74.21875 53.53125 72.484375 
Q 59.328125 70.75 64.40625 67.28125 
z
" id="DejaVuSans-67"/>
     </defs>
     <g style="fill:#262626;" transform="translate(448.794437 35.83625)scale(0.12 -0.12)">
      <use xlink:href="#DejaVuSans-67"/>
      <use x="69.824219" xlink:href="#DejaVuSans-108"/>
      <use x="97.607422" xlink:href="#DejaVuSans-97"/>
      <use x="158.886719" xlink:href="#DejaVuSans-115"/>
      <use x="210.986328" xlink:href="#DejaVuSans-115"/>
     </g>
    </g>
    <g id="line2d_41">
     <path d="M 429.183187 48.340156 
L 451.183187 48.340156 
" style="fill:none;stroke:#000000;stroke-linecap:round;stroke-width:1.5;"/>
    </g>
    <g id="line2d_42"/>
    <g id="text_17">
     <!-- Normal -->
     <defs>
      <path d="M 9.8125 72.90625 
L 23.09375 72.90625 
L 55.421875 11.921875 
L 55.421875 72.90625 
L 64.984375 72.90625 
L 64.984375 0 
L 51.703125 0 
L 19.390625 60.984375 
L 19.390625 0 
L 9.8125 0 
z
" id="DejaVuSans-78"/>
      <path d="M 52 44.1875 
Q 55.375 50.25 60.0625 53.125 
Q 64.75 56 71.09375 56 
Q 79.640625 56 84.28125 50.015625 
Q 88.921875 44.046875 88.921875 33.015625 
L 88.921875 0 
L 79.890625 0 
L 79.890625 32.71875 
Q 79.890625 40.578125 77.09375 44.375 
Q 74.3125 48.1875 68.609375 48.1875 
Q 61.625 48.1875 57.5625 43.546875 
Q 53.515625 38.921875 53.515625 30.90625 
L 53.515625 0 
L 44.484375 0 
L 44.484375 32.71875 
Q 44.484375 40.625 41.703125 44.40625 
Q 38.921875 48.1875 33.109375 48.1875 
Q 26.21875 48.1875 22.15625 43.53125 
Q 18.109375 38.875 18.109375 30.90625 
L 18.109375 0 
L 9.078125 0 
L 9.078125 54.6875 
L 18.109375 54.6875 
L 18.109375 46.1875 
Q 21.1875 51.21875 25.484375 53.609375 
Q 29.78125 56 35.6875 56 
Q 41.65625 56 45.828125 52.96875 
Q 50 49.953125 52 44.1875 
z
" id="DejaVuSans-109"/>
     </defs>
     <g style="fill:#262626;" transform="translate(459.983187 52.190156)scale(0.11 -0.11)">
      <use xlink:href="#DejaVuSans-78"/>
      <use x="74.804688" xlink:href="#DejaVuSans-111"/>
      <use x="135.986328" xlink:href="#DejaVuSans-114"/>
      <use x="177.083984" xlink:href="#DejaVuSans-109"/>
      <use x="274.496094" xlink:href="#DejaVuSans-97"/>
      <use x="335.775391" xlink:href="#DejaVuSans-108"/>
     </g>
    </g>
    <g id="line2d_43">
     <path d="M 429.183187 64.486094 
L 451.183187 64.486094 
" style="fill:none;stroke:#6e6e6e;stroke-linecap:round;stroke-width:1.5;"/>
    </g>
    <g id="line2d_44"/>
    <g id="text_18">
     <!-- BLCA -->
     <defs>
      <path d="M 19.671875 34.8125 
L 19.671875 8.109375 
L 35.5 8.109375 
Q 43.453125 8.109375 47.28125 11.40625 
Q 51.125 14.703125 51.125 21.484375 
Q 51.125 28.328125 47.28125 31.5625 
Q 43.453125 34.8125 35.5 34.8125 
z
M 19.671875 64.796875 
L 19.671875 42.828125 
L 34.28125 42.828125 
Q 41.5 42.828125 45.03125 45.53125 
Q 48.578125 48.25 48.578125 53.8125 
Q 48.578125 59.328125 45.03125 62.0625 
Q 41.5 64.796875 34.28125 64.796875 
z
M 9.8125 72.90625 
L 35.015625 72.90625 
Q 46.296875 72.90625 52.390625 68.21875 
Q 58.5 63.53125 58.5 54.890625 
Q 58.5 48.1875 55.375 44.234375 
Q 52.25 40.28125 46.1875 39.3125 
Q 53.46875 37.75 57.5 32.78125 
Q 61.53125 27.828125 61.53125 20.40625 
Q 61.53125 10.640625 54.890625 5.3125 
Q 48.25 0 35.984375 0 
L 9.8125 0 
z
" id="DejaVuSans-66"/>
      <path d="M 9.8125 72.90625 
L 19.671875 72.90625 
L 19.671875 8.296875 
L 55.171875 8.296875 
L 55.171875 0 
L 9.8125 0 
z
" id="DejaVuSans-76"/>
      <path d="M 34.1875 63.1875 
L 20.796875 26.90625 
L 47.609375 26.90625 
z
M 28.609375 72.90625 
L 39.796875 72.90625 
L 67.578125 0 
L 57.328125 0 
L 50.6875 18.703125 
L 17.828125 18.703125 
L 11.1875 0 
L 0.78125 0 
z
" id="DejaVuSans-65"/>
     </defs>
     <g style="fill:#262626;" transform="translate(459.983187 68.336094)scale(0.11 -0.11)">
      <use xlink:href="#DejaVuSans-66"/>
      <use x="68.603516" xlink:href="#DejaVuSans-76"/>
      <use x="124.316406" xlink:href="#DejaVuSans-67"/>
      <use x="194.140625" xlink:href="#DejaVuSans-65"/>
     </g>
    </g>
    <g id="line2d_45">
     <path d="M 429.183187 80.632031 
L 451.183187 80.632031 
" style="fill:none;stroke:#b15928;stroke-linecap:round;stroke-width:1.5;"/>
    </g>
    <g id="line2d_46"/>
    <g id="text_19">
     <!-- BRCA -->
     <g style="fill:#262626;" transform="translate(459.983187 84.482031)scale(0.11 -0.11)">
      <use xlink:href="#DejaVuSans-66"/>
      <use x="68.603516" xlink:href="#DejaVuSans-82"/>
      <use x="138.007812" xlink:href="#DejaVuSans-67"/>
      <use x="207.832031" xlink:href="#DejaVuSans-65"/>
     </g>
    </g>
    <g id="line2d_47">
     <path d="M 429.183187 96.777969 
L 451.183187 96.777969 
" style="fill:none;stroke:#ffff99;stroke-linecap:round;stroke-width:1.5;"/>
    </g>
    <g id="line2d_48"/>
    <g id="text_20">
     <!-- COAD -->
     <defs>
      <path d="M 39.40625 66.21875 
Q 28.65625 66.21875 22.328125 58.203125 
Q 16.015625 50.203125 16.015625 36.375 
Q 16.015625 22.609375 22.328125 14.59375 
Q 28.65625 6.59375 39.40625 6.59375 
Q 50.140625 6.59375 56.421875 14.59375 
Q 62.703125 22.609375 62.703125 36.375 
Q 62.703125 50.203125 56.421875 58.203125 
Q 50.140625 66.21875 39.40625 66.21875 
z
M 39.40625 74.21875 
Q 54.734375 74.21875 63.90625 63.9375 
Q 73.09375 53.65625 73.09375 36.375 
Q 73.09375 19.140625 63.90625 8.859375 
Q 54.734375 -1.421875 39.40625 -1.421875 
Q 24.03125 -1.421875 14.8125 8.828125 
Q 5.609375 19.09375 5.609375 36.375 
Q 5.609375 53.65625 14.8125 63.9375 
Q 24.03125 74.21875 39.40625 74.21875 
z
" id="DejaVuSans-79"/>
      <path d="M 19.671875 64.796875 
L 19.671875 8.109375 
L 31.59375 8.109375 
Q 46.6875 8.109375 53.6875 14.9375 
Q 60.6875 21.78125 60.6875 36.53125 
Q 60.6875 51.171875 53.6875 57.984375 
Q 46.6875 64.796875 31.59375 64.796875 
z
M 9.8125 72.90625 
L 30.078125 72.90625 
Q 51.265625 72.90625 61.171875 64.09375 
Q 71.09375 55.28125 71.09375 36.53125 
Q 71.09375 17.671875 61.125 8.828125 
Q 51.171875 0 30.078125 0 
L 9.8125 0 
z
" id="DejaVuSans-68"/>
     </defs>
     <g style="fill:#262626;" transform="translate(459.983187 100.627969)scale(0.11 -0.11)">
      <use xlink:href="#DejaVuSans-67"/>
      <use x="69.824219" xlink:href="#DejaVuSans-79"/>
      <use x="148.519531" xlink:href="#DejaVuSans-65"/>
      <use x="216.927734" xlink:href="#DejaVuSans-68"/>
     </g>
    </g>
    <g id="line2d_49">
     <path d="M 429.183187 112.923906 
L 451.183187 112.923906 
" style="fill:none;stroke:#6a3d9a;stroke-linecap:round;stroke-width:1.5;"/>
    </g>
    <g id="line2d_50"/>
    <g id="text_21">
     <!-- ESCA -->
     <defs>
      <path d="M 9.8125 72.90625 
L 55.90625 72.90625 
L 55.90625 64.59375 
L 19.671875 64.59375 
L 19.671875 43.015625 
L 54.390625 43.015625 
L 54.390625 34.71875 
L 19.671875 34.71875 
L 19.671875 8.296875 
L 56.78125 8.296875 
L 56.78125 0 
L 9.8125 0 
z
" id="DejaVuSans-69"/>
      <path d="M 53.515625 70.515625 
L 53.515625 60.890625 
Q 47.90625 63.578125 42.921875 64.890625 
Q 37.9375 66.21875 33.296875 66.21875 
Q 25.25 66.21875 20.875 63.09375 
Q 16.5 59.96875 16.5 54.203125 
Q 16.5 49.359375 19.40625 46.890625 
Q 22.3125 44.4375 30.421875 42.921875 
L 36.375 41.703125 
Q 47.40625 39.59375 52.65625 34.296875 
Q 57.90625 29 57.90625 20.125 
Q 57.90625 9.515625 50.796875 4.046875 
Q 43.703125 -1.421875 29.984375 -1.421875 
Q 24.8125 -1.421875 18.96875 -0.25 
Q 13.140625 0.921875 6.890625 3.21875 
L 6.890625 13.375 
Q 12.890625 10.015625 18.65625 8.296875 
Q 24.421875 6.59375 29.984375 6.59375 
Q 38.421875 6.59375 43.015625 9.90625 
Q 47.609375 13.234375 47.609375 19.390625 
Q 47.609375 24.75 44.3125 27.78125 
Q 41.015625 30.8125 33.5 32.328125 
L 27.484375 33.5 
Q 16.453125 35.6875 11.515625 40.375 
Q 6.59375 45.0625 6.59375 53.421875 
Q 6.59375 63.09375 13.40625 68.65625 
Q 20.21875 74.21875 32.171875 74.21875 
Q 37.3125 74.21875 42.625 73.28125 
Q 47.953125 72.359375 53.515625 70.515625 
z
" id="DejaVuSans-83"/>
     </defs>
     <g style="fill:#262626;" transform="translate(459.983187 116.773906)scale(0.11 -0.11)">
      <use xlink:href="#DejaVuSans-69"/>
      <use x="63.183594" xlink:href="#DejaVuSans-83"/>
      <use x="126.660156" xlink:href="#DejaVuSans-67"/>
      <use x="196.484375" xlink:href="#DejaVuSans-65"/>
     </g>
    </g>
    <g id="line2d_51">
     <path d="M 429.183187 129.069844 
L 451.183187 129.069844 
" style="fill:none;stroke:#cab2d6;stroke-linecap:round;stroke-width:1.5;"/>
    </g>
    <g id="line2d_52"/>
    <g id="text_22">
     <!-- HNSC -->
     <defs>
      <path d="M 9.8125 72.90625 
L 19.671875 72.90625 
L 19.671875 43.015625 
L 55.515625 43.015625 
L 55.515625 72.90625 
L 65.375 72.90625 
L 65.375 0 
L 55.515625 0 
L 55.515625 34.71875 
L 19.671875 34.71875 
L 19.671875 0 
L 9.8125 0 
z
" id="DejaVuSans-72"/>
     </defs>
     <g style="fill:#262626;" transform="translate(459.983187 132.919844)scale(0.11 -0.11)">
      <use xlink:href="#DejaVuSans-72"/>
      <use x="75.195312" xlink:href="#DejaVuSans-78"/>
      <use x="150" xlink:href="#DejaVuSans-83"/>
      <use x="213.476562" xlink:href="#DejaVuSans-67"/>
     </g>
    </g>
    <g id="line2d_53">
     <path d="M 429.183187 145.215781 
L 451.183187 145.215781 
" style="fill:none;stroke:#ff7f00;stroke-linecap:round;stroke-width:1.5;"/>
    </g>
    <g id="line2d_54"/>
    <g id="text_23">
     <!-- KIRC -->
     <defs>
      <path d="M 9.8125 72.90625 
L 19.671875 72.90625 
L 19.671875 42.09375 
L 52.390625 72.90625 
L 65.09375 72.90625 
L 28.90625 38.921875 
L 67.671875 0 
L 54.6875 0 
L 19.671875 35.109375 
L 19.671875 0 
L 9.8125 0 
z
" id="DejaVuSans-75"/>
      <path d="M 9.8125 72.90625 
L 19.671875 72.90625 
L 19.671875 0 
L 9.8125 0 
z
" id="DejaVuSans-73"/>
     </defs>
     <g style="fill:#262626;" transform="translate(459.983187 149.065781)scale(0.11 -0.11)">
      <use xlink:href="#DejaVuSans-75"/>
      <use x="65.576172" xlink:href="#DejaVuSans-73"/>
      <use x="95.068359" xlink:href="#DejaVuSans-82"/>
      <use x="164.472656" xlink:href="#DejaVuSans-67"/>
     </g>
    </g>
    <g id="line2d_55">
     <path d="M 429.183187 161.361719 
L 451.183187 161.361719 
" style="fill:none;stroke:#fdbf6f;stroke-linecap:round;stroke-width:1.5;"/>
    </g>
    <g id="line2d_56"/>
    <g id="text_24">
     <!-- KIRP -->
     <g style="fill:#262626;" transform="translate(459.983187 165.211719)scale(0.11 -0.11)">
      <use xlink:href="#DejaVuSans-75"/>
      <use x="65.576172" xlink:href="#DejaVuSans-73"/>
      <use x="95.068359" xlink:href="#DejaVuSans-82"/>
      <use x="164.550781" xlink:href="#DejaVuSans-80"/>
     </g>
    </g>
    <g id="line2d_57">
     <path d="M 429.183187 177.507656 
L 451.183187 177.507656 
" style="fill:none;stroke:#e31a1c;stroke-linecap:round;stroke-width:1.5;"/>
    </g>
    <g id="line2d_58"/>
    <g id="text_25">
     <!-- LIHC -->
     <g style="fill:#262626;" transform="translate(459.983187 181.357656)scale(0.11 -0.11)">
      <use xlink:href="#DejaVuSans-76"/>
      <use x="55.712891" xlink:href="#DejaVuSans-73"/>
      <use x="85.205078" xlink:href="#DejaVuSans-72"/>
      <use x="160.400391" xlink:href="#DejaVuSans-67"/>
     </g>
    </g>
    <g id="line2d_59">
     <path d="M 429.183187 193.653594 
L 451.183187 193.653594 
" style="fill:none;stroke:#fb9a99;stroke-linecap:round;stroke-width:1.5;"/>
    </g>
    <g id="line2d_60"/>
    <g id="text_26">
     <!-- LUAD -->
     <defs>
      <path d="M 8.6875 72.90625 
L 18.609375 72.90625 
L 18.609375 28.609375 
Q 18.609375 16.890625 22.84375 11.734375 
Q 27.09375 6.59375 36.625 6.59375 
Q 46.09375 6.59375 50.34375 11.734375 
Q 54.59375 16.890625 54.59375 28.609375 
L 54.59375 72.90625 
L 64.5 72.90625 
L 64.5 27.390625 
Q 64.5 13.140625 57.4375 5.859375 
Q 50.390625 -1.421875 36.625 -1.421875 
Q 22.796875 -1.421875 15.734375 5.859375 
Q 8.6875 13.140625 8.6875 27.390625 
z
" id="DejaVuSans-85"/>
     </defs>
     <g style="fill:#262626;" transform="translate(459.983187 197.503594)scale(0.11 -0.11)">
      <use xlink:href="#DejaVuSans-76"/>
      <use x="55.634766" xlink:href="#DejaVuSans-85"/>
      <use x="128.828125" xlink:href="#DejaVuSans-65"/>
      <use x="197.236328" xlink:href="#DejaVuSans-68"/>
     </g>
    </g>
    <g id="line2d_61">
     <path d="M 429.183187 209.799531 
L 451.183187 209.799531 
" style="fill:none;stroke:#33a02c;stroke-linecap:round;stroke-width:1.5;"/>
    </g>
    <g id="line2d_62"/>
    <g id="text_27">
     <!-- LUSC -->
     <g style="fill:#262626;" transform="translate(459.983187 213.649531)scale(0.11 -0.11)">
      <use xlink:href="#DejaVuSans-76"/>
      <use x="55.634766" xlink:href="#DejaVuSans-85"/>
      <use x="128.828125" xlink:href="#DejaVuSans-83"/>
      <use x="192.304688" xlink:href="#DejaVuSans-67"/>
     </g>
    </g>
    <g id="line2d_63">
     <path d="M 429.183187 225.945469 
L 451.183187 225.945469 
" style="fill:none;stroke:#b2df8a;stroke-linecap:round;stroke-width:1.5;"/>
    </g>
    <g id="line2d_64"/>
    <g id="text_28">
     <!-- PRAD -->
     <g style="fill:#262626;" transform="translate(459.983187 229.795469)scale(0.11 -0.11)">
      <use xlink:href="#DejaVuSans-80"/>
      <use x="60.302734" xlink:href="#DejaVuSans-82"/>
      <use x="129.722656" xlink:href="#DejaVuSans-65"/>
      <use x="198.130859" xlink:href="#DejaVuSans-68"/>
     </g>
    </g>
    <g id="line2d_65">
     <path d="M 429.183187 242.091406 
L 451.183187 242.091406 
" style="fill:none;stroke:#a6cee3;stroke-linecap:round;stroke-width:1.5;"/>
    </g>
    <g id="line2d_66"/>
    <g id="text_29">
     <!-- THCA -->
     <defs>
      <path d="M -0.296875 72.90625 
L 61.375 72.90625 
L 61.375 64.59375 
L 35.5 64.59375 
L 35.5 0 
L 25.59375 0 
L 25.59375 64.59375 
L -0.296875 64.59375 
z
" id="DejaVuSans-84"/>
     </defs>
     <g style="fill:#262626;" transform="translate(459.983187 245.941406)scale(0.11 -0.11)">
      <use xlink:href="#DejaVuSans-84"/>
      <use x="61.083984" xlink:href="#DejaVuSans-72"/>
      <use x="136.279297" xlink:href="#DejaVuSans-67"/>
      <use x="206.103516" xlink:href="#DejaVuSans-65"/>
     </g>
    </g>
    <g id="line2d_67">
     <path d="M 429.183187 258.237344 
L 451.183187 258.237344 
" style="fill:none;stroke:#1f78b4;stroke-linecap:round;stroke-width:1.5;"/>
    </g>
    <g id="line2d_68"/>
    <g id="text_30">
     <!-- UCEC -->
     <g style="fill:#262626;" transform="translate(459.983187 262.087344)scale(0.11 -0.11)">
      <use xlink:href="#DejaVuSans-85"/>
      <use x="73.193359" xlink:href="#DejaVuSans-67"/>
      <use x="143.017578" xlink:href="#DejaVuSans-69"/>
      <use x="206.201172" xlink:href="#DejaVuSans-67"/>
     </g>
    </g>
   </g>
  </g>
 </g>
 <defs>
  <clipPath id="peaa84654d5">
   <rect height="266.112" width="357.12" x="49.807187" y="22.318125"/>
  </clipPath>
 </defs>
</svg>
