<?xml version="1.0" encoding="utf-8" standalone="no"?>
<!DOCTYPE svg PUBLIC "-//W3C//DTD SVG 1.1//EN"
  "http://www.w3.org/Graphics/SVG/1.1/DTD/svg11.dtd">
<!-- Created with matplotlib (https://matplotlib.org/) -->
<svg height="331.389812pt" version="1.1" viewBox="0 0 511.575062 331.389812" width="511.575062pt" xmlns="http://www.w3.org/2000/svg" xmlns:xlink="http://www.w3.org/1999/xlink">
 <defs>
  <style type="text/css">
*{stroke-linecap:butt;stroke-linejoin:round;white-space:pre;}
  </style>
 </defs>
 <g id="figure_1">
  <g id="patch_1">
   <path d="M 0 331.389812 
L 511.575062 331.389812 
L 511.575062 0 
L 0 0 
z
" style="fill:#ffffff;"/>
  </g>
  <g id="axes_1">
   <g id="patch_2">
    <path d="M 49.807187 288.430125 
L 406.927188 288.430125 
L 406.927188 22.318125 
L 49.807187 22.318125 
z
" style="fill:#ffffff;"/>
   </g>
   <g id="matplotlib.axis_1">
    <g id="xtick_1">
     <g id="line2d_1">
      <path clip-path="url(#p456fe7deac)" d="M 66.039915 288.430125 
L 66.039915 22.318125 
" style="fill:none;stroke:#cccccc;stroke-linecap:round;"/>
     </g>
     <g id="text_1">
      <!-- 0.0 -->
      <defs>
       <path d="M 31.78125 66.40625 
Q 24.171875 66.40625 20.328125 58.90625 
Q 16.5 51.421875 16.5 36.375 
Q 16.5 21.390625 20.328125 13.890625 
Q 24.171875 6.390625 31.78125 6.390625 
Q 39.453125 6.390625 43.28125 13.890625 
Q 47.125 21.390625 47.125 36.375 
Q 47.125 51.421875 43.28125 58.90625 
Q 39.453125 66.40625 31.78125 66.40625 
z
M 31.78125 74.21875 
Q 44.046875 74.21875 50.515625 64.515625 
Q 56.984375 54.828125 56.984375 36.375 
Q 56.984375 17.96875 50.515625 8.265625 
Q 44.046875 -1.421875 31.78125 -1.421875 
Q 19.53125 -1.421875 13.0625 8.265625 
Q 6.59375 17.96875 6.59375 36.375 
Q 6.59375 54.828125 13.0625 64.515625 
Q 19.53125 74.21875 31.78125 74.21875 
z
" id="DejaVuSans-48"/>
       <path d="M 10.6875 12.40625 
L 21 12.40625 
L 21 0 
L 10.6875 0 
z
" id="DejaVuSans-46"/>
      </defs>
      <g style="fill:#262626;" transform="translate(57.293196 306.288406)scale(0.11 -0.11)">
       <use xlink:href="#DejaVuSans-48"/>
       <use x="63.623047" xlink:href="#DejaVuSans-46"/>
       <use x="95.410156" xlink:href="#DejaVuSans-48"/>
      </g>
     </g>
    </g>
    <g id="xtick_2">
     <g id="line2d_2">
      <path clip-path="url(#p456fe7deac)" d="M 130.970824 288.430125 
L 130.970824 22.318125 
" style="fill:none;stroke:#cccccc;stroke-linecap:round;"/>
     </g>
     <g id="text_2">
      <!-- 0.2 -->
      <defs>
       <path d="M 19.1875 8.296875 
L 53.609375 8.296875 
L 53.609375 0 
L 7.328125 0 
L 7.328125 8.296875 
Q 12.9375 14.109375 22.625 23.890625 
Q 32.328125 33.6875 34.8125 36.53125 
Q 39.546875 41.84375 41.421875 45.53125 
Q 43.3125 49.21875 43.3125 52.78125 
Q 43.3125 58.59375 39.234375 62.25 
Q 35.15625 65.921875 28.609375 65.921875 
Q 23.96875 65.921875 18.8125 64.3125 
Q 13.671875 62.703125 7.8125 59.421875 
L 7.8125 69.390625 
Q 13.765625 71.78125 18.9375 73 
Q 24.125 74.21875 28.421875 74.21875 
Q 39.75 74.21875 46.484375 68.546875 
Q 53.21875 62.890625 53.21875 53.421875 
Q 53.21875 48.921875 51.53125 44.890625 
Q 49.859375 40.875 45.40625 35.40625 
Q 44.1875 33.984375 37.640625 27.21875 
Q 31.109375 20.453125 19.1875 8.296875 
z
" id="DejaVuSans-50"/>
      </defs>
      <g style="fill:#262626;" transform="translate(122.224105 306.288406)scale(0.11 -0.11)">
       <use xlink:href="#DejaVuSans-48"/>
       <use x="63.623047" xlink:href="#DejaVuSans-46"/>
       <use x="95.410156" xlink:href="#DejaVuSans-50"/>
      </g>
     </g>
    </g>
    <g id="xtick_3">
     <g id="line2d_3">
      <path clip-path="url(#p456fe7deac)" d="M 195.901733 288.430125 
L 195.901733 22.318125 
" style="fill:none;stroke:#cccccc;stroke-linecap:round;"/>
     </g>
     <g id="text_3">
      <!-- 0.4 -->
      <defs>
       <path d="M 37.796875 64.3125 
L 12.890625 25.390625 
L 37.796875 25.390625 
z
M 35.203125 72.90625 
L 47.609375 72.90625 
L 47.609375 25.390625 
L 58.015625 25.390625 
L 58.015625 17.1875 
L 47.609375 17.1875 
L 47.609375 0 
L 37.796875 0 
L 37.796875 17.1875 
L 4.890625 17.1875 
L 4.890625 26.703125 
z
" id="DejaVuSans-52"/>
      </defs>
      <g style="fill:#262626;" transform="translate(187.155014 306.288406)scale(0.11 -0.11)">
       <use xlink:href="#DejaVuSans-48"/>
       <use x="63.623047" xlink:href="#DejaVuSans-46"/>
       <use x="95.410156" xlink:href="#DejaVuSans-52"/>
      </g>
     </g>
    </g>
    <g id="xtick_4">
     <g id="line2d_4">
      <path clip-path="url(#p456fe7deac)" d="M 260.832642 288.430125 
L 260.832642 22.318125 
" style="fill:none;stroke:#cccccc;stroke-linecap:round;"/>
     </g>
     <g id="text_4">
      <!-- 0.6 -->
      <defs>
       <path d="M 33.015625 40.375 
Q 26.375 40.375 22.484375 35.828125 
Q 18.609375 31.296875 18.609375 23.390625 
Q 18.609375 15.53125 22.484375 10.953125 
Q 26.375 6.390625 33.015625 6.390625 
Q 39.65625 6.390625 43.53125 10.953125 
Q 47.40625 15.53125 47.40625 23.390625 
Q 47.40625 31.296875 43.53125 35.828125 
Q 39.65625 40.375 33.015625 40.375 
z
M 52.59375 71.296875 
L 52.59375 62.3125 
Q 48.875 64.0625 45.09375 64.984375 
Q 41.3125 65.921875 37.59375 65.921875 
Q 27.828125 65.921875 22.671875 59.328125 
Q 17.53125 52.734375 16.796875 39.40625 
Q 19.671875 43.65625 24.015625 45.921875 
Q 28.375 48.1875 33.59375 48.1875 
Q 44.578125 48.1875 50.953125 41.515625 
Q 57.328125 34.859375 57.328125 23.390625 
Q 57.328125 12.15625 50.6875 5.359375 
Q 44.046875 -1.421875 33.015625 -1.421875 
Q 20.359375 -1.421875 13.671875 8.265625 
Q 6.984375 17.96875 6.984375 36.375 
Q 6.984375 53.65625 15.1875 63.9375 
Q 23.390625 74.21875 37.203125 74.21875 
Q 40.921875 74.21875 44.703125 73.484375 
Q 48.484375 72.75 52.59375 71.296875 
z
" id="DejaVuSans-54"/>
      </defs>
      <g style="fill:#262626;" transform="translate(252.085923 306.288406)scale(0.11 -0.11)">
       <use xlink:href="#DejaVuSans-48"/>
       <use x="63.623047" xlink:href="#DejaVuSans-46"/>
       <use x="95.410156" xlink:href="#DejaVuSans-54"/>
      </g>
     </g>
    </g>
    <g id="xtick_5">
     <g id="line2d_5">
      <path clip-path="url(#p456fe7deac)" d="M 325.763551 288.430125 
L 325.763551 22.318125 
" style="fill:none;stroke:#cccccc;stroke-linecap:round;"/>
     </g>
     <g id="text_5">
      <!-- 0.8 -->
      <defs>
       <path d="M 31.78125 34.625 
Q 24.75 34.625 20.71875 30.859375 
Q 16.703125 27.09375 16.703125 20.515625 
Q 16.703125 13.921875 20.71875 10.15625 
Q 24.75 6.390625 31.78125 6.390625 
Q 38.8125 6.390625 42.859375 10.171875 
Q 46.921875 13.96875 46.921875 20.515625 
Q 46.921875 27.09375 42.890625 30.859375 
Q 38.875 34.625 31.78125 34.625 
z
M 21.921875 38.8125 
Q 15.578125 40.375 12.03125 44.71875 
Q 8.5 49.078125 8.5 55.328125 
Q 8.5 64.0625 14.71875 69.140625 
Q 20.953125 74.21875 31.78125 74.21875 
Q 42.671875 74.21875 48.875 69.140625 
Q 55.078125 64.0625 55.078125 55.328125 
Q 55.078125 49.078125 51.53125 44.71875 
Q 48 40.375 41.703125 38.8125 
Q 48.828125 37.15625 52.796875 32.3125 
Q 56.78125 27.484375 56.78125 20.515625 
Q 56.78125 9.90625 50.3125 4.234375 
Q 43.84375 -1.421875 31.78125 -1.421875 
Q 19.734375 -1.421875 13.25 4.234375 
Q 6.78125 9.90625 6.78125 20.515625 
Q 6.78125 27.484375 10.78125 32.3125 
Q 14.796875 37.15625 21.921875 38.8125 
z
M 18.3125 54.390625 
Q 18.3125 48.734375 21.84375 45.5625 
Q 25.390625 42.390625 31.78125 42.390625 
Q 38.140625 42.390625 41.71875 45.5625 
Q 45.3125 48.734375 45.3125 54.390625 
Q 45.3125 60.0625 41.71875 63.234375 
Q 38.140625 66.40625 31.78125 66.40625 
Q 25.390625 66.40625 21.84375 63.234375 
Q 18.3125 60.0625 18.3125 54.390625 
z
" id="DejaVuSans-56"/>
      </defs>
      <g style="fill:#262626;" transform="translate(317.016832 306.288406)scale(0.11 -0.11)">
       <use xlink:href="#DejaVuSans-48"/>
       <use x="63.623047" xlink:href="#DejaVuSans-46"/>
       <use x="95.410156" xlink:href="#DejaVuSans-56"/>
      </g>
     </g>
    </g>
    <g id="xtick_6">
     <g id="line2d_6">
      <path clip-path="url(#p456fe7deac)" d="M 390.69446 288.430125 
L 390.69446 22.318125 
" style="fill:none;stroke:#cccccc;stroke-linecap:round;"/>
     </g>
     <g id="text_6">
      <!-- 1.0 -->
      <defs>
       <path d="M 12.40625 8.296875 
L 28.515625 8.296875 
L 28.515625 63.921875 
L 10.984375 60.40625 
L 10.984375 69.390625 
L 28.421875 72.90625 
L 38.28125 72.90625 
L 38.28125 8.296875 
L 54.390625 8.296875 
L 54.390625 0 
L 12.40625 0 
z
" id="DejaVuSans-49"/>
      </defs>
      <g style="fill:#262626;" transform="translate(381.947741 306.288406)scale(0.11 -0.11)">
       <use xlink:href="#DejaVuSans-49"/>
       <use x="63.623047" xlink:href="#DejaVuSans-46"/>
       <use x="95.410156" xlink:href="#DejaVuSans-48"/>
      </g>
     </g>
    </g>
    <g id="text_7">
     <!-- Recall -->
     <defs>
      <path d="M 44.390625 34.1875 
Q 47.5625 33.109375 50.5625 29.59375 
Q 53.5625 26.078125 56.59375 19.921875 
L 66.609375 0 
L 56 0 
L 46.6875 18.703125 
Q 43.0625 26.03125 39.671875 28.421875 
Q 36.28125 30.8125 30.421875 30.8125 
L 19.671875 30.8125 
L 19.671875 0 
L 9.8125 0 
L 9.8125 72.90625 
L 32.078125 72.90625 
Q 44.578125 72.90625 50.734375 67.671875 
Q 56.890625 62.453125 56.890625 51.90625 
Q 56.890625 45.015625 53.6875 40.46875 
Q 50.484375 35.9375 44.390625 34.1875 
z
M 19.671875 64.796875 
L 19.671875 38.921875 
L 32.078125 38.921875 
Q 39.203125 38.921875 42.84375 42.21875 
Q 46.484375 45.515625 46.484375 51.90625 
Q 46.484375 58.296875 42.84375 61.546875 
Q 39.203125 64.796875 32.078125 64.796875 
z
" id="DejaVuSans-82"/>
      <path d="M 56.203125 29.59375 
L 56.203125 25.203125 
L 14.890625 25.203125 
Q 15.484375 15.921875 20.484375 11.0625 
Q 25.484375 6.203125 34.421875 6.203125 
Q 39.59375 6.203125 44.453125 7.46875 
Q 49.3125 8.734375 54.109375 11.28125 
L 54.109375 2.78125 
Q 49.265625 0.734375 44.1875 -0.34375 
Q 39.109375 -1.421875 33.890625 -1.421875 
Q 20.796875 -1.421875 13.15625 6.1875 
Q 5.515625 13.8125 5.515625 26.8125 
Q 5.515625 40.234375 12.765625 48.109375 
Q 20.015625 56 32.328125 56 
Q 43.359375 56 49.78125 48.890625 
Q 56.203125 41.796875 56.203125 29.59375 
z
M 47.21875 32.234375 
Q 47.125 39.59375 43.09375 43.984375 
Q 39.0625 48.390625 32.421875 48.390625 
Q 24.90625 48.390625 20.390625 44.140625 
Q 15.875 39.890625 15.1875 32.171875 
z
" id="DejaVuSans-101"/>
      <path d="M 48.78125 52.59375 
L 48.78125 44.1875 
Q 44.96875 46.296875 41.140625 47.34375 
Q 37.3125 48.390625 33.40625 48.390625 
Q 24.65625 48.390625 19.8125 42.84375 
Q 14.984375 37.3125 14.984375 27.296875 
Q 14.984375 17.28125 19.8125 11.734375 
Q 24.65625 6.203125 33.40625 6.203125 
Q 37.3125 6.203125 41.140625 7.25 
Q 44.96875 8.296875 48.78125 10.40625 
L 48.78125 2.09375 
Q 45.015625 0.34375 40.984375 -0.53125 
Q 36.96875 -1.421875 32.421875 -1.421875 
Q 20.0625 -1.421875 12.78125 6.34375 
Q 5.515625 14.109375 5.515625 27.296875 
Q 5.515625 40.671875 12.859375 48.328125 
Q 20.21875 56 33.015625 56 
Q 37.15625 56 41.109375 55.140625 
Q 45.0625 54.296875 48.78125 52.59375 
z
" id="DejaVuSans-99"/>
      <path d="M 34.28125 27.484375 
Q 23.390625 27.484375 19.1875 25 
Q 14.984375 22.515625 14.984375 16.5 
Q 14.984375 11.71875 18.140625 8.90625 
Q 21.296875 6.109375 26.703125 6.109375 
Q 34.1875 6.109375 38.703125 11.40625 
Q 43.21875 16.703125 43.21875 25.484375 
L 43.21875 27.484375 
z
M 52.203125 31.203125 
L 52.203125 0 
L 43.21875 0 
L 43.21875 8.296875 
Q 40.140625 3.328125 35.546875 0.953125 
Q 30.953125 -1.421875 24.3125 -1.421875 
Q 15.921875 -1.421875 10.953125 3.296875 
Q 6 8.015625 6 15.921875 
Q 6 25.140625 12.171875 29.828125 
Q 18.359375 34.515625 30.609375 34.515625 
L 43.21875 34.515625 
L 43.21875 35.40625 
Q 43.21875 41.609375 39.140625 45 
Q 35.0625 48.390625 27.6875 48.390625 
Q 23 48.390625 18.546875 47.265625 
Q 14.109375 46.140625 10.015625 43.890625 
L 10.015625 52.203125 
Q 14.9375 54.109375 19.578125 55.046875 
Q 24.21875 56 28.609375 56 
Q 40.484375 56 46.34375 49.84375 
Q 52.203125 43.703125 52.203125 31.203125 
z
" id="DejaVuSans-97"/>
      <path d="M 9.421875 75.984375 
L 18.40625 75.984375 
L 18.40625 0 
L 9.421875 0 
z
" id="DejaVuSans-108"/>
     </defs>
     <g style="fill:#262626;" transform="translate(210.200312 321.694187)scale(0.12 -0.12)">
      <use xlink:href="#DejaVuSans-82"/>
      <use x="69.419922" xlink:href="#DejaVuSans-101"/>
      <use x="130.943359" xlink:href="#DejaVuSans-99"/>
      <use x="185.923828" xlink:href="#DejaVuSans-97"/>
      <use x="247.203125" xlink:href="#DejaVuSans-108"/>
      <use x="274.986328" xlink:href="#DejaVuSans-108"/>
     </g>
    </g>
   </g>
   <g id="matplotlib.axis_2">
    <g id="ytick_1">
     <g id="line2d_7">
      <path clip-path="url(#p456fe7deac)" d="M 49.807187 288.430125 
L 406.927188 288.430125 
" style="fill:none;stroke:#cccccc;stroke-linecap:round;"/>
     </g>
     <g id="text_8">
      <!-- 0.0 -->
      <g style="fill:#262626;" transform="translate(22.81375 292.609266)scale(0.11 -0.11)">
       <use xlink:href="#DejaVuSans-48"/>
       <use x="63.623047" xlink:href="#DejaVuSans-46"/>
       <use x="95.410156" xlink:href="#DejaVuSans-48"/>
      </g>
     </g>
    </g>
    <g id="ytick_2">
     <g id="line2d_8">
      <path clip-path="url(#p456fe7deac)" d="M 49.807187 236.383343 
L 406.927188 236.383343 
" style="fill:none;stroke:#cccccc;stroke-linecap:round;"/>
     </g>
     <g id="text_9">
      <!-- 0.2 -->
      <g style="fill:#262626;" transform="translate(22.81375 240.562484)scale(0.11 -0.11)">
       <use xlink:href="#DejaVuSans-48"/>
       <use x="63.623047" xlink:href="#DejaVuSans-46"/>
       <use x="95.410156" xlink:href="#DejaVuSans-50"/>
      </g>
     </g>
    </g>
    <g id="ytick_3">
     <g id="line2d_9">
      <path clip-path="url(#p456fe7deac)" d="M 49.807187 184.336561 
L 406.927188 184.336561 
" style="fill:none;stroke:#cccccc;stroke-linecap:round;"/>
     </g>
     <g id="text_10">
      <!-- 0.4 -->
      <g style="fill:#262626;" transform="translate(22.81375 188.515702)scale(0.11 -0.11)">
       <use xlink:href="#DejaVuSans-48"/>
       <use x="63.623047" xlink:href="#DejaVuSans-46"/>
       <use x="95.410156" xlink:href="#DejaVuSans-52"/>
      </g>
     </g>
    </g>
    <g id="ytick_4">
     <g id="line2d_10">
      <path clip-path="url(#p456fe7deac)" d="M 49.807187 132.289779 
L 406.927188 132.289779 
" style="fill:none;stroke:#cccccc;stroke-linecap:round;"/>
     </g>
     <g id="text_11">
      <!-- 0.6 -->
      <g style="fill:#262626;" transform="translate(22.81375 136.46892)scale(0.11 -0.11)">
       <use xlink:href="#DejaVuSans-48"/>
       <use x="63.623047" xlink:href="#DejaVuSans-46"/>
       <use x="95.410156" xlink:href="#DejaVuSans-54"/>
      </g>
     </g>
    </g>
    <g id="ytick_5">
     <g id="line2d_11">
      <path clip-path="url(#p456fe7deac)" d="M 49.807187 80.242997 
L 406.927188 80.242997 
" style="fill:none;stroke:#cccccc;stroke-linecap:round;"/>
     </g>
     <g id="text_12">
      <!-- 0.8 -->
      <g style="fill:#262626;" transform="translate(22.81375 84.422138)scale(0.11 -0.11)">
       <use xlink:href="#DejaVuSans-48"/>
       <use x="63.623047" xlink:href="#DejaVuSans-46"/>
       <use x="95.410156" xlink:href="#DejaVuSans-56"/>
      </g>
     </g>
    </g>
    <g id="ytick_6">
     <g id="line2d_12">
      <path clip-path="url(#p456fe7deac)" d="M 49.807187 28.196215 
L 406.927188 28.196215 
" style="fill:none;stroke:#cccccc;stroke-linecap:round;"/>
     </g>
     <g id="text_13">
      <!-- 1.0 -->
      <g style="fill:#262626;" transform="translate(22.81375 32.375356)scale(0.11 -0.11)">
       <use xlink:href="#DejaVuSans-49"/>
       <use x="63.623047" xlink:href="#DejaVuSans-46"/>
       <use x="95.410156" xlink:href="#DejaVuSans-48"/>
      </g>
     </g>
    </g>
    <g id="text_14">
     <!-- Precision -->
     <defs>
      <path d="M 19.671875 64.796875 
L 19.671875 37.40625 
L 32.078125 37.40625 
Q 38.96875 37.40625 42.71875 40.96875 
Q 46.484375 44.53125 46.484375 51.125 
Q 46.484375 57.671875 42.71875 61.234375 
Q 38.96875 64.796875 32.078125 64.796875 
z
M 9.8125 72.90625 
L 32.078125 72.90625 
Q 44.34375 72.90625 50.609375 67.359375 
Q 56.890625 61.8125 56.890625 51.125 
Q 56.890625 40.328125 50.609375 34.8125 
Q 44.34375 29.296875 32.078125 29.296875 
L 19.671875 29.296875 
L 19.671875 0 
L 9.8125 0 
z
" id="DejaVuSans-80"/>
      <path d="M 41.109375 46.296875 
Q 39.59375 47.171875 37.8125 47.578125 
Q 36.03125 48 33.890625 48 
Q 26.265625 48 22.1875 43.046875 
Q 18.109375 38.09375 18.109375 28.8125 
L 18.109375 0 
L 9.078125 0 
L 9.078125 54.6875 
L 18.109375 54.6875 
L 18.109375 46.1875 
Q 20.953125 51.171875 25.484375 53.578125 
Q 30.03125 56 36.53125 56 
Q 37.453125 56 38.578125 55.875 
Q 39.703125 55.765625 41.0625 55.515625 
z
" id="DejaVuSans-114"/>
      <path d="M 9.421875 54.6875 
L 18.40625 54.6875 
L 18.40625 0 
L 9.421875 0 
z
M 9.421875 75.984375 
L 18.40625 75.984375 
L 18.40625 64.59375 
L 9.421875 64.59375 
z
" id="DejaVuSans-105"/>
      <path d="M 44.28125 53.078125 
L 44.28125 44.578125 
Q 40.484375 46.53125 36.375 47.5 
Q 32.28125 48.484375 27.875 48.484375 
Q 21.1875 48.484375 17.84375 46.4375 
Q 14.5 44.390625 14.5 40.28125 
Q 14.5 37.15625 16.890625 35.375 
Q 19.28125 33.59375 26.515625 31.984375 
L 29.59375 31.296875 
Q 39.15625 29.25 43.1875 25.515625 
Q 47.21875 21.78125 47.21875 15.09375 
Q 47.21875 7.46875 41.1875 3.015625 
Q 35.15625 -1.421875 24.609375 -1.421875 
Q 20.21875 -1.421875 15.453125 -0.5625 
Q 10.6875 0.296875 5.421875 2 
L 5.421875 11.28125 
Q 10.40625 8.6875 15.234375 7.390625 
Q 20.0625 6.109375 24.8125 6.109375 
Q 31.15625 6.109375 34.5625 8.28125 
Q 37.984375 10.453125 37.984375 14.40625 
Q 37.984375 18.0625 35.515625 20.015625 
Q 33.0625 21.96875 24.703125 23.78125 
L 21.578125 24.515625 
Q 13.234375 26.265625 9.515625 29.90625 
Q 5.8125 33.546875 5.8125 39.890625 
Q 5.8125 47.609375 11.28125 51.796875 
Q 16.75 56 26.8125 56 
Q 31.78125 56 36.171875 55.265625 
Q 40.578125 54.546875 44.28125 53.078125 
z
" id="DejaVuSans-115"/>
      <path d="M 30.609375 48.390625 
Q 23.390625 48.390625 19.1875 42.75 
Q 14.984375 37.109375 14.984375 27.296875 
Q 14.984375 17.484375 19.15625 11.84375 
Q 23.34375 6.203125 30.609375 6.203125 
Q 37.796875 6.203125 41.984375 11.859375 
Q 46.1875 17.53125 46.1875 27.296875 
Q 46.1875 37.015625 41.984375 42.703125 
Q 37.796875 48.390625 30.609375 48.390625 
z
M 30.609375 56 
Q 42.328125 56 49.015625 48.375 
Q 55.71875 40.765625 55.71875 27.296875 
Q 55.71875 13.875 49.015625 6.21875 
Q 42.328125 -1.421875 30.609375 -1.421875 
Q 18.84375 -1.421875 12.171875 6.21875 
Q 5.515625 13.875 5.515625 27.296875 
Q 5.515625 40.765625 12.171875 48.375 
Q 18.84375 56 30.609375 56 
z
" id="DejaVuSans-111"/>
      <path d="M 54.890625 33.015625 
L 54.890625 0 
L 45.90625 0 
L 45.90625 32.71875 
Q 45.90625 40.484375 42.875 44.328125 
Q 39.84375 48.1875 33.796875 48.1875 
Q 26.515625 48.1875 22.3125 43.546875 
Q 18.109375 38.921875 18.109375 30.90625 
L 18.109375 0 
L 9.078125 0 
L 9.078125 54.6875 
L 18.109375 54.6875 
L 18.109375 46.1875 
Q 21.34375 51.125 25.703125 53.5625 
Q 30.078125 56 35.796875 56 
Q 45.21875 56 50.046875 50.171875 
Q 54.890625 44.34375 54.890625 33.015625 
z
" id="DejaVuSans-110"/>
     </defs>
     <g style="fill:#262626;" transform="translate(16.318125 182.37975)rotate(-90)scale(0.12 -0.12)">
      <use xlink:href="#DejaVuSans-80"/>
      <use x="60.287109" xlink:href="#DejaVuSans-114"/>
      <use x="101.369141" xlink:href="#DejaVuSans-101"/>
      <use x="162.892578" xlink:href="#DejaVuSans-99"/>
      <use x="217.873047" xlink:href="#DejaVuSans-105"/>
      <use x="245.65625" xlink:href="#DejaVuSans-115"/>
      <use x="297.755859" xlink:href="#DejaVuSans-105"/>
      <use x="325.539062" xlink:href="#DejaVuSans-111"/>
      <use x="386.720703" xlink:href="#DejaVuSans-110"/>
     </g>
    </g>
   </g>
   <g id="line2d_13">
    <path clip-path="url(#p456fe7deac)" d="M 66.039915 28.196215 
L 244.96884 28.196215 
L 246.813468 30.824841 
L 246.813468 28.196215 
L 248.658097 30.798555 
L 291.084543 30.311938 
L 311.375452 30.13826 
L 313.22008 32.023185 
L 313.22008 30.123874 
L 315.064708 31.995251 
L 353.801898 31.490316 
L 355.646526 33.075601 
L 355.646526 31.469598 
L 359.335783 34.582324 
L 359.335783 33.015362 
L 361.180411 34.543384 
L 364.869667 34.466912 
L 366.714295 37.435289 
L 366.714295 34.429363 
L 368.558923 38.849066 
L 368.558923 37.380942 
L 370.403551 40.230154 
L 370.403551 38.78713 
L 372.248179 40.160993 
L 374.092807 56.028719 
L 374.092807 40.092623 
L 375.937435 57.111094 
L 375.937435 55.880674 
L 377.782064 65.183776 
L 377.782064 56.958911 
L 379.626692 67.231302 
L 379.626692 64.99697 
L 381.47132 75.511472 
L 381.47132 67.037098 
L 383.315948 81.206827 
L 383.315948 75.286161 
L 385.160576 133.187138 
L 385.160576 129.907356 
L 385.160576 80.962538 
L 387.005204 136.989656 
L 387.005204 133.888486 
L 387.005204 132.826344 
L 388.849832 138.624421 
L 388.849832 136.627011 
L 390.69446 138.262361 
L 390.69446 138.262361 
" style="fill:none;stroke:#000000;stroke-linecap:round;"/>
   </g>
   <g id="line2d_14">
    <path clip-path="url(#p456fe7deac)" d="M 66.039915 28.196215 
L 69.161593 28.196215 
L 72.283271 28.196215 
L 75.40495 28.196215 
L 78.526628 28.196215 
L 81.648306 28.196215 
L 84.769985 28.196215 
L 87.891663 28.196215 
L 91.013341 28.196215 
L 94.13502 28.196215 
L 97.256698 28.196215 
L 100.378376 28.196215 
L 103.500055 28.196215 
L 106.621733 28.196215 
L 109.743411 28.196215 
L 112.86509 28.196215 
L 115.986768 28.196215 
L 119.108446 28.196215 
L 122.230125 28.196215 
L 125.351803 28.196215 
L 128.473481 28.196215 
L 131.59516 28.196215 
L 134.716838 28.196215 
L 137.838516 28.196215 
L 140.960194 28.196215 
L 144.081873 28.196215 
L 147.203551 28.196215 
L 150.325229 28.196215 
L 153.446908 28.196215 
L 156.568586 28.196215 
L 159.690264 28.196215 
L 162.811943 28.196215 
L 165.933621 28.196215 
L 169.055299 28.196215 
L 172.176978 28.196215 
L 175.298656 28.196215 
L 178.420334 28.196215 
L 181.542013 28.196215 
L 184.663691 28.196215 
L 187.785369 28.196215 
L 190.907048 28.196215 
L 194.028726 28.196215 
L 197.150404 28.196215 
L 200.272083 28.196215 
L 203.393761 28.196215 
L 206.515439 28.196215 
L 209.637118 28.196215 
L 212.758796 28.196215 
L 215.880474 28.196215 
L 219.002153 28.196215 
L 222.123831 28.196215 
L 225.245509 28.196215 
L 228.367188 28.196215 
L 231.488866 28.196215 
L 234.610544 28.196215 
L 237.732222 28.196215 
L 240.853901 28.196215 
L 243.975579 28.196215 
L 247.097257 28.196215 
L 250.218936 28.196215 
L 253.340614 28.196215 
L 256.462292 28.196215 
L 259.583971 28.196215 
L 262.705649 28.196215 
L 265.827327 28.196215 
L 268.949006 28.196215 
L 272.070684 28.196215 
L 275.192362 28.196215 
L 278.314041 28.196215 
L 281.435719 28.196215 
L 284.557397 28.196215 
L 287.679076 28.196215 
L 290.800754 28.196215 
L 293.922432 28.196215 
L 297.044111 28.196215 
L 300.165789 28.196215 
L 303.287467 28.196215 
L 306.409146 28.196215 
L 309.530824 28.196215 
L 312.652502 28.196215 
L 315.774181 28.196215 
L 318.895859 28.196215 
L 322.017537 28.196215 
L 325.139215 28.196215 
L 328.260894 28.196215 
L 331.382572 28.196215 
L 334.50425 28.196215 
L 337.625929 28.196215 
L 340.747607 28.196215 
L 343.869285 31.087703 
L 343.869285 28.196215 
L 346.990964 31.055929 
L 350.112642 31.024845 
L 353.23432 30.99443 
L 356.355999 30.964661 
L 359.477677 30.93552 
L 362.599355 30.906985 
L 365.721034 30.879039 
L 368.842712 33.453466 
L 368.842712 30.851664 
L 371.96439 33.400894 
L 375.086069 33.349362 
L 378.207747 33.298841 
L 381.329425 33.249301 
L 384.451104 33.200714 
L 387.572782 33.153052 
L 390.69446 33.106289 
" style="fill:none;stroke:#6e6e6e;stroke-linecap:round;"/>
   </g>
   <g id="line2d_15">
    <path clip-path="url(#p456fe7deac)" d="M 66.039915 28.196215 
L 371.018427 28.196215 
L 372.658097 29.580438 
L 372.658097 28.196215 
L 374.297766 29.573114 
L 384.135783 29.530748 
L 385.775452 30.838184 
L 385.775452 29.52394 
L 387.415121 30.824841 
L 389.054791 72.11755 
L 389.054791 69.344312 
L 389.054791 30.811632 
L 390.69446 71.933007 
L 390.69446 71.933007 
" style="fill:none;stroke:#b15928;stroke-linecap:round;"/>
   </g>
   <g id="line2d_16">
    <path clip-path="url(#p456fe7deac)" d="M 66.039915 28.196215 
L 70.149466 28.196215 
L 74.259017 28.196215 
L 78.368568 28.196215 
L 82.47812 28.196215 
L 86.587671 28.196215 
L 90.697222 28.196215 
L 94.806773 28.196215 
L 98.916324 28.196215 
L 103.025876 28.196215 
L 107.135427 28.196215 
L 111.244978 28.196215 
L 115.354529 28.196215 
L 119.46408 28.196215 
L 123.573632 28.196215 
L 127.683183 28.196215 
L 131.792734 28.196215 
L 135.902285 28.196215 
L 140.011837 28.196215 
L 144.121388 28.196215 
L 148.230939 28.196215 
L 152.34049 28.196215 
L 156.450041 28.196215 
L 160.559593 28.196215 
L 164.669144 28.196215 
L 168.778695 28.196215 
L 172.888246 28.196215 
L 176.997797 28.196215 
L 181.107349 28.196215 
L 185.2169 28.196215 
L 189.326451 28.196215 
L 193.436002 28.196215 
L 197.545553 28.196215 
L 201.655105 28.196215 
L 205.764656 28.196215 
L 209.874207 28.196215 
L 213.983758 28.196215 
L 218.093309 28.196215 
L 222.202861 28.196215 
L 226.312412 28.196215 
L 230.421963 28.196215 
L 234.531514 28.196215 
L 238.641066 28.196215 
L 242.750617 28.196215 
L 246.860168 28.196215 
L 250.969719 28.196215 
L 255.07927 28.196215 
L 259.188822 28.196215 
L 263.298373 28.196215 
L 267.407924 28.196215 
L 271.517475 28.196215 
L 275.627026 28.196215 
L 279.736578 28.196215 
L 283.846129 28.196215 
L 287.95568 28.196215 
L 292.065231 28.196215 
L 296.174782 28.196215 
L 300.284334 28.196215 
L 304.393885 28.196215 
L 308.503436 28.196215 
L 312.612987 28.196215 
L 316.722538 28.196215 
L 320.83209 28.196215 
L 324.941641 28.196215 
L 329.051192 28.196215 
L 333.160743 28.196215 
L 337.270295 28.196215 
L 341.379846 28.196215 
L 345.489397 28.196215 
L 349.598948 28.196215 
L 353.708499 28.196215 
L 357.818051 28.196215 
L 361.927602 28.196215 
L 366.037153 28.196215 
L 370.146704 28.196215 
L 374.256255 28.196215 
L 378.365807 28.196215 
L 382.475358 28.196215 
L 386.584909 28.196215 
L 390.69446 28.196215 
" style="fill:none;stroke:#ffff99;stroke-linecap:round;"/>
   </g>
   <g id="line2d_17">
    <path clip-path="url(#p456fe7deac)" d="M 66.039915 28.196215 
L 73.097622 28.196215 
L 80.15533 28.196215 
L 87.213037 28.196215 
L 94.270745 28.196215 
L 101.328452 28.196215 
L 108.38616 28.196215 
L 115.443867 28.196215 
L 122.501575 28.196215 
L 129.559282 28.196215 
L 136.61699 28.196215 
L 143.674697 28.196215 
L 150.732405 28.196215 
L 157.790112 28.196215 
L 164.84782 28.196215 
L 171.905527 28.196215 
L 178.963235 28.196215 
L 186.020942 28.196215 
L 193.07865 28.196215 
L 200.136357 28.196215 
L 207.194065 28.196215 
L 214.251772 28.196215 
L 221.30948 28.196215 
L 228.367188 28.196215 
L 235.424895 28.196215 
L 242.482603 28.196215 
L 249.54031 28.196215 
L 256.598018 28.196215 
L 263.655725 28.196215 
L 270.713433 28.196215 
L 277.77114 28.196215 
L 284.828848 28.196215 
L 291.886555 28.196215 
L 298.944263 28.196215 
L 306.00197 28.196215 
L 313.059678 28.196215 
L 320.117385 28.196215 
L 327.175093 28.196215 
L 334.2328 28.196215 
L 341.290508 28.196215 
L 348.348215 28.196215 
L 355.405923 28.196215 
L 362.46363 28.196215 
L 369.521338 28.196215 
L 376.579045 33.979191 
L 376.579045 28.196215 
L 383.636753 39.269999 
L 383.636753 33.853474 
L 390.69446 39.039295 
" style="fill:none;stroke:#6a3d9a;stroke-linecap:round;"/>
   </g>
   <g id="line2d_18">
    <path clip-path="url(#p456fe7deac)" d="M 66.039915 28.196215 
L 378.39694 28.196215 
L 380.856444 30.213533 
L 380.856444 28.196215 
L 383.315948 30.198015 
L 385.775452 41.492839 
L 385.775452 30.182734 
L 388.234956 43.173707 
L 388.234956 41.396486 
L 390.69446 43.066725 
L 390.69446 43.066725 
" style="fill:none;stroke:#cab2d6;stroke-linecap:round;"/>
   </g>
   <g id="line2d_19">
    <path clip-path="url(#p456fe7deac)" d="M 66.039915 28.196215 
L 70.047996 28.196215 
L 74.056076 28.196215 
L 78.064157 28.196215 
L 82.072238 28.196215 
L 86.080319 28.196215 
L 90.0884 28.196215 
L 94.09648 28.196215 
L 98.104561 28.196215 
L 102.112642 28.196215 
L 106.120723 28.196215 
L 110.128804 28.196215 
L 114.136884 28.196215 
L 118.144965 28.196215 
L 122.153046 28.196215 
L 126.161127 28.196215 
L 130.169208 28.196215 
L 134.177289 28.196215 
L 138.185369 28.196215 
L 142.19345 28.196215 
L 146.201531 28.196215 
L 150.209612 28.196215 
L 154.217693 28.196215 
L 158.225773 28.196215 
L 162.233854 28.196215 
L 166.241935 28.196215 
L 170.250016 28.196215 
L 174.258097 28.196215 
L 178.266177 28.196215 
L 182.274258 28.196215 
L 186.282339 28.196215 
L 190.29042 28.196215 
L 194.298501 28.196215 
L 198.306581 28.196215 
L 202.314662 28.196215 
L 206.322743 28.196215 
L 210.330824 28.196215 
L 214.338905 28.196215 
L 218.346985 28.196215 
L 222.355066 28.196215 
L 226.363147 28.196215 
L 230.371228 28.196215 
L 234.379309 28.196215 
L 238.38739 28.196215 
L 242.39547 28.196215 
L 246.403551 28.196215 
L 250.411632 28.196215 
L 254.419713 28.196215 
L 258.427794 28.196215 
L 262.435874 28.196215 
L 266.443955 28.196215 
L 270.452036 28.196215 
L 274.460117 28.196215 
L 278.468198 28.196215 
L 282.476278 28.196215 
L 286.484359 28.196215 
L 290.49244 28.196215 
L 294.500521 28.196215 
L 298.508602 28.196215 
L 302.516682 28.196215 
L 306.524763 28.196215 
L 310.532844 28.196215 
L 314.540925 28.196215 
L 318.549006 28.196215 
L 322.557086 28.196215 
L 326.565167 28.196215 
L 330.573248 28.196215 
L 334.581329 28.196215 
L 338.58941 28.196215 
L 342.597491 28.196215 
L 346.605571 28.196215 
L 350.613652 31.810575 
L 350.613652 28.196215 
L 354.621733 31.761064 
L 358.629814 31.71289 
L 362.637895 35.044476 
L 362.637895 31.666001 
L 366.645975 34.955538 
L 370.654056 38.078516 
L 370.654056 34.86888 
L 374.662137 41.047273 
L 374.662137 37.954987 
L 378.670218 40.890553 
L 382.678299 43.686329 
L 382.678299 40.737609 
L 386.686379 43.504093 
L 390.69446 43.326094 
" style="fill:none;stroke:#ff7f00;stroke-linecap:round;"/>
   </g>
   <g id="line2d_20">
    <path clip-path="url(#p456fe7deac)" d="M 66.039915 28.196215 
L 70.745053 28.196215 
L 75.450191 28.196215 
L 80.15533 28.196215 
L 84.860468 28.196215 
L 89.565606 28.196215 
L 94.270745 28.196215 
L 98.975883 28.196215 
L 103.681021 28.196215 
L 108.38616 28.196215 
L 113.091298 28.196215 
L 117.796437 28.196215 
L 122.501575 28.196215 
L 127.206713 28.196215 
L 131.911852 28.196215 
L 136.61699 28.196215 
L 141.322128 28.196215 
L 146.027267 28.196215 
L 150.732405 28.196215 
L 155.437543 28.196215 
L 160.142682 28.196215 
L 164.84782 28.196215 
L 169.552958 28.196215 
L 174.258097 28.196215 
L 178.963235 28.196215 
L 183.668373 28.196215 
L 188.373512 28.196215 
L 193.07865 28.196215 
L 197.783788 28.196215 
L 202.488927 28.196215 
L 207.194065 28.196215 
L 211.899203 28.196215 
L 216.604342 28.196215 
L 221.30948 28.196215 
L 226.014618 28.196215 
L 230.719757 28.196215 
L 235.424895 28.196215 
L 240.130033 28.196215 
L 244.835172 28.196215 
L 249.54031 28.196215 
L 254.245448 28.196215 
L 258.950587 28.196215 
L 263.655725 28.196215 
L 268.360863 28.196215 
L 273.066002 28.196215 
L 277.77114 28.196215 
L 282.476278 28.196215 
L 287.181417 28.196215 
L 291.886555 28.196215 
L 296.591693 28.196215 
L 301.296832 28.196215 
L 306.00197 28.196215 
L 310.707108 28.196215 
L 315.412247 28.196215 
L 320.117385 28.196215 
L 324.822523 28.196215 
L 329.527662 28.196215 
L 334.2328 28.196215 
L 338.937938 28.196215 
L 343.643077 28.196215 
L 348.348215 28.196215 
L 353.053354 28.196215 
L 357.758492 28.196215 
L 362.46363 28.196215 
L 367.168769 43.504093 
L 367.168769 39.84848 
L 367.168769 36.082092 
L 367.168769 32.199814 
L 367.168769 28.196215 
L 371.873907 59.846286 
L 371.873907 56.715 
L 371.873907 53.496734 
L 371.873907 50.187813 
L 371.873907 46.784352 
L 371.873907 43.282239 
L 376.579045 95.447675 
L 376.579045 93.254693 
L 376.579045 91.011297 
L 376.579045 88.715729 
L 376.579045 86.366148 
L 376.579045 83.960625 
L 376.579045 81.497137 
L 376.579045 78.973564 
L 376.579045 76.38768 
L 376.579045 73.73715 
L 376.579045 71.019517 
L 376.579045 68.232202 
L 376.579045 65.372488 
L 376.579045 62.437519 
L 376.579045 59.424285 
L 381.284184 135.485634 
L 381.284184 134.132143 
L 381.284184 132.754483 
L 381.284184 131.351999 
L 381.284184 129.924016 
L 381.284184 128.469832 
L 381.284184 126.988718 
L 381.284184 125.47992 
L 381.284184 123.942654 
L 381.284184 122.376107 
L 381.284184 120.779433 
L 381.284184 119.151757 
L 381.284184 117.492165 
L 381.284184 115.79971 
L 381.284184 114.073406 
L 381.284184 112.312227 
L 381.284184 110.515105 
L 381.284184 108.68093 
L 381.284184 106.808542 
L 381.284184 104.896736 
L 381.284184 102.944253 
L 381.284184 100.949782 
L 381.284184 98.911952 
L 381.284184 96.829334 
L 381.284184 94.700437 
L 385.989322 135.879213 
L 385.989322 134.552683 
L 390.69446 134.958845 
" style="fill:none;stroke:#fdbf6f;stroke-linecap:round;"/>
   </g>
   <g id="line2d_21">
    <path clip-path="url(#p456fe7deac)" d="M 66.039915 28.196215 
L 69.457331 28.196215 
L 72.874747 28.196215 
L 76.292164 28.196215 
L 79.70958 28.196215 
L 83.126996 28.196215 
L 86.544412 28.196215 
L 89.961829 28.196215 
L 93.379245 28.196215 
L 96.796661 28.196215 
L 100.214077 28.196215 
L 103.631494 28.196215 
L 107.04891 28.196215 
L 110.466326 28.196215 
L 113.883743 28.196215 
L 117.301159 28.196215 
L 120.718575 28.196215 
L 124.135991 28.196215 
L 127.553408 28.196215 
L 130.970824 28.196215 
L 134.38824 28.196215 
L 137.805656 28.196215 
L 141.223073 28.196215 
L 144.640489 28.196215 
L 148.057905 28.196215 
L 151.475321 28.196215 
L 154.892738 28.196215 
L 158.310154 28.196215 
L 161.72757 28.196215 
L 165.144987 28.196215 
L 168.562403 28.196215 
L 171.979819 28.196215 
L 175.397235 28.196215 
L 178.814652 28.196215 
L 182.232068 28.196215 
L 185.649484 28.196215 
L 189.0669 28.196215 
L 192.484317 28.196215 
L 195.901733 28.196215 
L 199.319149 28.196215 
L 202.736565 28.196215 
L 206.153982 28.196215 
L 209.571398 28.196215 
L 212.988814 28.196215 
L 216.406231 28.196215 
L 219.823647 28.196215 
L 223.241063 28.196215 
L 226.658479 28.196215 
L 230.075896 28.196215 
L 233.493312 28.196215 
L 236.910728 28.196215 
L 240.328144 28.196215 
L 243.745561 28.196215 
L 247.162977 28.196215 
L 250.580393 28.196215 
L 253.99781 28.196215 
L 257.415226 28.196215 
L 260.832642 28.196215 
L 264.250058 28.196215 
L 267.667475 28.196215 
L 271.084891 28.196215 
L 274.502307 28.196215 
L 277.919723 28.196215 
L 281.33714 28.196215 
L 284.754556 28.196215 
L 288.171972 28.196215 
L 291.589388 28.196215 
L 295.006805 28.196215 
L 298.424221 28.196215 
L 301.841637 28.196215 
L 305.259054 28.196215 
L 308.67647 28.196215 
L 312.093886 28.196215 
L 315.511302 28.196215 
L 318.928719 28.196215 
L 322.346135 28.196215 
L 325.763551 28.196215 
L 329.180967 28.196215 
L 332.598384 28.196215 
L 336.0158 28.196215 
L 339.433216 28.196215 
L 342.850632 28.196215 
L 346.268049 28.196215 
L 349.685465 28.196215 
L 353.102881 28.196215 
L 356.520298 28.196215 
L 359.937714 28.196215 
L 363.35513 28.196215 
L 366.772546 28.196215 
L 370.189963 28.196215 
L 373.607379 28.196215 
L 377.024795 28.196215 
L 380.442211 28.196215 
L 383.859628 28.196215 
L 387.277044 28.196215 
L 390.69446 28.196215 
" style="fill:none;stroke:#e31a1c;stroke-linecap:round;"/>
   </g>
   <g id="line2d_22">
    <path clip-path="url(#p456fe7deac)" d="M 66.039915 28.196215 
L 68.768104 28.196215 
L 71.496294 28.196215 
L 74.224483 28.196215 
L 76.952673 28.196215 
L 79.680862 28.196215 
L 82.409052 28.196215 
L 85.137241 28.196215 
L 87.86543 28.196215 
L 90.59362 28.196215 
L 93.321809 28.196215 
L 96.049999 28.196215 
L 98.778188 28.196215 
L 101.506378 28.196215 
L 104.234567 28.196215 
L 106.962757 28.196215 
L 109.690946 28.196215 
L 112.419136 28.196215 
L 115.147325 28.196215 
L 117.875514 28.196215 
L 120.603704 28.196215 
L 123.331893 28.196215 
L 126.060083 28.196215 
L 128.788272 28.196215 
L 131.516462 28.196215 
L 134.244651 28.196215 
L 136.972841 28.196215 
L 139.70103 28.196215 
L 142.42922 28.196215 
L 145.157409 28.196215 
L 147.885599 28.196215 
L 150.613788 28.196215 
L 153.341977 28.196215 
L 156.070167 28.196215 
L 158.798356 28.196215 
L 161.526546 28.196215 
L 164.254735 28.196215 
L 166.982925 28.196215 
L 169.711114 28.196215 
L 172.439304 28.196215 
L 175.167493 28.196215 
L 177.895683 28.196215 
L 180.623872 28.196215 
L 183.352061 28.196215 
L 186.080251 28.196215 
L 188.80844 28.196215 
L 191.53663 28.196215 
L 194.264819 28.196215 
L 196.993009 28.196215 
L 199.721198 28.196215 
L 202.449388 28.196215 
L 205.177577 28.196215 
L 207.905767 28.196215 
L 210.633956 28.196215 
L 213.362145 28.196215 
L 216.090335 28.196215 
L 218.818524 28.196215 
L 221.546714 28.196215 
L 224.274903 28.196215 
L 227.003093 28.196215 
L 229.731282 28.196215 
L 232.459472 28.196215 
L 235.187661 28.196215 
L 237.915851 28.196215 
L 240.64404 28.196215 
L 243.37223 28.196215 
L 246.100419 28.196215 
L 248.828608 28.196215 
L 251.556798 28.196215 
L 254.284987 28.196215 
L 257.013177 28.196215 
L 259.741366 28.196215 
L 262.469556 28.196215 
L 265.197745 28.196215 
L 267.925935 28.196215 
L 270.654124 28.196215 
L 273.382314 28.196215 
L 276.110503 28.196215 
L 278.838692 28.196215 
L 281.566882 28.196215 
L 284.295071 28.196215 
L 287.023261 28.196215 
L 289.75145 28.196215 
L 292.47964 28.196215 
L 295.207829 28.196215 
L 297.936019 28.196215 
L 300.664208 28.196215 
L 303.392398 28.196215 
L 306.120587 28.196215 
L 308.848776 28.196215 
L 311.576966 28.196215 
L 314.305155 28.196215 
L 317.033345 28.196215 
L 319.761534 28.196215 
L 322.489724 28.196215 
L 325.217913 28.196215 
L 327.946103 28.196215 
L 330.674292 28.196215 
L 333.402482 28.196215 
L 336.130671 28.196215 
L 338.858861 28.196215 
L 341.58705 28.196215 
L 344.315239 28.196215 
L 347.043429 28.196215 
L 349.771618 28.196215 
L 352.499808 28.196215 
L 355.227997 28.196215 
L 357.956187 28.196215 
L 360.684376 28.196215 
L 363.412566 28.196215 
L 366.140755 28.196215 
L 368.868945 28.196215 
L 371.597134 28.196215 
L 374.325323 28.196215 
L 377.053513 28.196215 
L 379.781702 28.196215 
L 382.509892 28.196215 
L 385.238081 28.196215 
L 387.966271 28.196215 
L 390.69446 28.196215 
" style="fill:none;stroke:#fb9a99;stroke-linecap:round;"/>
   </g>
   <g id="line2d_23">
    <path clip-path="url(#p456fe7deac)" d="M 66.039915 28.196215 
L 69.568769 28.196215 
L 73.097622 28.196215 
L 76.626476 28.196215 
L 80.15533 28.196215 
L 83.684184 28.196215 
L 87.213037 28.196215 
L 90.741891 28.196215 
L 94.270745 28.196215 
L 97.799599 28.196215 
L 101.328452 28.196215 
L 104.857306 28.196215 
L 108.38616 28.196215 
L 111.915014 28.196215 
L 115.443867 28.196215 
L 118.972721 28.196215 
L 122.501575 28.196215 
L 126.030429 28.196215 
L 129.559282 28.196215 
L 133.088136 28.196215 
L 136.61699 28.196215 
L 140.145844 28.196215 
L 143.674697 28.196215 
L 147.203551 28.196215 
L 150.732405 28.196215 
L 154.261259 28.196215 
L 157.790112 28.196215 
L 161.318966 28.196215 
L 164.84782 28.196215 
L 168.376674 28.196215 
L 171.905527 28.196215 
L 175.434381 28.196215 
L 178.963235 28.196215 
L 182.492089 28.196215 
L 186.020942 28.196215 
L 189.549796 28.196215 
L 193.07865 28.196215 
L 196.607504 28.196215 
L 200.136357 28.196215 
L 203.665211 28.196215 
L 207.194065 28.196215 
L 210.722919 28.196215 
L 214.251772 28.196215 
L 217.780626 28.196215 
L 221.30948 28.196215 
L 224.838334 28.196215 
L 228.367188 28.196215 
L 231.896041 28.196215 
L 235.424895 28.196215 
L 238.953749 28.196215 
L 242.482603 28.196215 
L 246.011456 28.196215 
L 249.54031 28.196215 
L 253.069164 28.196215 
L 256.598018 28.196215 
L 260.126871 28.196215 
L 263.655725 28.196215 
L 267.184579 28.196215 
L 270.713433 28.196215 
L 274.242286 28.196215 
L 277.77114 28.196215 
L 281.299994 28.196215 
L 284.828848 28.196215 
L 288.357701 28.196215 
L 291.886555 28.196215 
L 295.415409 28.196215 
L 298.944263 28.196215 
L 302.473116 28.196215 
L 306.00197 28.196215 
L 309.530824 28.196215 
L 313.059678 28.196215 
L 316.588531 28.196215 
L 320.117385 28.196215 
L 323.646239 28.196215 
L 327.175093 28.196215 
L 330.703946 28.196215 
L 334.2328 28.196215 
L 337.761654 28.196215 
L 341.290508 28.196215 
L 344.819361 31.449139 
L 344.819361 28.196215 
L 348.348215 31.40898 
L 351.877069 31.3698 
L 355.405923 31.331564 
L 358.934776 31.294238 
L 362.46363 31.257791 
L 365.992484 31.222191 
L 369.521338 31.18741 
L 373.050191 31.153419 
L 376.579045 31.120192 
L 380.107899 33.915642 
L 380.107899 31.087703 
L 383.636753 39.269999 
L 383.636753 36.590858 
L 383.636753 33.853474 
L 387.165606 46.784352 
L 387.165606 44.293158 
L 387.165606 41.750065 
L 387.165606 39.153433 
L 390.69446 46.596593 
" style="fill:none;stroke:#33a02c;stroke-linecap:round;"/>
   </g>
   <g id="line2d_24">
    <path clip-path="url(#p456fe7deac)" d="M 66.039915 28.196215 
L 305.665889 28.196215 
L 308.242512 30.93552 
L 308.242512 28.196215 
L 310.819136 30.906985 
L 367.50485 30.401588 
L 382.96459 30.294876 
L 385.541213 56.279011 
L 385.541213 30.278087 
L 388.117837 145.758025 
L 388.117837 141.239 
L 388.117837 56.07842 
L 390.69446 145.244655 
L 390.69446 145.244655 
" style="fill:none;stroke:#b2df8a;stroke-linecap:round;"/>
   </g>
   <g id="line2d_25">
    <path clip-path="url(#p456fe7deac)" d="M 66.039915 28.196215 
L 340.360422 28.196215 
L 342.877124 30.540665 
L 342.877124 28.196215 
L 345.393826 30.519733 
L 373.077547 30.311938 
L 375.594249 32.359958 
L 375.594249 30.294876 
L 378.110951 32.326912 
L 390.69446 32.169252 
L 390.69446 32.169252 
" style="fill:none;stroke:#a6cee3;stroke-linecap:round;"/>
   </g>
   <g id="line2d_26">
    <path clip-path="url(#p456fe7deac)" d="M 66.039915 28.196215 
L 68.99132 28.196215 
L 71.942725 28.196215 
L 74.89413 28.196215 
L 77.845535 28.196215 
L 80.79694 28.196215 
L 83.748345 28.196215 
L 86.699749 28.196215 
L 89.651154 28.196215 
L 92.602559 28.196215 
L 95.553964 28.196215 
L 98.505369 28.196215 
L 101.456774 28.196215 
L 104.408179 28.196215 
L 107.359584 28.196215 
L 110.310989 28.196215 
L 113.262394 28.196215 
L 116.213799 28.196215 
L 119.165204 28.196215 
L 122.116609 28.196215 
L 125.068014 28.196215 
L 128.019419 28.196215 
L 130.970824 28.196215 
L 133.922229 28.196215 
L 136.873634 28.196215 
L 139.825039 28.196215 
L 142.776444 28.196215 
L 145.727849 28.196215 
L 148.679254 28.196215 
L 151.630659 28.196215 
L 157.533468 28.196215 
L 160.484873 28.196215 
L 163.436278 28.196215 
L 166.387683 28.196215 
L 169.339088 28.196215 
L 172.290493 28.196215 
L 175.241898 28.196215 
L 178.193303 28.196215 
L 181.144708 28.196215 
L 184.096113 28.196215 
L 187.047518 28.196215 
L 189.998923 28.196215 
L 192.950328 28.196215 
L 195.901733 28.196215 
L 201.804543 28.196215 
L 204.755948 28.196215 
L 207.707353 28.196215 
L 210.658758 28.196215 
L 213.610163 28.196215 
L 216.561568 28.196215 
L 219.512973 28.196215 
L 222.464378 28.196215 
L 225.415783 28.196215 
L 228.367188 28.196215 
L 231.318592 28.196215 
L 234.269997 28.196215 
L 237.221402 28.196215 
L 240.172807 28.196215 
L 243.124212 28.196215 
L 246.075617 28.196215 
L 249.027022 28.196215 
L 251.978427 28.196215 
L 254.929832 28.196215 
L 257.881237 28.196215 
L 260.832642 28.196215 
L 263.784047 28.196215 
L 266.735452 28.196215 
L 269.686857 28.196215 
L 272.638262 28.196215 
L 275.589667 28.196215 
L 278.541072 28.196215 
L 281.492477 28.196215 
L 284.443882 28.196215 
L 287.395287 28.196215 
L 290.346692 28.196215 
L 293.298097 28.196215 
L 296.249502 28.196215 
L 299.200907 28.196215 
L 302.152311 28.196215 
L 305.103716 28.196215 
L 308.055121 28.196215 
L 311.006526 28.196215 
L 313.957931 28.196215 
L 316.909336 28.196215 
L 319.860741 28.196215 
L 322.812146 28.196215 
L 325.763551 28.196215 
L 328.714956 28.196215 
L 331.666361 28.196215 
L 334.617766 28.196215 
L 337.569171 28.196215 
L 340.520576 28.196215 
L 343.471981 28.196215 
L 346.423386 28.196215 
L 349.374791 28.196215 
L 352.326196 28.196215 
L 355.277601 28.196215 
L 358.229006 28.196215 
L 361.180411 28.196215 
L 364.131816 28.196215 
L 367.083221 28.196215 
L 370.034626 28.196215 
L 372.98603 28.196215 
L 375.937435 28.196215 
L 378.88884 28.196215 
L 381.840245 28.196215 
L 384.79165 28.196215 
L 387.743055 28.196215 
L 390.69446 28.196215 
" style="fill:none;stroke:#1f78b4;stroke-linecap:round;"/>
   </g>
   <g id="line2d_27"/>
   <g id="line2d_28"/>
   <g id="line2d_29"/>
   <g id="line2d_30"/>
   <g id="line2d_31"/>
   <g id="line2d_32"/>
   <g id="line2d_33"/>
   <g id="line2d_34"/>
   <g id="line2d_35"/>
   <g id="line2d_36"/>
   <g id="line2d_37"/>
   <g id="line2d_38"/>
   <g id="line2d_39"/>
   <g id="line2d_40"/>
   <g id="patch_3">
    <path d="M 49.807187 288.430125 
L 49.807187 22.318125 
" style="fill:none;stroke:#cccccc;stroke-linecap:square;stroke-linejoin:miter;stroke-width:1.25;"/>
   </g>
   <g id="patch_4">
    <path d="M 406.927188 288.430125 
L 406.927188 22.318125 
" style="fill:none;stroke:#cccccc;stroke-linecap:square;stroke-linejoin:miter;stroke-width:1.25;"/>
   </g>
   <g id="patch_5">
    <path d="M 49.807187 288.430125 
L 406.927188 288.430125 
" style="fill:none;stroke:#cccccc;stroke-linecap:square;stroke-linejoin:miter;stroke-width:1.25;"/>
   </g>
   <g id="patch_6">
    <path d="M 49.807187 22.318125 
L 406.927188 22.318125 
" style="fill:none;stroke:#cccccc;stroke-linecap:square;stroke-linejoin:miter;stroke-width:1.25;"/>
   </g>
   <g id="text_15">
    <!-- Precision recall curve for each class -->
    <defs>
     <path id="DejaVuSans-32"/>
     <path d="M 8.5 21.578125 
L 8.5 54.6875 
L 17.484375 54.6875 
L 17.484375 21.921875 
Q 17.484375 14.15625 20.5 10.265625 
Q 23.53125 6.390625 29.59375 6.390625 
Q 36.859375 6.390625 41.078125 11.03125 
Q 45.3125 15.671875 45.3125 23.6875 
L 45.3125 54.6875 
L 54.296875 54.6875 
L 54.296875 0 
L 45.3125 0 
L 45.3125 8.40625 
Q 42.046875 3.421875 37.71875 1 
Q 33.40625 -1.421875 27.6875 -1.421875 
Q 18.265625 -1.421875 13.375 4.4375 
Q 8.5 10.296875 8.5 21.578125 
z
M 31.109375 56 
z
" id="DejaVuSans-117"/>
     <path d="M 2.984375 54.6875 
L 12.5 54.6875 
L 29.59375 8.796875 
L 46.6875 54.6875 
L 56.203125 54.6875 
L 35.6875 0 
L 23.484375 0 
z
" id="DejaVuSans-118"/>
     <path d="M 37.109375 75.984375 
L 37.109375 68.5 
L 28.515625 68.5 
Q 23.6875 68.5 21.796875 66.546875 
Q 19.921875 64.59375 19.921875 59.515625 
L 19.921875 54.6875 
L 34.71875 54.6875 
L 34.71875 47.703125 
L 19.921875 47.703125 
L 19.921875 0 
L 10.890625 0 
L 10.890625 47.703125 
L 2.296875 47.703125 
L 2.296875 54.6875 
L 10.890625 54.6875 
L 10.890625 58.5 
Q 10.890625 67.625 15.140625 71.796875 
Q 19.390625 75.984375 28.609375 75.984375 
z
" id="DejaVuSans-102"/>
     <path d="M 54.890625 33.015625 
L 54.890625 0 
L 45.90625 0 
L 45.90625 32.71875 
Q 45.90625 40.484375 42.875 44.328125 
Q 39.84375 48.1875 33.796875 48.1875 
Q 26.515625 48.1875 22.3125 43.546875 
Q 18.109375 38.921875 18.109375 30.90625 
L 18.109375 0 
L 9.078125 0 
L 9.078125 75.984375 
L 18.109375 75.984375 
L 18.109375 46.1875 
Q 21.34375 51.125 25.703125 53.5625 
Q 30.078125 56 35.796875 56 
Q 45.21875 56 50.046875 50.171875 
Q 54.890625 44.34375 54.890625 33.015625 
z
" id="DejaVuSans-104"/>
    </defs>
    <g style="fill:#262626;" transform="translate(120.935313 16.318125)scale(0.12 -0.12)">
     <use xlink:href="#DejaVuSans-80"/>
     <use x="60.287109" xlink:href="#DejaVuSans-114"/>
     <use x="101.369141" xlink:href="#DejaVuSans-101"/>
     <use x="162.892578" xlink:href="#DejaVuSans-99"/>
     <use x="217.873047" xlink:href="#DejaVuSans-105"/>
     <use x="245.65625" xlink:href="#DejaVuSans-115"/>
     <use x="297.755859" xlink:href="#DejaVuSans-105"/>
     <use x="325.539062" xlink:href="#DejaVuSans-111"/>
     <use x="386.720703" xlink:href="#DejaVuSans-110"/>
     <use x="450.099609" xlink:href="#DejaVuSans-32"/>
     <use x="481.886719" xlink:href="#DejaVuSans-114"/>
     <use x="522.96875" xlink:href="#DejaVuSans-101"/>
     <use x="584.492188" xlink:href="#DejaVuSans-99"/>
     <use x="639.472656" xlink:href="#DejaVuSans-97"/>
     <use x="700.751953" xlink:href="#DejaVuSans-108"/>
     <use x="728.535156" xlink:href="#DejaVuSans-108"/>
     <use x="756.318359" xlink:href="#DejaVuSans-32"/>
     <use x="788.105469" xlink:href="#DejaVuSans-99"/>
     <use x="843.085938" xlink:href="#DejaVuSans-117"/>
     <use x="906.464844" xlink:href="#DejaVuSans-114"/>
     <use x="947.578125" xlink:href="#DejaVuSans-118"/>
     <use x="1006.757812" xlink:href="#DejaVuSans-101"/>
     <use x="1068.28125" xlink:href="#DejaVuSans-32"/>
     <use x="1100.068359" xlink:href="#DejaVuSans-102"/>
     <use x="1135.273438" xlink:href="#DejaVuSans-111"/>
     <use x="1196.455078" xlink:href="#DejaVuSans-114"/>
     <use x="1237.568359" xlink:href="#DejaVuSans-32"/>
     <use x="1269.355469" xlink:href="#DejaVuSans-101"/>
     <use x="1330.878906" xlink:href="#DejaVuSans-97"/>
     <use x="1392.158203" xlink:href="#DejaVuSans-99"/>
     <use x="1447.138672" xlink:href="#DejaVuSans-104"/>
     <use x="1510.517578" xlink:href="#DejaVuSans-32"/>
     <use x="1542.304688" xlink:href="#DejaVuSans-99"/>
     <use x="1597.285156" xlink:href="#DejaVuSans-108"/>
     <use x="1625.068359" xlink:href="#DejaVuSans-97"/>
     <use x="1686.347656" xlink:href="#DejaVuSans-115"/>
     <use x="1738.447266" xlink:href="#DejaVuSans-115"/>
    </g>
   </g>
   <g id="legend_1">
    <g id="patch_7">
     <path d="M 426.983187 268.775 
L 502.175063 268.775 
Q 504.375063 268.775 504.375063 266.575 
L 504.375063 24.518125 
Q 504.375063 22.318125 502.175063 22.318125 
L 426.983187 22.318125 
Q 424.783187 22.318125 424.783187 24.518125 
L 424.783187 266.575 
Q 424.783187 268.775 426.983187 268.775 
z
" style="fill:#ffffff;opacity:0.8;stroke:#cccccc;stroke-linejoin:miter;"/>
    </g>
    <g id="text_16">
     <!-- Class -->
     <defs>
      <path d="M 64.40625 67.28125 
L 64.40625 56.890625 
Q 59.421875 61.53125 53.78125 63.8125 
Q 48.140625 66.109375 41.796875 66.109375 
Q 29.296875 66.109375 22.65625 58.46875 
Q 16.015625 50.828125 16.015625 36.375 
Q 16.015625 21.96875 22.65625 14.328125 
Q 29.296875 6.6875 41.796875 6.6875 
Q 48.140625 6.6875 53.78125 8.984375 
Q 59.421875 11.28125 64.40625 15.921875 
L 64.40625 5.609375 
Q 59.234375 2.09375 53.4375 0.328125 
Q 47.65625 -1.421875 41.21875 -1.421875 
Q 24.65625 -1.421875 15.125 8.703125 
Q 5.609375 18.84375 5.609375 36.375 
Q 5.609375 53.953125 15.125 64.078125 
Q 24.65625 74.21875 41.21875 74.21875 
Q 47.75 74.21875 53.53125 72.484375 
Q 59.328125 70.75 64.40625 67.28125 
z
" id="DejaVuSans-67"/>
     </defs>
     <g style="fill:#262626;" transform="translate(448.794437 35.83625)scale(0.12 -0.12)">
      <use xlink:href="#DejaVuSans-67"/>
      <use x="69.824219" xlink:href="#DejaVuSans-108"/>
      <use x="97.607422" xlink:href="#DejaVuSans-97"/>
      <use x="158.886719" xlink:href="#DejaVuSans-115"/>
      <use x="210.986328" xlink:href="#DejaVuSans-115"/>
     </g>
    </g>
    <g id="line2d_41">
     <path d="M 429.183187 48.340156 
L 451.183187 48.340156 
" style="fill:none;stroke:#000000;stroke-linecap:round;stroke-width:1.5;"/>
    </g>
    <g id="line2d_42"/>
    <g id="text_17">
     <!-- Normal -->
     <defs>
      <path d="M 9.8125 72.90625 
L 23.09375 72.90625 
L 55.421875 11.921875 
L 55.421875 72.90625 
L 64.984375 72.90625 
L 64.984375 0 
L 51.703125 0 
L 19.390625 60.984375 
L 19.390625 0 
L 9.8125 0 
z
" id="DejaVuSans-78"/>
      <path d="M 52 44.1875 
Q 55.375 50.25 60.0625 53.125 
Q 64.75 56 71.09375 56 
Q 79.640625 56 84.28125 50.015625 
Q 88.921875 44.046875 88.921875 33.015625 
L 88.921875 0 
L 79.890625 0 
L 79.890625 32.71875 
Q 79.890625 40.578125 77.09375 44.375 
Q 74.3125 48.1875 68.609375 48.1875 
Q 61.625 48.1875 57.5625 43.546875 
Q 53.515625 38.921875 53.515625 30.90625 
L 53.515625 0 
L 44.484375 0 
L 44.484375 32.71875 
Q 44.484375 40.625 41.703125 44.40625 
Q 38.921875 48.1875 33.109375 48.1875 
Q 26.21875 48.1875 22.15625 43.53125 
Q 18.109375 38.875 18.109375 30.90625 
L 18.109375 0 
L 9.078125 0 
L 9.078125 54.6875 
L 18.109375 54.6875 
L 18.109375 46.1875 
Q 21.1875 51.21875 25.484375 53.609375 
Q 29.78125 56 35.6875 56 
Q 41.65625 56 45.828125 52.96875 
Q 50 49.953125 52 44.1875 
z
" id="DejaVuSans-109"/>
     </defs>
     <g style="fill:#262626;" transform="translate(459.983187 52.190156)scale(0.11 -0.11)">
      <use xlink:href="#DejaVuSans-78"/>
      <use x="74.804688" xlink:href="#DejaVuSans-111"/>
      <use x="135.986328" xlink:href="#DejaVuSans-114"/>
      <use x="177.083984" xlink:href="#DejaVuSans-109"/>
      <use x="274.496094" xlink:href="#DejaVuSans-97"/>
      <use x="335.775391" xlink:href="#DejaVuSans-108"/>
     </g>
    </g>
    <g id="line2d_43">
     <path d="M 429.183187 64.486094 
L 451.183187 64.486094 
" style="fill:none;stroke:#6e6e6e;stroke-linecap:round;stroke-width:1.5;"/>
    </g>
    <g id="line2d_44"/>
    <g id="text_18">
     <!-- BLCA -->
     <defs>
      <path d="M 19.671875 34.8125 
L 19.671875 8.109375 
L 35.5 8.109375 
Q 43.453125 8.109375 47.28125 11.40625 
Q 51.125 14.703125 51.125 21.484375 
Q 51.125 28.328125 47.28125 31.5625 
Q 43.453125 34.8125 35.5 34.8125 
z
M 19.671875 64.796875 
L 19.671875 42.828125 
L 34.28125 42.828125 
Q 41.5 42.828125 45.03125 45.53125 
Q 48.578125 48.25 48.578125 53.8125 
Q 48.578125 59.328125 45.03125 62.0625 
Q 41.5 64.796875 34.28125 64.796875 
z
M 9.8125 72.90625 
L 35.015625 72.90625 
Q 46.296875 72.90625 52.390625 68.21875 
Q 58.5 63.53125 58.5 54.890625 
Q 58.5 48.1875 55.375 44.234375 
Q 52.25 40.28125 46.1875 39.3125 
Q 53.46875 37.75 57.5 32.78125 
Q 61.53125 27.828125 61.53125 20.40625 
Q 61.53125 10.640625 54.890625 5.3125 
Q 48.25 0 35.984375 0 
L 9.8125 0 
z
" id="DejaVuSans-66"/>
      <path d="M 9.8125 72.90625 
L 19.671875 72.90625 
L 19.671875 8.296875 
L 55.171875 8.296875 
L 55.171875 0 
L 9.8125 0 
z
" id="DejaVuSans-76"/>
      <path d="M 34.1875 63.1875 
L 20.796875 26.90625 
L 47.609375 26.90625 
z
M 28.609375 72.90625 
L 39.796875 72.90625 
L 67.578125 0 
L 57.328125 0 
L 50.6875 18.703125 
L 17.828125 18.703125 
L 11.1875 0 
L 0.78125 0 
z
" id="DejaVuSans-65"/>
     </defs>
     <g style="fill:#262626;" transform="translate(459.983187 68.336094)scale(0.11 -0.11)">
      <use xlink:href="#DejaVuSans-66"/>
      <use x="68.603516" xlink:href="#DejaVuSans-76"/>
      <use x="124.316406" xlink:href="#DejaVuSans-67"/>
      <use x="194.140625" xlink:href="#DejaVuSans-65"/>
     </g>
    </g>
    <g id="line2d_45">
     <path d="M 429.183187 80.632031 
L 451.183187 80.632031 
" style="fill:none;stroke:#b15928;stroke-linecap:round;stroke-width:1.5;"/>
    </g>
    <g id="line2d_46"/>
    <g id="text_19">
     <!-- BRCA -->
     <g style="fill:#262626;" transform="translate(459.983187 84.482031)scale(0.11 -0.11)">
      <use xlink:href="#DejaVuSans-66"/>
      <use x="68.603516" xlink:href="#DejaVuSans-82"/>
      <use x="138.007812" xlink:href="#DejaVuSans-67"/>
      <use x="207.832031" xlink:href="#DejaVuSans-65"/>
     </g>
    </g>
    <g id="line2d_47">
     <path d="M 429.183187 96.777969 
L 451.183187 96.777969 
" style="fill:none;stroke:#ffff99;stroke-linecap:round;stroke-width:1.5;"/>
    </g>
    <g id="line2d_48"/>
    <g id="text_20">
     <!-- COAD -->
     <defs>
      <path d="M 39.40625 66.21875 
Q 28.65625 66.21875 22.328125 58.203125 
Q 16.015625 50.203125 16.015625 36.375 
Q 16.015625 22.609375 22.328125 14.59375 
Q 28.65625 6.59375 39.40625 6.59375 
Q 50.140625 6.59375 56.421875 14.59375 
Q 62.703125 22.609375 62.703125 36.375 
Q 62.703125 50.203125 56.421875 58.203125 
Q 50.140625 66.21875 39.40625 66.21875 
z
M 39.40625 74.21875 
Q 54.734375 74.21875 63.90625 63.9375 
Q 73.09375 53.65625 73.09375 36.375 
Q 73.09375 19.140625 63.90625 8.859375 
Q 54.734375 -1.421875 39.40625 -1.421875 
Q 24.03125 -1.421875 14.8125 8.828125 
Q 5.609375 19.09375 5.609375 36.375 
Q 5.609375 53.65625 14.8125 63.9375 
Q 24.03125 74.21875 39.40625 74.21875 
z
" id="DejaVuSans-79"/>
      <path d="M 19.671875 64.796875 
L 19.671875 8.109375 
L 31.59375 8.109375 
Q 46.6875 8.109375 53.6875 14.9375 
Q 60.6875 21.78125 60.6875 36.53125 
Q 60.6875 51.171875 53.6875 57.984375 
Q 46.6875 64.796875 31.59375 64.796875 
z
M 9.8125 72.90625 
L 30.078125 72.90625 
Q 51.265625 72.90625 61.171875 64.09375 
Q 71.09375 55.28125 71.09375 36.53125 
Q 71.09375 17.671875 61.125 8.828125 
Q 51.171875 0 30.078125 0 
L 9.8125 0 
z
" id="DejaVuSans-68"/>
     </defs>
     <g style="fill:#262626;" transform="translate(459.983187 100.627969)scale(0.11 -0.11)">
      <use xlink:href="#DejaVuSans-67"/>
      <use x="69.824219" xlink:href="#DejaVuSans-79"/>
      <use x="148.519531" xlink:href="#DejaVuSans-65"/>
      <use x="216.927734" xlink:href="#DejaVuSans-68"/>
     </g>
    </g>
    <g id="line2d_49">
     <path d="M 429.183187 112.923906 
L 451.183187 112.923906 
" style="fill:none;stroke:#6a3d9a;stroke-linecap:round;stroke-width:1.5;"/>
    </g>
    <g id="line2d_50"/>
    <g id="text_21">
     <!-- ESCA -->
     <defs>
      <path d="M 9.8125 72.90625 
L 55.90625 72.90625 
L 55.90625 64.59375 
L 19.671875 64.59375 
L 19.671875 43.015625 
L 54.390625 43.015625 
L 54.390625 34.71875 
L 19.671875 34.71875 
L 19.671875 8.296875 
L 56.78125 8.296875 
L 56.78125 0 
L 9.8125 0 
z
" id="DejaVuSans-69"/>
      <path d="M 53.515625 70.515625 
L 53.515625 60.890625 
Q 47.90625 63.578125 42.921875 64.890625 
Q 37.9375 66.21875 33.296875 66.21875 
Q 25.25 66.21875 20.875 63.09375 
Q 16.5 59.96875 16.5 54.203125 
Q 16.5 49.359375 19.40625 46.890625 
Q 22.3125 44.4375 30.421875 42.921875 
L 36.375 41.703125 
Q 47.40625 39.59375 52.65625 34.296875 
Q 57.90625 29 57.90625 20.125 
Q 57.90625 9.515625 50.796875 4.046875 
Q 43.703125 -1.421875 29.984375 -1.421875 
Q 24.8125 -1.421875 18.96875 -0.25 
Q 13.140625 0.921875 6.890625 3.21875 
L 6.890625 13.375 
Q 12.890625 10.015625 18.65625 8.296875 
Q 24.421875 6.59375 29.984375 6.59375 
Q 38.421875 6.59375 43.015625 9.90625 
Q 47.609375 13.234375 47.609375 19.390625 
Q 47.609375 24.75 44.3125 27.78125 
Q 41.015625 30.8125 33.5 32.328125 
L 27.484375 33.5 
Q 16.453125 35.6875 11.515625 40.375 
Q 6.59375 45.0625 6.59375 53.421875 
Q 6.59375 63.09375 13.40625 68.65625 
Q 20.21875 74.21875 32.171875 74.21875 
Q 37.3125 74.21875 42.625 73.28125 
Q 47.953125 72.359375 53.515625 70.515625 
z
" id="DejaVuSans-83"/>
     </defs>
     <g style="fill:#262626;" transform="translate(459.983187 116.773906)scale(0.11 -0.11)">
      <use xlink:href="#DejaVuSans-69"/>
      <use x="63.183594" xlink:href="#DejaVuSans-83"/>
      <use x="126.660156" xlink:href="#DejaVuSans-67"/>
      <use x="196.484375" xlink:href="#DejaVuSans-65"/>
     </g>
    </g>
    <g id="line2d_51">
     <path d="M 429.183187 129.069844 
L 451.183187 129.069844 
" style="fill:none;stroke:#cab2d6;stroke-linecap:round;stroke-width:1.5;"/>
    </g>
    <g id="line2d_52"/>
    <g id="text_22">
     <!-- HNSC -->
     <defs>
      <path d="M 9.8125 72.90625 
L 19.671875 72.90625 
L 19.671875 43.015625 
L 55.515625 43.015625 
L 55.515625 72.90625 
L 65.375 72.90625 
L 65.375 0 
L 55.515625 0 
L 55.515625 34.71875 
L 19.671875 34.71875 
L 19.671875 0 
L 9.8125 0 
z
" id="DejaVuSans-72"/>
     </defs>
     <g style="fill:#262626;" transform="translate(459.983187 132.919844)scale(0.11 -0.11)">
      <use xlink:href="#DejaVuSans-72"/>
      <use x="75.195312" xlink:href="#DejaVuSans-78"/>
      <use x="150" xlink:href="#DejaVuSans-83"/>
      <use x="213.476562" xlink:href="#DejaVuSans-67"/>
     </g>
    </g>
    <g id="line2d_53">
     <path d="M 429.183187 145.215781 
L 451.183187 145.215781 
" style="fill:none;stroke:#ff7f00;stroke-linecap:round;stroke-width:1.5;"/>
    </g>
    <g id="line2d_54"/>
    <g id="text_23">
     <!-- KIRC -->
     <defs>
      <path d="M 9.8125 72.90625 
L 19.671875 72.90625 
L 19.671875 42.09375 
L 52.390625 72.90625 
L 65.09375 72.90625 
L 28.90625 38.921875 
L 67.671875 0 
L 54.6875 0 
L 19.671875 35.109375 
L 19.671875 0 
L 9.8125 0 
z
" id="DejaVuSans-75"/>
      <path d="M 9.8125 72.90625 
L 19.671875 72.90625 
L 19.671875 0 
L 9.8125 0 
z
" id="DejaVuSans-73"/>
     </defs>
     <g style="fill:#262626;" transform="translate(459.983187 149.065781)scale(0.11 -0.11)">
      <use xlink:href="#DejaVuSans-75"/>
      <use x="65.576172" xlink:href="#DejaVuSans-73"/>
      <use x="95.068359" xlink:href="#DejaVuSans-82"/>
      <use x="164.472656" xlink:href="#DejaVuSans-67"/>
     </g>
    </g>
    <g id="line2d_55">
     <path d="M 429.183187 161.361719 
L 451.183187 161.361719 
" style="fill:none;stroke:#fdbf6f;stroke-linecap:round;stroke-width:1.5;"/>
    </g>
    <g id="line2d_56"/>
    <g id="text_24">
     <!-- KIRP -->
     <g style="fill:#262626;" transform="translate(459.983187 165.211719)scale(0.11 -0.11)">
      <use xlink:href="#DejaVuSans-75"/>
      <use x="65.576172" xlink:href="#DejaVuSans-73"/>
      <use x="95.068359" xlink:href="#DejaVuSans-82"/>
      <use x="164.550781" xlink:href="#DejaVuSans-80"/>
     </g>
    </g>
    <g id="line2d_57">
     <path d="M 429.183187 177.507656 
L 451.183187 177.507656 
" style="fill:none;stroke:#e31a1c;stroke-linecap:round;stroke-width:1.5;"/>
    </g>
    <g id="line2d_58"/>
    <g id="text_25">
     <!-- LIHC -->
     <g style="fill:#262626;" transform="translate(459.983187 181.357656)scale(0.11 -0.11)">
      <use xlink:href="#DejaVuSans-76"/>
      <use x="55.712891" xlink:href="#DejaVuSans-73"/>
      <use x="85.205078" xlink:href="#DejaVuSans-72"/>
      <use x="160.400391" xlink:href="#DejaVuSans-67"/>
     </g>
    </g>
    <g id="line2d_59">
     <path d="M 429.183187 193.653594 
L 451.183187 193.653594 
" style="fill:none;stroke:#fb9a99;stroke-linecap:round;stroke-width:1.5;"/>
    </g>
    <g id="line2d_60"/>
    <g id="text_26">
     <!-- LUAD -->
     <defs>
      <path d="M 8.6875 72.90625 
L 18.609375 72.90625 
L 18.609375 28.609375 
Q 18.609375 16.890625 22.84375 11.734375 
Q 27.09375 6.59375 36.625 6.59375 
Q 46.09375 6.59375 50.34375 11.734375 
Q 54.59375 16.890625 54.59375 28.609375 
L 54.59375 72.90625 
L 64.5 72.90625 
L 64.5 27.390625 
Q 64.5 13.140625 57.4375 5.859375 
Q 50.390625 -1.421875 36.625 -1.421875 
Q 22.796875 -1.421875 15.734375 5.859375 
Q 8.6875 13.140625 8.6875 27.390625 
z
" id="DejaVuSans-85"/>
     </defs>
     <g style="fill:#262626;" transform="translate(459.983187 197.503594)scale(0.11 -0.11)">
      <use xlink:href="#DejaVuSans-76"/>
      <use x="55.634766" xlink:href="#DejaVuSans-85"/>
      <use x="128.828125" xlink:href="#DejaVuSans-65"/>
      <use x="197.236328" xlink:href="#DejaVuSans-68"/>
     </g>
    </g>
    <g id="line2d_61">
     <path d="M 429.183187 209.799531 
L 451.183187 209.799531 
" style="fill:none;stroke:#33a02c;stroke-linecap:round;stroke-width:1.5;"/>
    </g>
    <g id="line2d_62"/>
    <g id="text_27">
     <!-- LUSC -->
     <g style="fill:#262626;" transform="translate(459.983187 213.649531)scale(0.11 -0.11)">
      <use xlink:href="#DejaVuSans-76"/>
      <use x="55.634766" xlink:href="#DejaVuSans-85"/>
      <use x="128.828125" xlink:href="#DejaVuSans-83"/>
      <use x="192.304688" xlink:href="#DejaVuSans-67"/>
     </g>
    </g>
    <g id="line2d_63">
     <path d="M 429.183187 225.945469 
L 451.183187 225.945469 
" style="fill:none;stroke:#b2df8a;stroke-linecap:round;stroke-width:1.5;"/>
    </g>
    <g id="line2d_64"/>
    <g id="text_28">
     <!-- PRAD -->
     <g style="fill:#262626;" transform="translate(459.983187 229.795469)scale(0.11 -0.11)">
      <use xlink:href="#DejaVuSans-80"/>
      <use x="60.302734" xlink:href="#DejaVuSans-82"/>
      <use x="129.722656" xlink:href="#DejaVuSans-65"/>
      <use x="198.130859" xlink:href="#DejaVuSans-68"/>
     </g>
    </g>
    <g id="line2d_65">
     <path d="M 429.183187 242.091406 
L 451.183187 242.091406 
" style="fill:none;stroke:#a6cee3;stroke-linecap:round;stroke-width:1.5;"/>
    </g>
    <g id="line2d_66"/>
    <g id="text_29">
     <!-- THCA -->
     <defs>
      <path d="M -0.296875 72.90625 
L 61.375 72.90625 
L 61.375 64.59375 
L 35.5 64.59375 
L 35.5 0 
L 25.59375 0 
L 25.59375 64.59375 
L -0.296875 64.59375 
z
" id="DejaVuSans-84"/>
     </defs>
     <g style="fill:#262626;" transform="translate(459.983187 245.941406)scale(0.11 -0.11)">
      <use xlink:href="#DejaVuSans-84"/>
      <use x="61.083984" xlink:href="#DejaVuSans-72"/>
      <use x="136.279297" xlink:href="#DejaVuSans-67"/>
      <use x="206.103516" xlink:href="#DejaVuSans-65"/>
     </g>
    </g>
    <g id="line2d_67">
     <path d="M 429.183187 258.237344 
L 451.183187 258.237344 
" style="fill:none;stroke:#1f78b4;stroke-linecap:round;stroke-width:1.5;"/>
    </g>
    <g id="line2d_68"/>
    <g id="text_30">
     <!-- UCEC -->
     <g style="fill:#262626;" transform="translate(459.983187 262.087344)scale(0.11 -0.11)">
      <use xlink:href="#DejaVuSans-85"/>
      <use x="73.193359" xlink:href="#DejaVuSans-67"/>
      <use x="143.017578" xlink:href="#DejaVuSans-69"/>
      <use x="206.201172" xlink:href="#DejaVuSans-67"/>
     </g>
    </g>
   </g>
  </g>
 </g>
 <defs>
  <clipPath id="p456fe7deac">
   <rect height="266.112" width="357.12" x="49.807187" y="22.318125"/>
  </clipPath>
 </defs>
</svg>
